{"t":0,"type":"session_start","v":1,"wall_unix":1779775457,"patch":{"osc1_wave":0.0,"osc1_detune":-9.0,"osc1_level":0.7,"osc2_wave":0.0,"osc2_detune":9.0,"osc2_level":0.7,"osc2_octave":0.0,"sub_level":0.8,"noise_level":0.0,"filter_cutoff":0.28,"filter_resonance":0.45,"filter_env_amount":0.55,"filter_drive":0.6,"filter_keytrack":0.25,"amp_a":0.002,"amp_d":0.4,"amp_s":0.55,"amp_r":0.15,"fenv_a":0.002,"fenv_d":0.18,"fenv_s":0.1,"fenv_r":0.15,"lfo_rate":2.0,"lfo_to_cutoff":0.0,"lfo_to_pitch":0.0,"master_volume":0.6,"master_drive":0.35,"glide":0.0,"mono":1.0,"chord_type":0.0,"arp_enabled":0.0,"arp_pattern":0.0,"arp_rate":6.0,"arp_gate":0.5,"arp_octaves":1.0,"dist_enabled":0.0,"dist_type":0.0,"dist_drive":0.3,"dist_tone":0.7,"dist_mix":1.0,"comp_enabled":0.0,"comp_xover_low":200.0,"comp_xover_high":2000.0,"comp_threshold":-18.0,"comp_ratio":4.0,"comp_attack":0.005,"comp_release":0.1,"comp_gain_low":0.0,"comp_gain_mid":0.0,"comp_gain_high":0.0,"comp_upward_ratio":1.0,"comp_upward_range":12.0}}
{"t":45698,"type":"note_on","id":1,"ch":0,"note":48,"vel":0.85}
{"t":45882,"type":"note_off","id":1,"ch":0,"note":48}
{"t":46042,"type":"note_on","id":2,"ch":0,"note":48,"vel":0.85}
{"t":46282,"type":"note_off","id":2,"ch":0,"note":48}
{"t":46386,"type":"note_on","id":3,"ch":0,"note":48,"vel":0.85}
{"t":46562,"type":"note_off","id":3,"ch":0,"note":48}
{"t":46722,"type":"note_on","id":4,"ch":0,"note":48,"vel":0.85}
{"t":46914,"type":"note_off","id":4,"ch":0,"note":48}
{"t":47074,"type":"note_on","id":5,"ch":0,"note":48,"vel":0.85}
{"t":47258,"type":"note_off","id":5,"ch":0,"note":48}
{"t":95423,"type":"note_on","id":6,"ch":0,"note":66,"vel":0.8}
{"t":96551,"type":"note_off","id":6,"ch":0,"note":66}
{"t":97230,"type":"note_on","id":7,"ch":0,"note":66,"vel":0.8}
{"t":98366,"type":"note_off","id":7,"ch":0,"note":66}
{"t":99047,"type":"note_on","id":8,"ch":0,"note":66,"vel":0.8}
{"t":100182,"type":"note_off","id":8,"ch":0,"note":66}
{"t":102679,"type":"note_on","id":9,"ch":0,"note":66,"vel":0.8}
{"t":103193,"type":"note_off","id":9,"ch":0,"note":66}
{"t":140758,"type":"note_on","id":10,"ch":0,"note":66,"vel":0.8}
{"t":141374,"type":"note_off","id":10,"ch":0,"note":66}
{"t":142054,"type":"note_on","id":11,"ch":0,"note":66,"vel":0.8}
{"t":143190,"type":"note_off","id":11,"ch":0,"note":66}
{"t":143686,"type":"note_on","id":12,"ch":0,"note":74,"vel":0.8}
{"t":143750,"type":"note_on","id":13,"ch":0,"note":69,"vel":0.8}
{"t":143750,"type":"note_on","id":14,"ch":0,"note":71,"vel":0.8}
{"t":143807,"type":"note_on","id":15,"ch":0,"note":67,"vel":0.8}
{"t":143822,"type":"note_off","id":12,"ch":0,"note":74}
{"t":143870,"type":"note_on","id":16,"ch":0,"note":66,"vel":0.8}
{"t":143878,"type":"note_off","id":13,"ch":0,"note":69}
{"t":143879,"type":"note_off","id":14,"ch":0,"note":71}
{"t":143942,"type":"note_off","id":15,"ch":0,"note":67}
{"t":145007,"type":"note_off","id":16,"ch":0,"note":66}
{"t":145438,"type":"note_on","id":17,"ch":0,"note":77,"vel":0.8}
{"t":145503,"type":"note_on","id":18,"ch":0,"note":74,"vel":0.8}
{"t":145558,"type":"note_on","id":19,"ch":0,"note":69,"vel":0.8}
{"t":145559,"type":"note_on","id":20,"ch":0,"note":71,"vel":0.8}
{"t":145574,"type":"note_off","id":17,"ch":0,"note":77}
{"t":145622,"type":"note_on","id":21,"ch":0,"note":67,"vel":0.8}
{"t":145631,"type":"note_off","id":18,"ch":0,"note":74}
{"t":145686,"type":"note_on","id":22,"ch":0,"note":66,"vel":0.8}
{"t":145695,"type":"note_off","id":19,"ch":0,"note":69}
{"t":145695,"type":"note_off","id":20,"ch":0,"note":71}
{"t":145759,"type":"note_off","id":21,"ch":0,"note":67}
{"t":146503,"type":"note_on","id":23,"ch":0,"note":54,"vel":0.8}
{"t":146638,"type":"note_off","id":23,"ch":0,"note":54}
{"t":146822,"type":"note_off","id":22,"ch":0,"note":66}
{"t":147254,"type":"note_on","id":24,"ch":0,"note":77,"vel":0.8}
{"t":147318,"type":"note_on","id":25,"ch":0,"note":74,"vel":0.8}
{"t":147382,"type":"note_on","id":26,"ch":0,"note":69,"vel":0.8}
{"t":147382,"type":"note_on","id":27,"ch":0,"note":71,"vel":0.8}
{"t":147390,"type":"note_off","id":24,"ch":0,"note":77}
{"t":147438,"type":"note_on","id":28,"ch":0,"note":67,"vel":0.8}
{"t":147447,"type":"note_off","id":25,"ch":0,"note":74}
{"t":147503,"type":"note_on","id":29,"ch":0,"note":66,"vel":0.8}
{"t":147511,"type":"note_off","id":26,"ch":0,"note":69}
{"t":147511,"type":"note_off","id":27,"ch":0,"note":71}
{"t":147574,"type":"note_off","id":28,"ch":0,"note":67}
{"t":147814,"type":"note_on","id":30,"ch":0,"note":57,"vel":0.8}
{"t":147942,"type":"note_on","id":31,"ch":0,"note":59,"vel":0.8}
{"t":147950,"type":"note_off","id":30,"ch":0,"note":57}
{"t":148078,"type":"note_off","id":31,"ch":0,"note":59}
{"t":148127,"type":"note_on","id":32,"ch":0,"note":58,"vel":0.8}
{"t":148262,"type":"note_off","id":32,"ch":0,"note":58}
{"t":148319,"type":"note_on","id":33,"ch":0,"note":54,"vel":0.8}
{"t":148447,"type":"note_off","id":33,"ch":0,"note":54}
{"t":148638,"type":"note_off","id":29,"ch":0,"note":66}
{"t":149070,"type":"note_on","id":34,"ch":0,"note":77,"vel":0.8}
{"t":149134,"type":"note_on","id":35,"ch":0,"note":74,"vel":0.8}
{"t":149198,"type":"note_on","id":36,"ch":0,"note":69,"vel":0.8}
{"t":149198,"type":"note_on","id":37,"ch":0,"note":71,"vel":0.8}
{"t":149207,"type":"note_off","id":34,"ch":0,"note":77}
{"t":149254,"type":"note_on","id":38,"ch":0,"note":67,"vel":0.8}
{"t":149270,"type":"note_off","id":35,"ch":0,"note":74}
{"t":149318,"type":"note_on","id":39,"ch":0,"note":66,"vel":0.8}
{"t":149327,"type":"note_off","id":36,"ch":0,"note":69}
{"t":149327,"type":"note_off","id":37,"ch":0,"note":71}
{"t":149390,"type":"note_off","id":38,"ch":0,"note":67}
{"t":149631,"type":"note_on","id":40,"ch":0,"note":57,"vel":0.8}
{"t":149759,"type":"note_on","id":41,"ch":0,"note":59,"vel":0.8}
{"t":149767,"type":"note_off","id":40,"ch":0,"note":57}
{"t":149894,"type":"note_off","id":41,"ch":0,"note":59}
{"t":149942,"type":"note_on","id":42,"ch":0,"note":58,"vel":0.8}
{"t":150079,"type":"note_off","id":42,"ch":0,"note":58}
{"t":150135,"type":"note_on","id":43,"ch":0,"note":54,"vel":0.8}
{"t":150270,"type":"note_off","id":43,"ch":0,"note":54}
{"t":150455,"type":"note_off","id":39,"ch":0,"note":66}
{"t":150566,"type":"note_on","id":44,"ch":0,"note":61,"vel":0.8}
{"t":150703,"type":"note_off","id":44,"ch":0,"note":61}
{"t":150886,"type":"note_on","id":45,"ch":0,"note":77,"vel":0.8}
{"t":150950,"type":"note_on","id":46,"ch":0,"note":74,"vel":0.8}
{"t":151007,"type":"note_on","id":47,"ch":0,"note":69,"vel":0.8}
{"t":151007,"type":"note_on","id":48,"ch":0,"note":71,"vel":0.8}
{"t":151023,"type":"note_off","id":45,"ch":0,"note":77}
{"t":151070,"type":"note_on","id":49,"ch":0,"note":67,"vel":0.8}
{"t":151078,"type":"note_off","id":46,"ch":0,"note":74}
{"t":151135,"type":"note_on","id":50,"ch":0,"note":66,"vel":0.8}
{"t":151141,"type":"note_off","id":47,"ch":0,"note":69}
{"t":151142,"type":"note_off","id":48,"ch":0,"note":71}
{"t":151206,"type":"note_off","id":49,"ch":0,"note":67}
{"t":151446,"type":"note_on","id":51,"ch":0,"note":57,"vel":0.8}
{"t":151574,"type":"note_on","id":52,"ch":0,"note":59,"vel":0.8}
{"t":151581,"type":"note_off","id":51,"ch":0,"note":57}
{"t":151720,"type":"note_off","id":52,"ch":0,"note":59}
{"t":151759,"type":"note_on","id":53,"ch":0,"note":58,"vel":0.8}
{"t":151894,"type":"note_off","id":53,"ch":0,"note":58}
{"t":151950,"type":"note_on","id":54,"ch":0,"note":54,"vel":0.8}
{"t":152070,"type":"note_on","id":55,"ch":0,"note":61,"vel":0.8}
{"t":152079,"type":"note_off","id":54,"ch":0,"note":54}
{"t":152170,"type":"note_on","id":56,"ch":0,"note":76,"vel":0.8}
{"t":152207,"type":"note_off","id":55,"ch":0,"note":61}
{"t":152270,"type":"note_off","id":50,"ch":0,"note":66}
{"t":152270,"type":"note_off","id":56,"ch":0,"note":76}
{"t":152382,"type":"note_on","id":57,"ch":0,"note":61,"vel":0.8}
{"t":152518,"type":"note_off","id":57,"ch":0,"note":61}
{"t":152703,"type":"note_on","id":58,"ch":0,"note":77,"vel":0.8}
{"t":152766,"type":"note_on","id":59,"ch":0,"note":74,"vel":0.8}
{"t":152822,"type":"note_on","id":60,"ch":0,"note":69,"vel":0.8}
{"t":152822,"type":"note_on","id":61,"ch":0,"note":71,"vel":0.8}
{"t":152838,"type":"note_off","id":58,"ch":0,"note":77}
{"t":152887,"type":"note_on","id":62,"ch":0,"note":67,"vel":0.8}
{"t":152894,"type":"note_off","id":59,"ch":0,"note":74}
{"t":152950,"type":"note_on","id":63,"ch":0,"note":66,"vel":0.8}
{"t":152958,"type":"note_off","id":60,"ch":0,"note":69}
{"t":152959,"type":"note_off","id":61,"ch":0,"note":71}
{"t":153022,"type":"note_off","id":62,"ch":0,"note":67}
{"t":153263,"type":"note_on","id":64,"ch":0,"note":57,"vel":0.8}
{"t":153390,"type":"note_on","id":65,"ch":0,"note":59,"vel":0.8}
{"t":153399,"type":"note_off","id":64,"ch":0,"note":57}
{"t":153527,"type":"note_off","id":65,"ch":0,"note":59}
{"t":153574,"type":"note_on","id":66,"ch":0,"note":58,"vel":0.8}
{"t":153710,"type":"note_off","id":66,"ch":0,"note":58}
{"t":153767,"type":"note_on","id":67,"ch":0,"note":54,"vel":0.8}
{"t":153886,"type":"note_on","id":68,"ch":0,"note":61,"vel":0.8}
{"t":153894,"type":"note_off","id":67,"ch":0,"note":54}
{"t":153950,"type":"note_on","id":69,"ch":0,"note":76,"vel":0.8}
{"t":154022,"type":"note_off","id":68,"ch":0,"note":61}
{"t":154086,"type":"note_off","id":63,"ch":0,"note":66}
{"t":154086,"type":"note_off","id":69,"ch":0,"note":76}
{"t":154198,"type":"note_on","id":70,"ch":0,"note":61,"vel":0.8}
{"t":154334,"type":"note_off","id":70,"ch":0,"note":61}
{"t":154518,"type":"note_on","id":71,"ch":0,"note":77,"vel":0.8}
{"t":154582,"type":"note_on","id":72,"ch":0,"note":74,"vel":0.8}
{"t":154638,"type":"note_on","id":73,"ch":0,"note":69,"vel":0.8}
{"t":154638,"type":"note_on","id":74,"ch":0,"note":71,"vel":0.8}
{"t":154654,"type":"note_off","id":71,"ch":0,"note":77}
{"t":154702,"type":"note_on","id":75,"ch":0,"note":67,"vel":0.8}
{"t":154718,"type":"note_off","id":72,"ch":0,"note":74}
{"t":154767,"type":"note_on","id":76,"ch":0,"note":66,"vel":0.8}
{"t":154774,"type":"note_off","id":73,"ch":0,"note":69}
{"t":154774,"type":"note_off","id":74,"ch":0,"note":71}
{"t":154830,"type":"note_on","id":77,"ch":0,"note":43,"vel":0.8}
{"t":154838,"type":"note_off","id":75,"ch":0,"note":67}
{"t":155079,"type":"note_on","id":78,"ch":0,"note":57,"vel":0.8}
{"t":155087,"type":"note_off","id":77,"ch":0,"note":43}
{"t":155206,"type":"note_on","id":79,"ch":0,"note":59,"vel":0.8}
{"t":155206,"type":"note_on","id":80,"ch":0,"note":38,"vel":0.8}
{"t":155214,"type":"note_off","id":78,"ch":0,"note":57}
{"t":155342,"type":"note_off","id":79,"ch":0,"note":59}
{"t":155390,"type":"note_on","id":81,"ch":0,"note":58,"vel":0.8}
{"t":155527,"type":"note_off","id":80,"ch":0,"note":38}
{"t":155527,"type":"note_off","id":81,"ch":0,"note":58}
{"t":155582,"type":"note_on","id":82,"ch":0,"note":54,"vel":0.8}
{"t":155703,"type":"note_on","id":83,"ch":0,"note":61,"vel":0.8}
{"t":155711,"type":"note_off","id":82,"ch":0,"note":54}
{"t":155767,"type":"note_on","id":84,"ch":0,"note":76,"vel":0.8}
{"t":155838,"type":"note_off","id":83,"ch":0,"note":61}
{"t":155904,"type":"note_off","id":76,"ch":0,"note":66}
{"t":155904,"type":"note_off","id":84,"ch":0,"note":76}
{"t":156014,"type":"note_on","id":85,"ch":0,"note":61,"vel":0.8}
{"t":156150,"type":"note_off","id":85,"ch":0,"note":61}
{"t":156334,"type":"note_on","id":86,"ch":0,"note":77,"vel":0.8}
{"t":156398,"type":"note_on","id":87,"ch":0,"note":74,"vel":0.8}
{"t":156462,"type":"note_on","id":88,"ch":0,"note":69,"vel":0.8}
{"t":156463,"type":"note_on","id":89,"ch":0,"note":71,"vel":0.8}
{"t":156470,"type":"note_off","id":86,"ch":0,"note":77}
{"t":156518,"type":"note_on","id":90,"ch":0,"note":67,"vel":0.8}
{"t":156527,"type":"note_off","id":87,"ch":0,"note":74}
{"t":156582,"type":"note_on","id":91,"ch":0,"note":66,"vel":0.8}
{"t":156583,"type":"note_on","id":92,"ch":0,"note":82,"vel":0.8}
{"t":156590,"type":"note_off","id":88,"ch":0,"note":69}
{"t":156590,"type":"note_off","id":89,"ch":0,"note":71}
{"t":156646,"type":"note_on","id":93,"ch":0,"note":43,"vel":0.8}
{"t":156653,"type":"note_off","id":90,"ch":0,"note":67}
{"t":156830,"type":"note_on","id":94,"ch":0,"note":95,"vel":0.8}
{"t":156894,"type":"note_on","id":95,"ch":0,"note":57,"vel":0.8}
{"t":156902,"type":"note_off","id":92,"ch":0,"note":82}
{"t":156902,"type":"note_off","id":93,"ch":0,"note":43}
{"t":156966,"type":"note_off","id":94,"ch":0,"note":95}
{"t":157022,"type":"note_on","id":96,"ch":0,"note":59,"vel":0.8}
{"t":157023,"type":"note_on","id":97,"ch":0,"note":38,"vel":0.8}
{"t":157030,"type":"note_off","id":95,"ch":0,"note":57}
{"t":157158,"type":"note_off","id":96,"ch":0,"note":59}
{"t":157206,"type":"note_on","id":98,"ch":0,"note":58,"vel":0.8}
{"t":157342,"type":"note_off","id":97,"ch":0,"note":38}
{"t":157343,"type":"note_off","id":98,"ch":0,"note":58}
{"t":157398,"type":"note_on","id":99,"ch":0,"note":54,"vel":0.8}
{"t":157398,"type":"note_on","id":100,"ch":0,"note":86,"vel":0.8}
{"t":157463,"type":"note_on","id":101,"ch":0,"note":101,"vel":0.8}
{"t":157487,"type":"note_off","id":101,"ch":0,"note":101}
{"t":157518,"type":"note_on","id":102,"ch":0,"note":61,"vel":0.8}
{"t":157527,"type":"note_off","id":99,"ch":0,"note":54}
{"t":157583,"type":"note_on","id":103,"ch":0,"note":76,"vel":0.8}
{"t":157590,"type":"note_off","id":100,"ch":0,"note":86}
{"t":157654,"type":"note_off","id":102,"ch":0,"note":61}
{"t":157719,"type":"note_off","id":91,"ch":0,"note":66}
{"t":157719,"type":"note_off","id":103,"ch":0,"note":76}
{"t":157830,"type":"note_on","id":104,"ch":0,"note":61,"vel":0.8}
{"t":157967,"type":"note_off","id":104,"ch":0,"note":61}
{"t":158150,"type":"note_on","id":105,"ch":0,"note":77,"vel":0.8}
{"t":158215,"type":"note_on","id":106,"ch":0,"note":74,"vel":0.8}
{"t":158278,"type":"note_on","id":107,"ch":0,"note":69,"vel":0.8}
{"t":158279,"type":"note_on","id":108,"ch":0,"note":71,"vel":0.8}
{"t":158287,"type":"note_off","id":105,"ch":0,"note":77}
{"t":158334,"type":"note_on","id":109,"ch":0,"note":67,"vel":0.8}
{"t":158350,"type":"note_off","id":106,"ch":0,"note":74}
{"t":158398,"type":"note_on","id":110,"ch":0,"note":66,"vel":0.8}
{"t":158398,"type":"note_on","id":111,"ch":0,"note":82,"vel":0.8}
{"t":158405,"type":"note_off","id":107,"ch":0,"note":69}
{"t":158406,"type":"note_off","id":108,"ch":0,"note":71}
{"t":158462,"type":"note_on","id":112,"ch":0,"note":43,"vel":0.8}
{"t":158470,"type":"note_off","id":109,"ch":0,"note":67}
{"t":158647,"type":"note_on","id":113,"ch":0,"note":95,"vel":0.8}
{"t":158710,"type":"note_on","id":114,"ch":0,"note":57,"vel":0.8}
{"t":158718,"type":"note_off","id":111,"ch":0,"note":82}
{"t":158718,"type":"note_off","id":112,"ch":0,"note":43}
{"t":158782,"type":"note_off","id":113,"ch":0,"note":95}
{"t":158838,"type":"note_on","id":115,"ch":0,"note":59,"vel":0.8}
{"t":158838,"type":"note_on","id":116,"ch":0,"note":38,"vel":0.8}
{"t":158838,"type":"note_on","id":117,"ch":0,"note":97,"vel":0.8}
{"t":158846,"type":"note_off","id":114,"ch":0,"note":57}
{"t":158974,"type":"note_off","id":115,"ch":0,"note":59}
{"t":158975,"type":"note_off","id":117,"ch":0,"note":97}
{"t":159022,"type":"note_on","id":118,"ch":0,"note":58,"vel":0.8}
{"t":159087,"type":"note_on","id":119,"ch":0,"note":79,"vel":0.8}
{"t":159117,"type":"note_off","id":119,"ch":0,"note":79}
{"t":159158,"type":"note_off","id":116,"ch":0,"note":38}
{"t":159158,"type":"note_off","id":118,"ch":0,"note":58}
{"t":159215,"type":"note_on","id":120,"ch":0,"note":54,"vel":0.8}
{"t":159215,"type":"note_on","id":121,"ch":0,"note":86,"vel":0.8}
{"t":159278,"type":"note_on","id":122,"ch":0,"note":101,"vel":0.8}
{"t":159302,"type":"note_off","id":122,"ch":0,"note":101}
{"t":159334,"type":"note_on","id":123,"ch":0,"note":61,"vel":0.8}
{"t":159334,"type":"note_on","id":124,"ch":0,"note":89,"vel":0.8}
{"t":159334,"type":"note_on","id":125,"ch":0,"note":97,"vel":0.8}
{"t":159350,"type":"note_off","id":120,"ch":0,"note":54}
{"t":159398,"type":"note_on","id":126,"ch":0,"note":76,"vel":0.8}
{"t":159405,"type":"note_off","id":121,"ch":0,"note":86}
{"t":159470,"type":"note_off","id":123,"ch":0,"note":61}
{"t":159470,"type":"note_off","id":124,"ch":0,"note":89}
{"t":159470,"type":"note_off","id":125,"ch":0,"note":97}
{"t":159534,"type":"note_off","id":110,"ch":0,"note":66}
{"t":159534,"type":"note_off","id":126,"ch":0,"note":76}
{"t":159647,"type":"note_on","id":127,"ch":0,"note":61,"vel":0.8}
{"t":159783,"type":"note_off","id":127,"ch":0,"note":61}
{"t":159966,"type":"note_on","id":128,"ch":0,"note":77,"vel":0.8}
{"t":160031,"type":"note_on","id":129,"ch":0,"note":74,"vel":0.8}
{"t":160087,"type":"note_on","id":130,"ch":0,"note":69,"vel":0.8}
{"t":160087,"type":"note_on","id":131,"ch":0,"note":71,"vel":0.8}
{"t":160102,"type":"note_off","id":128,"ch":0,"note":77}
{"t":160150,"type":"note_on","id":132,"ch":0,"note":67,"vel":0.8}
{"t":160158,"type":"note_off","id":129,"ch":0,"note":74}
{"t":160190,"type":"note_on","id":133,"ch":0,"note":94,"vel":0.8}
{"t":160214,"type":"note_on","id":134,"ch":0,"note":66,"vel":0.8}
{"t":160214,"type":"note_on","id":135,"ch":0,"note":82,"vel":0.8}
{"t":160223,"type":"note_off","id":130,"ch":0,"note":69}
{"t":160223,"type":"note_off","id":131,"ch":0,"note":71}
{"t":160223,"type":"note_off","id":133,"ch":0,"note":94}
{"t":160279,"type":"note_on","id":136,"ch":0,"note":43,"vel":0.8}
{"t":160279,"type":"note_on","id":137,"ch":0,"note":86,"vel":0.8}
{"t":160287,"type":"note_off","id":132,"ch":0,"note":67}
{"t":160303,"type":"note_off","id":137,"ch":0,"note":86}
{"t":160462,"type":"note_on","id":138,"ch":0,"note":95,"vel":0.8}
{"t":160527,"type":"note_on","id":139,"ch":0,"note":57,"vel":0.8}
{"t":160527,"type":"note_on","id":140,"ch":0,"note":85,"vel":0.8}
{"t":160534,"type":"note_off","id":135,"ch":0,"note":82}
{"t":160534,"type":"note_off","id":136,"ch":0,"note":43}
{"t":160590,"type":"note_on","id":141,"ch":0,"note":92,"vel":0.8}
{"t":160598,"type":"note_off","id":138,"ch":0,"note":95}
{"t":160622,"type":"note_off","id":141,"ch":0,"note":92}
{"t":160654,"type":"note_on","id":142,"ch":0,"note":59,"vel":0.8}
{"t":160654,"type":"note_on","id":143,"ch":0,"note":38,"vel":0.8}
{"t":160654,"type":"note_on","id":144,"ch":0,"note":97,"vel":0.8}
{"t":160670,"type":"note_off","id":139,"ch":0,"note":57}
{"t":160670,"type":"note_off","id":140,"ch":0,"note":85}
{"t":160775,"type":"note_on","id":145,"ch":0,"note":92,"vel":0.8}
{"t":160790,"type":"note_off","id":142,"ch":0,"note":59}
{"t":160790,"type":"note_off","id":144,"ch":0,"note":97}
{"t":160806,"type":"note_off","id":145,"ch":0,"note":92}
{"t":160838,"type":"note_on","id":146,"ch":0,"note":58,"vel":0.8}
{"t":160902,"type":"note_on","id":147,"ch":0,"note":79,"vel":0.8}
{"t":160935,"type":"note_off","id":147,"ch":0,"note":79}
{"t":160975,"type":"note_off","id":143,"ch":0,"note":38}
{"t":160975,"type":"note_off","id":146,"ch":0,"note":58}
{"t":161029,"type":"note_on","id":148,"ch":0,"note":54,"vel":0.8}
{"t":161030,"type":"note_on","id":149,"ch":0,"note":86,"vel":0.8}
{"t":161087,"type":"note_on","id":150,"ch":0,"note":101,"vel":0.8}
{"t":161120,"type":"note_off","id":150,"ch":0,"note":101}
{"t":161150,"type":"note_on","id":151,"ch":0,"note":61,"vel":0.8}
{"t":161151,"type":"note_on","id":152,"ch":0,"note":89,"vel":0.8}
{"t":161151,"type":"note_on","id":153,"ch":0,"note":97,"vel":0.8}
{"t":161165,"type":"note_off","id":148,"ch":0,"note":54}
{"t":161214,"type":"note_on","id":154,"ch":0,"note":76,"vel":0.8}
{"t":161222,"type":"note_off","id":149,"ch":0,"note":86}
{"t":161287,"type":"note_off","id":151,"ch":0,"note":61}
{"t":161287,"type":"note_off","id":152,"ch":0,"note":89}
{"t":161287,"type":"note_off","id":153,"ch":0,"note":97}
{"t":161350,"type":"note_off","id":134,"ch":0,"note":66}
{"t":161351,"type":"note_off","id":154,"ch":0,"note":76}
{"t":161462,"type":"note_on","id":155,"ch":0,"note":61,"vel":0.8}
{"t":161598,"type":"note_off","id":155,"ch":0,"note":61}
{"t":161782,"type":"note_on","id":156,"ch":0,"note":77,"vel":0.8}
{"t":161847,"type":"note_on","id":157,"ch":0,"note":74,"vel":0.8}
{"t":161902,"type":"note_on","id":158,"ch":0,"note":69,"vel":0.8}
{"t":161903,"type":"note_on","id":159,"ch":0,"note":71,"vel":0.8}
{"t":161903,"type":"note_on","id":160,"ch":0,"note":94,"vel":0.8}
{"t":161918,"type":"note_off","id":156,"ch":0,"note":77}
{"t":161967,"type":"note_on","id":161,"ch":0,"note":67,"vel":0.8}
{"t":161974,"type":"note_off","id":157,"ch":0,"note":74}
{"t":162030,"type":"note_on","id":162,"ch":0,"note":66,"vel":0.8}
{"t":162031,"type":"note_on","id":163,"ch":0,"note":82,"vel":0.8}
{"t":162031,"type":"note_on","id":164,"ch":0,"note":100,"vel":0.8}
{"t":162031,"type":"note_on","id":165,"ch":0,"note":89,"vel":0.8}
{"t":162038,"type":"note_off","id":158,"ch":0,"note":69}
{"t":162038,"type":"note_off","id":159,"ch":0,"note":71}
{"t":162038,"type":"note_off","id":160,"ch":0,"note":94}
{"t":162062,"type":"note_off","id":164,"ch":0,"note":100}
{"t":162094,"type":"note_on","id":166,"ch":0,"note":43,"vel":0.8}
{"t":162094,"type":"note_on","id":167,"ch":0,"note":86,"vel":0.8}
{"t":162101,"type":"note_off","id":161,"ch":0,"note":67}
{"t":162126,"type":"note_off","id":167,"ch":0,"note":86}
{"t":162170,"type":"note_off","id":165,"ch":0,"note":89}
{"t":162215,"type":"note_on","id":168,"ch":0,"note":100,"vel":0.8}
{"t":162279,"type":"note_on","id":169,"ch":0,"note":95,"vel":0.8}
{"t":162342,"type":"note_on","id":170,"ch":0,"note":57,"vel":0.8}
{"t":162342,"type":"note_on","id":171,"ch":0,"note":85,"vel":0.8}
{"t":162349,"type":"note_off","id":163,"ch":0,"note":82}
{"t":162350,"type":"note_off","id":166,"ch":0,"note":43}
{"t":162350,"type":"note_off","id":168,"ch":0,"note":100}
{"t":162406,"type":"note_on","id":172,"ch":0,"note":92,"vel":0.8}
{"t":162414,"type":"note_off","id":169,"ch":0,"note":95}
{"t":162438,"type":"note_off","id":172,"ch":0,"note":92}
{"t":162470,"type":"note_on","id":173,"ch":0,"note":59,"vel":0.8}
{"t":162470,"type":"note_on","id":174,"ch":0,"note":38,"vel":0.8}
{"t":162470,"type":"note_on","id":175,"ch":0,"note":97,"vel":0.8}
{"t":162478,"type":"note_off","id":170,"ch":0,"note":57}
{"t":162479,"type":"note_off","id":171,"ch":0,"note":85}
{"t":162590,"type":"note_on","id":176,"ch":0,"note":92,"vel":0.8}
{"t":162606,"type":"note_off","id":173,"ch":0,"note":59}
{"t":162607,"type":"note_off","id":175,"ch":0,"note":97}
{"t":162623,"type":"note_off","id":176,"ch":0,"note":92}
{"t":162653,"type":"note_on","id":177,"ch":0,"note":58,"vel":0.8}
{"t":162718,"type":"note_on","id":178,"ch":0,"note":79,"vel":0.8}
{"t":162751,"type":"note_off","id":178,"ch":0,"note":79}
{"t":162790,"type":"note_off","id":174,"ch":0,"note":38}
{"t":162790,"type":"note_off","id":177,"ch":0,"note":58}
{"t":162847,"type":"note_on","id":179,"ch":0,"note":54,"vel":0.8}
{"t":162847,"type":"note_on","id":180,"ch":0,"note":86,"vel":0.8}
{"t":162847,"type":"note_on","id":181,"ch":0,"note":106,"vel":0.8}
{"t":162902,"type":"note_on","id":182,"ch":0,"note":101,"vel":0.8}
{"t":162937,"type":"note_off","id":182,"ch":0,"note":101}
{"t":162966,"type":"note_on","id":183,"ch":0,"note":61,"vel":0.8}
{"t":162966,"type":"note_on","id":184,"ch":0,"note":89,"vel":0.8}
{"t":162966,"type":"note_on","id":185,"ch":0,"note":97,"vel":0.8}
{"t":162974,"type":"note_off","id":179,"ch":0,"note":54}
{"t":162974,"type":"note_off","id":181,"ch":0,"note":106}
{"t":163030,"type":"note_on","id":186,"ch":0,"note":76,"vel":0.8}
{"t":163038,"type":"note_off","id":180,"ch":0,"note":86}
{"t":163094,"type":"note_on","id":187,"ch":0,"note":96,"vel":0.8}
{"t":163102,"type":"note_off","id":183,"ch":0,"note":61}
{"t":163102,"type":"note_off","id":184,"ch":0,"note":89}
{"t":163103,"type":"note_off","id":185,"ch":0,"note":97}
{"t":163165,"type":"note_off","id":162,"ch":0,"note":66}
{"t":163167,"type":"note_off","id":186,"ch":0,"note":76}
{"t":163167,"type":"note_off","id":187,"ch":0,"note":96}
{"t":163220,"type":"note_on","id":188,"ch":0,"note":48,"vel":0.8}
{"t":163278,"type":"note_on","id":189,"ch":0,"note":61,"vel":0.8}
{"t":163343,"type":"note_on","id":190,"ch":0,"note":79,"vel":0.8}
{"t":163343,"type":"note_on","id":191,"ch":0,"note":55,"vel":0.8}
{"t":163350,"type":"note_off","id":188,"ch":0,"note":48}
{"t":163406,"type":"note_on","id":192,"ch":0,"note":86,"vel":0.8}
{"t":163406,"type":"note_on","id":193,"ch":0,"note":69,"vel":0.8}
{"t":163414,"type":"note_off","id":189,"ch":0,"note":61}
{"t":163438,"type":"note_off","id":193,"ch":0,"note":69}
{"t":163479,"type":"note_off","id":190,"ch":0,"note":79}
{"t":163479,"type":"note_off","id":191,"ch":0,"note":55}
{"t":163479,"type":"note_off","id":192,"ch":0,"note":86}
{"t":163598,"type":"note_on","id":194,"ch":0,"note":77,"vel":0.8}
{"t":163663,"type":"note_on","id":195,"ch":0,"note":74,"vel":0.8}
{"t":163726,"type":"note_on","id":196,"ch":0,"note":69,"vel":0.8}
{"t":163726,"type":"note_on","id":197,"ch":0,"note":71,"vel":0.8}
{"t":163726,"type":"note_on","id":198,"ch":0,"note":94,"vel":0.8}
{"t":163734,"type":"note_off","id":194,"ch":0,"note":77}
{"t":163787,"type":"note_on","id":199,"ch":0,"note":67,"vel":0.8}
{"t":163798,"type":"note_off","id":195,"ch":0,"note":74}
{"t":163846,"type":"note_on","id":200,"ch":0,"note":66,"vel":0.8}
{"t":163847,"type":"note_on","id":201,"ch":0,"note":82,"vel":0.8}
{"t":163847,"type":"note_on","id":202,"ch":0,"note":100,"vel":0.8}
{"t":163847,"type":"note_on","id":203,"ch":0,"note":89,"vel":0.8}
{"t":163847,"type":"note_on","id":204,"ch":0,"note":58,"vel":0.8}
{"t":163862,"type":"note_off","id":196,"ch":0,"note":69}
{"t":163862,"type":"note_off","id":197,"ch":0,"note":71}
{"t":163863,"type":"note_off","id":198,"ch":0,"note":94}
{"t":163878,"type":"note_off","id":202,"ch":0,"note":100}
{"t":163910,"type":"note_on","id":205,"ch":0,"note":43,"vel":0.8}
{"t":163911,"type":"note_on","id":206,"ch":0,"note":86,"vel":0.8}
{"t":163918,"type":"note_off","id":199,"ch":0,"note":67}
{"t":163942,"type":"note_off","id":206,"ch":0,"note":86}
{"t":163983,"type":"note_off","id":203,"ch":0,"note":89}
{"t":163983,"type":"note_off","id":204,"ch":0,"note":58}
{"t":164038,"type":"note_on","id":207,"ch":0,"note":100,"vel":0.8}
{"t":164095,"type":"note_on","id":208,"ch":0,"note":95,"vel":0.8}
{"t":164159,"type":"note_on","id":209,"ch":0,"note":57,"vel":0.8}
{"t":164159,"type":"note_on","id":210,"ch":0,"note":85,"vel":0.8}
{"t":164170,"type":"note_off","id":201,"ch":0,"note":82}
{"t":164171,"type":"note_off","id":205,"ch":0,"note":43}
{"t":164171,"type":"note_off","id":207,"ch":0,"note":100}
{"t":164221,"type":"note_on","id":211,"ch":0,"note":92,"vel":0.8}
{"t":164230,"type":"note_off","id":208,"ch":0,"note":95}
{"t":164253,"type":"note_off","id":211,"ch":0,"note":92}
{"t":164287,"type":"note_on","id":212,"ch":0,"note":59,"vel":0.8}
{"t":164287,"type":"note_on","id":213,"ch":0,"note":38,"vel":0.8}
{"t":164287,"type":"note_on","id":214,"ch":0,"note":97,"vel":0.8}
{"t":164287,"type":"note_on","id":215,"ch":0,"note":46,"vel":0.8}
{"t":164294,"type":"note_off","id":209,"ch":0,"note":57}
{"t":164294,"type":"note_off","id":210,"ch":0,"note":85}
{"t":164318,"type":"note_off","id":215,"ch":0,"note":46}
{"t":164415,"type":"note_on","id":216,"ch":0,"note":92,"vel":0.8}
{"t":164423,"type":"note_off","id":212,"ch":0,"note":59}
{"t":164423,"type":"note_off","id":214,"ch":0,"note":97}
{"t":164438,"type":"note_off","id":216,"ch":0,"note":92}
{"t":164470,"type":"note_on","id":217,"ch":0,"note":58,"vel":0.8}
{"t":164534,"type":"note_on","id":218,"ch":0,"note":79,"vel":0.8}
{"t":164566,"type":"note_off","id":218,"ch":0,"note":79}
{"t":164606,"type":"note_off","id":213,"ch":0,"note":38}
{"t":164606,"type":"note_off","id":217,"ch":0,"note":58}
{"t":164663,"type":"note_on","id":219,"ch":0,"note":54,"vel":0.8}
{"t":164663,"type":"note_on","id":220,"ch":0,"note":86,"vel":0.8}
{"t":164663,"type":"note_on","id":221,"ch":0,"note":106,"vel":0.8}
{"t":164727,"type":"note_on","id":222,"ch":0,"note":101,"vel":0.8}
{"t":164750,"type":"note_off","id":222,"ch":0,"note":101}
{"t":164783,"type":"note_on","id":223,"ch":0,"note":61,"vel":0.8}
{"t":164783,"type":"note_on","id":224,"ch":0,"note":89,"vel":0.8}
{"t":164783,"type":"note_on","id":225,"ch":0,"note":97,"vel":0.8}
{"t":164798,"type":"note_off","id":219,"ch":0,"note":54}
{"t":164798,"type":"note_off","id":221,"ch":0,"note":106}
{"t":164846,"type":"note_on","id":226,"ch":0,"note":76,"vel":0.8}
{"t":164863,"type":"note_off","id":220,"ch":0,"note":86}
{"t":164910,"type":"note_on","id":227,"ch":0,"note":96,"vel":0.8}
{"t":164920,"type":"note_off","id":223,"ch":0,"note":61}
{"t":164920,"type":"note_off","id":224,"ch":0,"note":89}
{"t":164921,"type":"note_off","id":225,"ch":0,"note":97}
{"t":164982,"type":"note_off","id":200,"ch":0,"note":66}
{"t":164983,"type":"note_off","id":226,"ch":0,"note":76}
{"t":164983,"type":"note_off","id":227,"ch":0,"note":96}
{"t":165037,"type":"note_on","id":228,"ch":0,"note":48,"vel":0.8}
{"t":165063,"type":"note_off","id":228,"ch":0,"note":48}
{"t":165095,"type":"note_on","id":229,"ch":0,"note":61,"vel":0.8}
{"t":165158,"type":"note_on","id":230,"ch":0,"note":79,"vel":0.8}
{"t":165159,"type":"note_on","id":231,"ch":0,"note":55,"vel":0.8}
{"t":165222,"type":"note_on","id":232,"ch":0,"note":86,"vel":0.8}
{"t":165222,"type":"note_on","id":233,"ch":0,"note":69,"vel":0.8}
{"t":165237,"type":"note_off","id":229,"ch":0,"note":61}
{"t":165253,"type":"note_off","id":233,"ch":0,"note":69}
{"t":165295,"type":"note_off","id":230,"ch":0,"note":79}
{"t":165295,"type":"note_off","id":231,"ch":0,"note":55}
{"t":165295,"type":"note_off","id":232,"ch":0,"note":86}
{"t":165349,"type":"note_on","id":234,"ch":0,"note":45,"vel":0.8}
{"t":165414,"type":"note_on","id":235,"ch":0,"note":77,"vel":0.8}
{"t":165415,"type":"note_on","id":236,"ch":0,"note":53,"vel":0.8}
{"t":165446,"type":"note_off","id":236,"ch":0,"note":53}
{"t":165477,"type":"note_on","id":237,"ch":0,"note":74,"vel":0.8}
{"t":165478,"type":"note_on","id":238,"ch":0,"note":50,"vel":0.8}
{"t":165478,"type":"note_on","id":239,"ch":0,"note":39,"vel":0.8}
{"t":165486,"type":"note_off","id":234,"ch":0,"note":45}
{"t":165503,"type":"note_off","id":238,"ch":0,"note":50}
{"t":165543,"type":"note_on","id":240,"ch":0,"note":69,"vel":0.8}
{"t":165543,"type":"note_on","id":241,"ch":0,"note":71,"vel":0.8}
{"t":165543,"type":"note_on","id":242,"ch":0,"note":94,"vel":0.8}
{"t":165543,"type":"note_on","id":243,"ch":0,"note":62,"vel":0.8}
{"t":165554,"type":"note_off","id":235,"ch":0,"note":77}
{"t":165599,"type":"note_on","id":244,"ch":0,"note":67,"vel":0.8}
{"t":165599,"type":"note_on","id":245,"ch":0,"note":35,"vel":0.8}
{"t":165614,"type":"note_off","id":237,"ch":0,"note":74}
{"t":165615,"type":"note_off","id":239,"ch":0,"note":39}
{"t":165663,"type":"note_on","id":246,"ch":0,"note":66,"vel":0.8}
{"t":165663,"type":"note_on","id":247,"ch":0,"note":82,"vel":0.8}
{"t":165663,"type":"note_on","id":248,"ch":0,"note":100,"vel":0.8}
{"t":165663,"type":"note_on","id":249,"ch":0,"note":89,"vel":0.8}
{"t":165663,"type":"note_on","id":250,"ch":0,"note":58,"vel":0.8}
{"t":165670,"type":"note_off","id":240,"ch":0,"note":69}
{"t":165670,"type":"note_off","id":241,"ch":0,"note":71}
{"t":165671,"type":"note_off","id":242,"ch":0,"note":94}
{"t":165671,"type":"note_off","id":243,"ch":0,"note":62}
{"t":165694,"type":"note_off","id":248,"ch":0,"note":100}
{"t":165726,"type":"note_on","id":251,"ch":0,"note":43,"vel":0.8}
{"t":165727,"type":"note_on","id":252,"ch":0,"note":86,"vel":0.8}
{"t":165734,"type":"note_off","id":244,"ch":0,"note":67}
{"t":165734,"type":"note_off","id":245,"ch":0,"note":35}
{"t":165758,"type":"note_off","id":252,"ch":0,"note":86}
{"t":165798,"type":"note_off","id":249,"ch":0,"note":89}
{"t":165799,"type":"note_off","id":250,"ch":0,"note":58}
{"t":165854,"type":"note_on","id":253,"ch":0,"note":100,"vel":0.8}
{"t":165911,"type":"note_on","id":254,"ch":0,"note":95,"vel":0.8}
{"t":165975,"type":"note_on","id":255,"ch":0,"note":57,"vel":0.8}
{"t":165975,"type":"note_on","id":256,"ch":0,"note":85,"vel":0.8}
{"t":165982,"type":"note_off","id":247,"ch":0,"note":82}
{"t":165982,"type":"note_off","id":251,"ch":0,"note":43}
{"t":165983,"type":"note_off","id":253,"ch":0,"note":100}
{"t":166038,"type":"note_on","id":257,"ch":0,"note":92,"vel":0.8}
{"t":166046,"type":"note_off","id":254,"ch":0,"note":95}
{"t":166070,"type":"note_off","id":257,"ch":0,"note":92}
{"t":166103,"type":"note_on","id":258,"ch":0,"note":59,"vel":0.8}
{"t":166104,"type":"note_on","id":259,"ch":0,"note":38,"vel":0.8}
{"t":166104,"type":"note_on","id":260,"ch":0,"note":97,"vel":0.8}
{"t":166104,"type":"note_on","id":261,"ch":0,"note":46,"vel":0.8}
{"t":166110,"type":"note_off","id":255,"ch":0,"note":57}
{"t":166110,"type":"note_off","id":256,"ch":0,"note":85}
{"t":166134,"type":"note_off","id":261,"ch":0,"note":46}
{"t":166230,"type":"note_on","id":262,"ch":0,"note":92,"vel":0.8}
{"t":166230,"type":"note_on","id":263,"ch":0,"note":35,"vel":0.8}
{"t":166238,"type":"note_off","id":258,"ch":0,"note":59}
{"t":166238,"type":"note_off","id":260,"ch":0,"note":97}
{"t":166253,"type":"note_off","id":262,"ch":0,"note":92}
{"t":166287,"type":"note_on","id":264,"ch":0,"note":58,"vel":0.8}
{"t":166351,"type":"note_on","id":265,"ch":0,"note":79,"vel":0.8}
{"t":166358,"type":"note_off","id":263,"ch":0,"note":35}
{"t":166382,"type":"note_off","id":265,"ch":0,"note":79}
{"t":166422,"type":"note_off","id":259,"ch":0,"note":38}
{"t":166422,"type":"note_off","id":264,"ch":0,"note":58}
{"t":166478,"type":"note_on","id":266,"ch":0,"note":54,"vel":0.8}
{"t":166478,"type":"note_on","id":267,"ch":0,"note":86,"vel":0.8}
{"t":166479,"type":"note_on","id":268,"ch":0,"note":106,"vel":0.8}
{"t":166542,"type":"note_on","id":269,"ch":0,"note":101,"vel":0.8}
{"t":166566,"type":"note_off","id":269,"ch":0,"note":101}
{"t":166598,"type":"note_on","id":270,"ch":0,"note":61,"vel":0.8}
{"t":166598,"type":"note_on","id":271,"ch":0,"note":89,"vel":0.8}
{"t":166599,"type":"note_on","id":272,"ch":0,"note":97,"vel":0.8}
{"t":166615,"type":"note_off","id":266,"ch":0,"note":54}
{"t":166615,"type":"note_off","id":268,"ch":0,"note":106}
{"t":166663,"type":"note_on","id":273,"ch":0,"note":76,"vel":0.8}
{"t":166670,"type":"note_off","id":267,"ch":0,"note":86}
{"t":166726,"type":"note_on","id":274,"ch":0,"note":96,"vel":0.8}
{"t":166734,"type":"note_off","id":270,"ch":0,"note":61}
{"t":166734,"type":"note_off","id":271,"ch":0,"note":89}
{"t":166734,"type":"note_off","id":272,"ch":0,"note":97}
{"t":166790,"type":"note_on","id":275,"ch":0,"note":35,"vel":0.8}
{"t":166798,"type":"note_off","id":246,"ch":0,"note":66}
{"t":166798,"type":"note_off","id":273,"ch":0,"note":76}
{"t":166799,"type":"note_off","id":274,"ch":0,"note":96}
{"t":166854,"type":"note_on","id":276,"ch":0,"note":48,"vel":0.8}
{"t":166854,"type":"note_on","id":277,"ch":0,"note":39,"vel":0.8}
{"t":166878,"type":"note_off","id":276,"ch":0,"note":48}
{"t":166910,"type":"note_on","id":278,"ch":0,"note":61,"vel":0.8}
{"t":166926,"type":"note_off","id":275,"ch":0,"note":35}
{"t":166974,"type":"note_on","id":279,"ch":0,"note":79,"vel":0.8}
{"t":166975,"type":"note_on","id":280,"ch":0,"note":55,"vel":0.8}
{"t":166983,"type":"note_off","id":277,"ch":0,"note":39}
{"t":167038,"type":"note_on","id":281,"ch":0,"note":86,"vel":0.8}
{"t":167038,"type":"note_on","id":282,"ch":0,"note":69,"vel":0.8}
{"t":167046,"type":"note_off","id":278,"ch":0,"note":61}
{"t":167070,"type":"note_off","id":282,"ch":0,"note":69}
{"t":167110,"type":"note_off","id":279,"ch":0,"note":79}
{"t":167111,"type":"note_off","id":280,"ch":0,"note":55}
{"t":167111,"type":"note_off","id":281,"ch":0,"note":86}
{"t":167166,"type":"note_on","id":283,"ch":0,"note":45,"vel":0.8}
{"t":167230,"type":"note_on","id":284,"ch":0,"note":77,"vel":0.8}
{"t":167231,"type":"note_on","id":285,"ch":0,"note":53,"vel":0.8}
{"t":167262,"type":"note_off","id":285,"ch":0,"note":53}
{"t":167294,"type":"note_on","id":286,"ch":0,"note":74,"vel":0.8}
{"t":167295,"type":"note_on","id":287,"ch":0,"note":50,"vel":0.8}
{"t":167295,"type":"note_on","id":288,"ch":0,"note":39,"vel":0.8}
{"t":167301,"type":"note_off","id":283,"ch":0,"note":45}
{"t":167318,"type":"note_off","id":287,"ch":0,"note":50}
{"t":167350,"type":"note_on","id":289,"ch":0,"note":69,"vel":0.8}
{"t":167351,"type":"note_on","id":290,"ch":0,"note":71,"vel":0.8}
{"t":167351,"type":"note_on","id":291,"ch":0,"note":94,"vel":0.8}
{"t":167351,"type":"note_on","id":292,"ch":0,"note":62,"vel":0.8}
{"t":167366,"type":"note_off","id":284,"ch":0,"note":77}
{"t":167414,"type":"note_on","id":293,"ch":0,"note":67,"vel":0.8}
{"t":167414,"type":"note_on","id":294,"ch":0,"note":35,"vel":0.8}
{"t":167429,"type":"note_off","id":286,"ch":0,"note":74}
{"t":167430,"type":"note_off","id":288,"ch":0,"note":39}
{"t":167478,"type":"note_on","id":295,"ch":0,"note":66,"vel":0.8}
{"t":167478,"type":"note_on","id":296,"ch":0,"note":82,"vel":0.8}
{"t":167479,"type":"note_on","id":297,"ch":0,"note":100,"vel":0.8}
{"t":167479,"type":"note_on","id":298,"ch":0,"note":89,"vel":0.8}
{"t":167479,"type":"note_on","id":299,"ch":0,"note":58,"vel":0.8}
{"t":167486,"type":"note_off","id":289,"ch":0,"note":69}
{"t":167487,"type":"note_off","id":290,"ch":0,"note":71}
{"t":167487,"type":"note_off","id":291,"ch":0,"note":94}
{"t":167487,"type":"note_off","id":292,"ch":0,"note":62}
{"t":167510,"type":"note_off","id":297,"ch":0,"note":100}
{"t":167542,"type":"note_on","id":300,"ch":0,"note":43,"vel":0.8}
{"t":167542,"type":"note_on","id":301,"ch":0,"note":86,"vel":0.8}
{"t":167550,"type":"note_off","id":293,"ch":0,"note":67}
{"t":167550,"type":"note_off","id":294,"ch":0,"note":35}
{"t":167574,"type":"note_off","id":301,"ch":0,"note":86}
{"t":167614,"type":"note_off","id":298,"ch":0,"note":89}
{"t":167615,"type":"note_off","id":299,"ch":0,"note":58}
{"t":167670,"type":"note_on","id":302,"ch":0,"note":100,"vel":0.8}
{"t":167727,"type":"note_on","id":303,"ch":0,"note":95,"vel":0.8}
{"t":167790,"type":"note_on","id":304,"ch":0,"note":57,"vel":0.8}
{"t":167790,"type":"note_on","id":305,"ch":0,"note":85,"vel":0.8}
{"t":167791,"type":"note_on","id":306,"ch":0,"note":53,"vel":0.8}
{"t":167798,"type":"note_off","id":296,"ch":0,"note":82}
{"t":167798,"type":"note_off","id":300,"ch":0,"note":43}
{"t":167798,"type":"note_off","id":302,"ch":0,"note":100}
{"t":167853,"type":"note_on","id":307,"ch":0,"note":92,"vel":0.8}
{"t":167862,"type":"note_off","id":303,"ch":0,"note":95}
{"t":167887,"type":"note_off","id":307,"ch":0,"note":92}
{"t":167919,"type":"note_on","id":308,"ch":0,"note":59,"vel":0.8}
{"t":167919,"type":"note_on","id":309,"ch":0,"note":38,"vel":0.8}
{"t":167919,"type":"note_on","id":310,"ch":0,"note":97,"vel":0.8}
{"t":167920,"type":"note_on","id":311,"ch":0,"note":46,"vel":0.8}
{"t":167926,"type":"note_off","id":304,"ch":0,"note":57}
{"t":167926,"type":"note_off","id":305,"ch":0,"note":85}
{"t":167926,"type":"note_off","id":306,"ch":0,"note":53}
{"t":167943,"type":"note_off","id":311,"ch":0,"note":46}
{"t":168038,"type":"note_on","id":312,"ch":0,"note":92,"vel":0.8}
{"t":168038,"type":"note_on","id":313,"ch":0,"note":35,"vel":0.8}
{"t":168054,"type":"note_off","id":308,"ch":0,"note":59}
{"t":168054,"type":"note_off","id":310,"ch":0,"note":97}
{"t":168070,"type":"note_off","id":312,"ch":0,"note":92}
{"t":168102,"type":"note_on","id":314,"ch":0,"note":58,"vel":0.8}
{"t":168166,"type":"note_on","id":315,"ch":0,"note":79,"vel":0.8}
{"t":168174,"type":"note_off","id":313,"ch":0,"note":35}
{"t":168198,"type":"note_off","id":315,"ch":0,"note":79}
{"t":168238,"type":"note_off","id":309,"ch":0,"note":38}
{"t":168238,"type":"note_off","id":314,"ch":0,"note":58}
{"t":168294,"type":"note_on","id":316,"ch":0,"note":54,"vel":0.8}
{"t":168294,"type":"note_on","id":317,"ch":0,"note":86,"vel":0.8}
{"t":168295,"type":"note_on","id":318,"ch":0,"note":106,"vel":0.8}
{"t":168295,"type":"note_on","id":319,"ch":0,"note":65,"vel":0.8}
{"t":168358,"type":"note_on","id":320,"ch":0,"note":101,"vel":0.8}
{"t":168359,"type":"note_on","id":321,"ch":0,"note":48,"vel":0.8}
{"t":168382,"type":"note_off","id":320,"ch":0,"note":101}
{"t":168414,"type":"note_on","id":322,"ch":0,"note":61,"vel":0.8}
{"t":168415,"type":"note_on","id":323,"ch":0,"note":89,"vel":0.8}
{"t":168415,"type":"note_on","id":324,"ch":0,"note":97,"vel":0.8}
{"t":168415,"type":"note_on","id":325,"ch":0,"note":41,"vel":0.8}
{"t":168431,"type":"note_off","id":316,"ch":0,"note":54}
{"t":168432,"type":"note_off","id":318,"ch":0,"note":106}
{"t":168432,"type":"note_off","id":319,"ch":0,"note":65}
{"t":168478,"type":"note_on","id":326,"ch":0,"note":76,"vel":0.8}
{"t":168487,"type":"note_off","id":317,"ch":0,"note":86}
{"t":168487,"type":"note_off","id":321,"ch":0,"note":48}
{"t":168542,"type":"note_on","id":327,"ch":0,"note":96,"vel":0.8}
{"t":168550,"type":"note_off","id":322,"ch":0,"note":61}
{"t":168550,"type":"note_off","id":323,"ch":0,"note":89}
{"t":168550,"type":"note_off","id":324,"ch":0,"note":97}
{"t":168551,"type":"note_off","id":325,"ch":0,"note":41}
{"t":168606,"type":"note_on","id":328,"ch":0,"note":35,"vel":0.8}
{"t":168614,"type":"note_off","id":295,"ch":0,"note":66}
{"t":168614,"type":"note_off","id":326,"ch":0,"note":76}
{"t":168615,"type":"note_off","id":327,"ch":0,"note":96}
{"t":168670,"type":"note_on","id":329,"ch":0,"note":48,"vel":0.8}
{"t":168670,"type":"note_on","id":330,"ch":0,"note":39,"vel":0.8}
{"t":168694,"type":"note_off","id":329,"ch":0,"note":48}
{"t":168726,"type":"note_on","id":331,"ch":0,"note":61,"vel":0.8}
{"t":168742,"type":"note_off","id":328,"ch":0,"note":35}
{"t":168790,"type":"note_on","id":332,"ch":0,"note":79,"vel":0.8}
{"t":168790,"type":"note_on","id":333,"ch":0,"note":55,"vel":0.8}
{"t":168798,"type":"note_off","id":330,"ch":0,"note":39}
{"t":168854,"type":"note_on","id":334,"ch":0,"note":86,"vel":0.8}
{"t":168854,"type":"note_on","id":335,"ch":0,"note":69,"vel":0.8}
{"t":168862,"type":"note_off","id":331,"ch":0,"note":61}
{"t":168886,"type":"note_off","id":335,"ch":0,"note":69}
{"t":168926,"type":"note_off","id":332,"ch":0,"note":79}
{"t":168927,"type":"note_off","id":333,"ch":0,"note":55}
{"t":168927,"type":"note_off","id":334,"ch":0,"note":86}
{"t":168982,"type":"note_on","id":336,"ch":0,"note":45,"vel":0.8}
{"t":169046,"type":"note_on","id":337,"ch":0,"note":77,"vel":0.8}
{"t":169046,"type":"note_on","id":338,"ch":0,"note":53,"vel":0.8}
{"t":169078,"type":"note_off","id":338,"ch":0,"note":53}
{"t":169110,"type":"note_on","id":339,"ch":0,"note":74,"vel":0.8}
{"t":169111,"type":"note_on","id":340,"ch":0,"note":50,"vel":0.8}
{"t":169111,"type":"note_on","id":341,"ch":0,"note":39,"vel":0.8}
{"t":169118,"type":"note_off","id":336,"ch":0,"note":45}
{"t":169134,"type":"note_off","id":340,"ch":0,"note":50}
{"t":169174,"type":"note_on","id":342,"ch":0,"note":69,"vel":0.8}
{"t":169175,"type":"note_on","id":343,"ch":0,"note":71,"vel":0.8}
{"t":169175,"type":"note_on","id":344,"ch":0,"note":94,"vel":0.8}
{"t":169175,"type":"note_on","id":345,"ch":0,"note":62,"vel":0.8}
{"t":169187,"type":"note_off","id":337,"ch":0,"note":77}
{"t":169230,"type":"note_on","id":346,"ch":0,"note":67,"vel":0.8}
{"t":169230,"type":"note_on","id":347,"ch":0,"note":35,"vel":0.8}
{"t":169246,"type":"note_off","id":339,"ch":0,"note":74}
{"t":169247,"type":"note_off","id":341,"ch":0,"note":39}
{"t":169294,"type":"note_on","id":348,"ch":0,"note":66,"vel":0.8}
{"t":169295,"type":"note_on","id":349,"ch":0,"note":82,"vel":0.8}
{"t":169295,"type":"note_on","id":350,"ch":0,"note":100,"vel":0.8}
{"t":169295,"type":"note_on","id":351,"ch":0,"note":89,"vel":0.8}
{"t":169295,"type":"note_on","id":352,"ch":0,"note":58,"vel":0.8}
{"t":169302,"type":"note_off","id":342,"ch":0,"note":69}
{"t":169302,"type":"note_off","id":343,"ch":0,"note":71}
{"t":169302,"type":"note_off","id":344,"ch":0,"note":94}
{"t":169303,"type":"note_off","id":345,"ch":0,"note":62}
{"t":169326,"type":"note_off","id":350,"ch":0,"note":100}
{"t":169358,"type":"note_on","id":353,"ch":0,"note":43,"vel":0.8}
{"t":169358,"type":"note_on","id":354,"ch":0,"note":86,"vel":0.8}
{"t":169366,"type":"note_off","id":346,"ch":0,"note":67}
{"t":169367,"type":"note_off","id":347,"ch":0,"note":35}
{"t":169390,"type":"note_off","id":354,"ch":0,"note":86}
{"t":169421,"type":"note_on","id":355,"ch":0,"note":72,"vel":0.8}
{"t":169429,"type":"note_off","id":351,"ch":0,"note":89}
{"t":169430,"type":"note_off","id":352,"ch":0,"note":58}
{"t":169487,"type":"note_on","id":356,"ch":0,"note":100,"vel":0.8}
{"t":169543,"type":"note_on","id":357,"ch":0,"note":95,"vel":0.8}
{"t":169607,"type":"note_on","id":358,"ch":0,"note":57,"vel":0.8}
{"t":169607,"type":"note_on","id":359,"ch":0,"note":85,"vel":0.8}
{"t":169607,"type":"note_on","id":360,"ch":0,"note":53,"vel":0.8}
{"t":169614,"type":"note_off","id":349,"ch":0,"note":82}
{"t":169615,"type":"note_off","id":353,"ch":0,"note":43}
{"t":169615,"type":"note_off","id":356,"ch":0,"note":100}
{"t":169670,"type":"note_on","id":361,"ch":0,"note":92,"vel":0.8}
{"t":169678,"type":"note_off","id":357,"ch":0,"note":95}
{"t":169702,"type":"note_off","id":361,"ch":0,"note":92}
{"t":169726,"type":"note_on","id":362,"ch":0,"note":62,"vel":0.8}
{"t":169735,"type":"note_on","id":363,"ch":0,"note":59,"vel":0.8}
{"t":169735,"type":"note_on","id":364,"ch":0,"note":38,"vel":0.8}
{"t":169736,"type":"note_on","id":365,"ch":0,"note":97,"vel":0.8}
{"t":169736,"type":"note_on","id":366,"ch":0,"note":46,"vel":0.8}
{"t":169742,"type":"note_off","id":358,"ch":0,"note":57}
{"t":169742,"type":"note_off","id":359,"ch":0,"note":85}
{"t":169742,"type":"note_off","id":360,"ch":0,"note":53}
{"t":169743,"type":"note_off","id":362,"ch":0,"note":62}
{"t":169750,"type":"note_on","id":367,"ch":0,"note":62,"vel":0.8}
{"t":169766,"type":"note_off","id":366,"ch":0,"note":46}
{"t":169798,"type":"note_on","id":368,"ch":0,"note":73,"vel":0.8}
{"t":169821,"type":"note_off","id":368,"ch":0,"note":73}
{"t":169862,"type":"note_on","id":369,"ch":0,"note":92,"vel":0.8}
{"t":169863,"type":"note_on","id":370,"ch":0,"note":35,"vel":0.8}
{"t":169870,"type":"note_off","id":363,"ch":0,"note":59}
{"t":169870,"type":"note_off","id":365,"ch":0,"note":97}
{"t":169871,"type":"note_off","id":367,"ch":0,"note":62}
{"t":169878,"type":"note_on","id":371,"ch":0,"note":62,"vel":0.8}
{"t":169887,"type":"note_off","id":369,"ch":0,"note":92}
{"t":169919,"type":"note_on","id":372,"ch":0,"note":58,"vel":0.8}
{"t":169982,"type":"note_on","id":373,"ch":0,"note":79,"vel":0.8}
{"t":169990,"type":"note_off","id":370,"ch":0,"note":35}
{"t":170014,"type":"note_off","id":373,"ch":0,"note":79}
{"t":170054,"type":"note_off","id":364,"ch":0,"note":38}
{"t":170054,"type":"note_off","id":371,"ch":0,"note":62}
{"t":170054,"type":"note_off","id":372,"ch":0,"note":58}
{"t":170110,"type":"note_on","id":374,"ch":0,"note":54,"vel":0.8}
{"t":170111,"type":"note_on","id":375,"ch":0,"note":86,"vel":0.8}
{"t":170111,"type":"note_on","id":376,"ch":0,"note":106,"vel":0.8}
{"t":170111,"type":"note_on","id":377,"ch":0,"note":65,"vel":0.8}
{"t":170167,"type":"note_on","id":378,"ch":0,"note":101,"vel":0.8}
{"t":170167,"type":"note_on","id":379,"ch":0,"note":48,"vel":0.8}
{"t":170198,"type":"note_off","id":378,"ch":0,"note":101}
{"t":170230,"type":"note_on","id":380,"ch":0,"note":61,"vel":0.8}
{"t":170231,"type":"note_on","id":381,"ch":0,"note":89,"vel":0.8}
{"t":170231,"type":"note_on","id":382,"ch":0,"note":97,"vel":0.8}
{"t":170231,"type":"note_on","id":383,"ch":0,"note":41,"vel":0.8}
{"t":170247,"type":"note_off","id":374,"ch":0,"note":54}
{"t":170247,"type":"note_off","id":376,"ch":0,"note":106}
{"t":170247,"type":"note_off","id":377,"ch":0,"note":65}
{"t":170294,"type":"note_on","id":384,"ch":0,"note":76,"vel":0.8}
{"t":170302,"type":"note_off","id":375,"ch":0,"note":86}
{"t":170302,"type":"note_off","id":379,"ch":0,"note":48}
{"t":170358,"type":"note_on","id":385,"ch":0,"note":96,"vel":0.8}
{"t":170366,"type":"note_off","id":380,"ch":0,"note":61}
{"t":170367,"type":"note_off","id":381,"ch":0,"note":89}
{"t":170367,"type":"note_off","id":382,"ch":0,"note":97}
{"t":170367,"type":"note_off","id":383,"ch":0,"note":41}
{"t":170422,"type":"note_on","id":386,"ch":0,"note":35,"vel":0.8}
{"t":170430,"type":"note_off","id":348,"ch":0,"note":66}
{"t":170431,"type":"note_off","id":384,"ch":0,"note":76}
{"t":170431,"type":"note_off","id":385,"ch":0,"note":96}
{"t":170487,"type":"note_on","id":387,"ch":0,"note":48,"vel":0.8}
{"t":170487,"type":"note_on","id":388,"ch":0,"note":39,"vel":0.8}
{"t":170510,"type":"note_off","id":387,"ch":0,"note":48}
{"t":170542,"type":"note_on","id":389,"ch":0,"note":61,"vel":0.8}
{"t":170558,"type":"note_off","id":355,"ch":0,"note":72}
{"t":170558,"type":"note_off","id":386,"ch":0,"note":35}
{"t":170606,"type":"note_on","id":390,"ch":0,"note":79,"vel":0.8}
{"t":170606,"type":"note_on","id":391,"ch":0,"note":55,"vel":0.8}
{"t":170614,"type":"note_off","id":388,"ch":0,"note":39}
{"t":170671,"type":"note_on","id":392,"ch":0,"note":86,"vel":0.8}
{"t":170671,"type":"note_on","id":393,"ch":0,"note":69,"vel":0.8}
{"t":170678,"type":"note_off","id":389,"ch":0,"note":61}
{"t":170702,"type":"note_off","id":393,"ch":0,"note":69}
{"t":170742,"type":"note_off","id":390,"ch":0,"note":79}
{"t":170742,"type":"note_off","id":391,"ch":0,"note":55}
{"t":170743,"type":"note_off","id":392,"ch":0,"note":86}
{"t":170798,"type":"note_on","id":394,"ch":0,"note":45,"vel":0.8}
{"t":170862,"type":"note_on","id":395,"ch":0,"note":77,"vel":0.8}
{"t":170862,"type":"note_on","id":396,"ch":0,"note":53,"vel":0.8}
{"t":170894,"type":"note_off","id":396,"ch":0,"note":53}
{"t":170926,"type":"note_on","id":397,"ch":0,"note":74,"vel":0.8}
{"t":170926,"type":"note_on","id":398,"ch":0,"note":50,"vel":0.8}
{"t":170926,"type":"note_on","id":399,"ch":0,"note":39,"vel":0.8}
{"t":170934,"type":"note_off","id":394,"ch":0,"note":45}
{"t":170958,"type":"note_off","id":398,"ch":0,"note":50}
{"t":170991,"type":"note_on","id":400,"ch":0,"note":69,"vel":0.8}
{"t":170991,"type":"note_on","id":401,"ch":0,"note":62,"vel":0.8}
{"t":170991,"type":"note_on","id":402,"ch":0,"note":71,"vel":0.8}
{"t":170991,"type":"note_on","id":403,"ch":0,"note":94,"vel":0.8}
{"t":170998,"type":"note_off","id":395,"ch":0,"note":77}
{"t":171047,"type":"note_on","id":404,"ch":0,"note":67,"vel":0.8}
{"t":171047,"type":"note_on","id":405,"ch":0,"note":35,"vel":0.8}
{"t":171062,"type":"note_off","id":397,"ch":0,"note":74}
{"t":171062,"type":"note_off","id":399,"ch":0,"note":39}
{"t":171110,"type":"note_on","id":406,"ch":0,"note":66,"vel":0.8}
{"t":171111,"type":"note_on","id":407,"ch":0,"note":82,"vel":0.8}
{"t":171111,"type":"note_on","id":408,"ch":0,"note":100,"vel":0.8}
{"t":171111,"type":"note_on","id":409,"ch":0,"note":89,"vel":0.8}
{"t":171111,"type":"note_on","id":410,"ch":0,"note":58,"vel":0.8}
{"t":171118,"type":"note_off","id":400,"ch":0,"note":69}
{"t":171118,"type":"note_off","id":402,"ch":0,"note":71}
{"t":171119,"type":"note_off","id":403,"ch":0,"note":94}
{"t":171119,"type":"note_off","id":401,"ch":0,"note":62}
{"t":171142,"type":"note_off","id":408,"ch":0,"note":100}
{"t":171174,"type":"note_on","id":411,"ch":0,"note":43,"vel":0.8}
{"t":171174,"type":"note_on","id":412,"ch":0,"note":86,"vel":0.8}
{"t":171182,"type":"note_off","id":404,"ch":0,"note":67}
{"t":171182,"type":"note_off","id":405,"ch":0,"note":35}
{"t":171206,"type":"note_off","id":412,"ch":0,"note":86}
{"t":171238,"type":"note_on","id":413,"ch":0,"note":72,"vel":0.8}
{"t":171238,"type":"note_on","id":414,"ch":0,"note":62,"vel":0.8}
{"t":171246,"type":"note_off","id":409,"ch":0,"note":89}
{"t":171247,"type":"note_off","id":410,"ch":0,"note":58}
{"t":171301,"type":"note_on","id":415,"ch":0,"note":100,"vel":0.8}
{"t":171358,"type":"note_on","id":416,"ch":0,"note":95,"vel":0.8}
{"t":171422,"type":"note_on","id":417,"ch":0,"note":57,"vel":0.8}
{"t":171422,"type":"note_on","id":418,"ch":0,"note":85,"vel":0.8}
{"t":171422,"type":"note_on","id":419,"ch":0,"note":53,"vel":0.8}
{"t":171438,"type":"note_off","id":407,"ch":0,"note":82}
{"t":171438,"type":"note_off","id":411,"ch":0,"note":43}
{"t":171439,"type":"note_off","id":415,"ch":0,"note":100}
{"t":171486,"type":"note_on","id":420,"ch":0,"note":92,"vel":0.8}
{"t":171494,"type":"note_off","id":416,"ch":0,"note":95}
{"t":171518,"type":"note_off","id":420,"ch":0,"note":92}
{"t":171550,"type":"note_on","id":421,"ch":0,"note":59,"vel":0.8}
{"t":171550,"type":"note_on","id":422,"ch":0,"note":38,"vel":0.8}
{"t":171551,"type":"note_on","id":423,"ch":0,"note":97,"vel":0.8}
{"t":171551,"type":"note_on","id":424,"ch":0,"note":46,"vel":0.8}
{"t":171558,"type":"note_off","id":417,"ch":0,"note":57}
{"t":171558,"type":"note_off","id":418,"ch":0,"note":85}
{"t":171559,"type":"note_off","id":419,"ch":0,"note":53}
{"t":171582,"type":"note_off","id":424,"ch":0,"note":46}
{"t":171614,"type":"note_on","id":425,"ch":0,"note":73,"vel":0.8}
{"t":171614,"type":"note_on","id":426,"ch":0,"note":82,"vel":0.8}
{"t":171638,"type":"note_off","id":425,"ch":0,"note":73}
{"t":171678,"type":"note_on","id":427,"ch":0,"note":92,"vel":0.8}
{"t":171679,"type":"note_on","id":428,"ch":0,"note":35,"vel":0.8}
{"t":171686,"type":"note_off","id":421,"ch":0,"note":59}
{"t":171687,"type":"note_off","id":423,"ch":0,"note":97}
{"t":171703,"type":"note_off","id":427,"ch":0,"note":92}
{"t":171734,"type":"note_on","id":429,"ch":0,"note":58,"vel":0.8}
{"t":171734,"type":"note_on","id":430,"ch":0,"note":77,"vel":0.8}
{"t":171799,"type":"note_on","id":431,"ch":0,"note":79,"vel":0.8}
{"t":171806,"type":"note_off","id":428,"ch":0,"note":35}
{"t":171830,"type":"note_off","id":431,"ch":0,"note":79}
{"t":171870,"type":"note_off","id":414,"ch":0,"note":62}
{"t":171871,"type":"note_off","id":422,"ch":0,"note":38}
{"t":171871,"type":"note_off","id":429,"ch":0,"note":58}
{"t":171927,"type":"note_on","id":432,"ch":0,"note":54,"vel":0.8}
{"t":171927,"type":"note_on","id":433,"ch":0,"note":86,"vel":0.8}
{"t":171927,"type":"note_on","id":434,"ch":0,"note":106,"vel":0.8}
{"t":171927,"type":"note_on","id":435,"ch":0,"note":65,"vel":0.8}
{"t":171982,"type":"note_on","id":436,"ch":0,"note":101,"vel":0.8}
{"t":171983,"type":"note_on","id":437,"ch":0,"note":48,"vel":0.8}
{"t":172014,"type":"note_off","id":436,"ch":0,"note":101}
{"t":172046,"type":"note_on","id":438,"ch":0,"note":61,"vel":0.8}
{"t":172047,"type":"note_on","id":439,"ch":0,"note":89,"vel":0.8}
{"t":172047,"type":"note_on","id":440,"ch":0,"note":97,"vel":0.8}
{"t":172047,"type":"note_on","id":441,"ch":0,"note":41,"vel":0.8}
{"t":172062,"type":"note_off","id":432,"ch":0,"note":54}
{"t":172063,"type":"note_off","id":434,"ch":0,"note":106}
{"t":172063,"type":"note_off","id":435,"ch":0,"note":65}
{"t":172110,"type":"note_on","id":442,"ch":0,"note":76,"vel":0.8}
{"t":172118,"type":"note_off","id":433,"ch":0,"note":86}
{"t":172118,"type":"note_off","id":437,"ch":0,"note":48}
{"t":172174,"type":"note_on","id":443,"ch":0,"note":96,"vel":0.8}
{"t":172182,"type":"note_off","id":426,"ch":0,"note":82}
{"t":172182,"type":"note_off","id":438,"ch":0,"note":61}
{"t":172182,"type":"note_off","id":439,"ch":0,"note":89}
{"t":172182,"type":"note_off","id":440,"ch":0,"note":97}
{"t":172182,"type":"note_off","id":441,"ch":0,"note":41}
{"t":172238,"type":"note_on","id":444,"ch":0,"note":35,"vel":0.8}
{"t":172246,"type":"note_off","id":406,"ch":0,"note":66}
{"t":172246,"type":"note_off","id":430,"ch":0,"note":77}
{"t":172247,"type":"note_off","id":442,"ch":0,"note":76}
{"t":172247,"type":"note_off","id":443,"ch":0,"note":96}
{"t":172303,"type":"note_on","id":445,"ch":0,"note":48,"vel":0.8}
{"t":172303,"type":"note_on","id":446,"ch":0,"note":39,"vel":0.8}
{"t":172326,"type":"note_off","id":445,"ch":0,"note":48}
{"t":172358,"type":"note_on","id":447,"ch":0,"note":61,"vel":0.8}
{"t":172374,"type":"note_off","id":413,"ch":0,"note":72}
{"t":172374,"type":"note_off","id":444,"ch":0,"note":35}
{"t":172422,"type":"note_on","id":448,"ch":0,"note":79,"vel":0.8}
{"t":172422,"type":"note_on","id":449,"ch":0,"note":55,"vel":0.8}
{"t":172431,"type":"note_off","id":446,"ch":0,"note":39}
{"t":172487,"type":"note_on","id":450,"ch":0,"note":86,"vel":0.8}
{"t":172487,"type":"note_on","id":451,"ch":0,"note":69,"vel":0.8}
{"t":172493,"type":"note_off","id":447,"ch":0,"note":61}
{"t":172518,"type":"note_off","id":451,"ch":0,"note":69}
{"t":172558,"type":"note_off","id":448,"ch":0,"note":79}
{"t":172558,"type":"note_off","id":449,"ch":0,"note":55}
{"t":172559,"type":"note_off","id":450,"ch":0,"note":86}
{"t":172615,"type":"note_on","id":452,"ch":0,"note":45,"vel":0.8}
{"t":172678,"type":"note_on","id":453,"ch":0,"note":77,"vel":0.8}
{"t":172678,"type":"note_on","id":454,"ch":0,"note":53,"vel":0.8}
{"t":172710,"type":"note_off","id":454,"ch":0,"note":53}
{"t":172742,"type":"note_on","id":455,"ch":0,"note":74,"vel":0.8}
{"t":172742,"type":"note_on","id":456,"ch":0,"note":50,"vel":0.8}
{"t":172743,"type":"note_on","id":457,"ch":0,"note":39,"vel":0.8}
{"t":172750,"type":"note_off","id":452,"ch":0,"note":45}
{"t":172766,"type":"note_off","id":456,"ch":0,"note":50}
{"t":172798,"type":"note_on","id":458,"ch":0,"note":69,"vel":0.8}
{"t":172799,"type":"note_on","id":459,"ch":0,"note":71,"vel":0.8}
{"t":172799,"type":"note_on","id":460,"ch":0,"note":94,"vel":0.8}
{"t":172799,"type":"note_on","id":461,"ch":0,"note":62,"vel":0.8}
{"t":172815,"type":"note_off","id":453,"ch":0,"note":77}
{"t":172862,"type":"note_on","id":462,"ch":0,"note":67,"vel":0.8}
{"t":172862,"type":"note_on","id":463,"ch":0,"note":35,"vel":0.8}
{"t":172878,"type":"note_off","id":455,"ch":0,"note":74}
{"t":172878,"type":"note_off","id":457,"ch":0,"note":39}
{"t":172927,"type":"note_on","id":464,"ch":0,"note":66,"vel":0.8}
{"t":172927,"type":"note_on","id":465,"ch":0,"note":82,"vel":0.8}
{"t":172927,"type":"note_on","id":466,"ch":0,"note":100,"vel":0.8}
{"t":172927,"type":"note_on","id":467,"ch":0,"note":89,"vel":0.8}
{"t":172927,"type":"note_on","id":468,"ch":0,"note":58,"vel":0.8}
{"t":172934,"type":"note_off","id":458,"ch":0,"note":69}
{"t":172934,"type":"note_off","id":459,"ch":0,"note":71}
{"t":172934,"type":"note_off","id":460,"ch":0,"note":94}
{"t":172934,"type":"note_off","id":461,"ch":0,"note":62}
{"t":172958,"type":"note_off","id":466,"ch":0,"note":100}
{"t":172989,"type":"note_on","id":469,"ch":0,"note":43,"vel":0.8}
{"t":172990,"type":"note_on","id":470,"ch":0,"note":86,"vel":0.8}
{"t":172998,"type":"note_off","id":462,"ch":0,"note":67}
{"t":172998,"type":"note_off","id":463,"ch":0,"note":35}
{"t":173022,"type":"note_off","id":470,"ch":0,"note":86}
{"t":173054,"type":"note_on","id":471,"ch":0,"note":72,"vel":0.8}
{"t":173054,"type":"note_on","id":472,"ch":0,"note":62,"vel":0.8}
{"t":173062,"type":"note_off","id":467,"ch":0,"note":89}
{"t":173062,"type":"note_off","id":468,"ch":0,"note":58}
{"t":173118,"type":"note_on","id":473,"ch":0,"note":100,"vel":0.8}
{"t":173174,"type":"note_on","id":474,"ch":0,"note":95,"vel":0.8}
{"t":173238,"type":"note_on","id":475,"ch":0,"note":57,"vel":0.8}
{"t":173238,"type":"note_on","id":476,"ch":0,"note":85,"vel":0.8}
{"t":173239,"type":"note_on","id":477,"ch":0,"note":53,"vel":0.8}
{"t":173246,"type":"note_off","id":465,"ch":0,"note":82}
{"t":173247,"type":"note_off","id":469,"ch":0,"note":43}
{"t":173247,"type":"note_off","id":473,"ch":0,"note":100}
{"t":173303,"type":"note_on","id":478,"ch":0,"note":92,"vel":0.8}
{"t":173310,"type":"note_off","id":474,"ch":0,"note":95}
{"t":173335,"type":"note_off","id":478,"ch":0,"note":92}
{"t":173366,"type":"note_on","id":479,"ch":0,"note":59,"vel":0.8}
{"t":173366,"type":"note_on","id":480,"ch":0,"note":38,"vel":0.8}
{"t":173367,"type":"note_on","id":481,"ch":0,"note":97,"vel":0.8}
{"t":173367,"type":"note_on","id":482,"ch":0,"note":46,"vel":0.8}
{"t":173374,"type":"note_off","id":475,"ch":0,"note":57}
{"t":173374,"type":"note_off","id":476,"ch":0,"note":85}
{"t":173374,"type":"note_off","id":477,"ch":0,"note":53}
{"t":173398,"type":"note_off","id":482,"ch":0,"note":46}
{"t":173431,"type":"note_on","id":483,"ch":0,"note":73,"vel":0.8}
{"t":173431,"type":"note_on","id":484,"ch":0,"note":82,"vel":0.8}
{"t":173454,"type":"note_off","id":483,"ch":0,"note":73}
{"t":173486,"type":"note_on","id":485,"ch":0,"note":92,"vel":0.8}
{"t":173487,"type":"note_on","id":486,"ch":0,"note":35,"vel":0.8}
{"t":173502,"type":"note_off","id":479,"ch":0,"note":59}
{"t":173502,"type":"note_off","id":481,"ch":0,"note":97}
{"t":173519,"type":"note_off","id":485,"ch":0,"note":92}
{"t":173550,"type":"note_on","id":487,"ch":0,"note":58,"vel":0.8}
{"t":173550,"type":"note_on","id":488,"ch":0,"note":77,"vel":0.8}
{"t":173614,"type":"note_on","id":489,"ch":0,"note":79,"vel":0.8}
{"t":173622,"type":"note_off","id":486,"ch":0,"note":35}
{"t":173647,"type":"note_off","id":489,"ch":0,"note":79}
{"t":173686,"type":"note_off","id":472,"ch":0,"note":62}
{"t":173686,"type":"note_off","id":480,"ch":0,"note":38}
{"t":173686,"type":"note_off","id":487,"ch":0,"note":58}
{"t":173743,"type":"note_on","id":490,"ch":0,"note":54,"vel":0.8}
{"t":173743,"type":"note_on","id":491,"ch":0,"note":86,"vel":0.8}
{"t":173743,"type":"note_on","id":492,"ch":0,"note":106,"vel":0.8}
{"t":173743,"type":"note_on","id":493,"ch":0,"note":65,"vel":0.8}
{"t":173799,"type":"note_on","id":494,"ch":0,"note":101,"vel":0.8}
{"t":173799,"type":"note_on","id":495,"ch":0,"note":48,"vel":0.8}
{"t":173830,"type":"note_off","id":494,"ch":0,"note":101}
{"t":173862,"type":"note_on","id":496,"ch":0,"note":61,"vel":0.8}
{"t":173862,"type":"note_on","id":497,"ch":0,"note":89,"vel":0.8}
{"t":173863,"type":"note_on","id":498,"ch":0,"note":97,"vel":0.8}
{"t":173863,"type":"note_on","id":499,"ch":0,"note":41,"vel":0.8}
{"t":173878,"type":"note_off","id":490,"ch":0,"note":54}
{"t":173878,"type":"note_off","id":492,"ch":0,"note":106}
{"t":173878,"type":"note_off","id":493,"ch":0,"note":65}
{"t":173926,"type":"note_on","id":500,"ch":0,"note":76,"vel":0.8}
{"t":173934,"type":"note_off","id":491,"ch":0,"note":86}
{"t":173934,"type":"note_off","id":495,"ch":0,"note":48}
{"t":173990,"type":"note_on","id":501,"ch":0,"note":96,"vel":0.8}
{"t":173998,"type":"note_off","id":484,"ch":0,"note":82}
{"t":173998,"type":"note_off","id":496,"ch":0,"note":61}
{"t":173999,"type":"note_off","id":497,"ch":0,"note":89}
{"t":173999,"type":"note_off","id":498,"ch":0,"note":97}
{"t":173999,"type":"note_off","id":499,"ch":0,"note":41}
{"t":174054,"type":"note_on","id":502,"ch":0,"note":35,"vel":0.8}
{"t":174062,"type":"note_off","id":464,"ch":0,"note":66}
{"t":174062,"type":"note_off","id":488,"ch":0,"note":77}
{"t":174063,"type":"note_off","id":500,"ch":0,"note":76}
{"t":174063,"type":"note_off","id":501,"ch":0,"note":96}
{"t":174118,"type":"note_on","id":503,"ch":0,"note":48,"vel":0.8}
{"t":174119,"type":"note_on","id":504,"ch":0,"note":39,"vel":0.8}
{"t":174142,"type":"note_off","id":503,"ch":0,"note":48}
{"t":174174,"type":"note_on","id":505,"ch":0,"note":61,"vel":0.8}
{"t":174190,"type":"note_off","id":471,"ch":0,"note":72}
{"t":174191,"type":"note_off","id":502,"ch":0,"note":35}
{"t":174239,"type":"note_on","id":506,"ch":0,"note":79,"vel":0.8}
{"t":174239,"type":"note_on","id":507,"ch":0,"note":55,"vel":0.8}
{"t":174246,"type":"note_off","id":504,"ch":0,"note":39}
{"t":174303,"type":"note_on","id":508,"ch":0,"note":86,"vel":0.8}
{"t":174303,"type":"note_on","id":509,"ch":0,"note":69,"vel":0.8}
{"t":174310,"type":"note_off","id":505,"ch":0,"note":61}
{"t":174334,"type":"note_off","id":509,"ch":0,"note":69}
{"t":174374,"type":"note_off","id":506,"ch":0,"note":79}
{"t":174374,"type":"note_off","id":507,"ch":0,"note":55}
{"t":174375,"type":"note_off","id":508,"ch":0,"note":86}
{"t":174430,"type":"note_on","id":510,"ch":0,"note":45,"vel":0.8}
{"t":174494,"type":"note_on","id":511,"ch":0,"note":77,"vel":0.8}
{"t":174495,"type":"note_on","id":512,"ch":0,"note":53,"vel":0.8}
{"t":174526,"type":"note_off","id":512,"ch":0,"note":53}
{"t":174558,"type":"note_on","id":513,"ch":0,"note":74,"vel":0.8}
{"t":174558,"type":"note_on","id":514,"ch":0,"note":50,"vel":0.8}
{"t":174558,"type":"note_on","id":515,"ch":0,"note":39,"vel":0.8}
{"t":174566,"type":"note_off","id":510,"ch":0,"note":45}
{"t":174582,"type":"note_off","id":514,"ch":0,"note":50}
{"t":174614,"type":"note_on","id":516,"ch":0,"note":69,"vel":0.8}
{"t":174615,"type":"note_on","id":517,"ch":0,"note":71,"vel":0.8}
{"t":174615,"type":"note_on","id":518,"ch":0,"note":94,"vel":0.8}
{"t":174615,"type":"note_on","id":519,"ch":0,"note":62,"vel":0.8}
{"t":174630,"type":"note_off","id":511,"ch":0,"note":77}
{"t":174678,"type":"note_on","id":520,"ch":0,"note":67,"vel":0.8}
{"t":174679,"type":"note_on","id":521,"ch":0,"note":35,"vel":0.8}
{"t":174686,"type":"note_off","id":513,"ch":0,"note":74}
{"t":174687,"type":"note_off","id":515,"ch":0,"note":39}
{"t":174742,"type":"note_on","id":522,"ch":0,"note":66,"vel":0.8}
{"t":174743,"type":"note_on","id":523,"ch":0,"note":82,"vel":0.8}
{"t":174743,"type":"note_on","id":524,"ch":0,"note":100,"vel":0.8}
{"t":174743,"type":"note_on","id":525,"ch":0,"note":89,"vel":0.8}
{"t":174743,"type":"note_on","id":526,"ch":0,"note":58,"vel":0.8}
{"t":174750,"type":"note_off","id":516,"ch":0,"note":69}
{"t":174750,"type":"note_off","id":517,"ch":0,"note":71}
{"t":174750,"type":"note_off","id":518,"ch":0,"note":94}
{"t":174750,"type":"note_off","id":519,"ch":0,"note":62}
{"t":174774,"type":"note_off","id":524,"ch":0,"note":100}
{"t":174806,"type":"note_on","id":527,"ch":0,"note":43,"vel":0.8}
{"t":174806,"type":"note_on","id":528,"ch":0,"note":86,"vel":0.8}
{"t":174814,"type":"note_off","id":520,"ch":0,"note":67}
{"t":174814,"type":"note_off","id":521,"ch":0,"note":35}
{"t":174838,"type":"note_off","id":528,"ch":0,"note":86}
{"t":174869,"type":"note_on","id":529,"ch":0,"note":72,"vel":0.8}
{"t":174870,"type":"note_on","id":530,"ch":0,"note":62,"vel":0.8}
{"t":174879,"type":"note_off","id":525,"ch":0,"note":89}
{"t":174879,"type":"note_off","id":526,"ch":0,"note":58}
{"t":174934,"type":"note_on","id":531,"ch":0,"note":100,"vel":0.8}
{"t":174990,"type":"note_on","id":532,"ch":0,"note":95,"vel":0.8}
{"t":175054,"type":"note_on","id":533,"ch":0,"note":57,"vel":0.8}
{"t":175054,"type":"note_on","id":534,"ch":0,"note":85,"vel":0.8}
{"t":175054,"type":"note_on","id":535,"ch":0,"note":53,"vel":0.8}
{"t":175062,"type":"note_off","id":523,"ch":0,"note":82}
{"t":175062,"type":"note_off","id":527,"ch":0,"note":43}
{"t":175063,"type":"note_off","id":531,"ch":0,"note":100}
{"t":175119,"type":"note_on","id":536,"ch":0,"note":92,"vel":0.8}
{"t":175125,"type":"note_off","id":532,"ch":0,"note":95}
{"t":175149,"type":"note_off","id":536,"ch":0,"note":92}
{"t":175182,"type":"note_on","id":537,"ch":0,"note":59,"vel":0.8}
{"t":175182,"type":"note_on","id":538,"ch":0,"note":38,"vel":0.8}
{"t":175183,"type":"note_on","id":539,"ch":0,"note":97,"vel":0.8}
{"t":175183,"type":"note_on","id":540,"ch":0,"note":46,"vel":0.8}
{"t":175189,"type":"note_off","id":533,"ch":0,"note":57}
{"t":175190,"type":"note_off","id":534,"ch":0,"note":85}
{"t":175190,"type":"note_off","id":535,"ch":0,"note":53}
{"t":175215,"type":"note_off","id":540,"ch":0,"note":46}
{"t":175246,"type":"note_on","id":541,"ch":0,"note":73,"vel":0.8}
{"t":175246,"type":"note_on","id":542,"ch":0,"note":82,"vel":0.8}
{"t":175270,"type":"note_off","id":541,"ch":0,"note":73}
{"t":175302,"type":"note_on","id":543,"ch":0,"note":92,"vel":0.8}
{"t":175302,"type":"note_on","id":544,"ch":0,"note":35,"vel":0.8}
{"t":175318,"type":"note_off","id":537,"ch":0,"note":59}
{"t":175318,"type":"note_off","id":539,"ch":0,"note":97}
{"t":175334,"type":"note_off","id":543,"ch":0,"note":92}
{"t":175366,"type":"note_on","id":545,"ch":0,"note":58,"vel":0.8}
{"t":175366,"type":"note_on","id":546,"ch":0,"note":77,"vel":0.8}
{"t":175430,"type":"note_on","id":547,"ch":0,"note":79,"vel":0.8}
{"t":175437,"type":"note_off","id":544,"ch":0,"note":35}
{"t":175463,"type":"note_off","id":547,"ch":0,"note":79}
{"t":175502,"type":"note_off","id":530,"ch":0,"note":62}
{"t":175503,"type":"note_off","id":538,"ch":0,"note":38}
{"t":175503,"type":"note_off","id":545,"ch":0,"note":58}
{"t":175558,"type":"note_on","id":548,"ch":0,"note":54,"vel":0.8}
{"t":175558,"type":"note_on","id":549,"ch":0,"note":86,"vel":0.8}
{"t":175559,"type":"note_on","id":550,"ch":0,"note":106,"vel":0.8}
{"t":175559,"type":"note_on","id":551,"ch":0,"note":65,"vel":0.8}
{"t":175615,"type":"note_on","id":552,"ch":0,"note":101,"vel":0.8}
{"t":175615,"type":"note_on","id":553,"ch":0,"note":48,"vel":0.8}
{"t":175646,"type":"note_off","id":552,"ch":0,"note":101}
{"t":175678,"type":"note_on","id":554,"ch":0,"note":61,"vel":0.8}
{"t":175678,"type":"note_on","id":555,"ch":0,"note":89,"vel":0.8}
{"t":175679,"type":"note_on","id":556,"ch":0,"note":97,"vel":0.8}
{"t":175679,"type":"note_on","id":557,"ch":0,"note":41,"vel":0.8}
{"t":175687,"type":"note_off","id":548,"ch":0,"note":54}
{"t":175687,"type":"note_off","id":550,"ch":0,"note":106}
{"t":175688,"type":"note_off","id":551,"ch":0,"note":65}
{"t":175743,"type":"note_on","id":558,"ch":0,"note":76,"vel":0.8}
{"t":175750,"type":"note_off","id":549,"ch":0,"note":86}
{"t":175750,"type":"note_off","id":553,"ch":0,"note":48}
{"t":175806,"type":"note_on","id":559,"ch":0,"note":96,"vel":0.8}
{"t":175814,"type":"note_off","id":542,"ch":0,"note":82}
{"t":175814,"type":"note_off","id":554,"ch":0,"note":61}
{"t":175814,"type":"note_off","id":555,"ch":0,"note":89}
{"t":175815,"type":"note_off","id":556,"ch":0,"note":97}
{"t":175815,"type":"note_off","id":557,"ch":0,"note":41}
{"t":175871,"type":"note_on","id":560,"ch":0,"note":35,"vel":0.8}
{"t":175878,"type":"note_off","id":522,"ch":0,"note":66}
{"t":175878,"type":"note_off","id":546,"ch":0,"note":77}
{"t":175878,"type":"note_off","id":558,"ch":0,"note":76}
{"t":175879,"type":"note_off","id":559,"ch":0,"note":96}
{"t":175934,"type":"note_on","id":561,"ch":0,"note":48,"vel":0.8}
{"t":175934,"type":"note_on","id":562,"ch":0,"note":39,"vel":0.8}
{"t":175958,"type":"note_off","id":561,"ch":0,"note":48}
{"t":175990,"type":"note_on","id":563,"ch":0,"note":61,"vel":0.8}
{"t":176006,"type":"note_off","id":529,"ch":0,"note":72}
{"t":176007,"type":"note_off","id":560,"ch":0,"note":35}
{"t":176054,"type":"note_on","id":564,"ch":0,"note":79,"vel":0.8}
{"t":176054,"type":"note_on","id":565,"ch":0,"note":55,"vel":0.8}
{"t":176062,"type":"note_off","id":562,"ch":0,"note":39}
{"t":176118,"type":"note_on","id":566,"ch":0,"note":86,"vel":0.8}
{"t":176119,"type":"note_on","id":567,"ch":0,"note":69,"vel":0.8}
{"t":176126,"type":"note_off","id":563,"ch":0,"note":61}
{"t":176150,"type":"note_off","id":567,"ch":0,"note":69}
{"t":176190,"type":"note_off","id":564,"ch":0,"note":79}
{"t":176190,"type":"note_off","id":565,"ch":0,"note":55}
{"t":176190,"type":"note_off","id":566,"ch":0,"note":86}
{"t":176246,"type":"note_on","id":568,"ch":0,"note":45,"vel":0.8}
{"t":176310,"type":"note_on","id":569,"ch":0,"note":77,"vel":0.8}
{"t":176311,"type":"note_on","id":570,"ch":0,"note":53,"vel":0.8}
{"t":176342,"type":"note_off","id":570,"ch":0,"note":53}
{"t":176374,"type":"note_on","id":571,"ch":0,"note":74,"vel":0.8}
{"t":176374,"type":"note_on","id":572,"ch":0,"note":50,"vel":0.8}
{"t":176374,"type":"note_on","id":573,"ch":0,"note":39,"vel":0.8}
{"t":176382,"type":"note_off","id":568,"ch":0,"note":45}
{"t":176398,"type":"note_off","id":572,"ch":0,"note":50}
{"t":176430,"type":"note_on","id":574,"ch":0,"note":69,"vel":0.8}
{"t":176430,"type":"note_on","id":575,"ch":0,"note":71,"vel":0.8}
{"t":176430,"type":"note_on","id":576,"ch":0,"note":94,"vel":0.8}
{"t":176430,"type":"note_on","id":577,"ch":0,"note":62,"vel":0.8}
{"t":176446,"type":"note_off","id":569,"ch":0,"note":77}
{"t":176494,"type":"note_on","id":578,"ch":0,"note":67,"vel":0.8}
{"t":176495,"type":"note_on","id":579,"ch":0,"note":35,"vel":0.8}
{"t":176502,"type":"note_off","id":571,"ch":0,"note":74}
{"t":176502,"type":"note_off","id":573,"ch":0,"note":39}
{"t":176558,"type":"note_on","id":580,"ch":0,"note":66,"vel":0.8}
{"t":176559,"type":"note_on","id":581,"ch":0,"note":82,"vel":0.8}
{"t":176559,"type":"note_on","id":582,"ch":0,"note":100,"vel":0.8}
{"t":176559,"type":"note_on","id":583,"ch":0,"note":89,"vel":0.8}
{"t":176559,"type":"note_on","id":584,"ch":0,"note":58,"vel":0.8}
{"t":176566,"type":"note_off","id":574,"ch":0,"note":69}
{"t":176566,"type":"note_off","id":575,"ch":0,"note":71}
{"t":176567,"type":"note_off","id":576,"ch":0,"note":94}
{"t":176567,"type":"note_off","id":577,"ch":0,"note":62}
{"t":176590,"type":"note_off","id":582,"ch":0,"note":100}
{"t":176622,"type":"note_on","id":585,"ch":0,"note":43,"vel":0.8}
{"t":176622,"type":"note_on","id":586,"ch":0,"note":86,"vel":0.8}
{"t":176630,"type":"note_off","id":578,"ch":0,"note":67}
{"t":176631,"type":"note_off","id":579,"ch":0,"note":35}
{"t":176654,"type":"note_off","id":586,"ch":0,"note":86}
{"t":176686,"type":"note_on","id":587,"ch":0,"note":72,"vel":0.8}
{"t":176686,"type":"note_on","id":588,"ch":0,"note":62,"vel":0.8}
{"t":176694,"type":"note_off","id":583,"ch":0,"note":89}
{"t":176694,"type":"note_off","id":584,"ch":0,"note":58}
{"t":176742,"type":"note_on","id":589,"ch":0,"note":100,"vel":0.8}
{"t":176806,"type":"note_on","id":590,"ch":0,"note":95,"vel":0.8}
{"t":176871,"type":"note_on","id":591,"ch":0,"note":57,"vel":0.8}
{"t":176871,"type":"note_on","id":592,"ch":0,"note":85,"vel":0.8}
{"t":176871,"type":"note_on","id":593,"ch":0,"note":53,"vel":0.8}
{"t":176878,"type":"note_off","id":581,"ch":0,"note":82}
{"t":176878,"type":"note_off","id":585,"ch":0,"note":43}
{"t":176878,"type":"note_off","id":589,"ch":0,"note":100}
{"t":176934,"type":"note_on","id":594,"ch":0,"note":92,"vel":0.8}
{"t":176942,"type":"note_off","id":590,"ch":0,"note":95}
{"t":176966,"type":"note_off","id":594,"ch":0,"note":92}
{"t":176998,"type":"note_on","id":595,"ch":0,"note":59,"vel":0.8}
{"t":176998,"type":"note_on","id":596,"ch":0,"note":38,"vel":0.8}
{"t":176998,"type":"note_on","id":597,"ch":0,"note":97,"vel":0.8}
{"t":176998,"type":"note_on","id":598,"ch":0,"note":46,"vel":0.8}
{"t":177006,"type":"note_off","id":591,"ch":0,"note":57}
{"t":177006,"type":"note_off","id":592,"ch":0,"note":85}
{"t":177006,"type":"note_off","id":593,"ch":0,"note":53}
{"t":177022,"type":"note_off","id":598,"ch":0,"note":46}
{"t":177062,"type":"note_on","id":599,"ch":0,"note":73,"vel":0.8}
{"t":177062,"type":"note_on","id":600,"ch":0,"note":82,"vel":0.8}
{"t":177086,"type":"note_off","id":599,"ch":0,"note":73}
{"t":177118,"type":"note_on","id":601,"ch":0,"note":92,"vel":0.8}
{"t":177118,"type":"note_on","id":602,"ch":0,"note":35,"vel":0.8}
{"t":177134,"type":"note_off","id":595,"ch":0,"note":59}
{"t":177134,"type":"note_off","id":597,"ch":0,"note":97}
{"t":177150,"type":"note_off","id":601,"ch":0,"note":92}
{"t":177182,"type":"note_on","id":603,"ch":0,"note":58,"vel":0.8}
{"t":177183,"type":"note_on","id":604,"ch":0,"note":77,"vel":0.8}
{"t":177247,"type":"note_on","id":605,"ch":0,"note":79,"vel":0.8}
{"t":177254,"type":"note_off","id":602,"ch":0,"note":35}
{"t":177278,"type":"note_off","id":605,"ch":0,"note":79}
{"t":177318,"type":"note_off","id":588,"ch":0,"note":62}
{"t":177319,"type":"note_off","id":596,"ch":0,"note":38}
{"t":177319,"type":"note_off","id":603,"ch":0,"note":58}
{"t":177374,"type":"note_on","id":606,"ch":0,"note":54,"vel":0.8}
{"t":177374,"type":"note_on","id":607,"ch":0,"note":86,"vel":0.8}
{"t":177374,"type":"note_on","id":608,"ch":0,"note":106,"vel":0.8}
{"t":177374,"type":"note_on","id":609,"ch":0,"note":65,"vel":0.8}
{"t":177430,"type":"note_on","id":610,"ch":0,"note":101,"vel":0.8}
{"t":177431,"type":"note_on","id":611,"ch":0,"note":48,"vel":0.8}
{"t":177462,"type":"note_off","id":610,"ch":0,"note":101}
{"t":177494,"type":"note_on","id":612,"ch":0,"note":61,"vel":0.8}
{"t":177494,"type":"note_on","id":613,"ch":0,"note":89,"vel":0.8}
{"t":177494,"type":"note_on","id":614,"ch":0,"note":97,"vel":0.8}
{"t":177495,"type":"note_on","id":615,"ch":0,"note":41,"vel":0.8}
{"t":177503,"type":"note_off","id":606,"ch":0,"note":54}
{"t":177503,"type":"note_off","id":608,"ch":0,"note":106}
{"t":177503,"type":"note_off","id":609,"ch":0,"note":65}
{"t":177558,"type":"note_on","id":616,"ch":0,"note":76,"vel":0.8}
{"t":177566,"type":"note_off","id":607,"ch":0,"note":86}
{"t":177567,"type":"note_off","id":611,"ch":0,"note":48}
{"t":177622,"type":"note_on","id":617,"ch":0,"note":96,"vel":0.8}
{"t":177630,"type":"note_off","id":600,"ch":0,"note":82}
{"t":177630,"type":"note_off","id":612,"ch":0,"note":61}
{"t":177631,"type":"note_off","id":613,"ch":0,"note":89}
{"t":177631,"type":"note_off","id":614,"ch":0,"note":97}
{"t":177631,"type":"note_off","id":615,"ch":0,"note":41}
{"t":177686,"type":"note_on","id":618,"ch":0,"note":35,"vel":0.8}
{"t":177695,"type":"note_off","id":580,"ch":0,"note":66}
{"t":177695,"type":"note_off","id":604,"ch":0,"note":77}
{"t":177695,"type":"note_off","id":616,"ch":0,"note":76}
{"t":177696,"type":"note_off","id":617,"ch":0,"note":96}
{"t":177742,"type":"note_on","id":619,"ch":0,"note":48,"vel":0.8}
{"t":177743,"type":"note_on","id":620,"ch":0,"note":39,"vel":0.8}
{"t":177774,"type":"note_off","id":619,"ch":0,"note":48}
{"t":177806,"type":"note_on","id":621,"ch":0,"note":61,"vel":0.8}
{"t":177822,"type":"note_off","id":587,"ch":0,"note":72}
{"t":177822,"type":"note_off","id":618,"ch":0,"note":35}
{"t":177871,"type":"note_on","id":622,"ch":0,"note":79,"vel":0.8}
{"t":177871,"type":"note_on","id":623,"ch":0,"note":55,"vel":0.8}
{"t":177878,"type":"note_off","id":620,"ch":0,"note":39}
{"t":177935,"type":"note_on","id":624,"ch":0,"note":86,"vel":0.8}
{"t":177935,"type":"note_on","id":625,"ch":0,"note":69,"vel":0.8}
{"t":177943,"type":"note_off","id":621,"ch":0,"note":61}
{"t":177966,"type":"note_off","id":625,"ch":0,"note":69}
{"t":178006,"type":"note_off","id":622,"ch":0,"note":79}
{"t":178006,"type":"note_off","id":623,"ch":0,"note":55}
{"t":178007,"type":"note_off","id":624,"ch":0,"note":86}
{"t":178062,"type":"note_on","id":626,"ch":0,"note":45,"vel":0.8}
{"t":178126,"type":"note_on","id":627,"ch":0,"note":77,"vel":0.8}
{"t":178127,"type":"note_on","id":628,"ch":0,"note":53,"vel":0.8}
{"t":178158,"type":"note_off","id":628,"ch":0,"note":53}
{"t":178190,"type":"note_on","id":629,"ch":0,"note":74,"vel":0.8}
{"t":178190,"type":"note_on","id":630,"ch":0,"note":50,"vel":0.8}
{"t":178190,"type":"note_on","id":631,"ch":0,"note":39,"vel":0.8}
{"t":178198,"type":"note_off","id":626,"ch":0,"note":45}
{"t":178215,"type":"note_off","id":630,"ch":0,"note":50}
{"t":178254,"type":"note_on","id":632,"ch":0,"note":69,"vel":0.8}
{"t":178254,"type":"note_on","id":633,"ch":0,"note":71,"vel":0.8}
{"t":178254,"type":"note_on","id":634,"ch":0,"note":94,"vel":0.8}
{"t":178254,"type":"note_on","id":635,"ch":0,"note":62,"vel":0.8}
{"t":178262,"type":"note_off","id":627,"ch":0,"note":77}
{"t":178310,"type":"note_on","id":636,"ch":0,"note":67,"vel":0.8}
{"t":178310,"type":"note_on","id":637,"ch":0,"note":35,"vel":0.8}
{"t":178326,"type":"note_off","id":629,"ch":0,"note":74}
{"t":178326,"type":"note_off","id":631,"ch":0,"note":39}
{"t":178374,"type":"note_on","id":638,"ch":0,"note":66,"vel":0.8}
{"t":178374,"type":"note_on","id":639,"ch":0,"note":82,"vel":0.8}
{"t":178375,"type":"note_on","id":640,"ch":0,"note":100,"vel":0.8}
{"t":178375,"type":"note_on","id":641,"ch":0,"note":89,"vel":0.8}
{"t":178375,"type":"note_on","id":642,"ch":0,"note":58,"vel":0.8}
{"t":178382,"type":"note_off","id":632,"ch":0,"note":69}
{"t":178382,"type":"note_off","id":633,"ch":0,"note":71}
{"t":178383,"type":"note_off","id":634,"ch":0,"note":94}
{"t":178383,"type":"note_off","id":635,"ch":0,"note":62}
{"t":178406,"type":"note_off","id":640,"ch":0,"note":100}
{"t":178437,"type":"note_on","id":643,"ch":0,"note":43,"vel":0.8}
{"t":178438,"type":"note_on","id":644,"ch":0,"note":86,"vel":0.8}
{"t":178446,"type":"note_off","id":636,"ch":0,"note":67}
{"t":178446,"type":"note_off","id":637,"ch":0,"note":35}
{"t":178470,"type":"note_off","id":644,"ch":0,"note":86}
{"t":178502,"type":"note_on","id":645,"ch":0,"note":72,"vel":0.8}
{"t":178502,"type":"note_on","id":646,"ch":0,"note":62,"vel":0.8}
{"t":178510,"type":"note_off","id":641,"ch":0,"note":89}
{"t":178510,"type":"note_off","id":642,"ch":0,"note":58}
{"t":178566,"type":"note_on","id":647,"ch":0,"note":100,"vel":0.8}
{"t":178622,"type":"note_on","id":648,"ch":0,"note":95,"vel":0.8}
{"t":178687,"type":"note_on","id":649,"ch":0,"note":57,"vel":0.8}
{"t":178687,"type":"note_on","id":650,"ch":0,"note":85,"vel":0.8}
{"t":178687,"type":"note_on","id":651,"ch":0,"note":53,"vel":0.8}
{"t":178694,"type":"note_off","id":639,"ch":0,"note":82}
{"t":178694,"type":"note_off","id":643,"ch":0,"note":43}
{"t":178694,"type":"note_off","id":647,"ch":0,"note":100}
{"t":178750,"type":"note_on","id":652,"ch":0,"note":92,"vel":0.8}
{"t":178758,"type":"note_off","id":648,"ch":0,"note":95}
{"t":178782,"type":"note_off","id":652,"ch":0,"note":92}
{"t":178815,"type":"note_on","id":653,"ch":0,"note":59,"vel":0.8}
{"t":178815,"type":"note_on","id":654,"ch":0,"note":38,"vel":0.8}
{"t":178815,"type":"note_on","id":655,"ch":0,"note":97,"vel":0.8}
{"t":178816,"type":"note_on","id":656,"ch":0,"note":46,"vel":0.8}
{"t":178823,"type":"note_off","id":649,"ch":0,"note":57}
{"t":178823,"type":"note_off","id":650,"ch":0,"note":85}
{"t":178823,"type":"note_off","id":651,"ch":0,"note":53}
{"t":178846,"type":"note_off","id":656,"ch":0,"note":46}
{"t":178878,"type":"note_on","id":657,"ch":0,"note":73,"vel":0.8}
{"t":178878,"type":"note_on","id":658,"ch":0,"note":82,"vel":0.8}
{"t":178902,"type":"note_off","id":657,"ch":0,"note":73}
{"t":178935,"type":"note_on","id":659,"ch":0,"note":92,"vel":0.8}
{"t":178935,"type":"note_on","id":660,"ch":0,"note":35,"vel":0.8}
{"t":178950,"type":"note_off","id":653,"ch":0,"note":59}
{"t":178950,"type":"note_off","id":655,"ch":0,"note":97}
{"t":178966,"type":"note_off","id":659,"ch":0,"note":92}
{"t":178998,"type":"note_on","id":661,"ch":0,"note":58,"vel":0.8}
{"t":178998,"type":"note_on","id":662,"ch":0,"note":77,"vel":0.8}
{"t":179062,"type":"note_on","id":663,"ch":0,"note":79,"vel":0.8}
{"t":179070,"type":"note_off","id":660,"ch":0,"note":35}
{"t":179093,"type":"note_off","id":663,"ch":0,"note":79}
{"t":179135,"type":"note_off","id":646,"ch":0,"note":62}
{"t":179135,"type":"note_off","id":654,"ch":0,"note":38}
{"t":179135,"type":"note_off","id":661,"ch":0,"note":58}
{"t":179190,"type":"note_on","id":664,"ch":0,"note":54,"vel":0.8}
{"t":179190,"type":"note_on","id":665,"ch":0,"note":86,"vel":0.8}
{"t":179190,"type":"note_on","id":666,"ch":0,"note":106,"vel":0.8}
{"t":179190,"type":"note_on","id":667,"ch":0,"note":65,"vel":0.8}
{"t":179254,"type":"note_on","id":668,"ch":0,"note":101,"vel":0.8}
{"t":179254,"type":"note_on","id":669,"ch":0,"note":48,"vel":0.8}
{"t":179278,"type":"note_off","id":668,"ch":0,"note":101}
{"t":179310,"type":"note_on","id":670,"ch":0,"note":61,"vel":0.8}
{"t":179310,"type":"note_on","id":671,"ch":0,"note":89,"vel":0.8}
{"t":179311,"type":"note_on","id":672,"ch":0,"note":97,"vel":0.8}
{"t":179311,"type":"note_on","id":673,"ch":0,"note":41,"vel":0.8}
{"t":179326,"type":"note_off","id":664,"ch":0,"note":54}
{"t":179326,"type":"note_off","id":666,"ch":0,"note":106}
{"t":179326,"type":"note_off","id":667,"ch":0,"note":65}
{"t":179374,"type":"note_on","id":674,"ch":0,"note":76,"vel":0.8}
{"t":179382,"type":"note_off","id":665,"ch":0,"note":86}
{"t":179382,"type":"note_off","id":669,"ch":0,"note":48}
{"t":179437,"type":"note_on","id":675,"ch":0,"note":96,"vel":0.8}
{"t":179446,"type":"note_off","id":658,"ch":0,"note":82}
{"t":179447,"type":"note_off","id":670,"ch":0,"note":61}
{"t":179447,"type":"note_off","id":671,"ch":0,"note":89}
{"t":179447,"type":"note_off","id":672,"ch":0,"note":97}
{"t":179448,"type":"note_off","id":673,"ch":0,"note":41}
{"t":179502,"type":"note_on","id":676,"ch":0,"note":35,"vel":0.8}
{"t":179511,"type":"note_off","id":638,"ch":0,"note":66}
{"t":179511,"type":"note_off","id":662,"ch":0,"note":77}
{"t":179511,"type":"note_off","id":674,"ch":0,"note":76}
{"t":179511,"type":"note_off","id":675,"ch":0,"note":96}
{"t":179566,"type":"note_on","id":677,"ch":0,"note":48,"vel":0.8}
{"t":179566,"type":"note_on","id":678,"ch":0,"note":39,"vel":0.8}
{"t":179590,"type":"note_off","id":677,"ch":0,"note":48}
{"t":179622,"type":"note_on","id":679,"ch":0,"note":61,"vel":0.8}
{"t":179638,"type":"note_off","id":645,"ch":0,"note":72}
{"t":179638,"type":"note_off","id":676,"ch":0,"note":35}
{"t":179686,"type":"note_on","id":680,"ch":0,"note":79,"vel":0.8}
{"t":179687,"type":"note_on","id":681,"ch":0,"note":55,"vel":0.8}
{"t":179694,"type":"note_off","id":678,"ch":0,"note":39}
{"t":179750,"type":"note_on","id":682,"ch":0,"note":86,"vel":0.8}
{"t":179750,"type":"note_on","id":683,"ch":0,"note":69,"vel":0.8}
{"t":179758,"type":"note_off","id":679,"ch":0,"note":61}
{"t":179782,"type":"note_off","id":683,"ch":0,"note":69}
{"t":179822,"type":"note_off","id":680,"ch":0,"note":79}
{"t":179822,"type":"note_off","id":681,"ch":0,"note":55}
{"t":179822,"type":"note_off","id":682,"ch":0,"note":86}
{"t":179878,"type":"note_on","id":684,"ch":0,"note":45,"vel":0.8}
{"t":179942,"type":"note_on","id":685,"ch":0,"note":77,"vel":0.8}
{"t":179942,"type":"note_on","id":686,"ch":0,"note":53,"vel":0.8}
{"t":179974,"type":"note_off","id":686,"ch":0,"note":53}
{"t":180006,"type":"note_on","id":687,"ch":0,"note":74,"vel":0.8}
{"t":180006,"type":"note_on","id":688,"ch":0,"note":50,"vel":0.8}
{"t":180007,"type":"note_on","id":689,"ch":0,"note":39,"vel":0.8}
{"t":180014,"type":"note_off","id":684,"ch":0,"note":45}
{"t":180030,"type":"note_off","id":688,"ch":0,"note":50}
{"t":180063,"type":"note_on","id":690,"ch":0,"note":69,"vel":0.8}
{"t":180063,"type":"note_on","id":691,"ch":0,"note":71,"vel":0.8}
{"t":180063,"type":"note_on","id":692,"ch":0,"note":94,"vel":0.8}
{"t":180063,"type":"note_on","id":693,"ch":0,"note":62,"vel":0.8}
{"t":180078,"type":"note_off","id":685,"ch":0,"note":77}
{"t":180126,"type":"note_on","id":694,"ch":0,"note":67,"vel":0.8}
{"t":180126,"type":"note_on","id":695,"ch":0,"note":35,"vel":0.8}
{"t":180135,"type":"note_off","id":687,"ch":0,"note":74}
{"t":180135,"type":"note_off","id":689,"ch":0,"note":39}
{"t":180190,"type":"note_on","id":696,"ch":0,"note":66,"vel":0.8}
{"t":180190,"type":"note_on","id":697,"ch":0,"note":82,"vel":0.8}
{"t":180190,"type":"note_on","id":698,"ch":0,"note":100,"vel":0.8}
{"t":180190,"type":"note_on","id":699,"ch":0,"note":89,"vel":0.8}
{"t":180191,"type":"note_on","id":700,"ch":0,"note":58,"vel":0.8}
{"t":180198,"type":"note_off","id":690,"ch":0,"note":69}
{"t":180198,"type":"note_off","id":691,"ch":0,"note":71}
{"t":180198,"type":"note_off","id":692,"ch":0,"note":94}
{"t":180198,"type":"note_off","id":693,"ch":0,"note":62}
{"t":180222,"type":"note_off","id":698,"ch":0,"note":100}
{"t":180254,"type":"note_on","id":701,"ch":0,"note":43,"vel":0.8}
{"t":180254,"type":"note_on","id":702,"ch":0,"note":86,"vel":0.8}
{"t":180262,"type":"note_off","id":694,"ch":0,"note":67}
{"t":180262,"type":"note_off","id":695,"ch":0,"note":35}
{"t":180286,"type":"note_off","id":702,"ch":0,"note":86}
{"t":180319,"type":"note_on","id":703,"ch":0,"note":72,"vel":0.8}
{"t":180319,"type":"note_on","id":704,"ch":0,"note":62,"vel":0.8}
{"t":180326,"type":"note_off","id":699,"ch":0,"note":89}
{"t":180326,"type":"note_off","id":700,"ch":0,"note":58}
{"t":180382,"type":"note_on","id":705,"ch":0,"note":100,"vel":0.8}
{"t":180437,"type":"note_on","id":706,"ch":0,"note":95,"vel":0.8}
{"t":180503,"type":"note_on","id":707,"ch":0,"note":57,"vel":0.8}
{"t":180503,"type":"note_on","id":708,"ch":0,"note":85,"vel":0.8}
{"t":180503,"type":"note_on","id":709,"ch":0,"note":53,"vel":0.8}
{"t":180510,"type":"note_off","id":697,"ch":0,"note":82}
{"t":180510,"type":"note_off","id":701,"ch":0,"note":43}
{"t":180511,"type":"note_off","id":705,"ch":0,"note":100}
{"t":180566,"type":"note_on","id":710,"ch":0,"note":92,"vel":0.8}
{"t":180575,"type":"note_off","id":706,"ch":0,"note":95}
{"t":180598,"type":"note_off","id":710,"ch":0,"note":92}
{"t":180630,"type":"note_on","id":711,"ch":0,"note":59,"vel":0.8}
{"t":180630,"type":"note_on","id":712,"ch":0,"note":38,"vel":0.8}
{"t":180631,"type":"note_on","id":713,"ch":0,"note":97,"vel":0.8}
{"t":180631,"type":"note_on","id":714,"ch":0,"note":46,"vel":0.8}
{"t":180637,"type":"note_off","id":707,"ch":0,"note":57}
{"t":180638,"type":"note_off","id":708,"ch":0,"note":85}
{"t":180638,"type":"note_off","id":709,"ch":0,"note":53}
{"t":180663,"type":"note_off","id":714,"ch":0,"note":46}
{"t":180694,"type":"note_on","id":715,"ch":0,"note":73,"vel":0.8}
{"t":180694,"type":"note_on","id":716,"ch":0,"note":82,"vel":0.8}
{"t":180718,"type":"note_off","id":715,"ch":0,"note":73}
{"t":180750,"type":"note_on","id":717,"ch":0,"note":92,"vel":0.8}
{"t":180750,"type":"note_on","id":718,"ch":0,"note":35,"vel":0.8}
{"t":180766,"type":"note_off","id":711,"ch":0,"note":59}
{"t":180766,"type":"note_off","id":713,"ch":0,"note":97}
{"t":180782,"type":"note_off","id":717,"ch":0,"note":92}
{"t":180814,"type":"note_on","id":719,"ch":0,"note":58,"vel":0.8}
{"t":180814,"type":"note_on","id":720,"ch":0,"note":77,"vel":0.8}
{"t":180878,"type":"note_on","id":721,"ch":0,"note":79,"vel":0.8}
{"t":180886,"type":"note_off","id":718,"ch":0,"note":35}
{"t":180911,"type":"note_off","id":721,"ch":0,"note":79}
{"t":180950,"type":"note_off","id":704,"ch":0,"note":62}
{"t":180951,"type":"note_off","id":712,"ch":0,"note":38}
{"t":180951,"type":"note_off","id":719,"ch":0,"note":58}
{"t":181006,"type":"note_on","id":722,"ch":0,"note":54,"vel":0.8}
{"t":181007,"type":"note_on","id":723,"ch":0,"note":86,"vel":0.8}
{"t":181007,"type":"note_on","id":724,"ch":0,"note":106,"vel":0.8}
{"t":181008,"type":"note_on","id":725,"ch":0,"note":65,"vel":0.8}
{"t":181062,"type":"note_on","id":726,"ch":0,"note":101,"vel":0.8}
{"t":181062,"type":"note_on","id":727,"ch":0,"note":48,"vel":0.8}
{"t":181094,"type":"note_off","id":726,"ch":0,"note":101}
{"t":181126,"type":"note_on","id":728,"ch":0,"note":61,"vel":0.8}
{"t":181126,"type":"note_on","id":729,"ch":0,"note":89,"vel":0.8}
{"t":181127,"type":"note_on","id":730,"ch":0,"note":97,"vel":0.8}
{"t":181127,"type":"note_on","id":731,"ch":0,"note":41,"vel":0.8}
{"t":181135,"type":"note_off","id":722,"ch":0,"note":54}
{"t":181135,"type":"note_off","id":724,"ch":0,"note":106}
{"t":181136,"type":"note_off","id":725,"ch":0,"note":65}
{"t":181189,"type":"note_on","id":732,"ch":0,"note":76,"vel":0.8}
{"t":181198,"type":"note_off","id":723,"ch":0,"note":86}
{"t":181198,"type":"note_off","id":727,"ch":0,"note":48}
{"t":181254,"type":"note_on","id":733,"ch":0,"note":96,"vel":0.8}
{"t":181263,"type":"note_off","id":716,"ch":0,"note":82}
{"t":181263,"type":"note_off","id":728,"ch":0,"note":61}
{"t":181264,"type":"note_off","id":729,"ch":0,"note":89}
{"t":181264,"type":"note_off","id":730,"ch":0,"note":97}
{"t":181264,"type":"note_off","id":731,"ch":0,"note":41}
{"t":181318,"type":"note_on","id":734,"ch":0,"note":35,"vel":0.8}
{"t":181326,"type":"note_off","id":696,"ch":0,"note":66}
{"t":181326,"type":"note_off","id":720,"ch":0,"note":77}
{"t":181327,"type":"note_off","id":732,"ch":0,"note":76}
{"t":181327,"type":"note_off","id":733,"ch":0,"note":96}
{"t":181382,"type":"note_on","id":735,"ch":0,"note":48,"vel":0.8}
{"t":181382,"type":"note_on","id":736,"ch":0,"note":39,"vel":0.8}
{"t":181407,"type":"note_off","id":735,"ch":0,"note":48}
{"t":181437,"type":"note_on","id":737,"ch":0,"note":61,"vel":0.8}
{"t":181454,"type":"note_off","id":703,"ch":0,"note":72}
{"t":181454,"type":"note_off","id":734,"ch":0,"note":35}
{"t":181502,"type":"note_on","id":738,"ch":0,"note":79,"vel":0.8}
{"t":181503,"type":"note_on","id":739,"ch":0,"note":55,"vel":0.8}
{"t":181509,"type":"note_off","id":736,"ch":0,"note":39}
{"t":181566,"type":"note_on","id":740,"ch":0,"note":86,"vel":0.8}
{"t":181566,"type":"note_on","id":741,"ch":0,"note":69,"vel":0.8}
{"t":181574,"type":"note_off","id":737,"ch":0,"note":61}
{"t":181598,"type":"note_off","id":741,"ch":0,"note":69}
{"t":181638,"type":"note_off","id":738,"ch":0,"note":79}
{"t":181638,"type":"note_off","id":739,"ch":0,"note":55}
{"t":181638,"type":"note_off","id":740,"ch":0,"note":86}
{"t":181694,"type":"note_on","id":742,"ch":0,"note":45,"vel":0.8}
{"t":181758,"type":"note_on","id":743,"ch":0,"note":77,"vel":0.8}
{"t":181759,"type":"note_on","id":744,"ch":0,"note":53,"vel":0.8}
{"t":181790,"type":"note_off","id":744,"ch":0,"note":53}
{"t":181815,"type":"note_on","id":745,"ch":0,"note":74,"vel":0.8}
{"t":181815,"type":"note_on","id":746,"ch":0,"note":50,"vel":0.8}
{"t":181815,"type":"note_on","id":747,"ch":0,"note":39,"vel":0.8}
{"t":181831,"type":"note_off","id":742,"ch":0,"note":45}
{"t":181846,"type":"note_off","id":746,"ch":0,"note":50}
{"t":181878,"type":"note_on","id":748,"ch":0,"note":69,"vel":0.8}
{"t":181878,"type":"note_on","id":749,"ch":0,"note":71,"vel":0.8}
{"t":181878,"type":"note_on","id":750,"ch":0,"note":94,"vel":0.8}
{"t":181879,"type":"note_on","id":751,"ch":0,"note":62,"vel":0.8}
{"t":181894,"type":"note_off","id":743,"ch":0,"note":77}
{"t":181943,"type":"note_on","id":752,"ch":0,"note":67,"vel":0.8}
{"t":181943,"type":"note_on","id":753,"ch":0,"note":35,"vel":0.8}
{"t":181950,"type":"note_off","id":745,"ch":0,"note":74}
{"t":181950,"type":"note_off","id":747,"ch":0,"note":39}
{"t":182006,"type":"note_on","id":754,"ch":0,"note":66,"vel":0.8}
{"t":182006,"type":"note_on","id":755,"ch":0,"note":82,"vel":0.8}
{"t":182006,"type":"note_on","id":756,"ch":0,"note":100,"vel":0.8}
{"t":182007,"type":"note_on","id":757,"ch":0,"note":89,"vel":0.8}
{"t":182007,"type":"note_on","id":758,"ch":0,"note":58,"vel":0.8}
{"t":182014,"type":"note_off","id":748,"ch":0,"note":69}
{"t":182014,"type":"note_off","id":749,"ch":0,"note":71}
{"t":182014,"type":"note_off","id":750,"ch":0,"note":94}
{"t":182014,"type":"note_off","id":751,"ch":0,"note":62}
{"t":182038,"type":"note_off","id":756,"ch":0,"note":100}
{"t":182071,"type":"note_on","id":759,"ch":0,"note":43,"vel":0.8}
{"t":182071,"type":"note_on","id":760,"ch":0,"note":86,"vel":0.8}
{"t":182078,"type":"note_off","id":752,"ch":0,"note":67}
{"t":182078,"type":"note_off","id":753,"ch":0,"note":35}
{"t":182102,"type":"note_off","id":760,"ch":0,"note":86}
{"t":182134,"type":"note_on","id":761,"ch":0,"note":72,"vel":0.8}
{"t":182134,"type":"note_on","id":762,"ch":0,"note":62,"vel":0.8}
{"t":182142,"type":"note_off","id":757,"ch":0,"note":89}
{"t":182142,"type":"note_off","id":758,"ch":0,"note":58}
{"t":182198,"type":"note_on","id":763,"ch":0,"note":100,"vel":0.8}
{"t":182254,"type":"note_on","id":764,"ch":0,"note":95,"vel":0.8}
{"t":182318,"type":"note_on","id":765,"ch":0,"note":57,"vel":0.8}
{"t":182319,"type":"note_on","id":766,"ch":0,"note":85,"vel":0.8}
{"t":182319,"type":"note_on","id":767,"ch":0,"note":53,"vel":0.8}
{"t":182326,"type":"note_off","id":755,"ch":0,"note":82}
{"t":182326,"type":"note_off","id":759,"ch":0,"note":43}
{"t":182327,"type":"note_off","id":763,"ch":0,"note":100}
{"t":182382,"type":"note_on","id":768,"ch":0,"note":92,"vel":0.8}
{"t":182390,"type":"note_off","id":764,"ch":0,"note":95}
{"t":182415,"type":"note_off","id":768,"ch":0,"note":92}
{"t":182446,"type":"note_on","id":769,"ch":0,"note":59,"vel":0.8}
{"t":182447,"type":"note_on","id":770,"ch":0,"note":38,"vel":0.8}
{"t":182447,"type":"note_on","id":771,"ch":0,"note":97,"vel":0.8}
{"t":182447,"type":"note_on","id":772,"ch":0,"note":46,"vel":0.8}
{"t":182454,"type":"note_off","id":765,"ch":0,"note":57}
{"t":182454,"type":"note_off","id":766,"ch":0,"note":85}
{"t":182454,"type":"note_off","id":767,"ch":0,"note":53}
{"t":182470,"type":"note_off","id":772,"ch":0,"note":46}
{"t":182511,"type":"note_on","id":773,"ch":0,"note":73,"vel":0.8}
{"t":182511,"type":"note_on","id":774,"ch":0,"note":82,"vel":0.8}
{"t":182537,"type":"note_off","id":773,"ch":0,"note":73}
{"t":182566,"type":"note_on","id":775,"ch":0,"note":92,"vel":0.8}
{"t":182567,"type":"note_on","id":776,"ch":0,"note":35,"vel":0.8}
{"t":182582,"type":"note_off","id":769,"ch":0,"note":59}
{"t":182582,"type":"note_off","id":771,"ch":0,"note":97}
{"t":182598,"type":"note_off","id":775,"ch":0,"note":92}
{"t":182637,"type":"note_on","id":777,"ch":0,"note":59,"vel":0.8}
{"t":182638,"type":"note_on","id":778,"ch":0,"note":58,"vel":0.8}
{"t":182638,"type":"note_on","id":779,"ch":0,"note":97,"vel":0.8}
{"t":182638,"type":"note_on","id":780,"ch":0,"note":92,"vel":0.8}
{"t":182638,"type":"note_on","id":781,"ch":0,"note":77,"vel":0.8}
{"t":182646,"type":"note_off","id":777,"ch":0,"note":59}
{"t":182646,"type":"note_off","id":779,"ch":0,"note":97}
{"t":182662,"type":"note_off","id":780,"ch":0,"note":92}
{"t":182702,"type":"note_off","id":776,"ch":0,"note":35}
{"t":182710,"type":"note_on","id":782,"ch":0,"note":35,"vel":0.8}
{"t":182758,"type":"note_on","id":783,"ch":0,"note":79,"vel":0.8}
{"t":182767,"type":"note_off","id":762,"ch":0,"note":62}
{"t":182767,"type":"note_off","id":770,"ch":0,"note":38}
{"t":182768,"type":"note_off","id":778,"ch":0,"note":58}
{"t":182768,"type":"note_off","id":782,"ch":0,"note":35}
{"t":182774,"type":"note_on","id":784,"ch":0,"note":38,"vel":0.8}
{"t":182790,"type":"note_off","id":783,"ch":0,"note":79}
{"t":182831,"type":"note_off","id":784,"ch":0,"note":38}
{"t":182878,"type":"note_on","id":785,"ch":0,"note":54,"vel":0.8}
{"t":182878,"type":"note_on","id":786,"ch":0,"note":86,"vel":0.8}
{"t":182878,"type":"note_on","id":787,"ch":0,"note":101,"vel":0.8}
{"t":182879,"type":"note_on","id":788,"ch":0,"note":106,"vel":0.8}
{"t":182879,"type":"note_on","id":789,"ch":0,"note":48,"vel":0.8}
{"t":182879,"type":"note_on","id":790,"ch":0,"note":65,"vel":0.8}
{"t":182911,"type":"note_off","id":787,"ch":0,"note":101}
{"t":183006,"type":"note_on","id":791,"ch":0,"note":61,"vel":0.8}
{"t":183007,"type":"note_on","id":792,"ch":0,"note":76,"vel":0.8}
{"t":183007,"type":"note_on","id":793,"ch":0,"note":89,"vel":0.8}
{"t":183007,"type":"note_on","id":794,"ch":0,"note":97,"vel":0.8}
{"t":183007,"type":"note_on","id":795,"ch":0,"note":41,"vel":0.8}
{"t":183014,"type":"note_off","id":785,"ch":0,"note":54}
{"t":183014,"type":"note_off","id":788,"ch":0,"note":106}
{"t":183014,"type":"note_off","id":789,"ch":0,"note":48}
{"t":183014,"type":"note_off","id":790,"ch":0,"note":65}
{"t":183078,"type":"note_off","id":774,"ch":0,"note":82}
{"t":183078,"type":"note_off","id":786,"ch":0,"note":86}
{"t":183135,"type":"note_on","id":796,"ch":0,"note":96,"vel":0.8}
{"t":183135,"type":"note_on","id":797,"ch":0,"note":35,"vel":0.8}
{"t":183142,"type":"note_off","id":754,"ch":0,"note":66}
{"t":183142,"type":"note_off","id":781,"ch":0,"note":77}
{"t":183142,"type":"note_off","id":791,"ch":0,"note":61}
{"t":183142,"type":"note_off","id":792,"ch":0,"note":76}
{"t":183142,"type":"note_off","id":793,"ch":0,"note":89}
{"t":183143,"type":"note_off","id":794,"ch":0,"note":97}
{"t":183143,"type":"note_off","id":795,"ch":0,"note":41}
{"t":183206,"type":"note_off","id":796,"ch":0,"note":96}
{"t":183254,"type":"note_on","id":798,"ch":0,"note":61,"vel":0.8}
{"t":183254,"type":"note_on","id":799,"ch":0,"note":48,"vel":0.8}
{"t":183254,"type":"note_on","id":800,"ch":0,"note":39,"vel":0.8}
{"t":183270,"type":"note_off","id":761,"ch":0,"note":72}
{"t":183270,"type":"note_off","id":797,"ch":0,"note":35}
{"t":183286,"type":"note_off","id":799,"ch":0,"note":48}
{"t":183382,"type":"note_on","id":801,"ch":0,"note":86,"vel":0.8}
{"t":183383,"type":"note_on","id":802,"ch":0,"note":79,"vel":0.8}
{"t":183383,"type":"note_on","id":803,"ch":0,"note":69,"vel":0.8}
{"t":183383,"type":"note_on","id":804,"ch":0,"note":55,"vel":0.8}
{"t":183390,"type":"note_off","id":798,"ch":0,"note":61}
{"t":183390,"type":"note_off","id":800,"ch":0,"note":39}
{"t":183414,"type":"note_off","id":803,"ch":0,"note":69}
{"t":183454,"type":"note_off","id":801,"ch":0,"note":86}
{"t":183454,"type":"note_off","id":802,"ch":0,"note":79}
{"t":183454,"type":"note_off","id":804,"ch":0,"note":55}
{"t":183574,"type":"note_on","id":805,"ch":0,"note":77,"vel":0.8}
{"t":183574,"type":"note_on","id":806,"ch":0,"note":53,"vel":0.8}
{"t":183574,"type":"note_on","id":807,"ch":0,"note":45,"vel":0.8}
{"t":183606,"type":"note_off","id":806,"ch":0,"note":53}
{"t":183702,"type":"note_on","id":808,"ch":0,"note":69,"vel":0.8}
{"t":183702,"type":"note_on","id":809,"ch":0,"note":71,"vel":0.8}
{"t":183703,"type":"note_on","id":810,"ch":0,"note":74,"vel":0.8}
{"t":183703,"type":"note_on","id":811,"ch":0,"note":94,"vel":0.8}
{"t":183703,"type":"note_on","id":812,"ch":0,"note":50,"vel":0.8}
{"t":183704,"type":"note_on","id":813,"ch":0,"note":62,"vel":0.8}
{"t":183704,"type":"note_on","id":814,"ch":0,"note":39,"vel":0.8}
{"t":183711,"type":"note_off","id":805,"ch":0,"note":77}
{"t":183711,"type":"note_off","id":807,"ch":0,"note":45}
{"t":183726,"type":"note_off","id":812,"ch":0,"note":50}
{"t":183822,"type":"note_on","id":815,"ch":0,"note":66,"vel":0.8}
{"t":183822,"type":"note_on","id":816,"ch":0,"note":67,"vel":0.8}
{"t":183822,"type":"note_on","id":817,"ch":0,"note":82,"vel":0.8}
{"t":183823,"type":"note_on","id":818,"ch":0,"note":100,"vel":0.8}
{"t":183823,"type":"note_on","id":819,"ch":0,"note":89,"vel":0.8}
{"t":183823,"type":"note_on","id":820,"ch":0,"note":58,"vel":0.8}
{"t":183824,"type":"note_on","id":821,"ch":0,"note":35,"vel":0.8}
{"t":183830,"type":"note_off","id":808,"ch":0,"note":69}
{"t":183830,"type":"note_off","id":809,"ch":0,"note":71}
{"t":183830,"type":"note_off","id":810,"ch":0,"note":74}
{"t":183831,"type":"note_off","id":811,"ch":0,"note":94}
{"t":183831,"type":"note_off","id":813,"ch":0,"note":62}
{"t":183831,"type":"note_off","id":814,"ch":0,"note":39}
{"t":183854,"type":"note_off","id":818,"ch":0,"note":100}
{"t":183950,"type":"note_on","id":822,"ch":0,"note":43,"vel":0.8}
{"t":183951,"type":"note_on","id":823,"ch":0,"note":86,"vel":0.8}
{"t":183951,"type":"note_on","id":824,"ch":0,"note":72,"vel":0.8}
{"t":183951,"type":"note_on","id":825,"ch":0,"note":62,"vel":0.8}
{"t":183958,"type":"note_off","id":816,"ch":0,"note":67}
{"t":183959,"type":"note_off","id":819,"ch":0,"note":89}
{"t":183959,"type":"note_off","id":820,"ch":0,"note":58}
{"t":183959,"type":"note_off","id":821,"ch":0,"note":35}
{"t":183974,"type":"note_off","id":823,"ch":0,"note":86}
{"t":184071,"type":"note_on","id":826,"ch":0,"note":95,"vel":0.8}
{"t":184071,"type":"note_on","id":827,"ch":0,"note":100,"vel":0.8}
{"t":184142,"type":"note_off","id":817,"ch":0,"note":82}
{"t":184198,"type":"note_on","id":828,"ch":0,"note":57,"vel":0.8}
{"t":184199,"type":"note_on","id":829,"ch":0,"note":85,"vel":0.8}
{"t":184199,"type":"note_on","id":830,"ch":0,"note":92,"vel":0.8}
{"t":184199,"type":"note_on","id":831,"ch":0,"note":53,"vel":0.8}
{"t":184206,"type":"note_off","id":822,"ch":0,"note":43}
{"t":184206,"type":"note_off","id":826,"ch":0,"note":95}
{"t":184206,"type":"note_off","id":827,"ch":0,"note":100}
{"t":184230,"type":"note_off","id":830,"ch":0,"note":92}
{"t":184326,"type":"note_on","id":832,"ch":0,"note":59,"vel":0.8}
{"t":184326,"type":"note_on","id":833,"ch":0,"note":38,"vel":0.8}
{"t":184327,"type":"note_on","id":834,"ch":0,"note":97,"vel":0.8}
{"t":184327,"type":"note_on","id":835,"ch":0,"note":46,"vel":0.8}
{"t":184327,"type":"note_on","id":836,"ch":0,"note":73,"vel":0.8}
{"t":184327,"type":"note_on","id":837,"ch":0,"note":82,"vel":0.8}
{"t":184334,"type":"note_off","id":828,"ch":0,"note":57}
{"t":184334,"type":"note_off","id":829,"ch":0,"note":85}
{"t":184334,"type":"note_off","id":831,"ch":0,"note":53}
{"t":184350,"type":"note_off","id":835,"ch":0,"note":46}
{"t":184351,"type":"note_off","id":836,"ch":0,"note":73}
{"t":184446,"type":"note_on","id":838,"ch":0,"note":58,"vel":0.8}
{"t":184446,"type":"note_on","id":839,"ch":0,"note":92,"vel":0.8}
{"t":184447,"type":"note_on","id":840,"ch":0,"note":35,"vel":0.8}
{"t":184447,"type":"note_on","id":841,"ch":0,"note":77,"vel":0.8}
{"t":184463,"type":"note_off","id":832,"ch":0,"note":59}
{"t":184463,"type":"note_off","id":834,"ch":0,"note":97}
{"t":184478,"type":"note_off","id":839,"ch":0,"note":92}
{"t":184574,"type":"note_on","id":842,"ch":0,"note":79,"vel":0.8}
{"t":184582,"type":"note_off","id":825,"ch":0,"note":62}
{"t":184582,"type":"note_off","id":838,"ch":0,"note":58}
{"t":184582,"type":"note_off","id":840,"ch":0,"note":35}
{"t":184606,"type":"note_off","id":842,"ch":0,"note":79}
{"t":184646,"type":"note_off","id":833,"ch":0,"note":38}
{"t":184702,"type":"note_on","id":843,"ch":0,"note":54,"vel":0.8}
{"t":184703,"type":"note_on","id":844,"ch":0,"note":86,"vel":0.8}
{"t":184703,"type":"note_on","id":845,"ch":0,"note":101,"vel":0.8}
{"t":184703,"type":"note_on","id":846,"ch":0,"note":106,"vel":0.8}
{"t":184703,"type":"note_on","id":847,"ch":0,"note":48,"vel":0.8}
{"t":184704,"type":"note_on","id":848,"ch":0,"note":65,"vel":0.8}
{"t":184727,"type":"note_off","id":845,"ch":0,"note":101}
{"t":184822,"type":"note_on","id":849,"ch":0,"note":61,"vel":0.8}
{"t":184822,"type":"note_on","id":850,"ch":0,"note":76,"vel":0.8}
{"t":184823,"type":"note_on","id":851,"ch":0,"note":89,"vel":0.8}
{"t":184823,"type":"note_on","id":852,"ch":0,"note":97,"vel":0.8}
{"t":184823,"type":"note_on","id":853,"ch":0,"note":41,"vel":0.8}
{"t":184830,"type":"note_off","id":843,"ch":0,"note":54}
{"t":184830,"type":"note_off","id":846,"ch":0,"note":106}
{"t":184830,"type":"note_off","id":847,"ch":0,"note":48}
{"t":184831,"type":"note_off","id":848,"ch":0,"note":65}
{"t":184894,"type":"note_off","id":837,"ch":0,"note":82}
{"t":184894,"type":"note_off","id":844,"ch":0,"note":86}
{"t":184950,"type":"note_on","id":854,"ch":0,"note":96,"vel":0.8}
{"t":184950,"type":"note_on","id":855,"ch":0,"note":35,"vel":0.8}
{"t":184958,"type":"note_off","id":815,"ch":0,"note":66}
{"t":184958,"type":"note_off","id":841,"ch":0,"note":77}
{"t":184959,"type":"note_off","id":849,"ch":0,"note":61}
{"t":184959,"type":"note_off","id":850,"ch":0,"note":76}
{"t":184959,"type":"note_off","id":851,"ch":0,"note":89}
{"t":184960,"type":"note_off","id":852,"ch":0,"note":97}
{"t":184960,"type":"note_off","id":853,"ch":0,"note":41}
{"t":185022,"type":"note_off","id":854,"ch":0,"note":96}
{"t":185070,"type":"note_on","id":856,"ch":0,"note":61,"vel":0.8}
{"t":185071,"type":"note_on","id":857,"ch":0,"note":48,"vel":0.8}
{"t":185071,"type":"note_on","id":858,"ch":0,"note":39,"vel":0.8}
{"t":185086,"type":"note_off","id":824,"ch":0,"note":72}
{"t":185086,"type":"note_off","id":855,"ch":0,"note":35}
{"t":185103,"type":"note_off","id":857,"ch":0,"note":48}
{"t":185198,"type":"note_on","id":859,"ch":0,"note":86,"vel":0.8}
{"t":185198,"type":"note_on","id":860,"ch":0,"note":79,"vel":0.8}
{"t":185198,"type":"note_on","id":861,"ch":0,"note":69,"vel":0.8}
{"t":185198,"type":"note_on","id":862,"ch":0,"note":55,"vel":0.8}
{"t":185206,"type":"note_off","id":856,"ch":0,"note":61}
{"t":185206,"type":"note_off","id":858,"ch":0,"note":39}
{"t":185230,"type":"note_off","id":861,"ch":0,"note":69}
{"t":185270,"type":"note_off","id":859,"ch":0,"note":86}
{"t":185270,"type":"note_off","id":860,"ch":0,"note":79}
{"t":185271,"type":"note_off","id":862,"ch":0,"note":55}
{"t":185391,"type":"note_on","id":863,"ch":0,"note":77,"vel":0.8}
{"t":185391,"type":"note_on","id":864,"ch":0,"note":53,"vel":0.8}
{"t":185391,"type":"note_on","id":865,"ch":0,"note":45,"vel":0.8}
{"t":185422,"type":"note_off","id":864,"ch":0,"note":53}
{"t":185518,"type":"note_on","id":866,"ch":0,"note":69,"vel":0.8}
{"t":185518,"type":"note_on","id":867,"ch":0,"note":71,"vel":0.8}
{"t":185519,"type":"note_on","id":868,"ch":0,"note":74,"vel":0.8}
{"t":185519,"type":"note_on","id":869,"ch":0,"note":94,"vel":0.8}
{"t":185519,"type":"note_on","id":870,"ch":0,"note":50,"vel":0.8}
{"t":185519,"type":"note_on","id":871,"ch":0,"note":62,"vel":0.8}
{"t":185520,"type":"note_on","id":872,"ch":0,"note":39,"vel":0.8}
{"t":185526,"type":"note_off","id":863,"ch":0,"note":77}
{"t":185526,"type":"note_off","id":865,"ch":0,"note":45}
{"t":185542,"type":"note_off","id":870,"ch":0,"note":50}
{"t":185638,"type":"note_on","id":873,"ch":0,"note":66,"vel":0.8}
{"t":185638,"type":"note_on","id":874,"ch":0,"note":67,"vel":0.8}
{"t":185638,"type":"note_on","id":875,"ch":0,"note":82,"vel":0.8}
{"t":185638,"type":"note_on","id":876,"ch":0,"note":100,"vel":0.8}
{"t":185638,"type":"note_on","id":877,"ch":0,"note":89,"vel":0.8}
{"t":185639,"type":"note_on","id":878,"ch":0,"note":58,"vel":0.8}
{"t":185639,"type":"note_on","id":879,"ch":0,"note":35,"vel":0.8}
{"t":185646,"type":"note_off","id":866,"ch":0,"note":69}
{"t":185646,"type":"note_off","id":867,"ch":0,"note":71}
{"t":185647,"type":"note_off","id":868,"ch":0,"note":74}
{"t":185647,"type":"note_off","id":869,"ch":0,"note":94}
{"t":185647,"type":"note_off","id":871,"ch":0,"note":62}
{"t":185647,"type":"note_off","id":872,"ch":0,"note":39}
{"t":185670,"type":"note_off","id":876,"ch":0,"note":100}
{"t":185766,"type":"note_on","id":880,"ch":0,"note":43,"vel":0.8}
{"t":185767,"type":"note_on","id":881,"ch":0,"note":86,"vel":0.8}
{"t":185767,"type":"note_on","id":882,"ch":0,"note":72,"vel":0.8}
{"t":185767,"type":"note_on","id":883,"ch":0,"note":62,"vel":0.8}
{"t":185774,"type":"note_off","id":874,"ch":0,"note":67}
{"t":185774,"type":"note_off","id":877,"ch":0,"note":89}
{"t":185774,"type":"note_off","id":878,"ch":0,"note":58}
{"t":185775,"type":"note_off","id":879,"ch":0,"note":35}
{"t":185798,"type":"note_off","id":881,"ch":0,"note":86}
{"t":185887,"type":"note_on","id":884,"ch":0,"note":95,"vel":0.8}
{"t":185887,"type":"note_on","id":885,"ch":0,"note":100,"vel":0.8}
{"t":185958,"type":"note_off","id":875,"ch":0,"note":82}
{"t":186015,"type":"note_on","id":886,"ch":0,"note":57,"vel":0.8}
{"t":186015,"type":"note_on","id":887,"ch":0,"note":85,"vel":0.8}
{"t":186015,"type":"note_on","id":888,"ch":0,"note":92,"vel":0.8}
{"t":186016,"type":"note_on","id":889,"ch":0,"note":53,"vel":0.8}
{"t":186022,"type":"note_off","id":880,"ch":0,"note":43}
{"t":186022,"type":"note_off","id":884,"ch":0,"note":95}
{"t":186022,"type":"note_off","id":885,"ch":0,"note":100}
{"t":186046,"type":"note_off","id":888,"ch":0,"note":92}
{"t":186142,"type":"note_on","id":890,"ch":0,"note":59,"vel":0.8}
{"t":186142,"type":"note_on","id":891,"ch":0,"note":38,"vel":0.8}
{"t":186142,"type":"note_on","id":892,"ch":0,"note":97,"vel":0.8}
{"t":186143,"type":"note_on","id":893,"ch":0,"note":46,"vel":0.8}
{"t":186143,"type":"note_on","id":894,"ch":0,"note":73,"vel":0.8}
{"t":186143,"type":"note_on","id":895,"ch":0,"note":82,"vel":0.8}
{"t":186150,"type":"note_off","id":886,"ch":0,"note":57}
{"t":186150,"type":"note_off","id":887,"ch":0,"note":85}
{"t":186150,"type":"note_off","id":889,"ch":0,"note":53}
{"t":186166,"type":"note_off","id":893,"ch":0,"note":46}
{"t":186166,"type":"note_off","id":894,"ch":0,"note":73}
{"t":186262,"type":"note_on","id":896,"ch":0,"note":58,"vel":0.8}
{"t":186262,"type":"note_on","id":897,"ch":0,"note":92,"vel":0.8}
{"t":186263,"type":"note_on","id":898,"ch":0,"note":35,"vel":0.8}
{"t":186263,"type":"note_on","id":899,"ch":0,"note":77,"vel":0.8}
{"t":186271,"type":"note_off","id":890,"ch":0,"note":59}
{"t":186271,"type":"note_off","id":892,"ch":0,"note":97}
{"t":186294,"type":"note_off","id":897,"ch":0,"note":92}
{"t":186390,"type":"note_on","id":900,"ch":0,"note":79,"vel":0.8}
{"t":186399,"type":"note_off","id":883,"ch":0,"note":62}
{"t":186399,"type":"note_off","id":896,"ch":0,"note":58}
{"t":186399,"type":"note_off","id":898,"ch":0,"note":35}
{"t":186422,"type":"note_off","id":900,"ch":0,"note":79}
{"t":186462,"type":"note_off","id":891,"ch":0,"note":38}
{"t":186519,"type":"note_on","id":901,"ch":0,"note":54,"vel":0.8}
{"t":186519,"type":"note_on","id":902,"ch":0,"note":86,"vel":0.8}
{"t":186519,"type":"note_on","id":903,"ch":0,"note":101,"vel":0.8}
{"t":186520,"type":"note_on","id":904,"ch":0,"note":106,"vel":0.8}
{"t":186520,"type":"note_on","id":905,"ch":0,"note":48,"vel":0.8}
{"t":186520,"type":"note_on","id":906,"ch":0,"note":65,"vel":0.8}
{"t":186542,"type":"note_off","id":903,"ch":0,"note":101}
{"t":186638,"type":"note_on","id":907,"ch":0,"note":61,"vel":0.8}
{"t":186638,"type":"note_on","id":908,"ch":0,"note":76,"vel":0.8}
{"t":186638,"type":"note_on","id":909,"ch":0,"note":89,"vel":0.8}
{"t":186638,"type":"note_on","id":910,"ch":0,"note":97,"vel":0.8}
{"t":186639,"type":"note_on","id":911,"ch":0,"note":41,"vel":0.8}
{"t":186646,"type":"note_off","id":901,"ch":0,"note":54}
{"t":186646,"type":"note_off","id":904,"ch":0,"note":106}
{"t":186646,"type":"note_off","id":905,"ch":0,"note":48}
{"t":186647,"type":"note_off","id":906,"ch":0,"note":65}
{"t":186710,"type":"note_off","id":895,"ch":0,"note":82}
{"t":186710,"type":"note_off","id":902,"ch":0,"note":86}
{"t":186766,"type":"note_on","id":912,"ch":0,"note":96,"vel":0.8}
{"t":186766,"type":"note_on","id":913,"ch":0,"note":35,"vel":0.8}
{"t":186774,"type":"note_off","id":873,"ch":0,"note":66}
{"t":186774,"type":"note_off","id":899,"ch":0,"note":77}
{"t":186774,"type":"note_off","id":907,"ch":0,"note":61}
{"t":186775,"type":"note_off","id":908,"ch":0,"note":76}
{"t":186775,"type":"note_off","id":909,"ch":0,"note":89}
{"t":186775,"type":"note_off","id":910,"ch":0,"note":97}
{"t":186775,"type":"note_off","id":911,"ch":0,"note":41}
{"t":186838,"type":"note_off","id":912,"ch":0,"note":96}
{"t":186886,"type":"note_on","id":914,"ch":0,"note":61,"vel":0.8}
{"t":186886,"type":"note_on","id":915,"ch":0,"note":48,"vel":0.8}
{"t":186887,"type":"note_on","id":916,"ch":0,"note":39,"vel":0.8}
{"t":186902,"type":"note_off","id":882,"ch":0,"note":72}
{"t":186902,"type":"note_off","id":913,"ch":0,"note":35}
{"t":186918,"type":"note_off","id":915,"ch":0,"note":48}
{"t":187014,"type":"note_on","id":917,"ch":0,"note":86,"vel":0.8}
{"t":187014,"type":"note_on","id":918,"ch":0,"note":79,"vel":0.8}
{"t":187014,"type":"note_on","id":919,"ch":0,"note":69,"vel":0.8}
{"t":187015,"type":"note_on","id":920,"ch":0,"note":55,"vel":0.8}
{"t":187022,"type":"note_off","id":914,"ch":0,"note":61}
{"t":187022,"type":"note_off","id":916,"ch":0,"note":39}
{"t":187046,"type":"note_off","id":919,"ch":0,"note":69}
{"t":187086,"type":"note_off","id":917,"ch":0,"note":86}
{"t":187086,"type":"note_off","id":918,"ch":0,"note":79}
{"t":187086,"type":"note_off","id":920,"ch":0,"note":55}
{"t":187207,"type":"note_on","id":921,"ch":0,"note":77,"vel":0.8}
{"t":187207,"type":"note_on","id":922,"ch":0,"note":53,"vel":0.8}
{"t":187207,"type":"note_on","id":923,"ch":0,"note":45,"vel":0.8}
{"t":187238,"type":"note_off","id":922,"ch":0,"note":53}
{"t":187326,"type":"note_on","id":924,"ch":0,"note":69,"vel":0.8}
{"t":187327,"type":"note_on","id":925,"ch":0,"note":71,"vel":0.8}
{"t":187327,"type":"note_on","id":926,"ch":0,"note":74,"vel":0.8}
{"t":187327,"type":"note_on","id":927,"ch":0,"note":94,"vel":0.8}
{"t":187327,"type":"note_on","id":928,"ch":0,"note":50,"vel":0.8}
{"t":187327,"type":"note_on","id":929,"ch":0,"note":62,"vel":0.8}
{"t":187327,"type":"note_on","id":930,"ch":0,"note":39,"vel":0.8}
{"t":187342,"type":"note_off","id":921,"ch":0,"note":77}
{"t":187342,"type":"note_off","id":923,"ch":0,"note":45}
{"t":187358,"type":"note_off","id":928,"ch":0,"note":50}
{"t":187454,"type":"note_on","id":931,"ch":0,"note":66,"vel":0.8}
{"t":187455,"type":"note_on","id":932,"ch":0,"note":67,"vel":0.8}
{"t":187455,"type":"note_on","id":933,"ch":0,"note":82,"vel":0.8}
{"t":187455,"type":"note_on","id":934,"ch":0,"note":100,"vel":0.8}
{"t":187455,"type":"note_on","id":935,"ch":0,"note":89,"vel":0.8}
{"t":187456,"type":"note_on","id":936,"ch":0,"note":58,"vel":0.8}
{"t":187456,"type":"note_on","id":937,"ch":0,"note":35,"vel":0.8}
{"t":187461,"type":"note_off","id":924,"ch":0,"note":69}
{"t":187462,"type":"note_off","id":925,"ch":0,"note":71}
{"t":187462,"type":"note_off","id":926,"ch":0,"note":74}
{"t":187462,"type":"note_off","id":927,"ch":0,"note":94}
{"t":187462,"type":"note_off","id":929,"ch":0,"note":62}
{"t":187462,"type":"note_off","id":930,"ch":0,"note":39}
{"t":187486,"type":"note_off","id":934,"ch":0,"note":100}
{"t":187583,"type":"note_on","id":938,"ch":0,"note":43,"vel":0.8}
{"t":187583,"type":"note_on","id":939,"ch":0,"note":86,"vel":0.8}
{"t":187584,"type":"note_on","id":940,"ch":0,"note":72,"vel":0.8}
{"t":187584,"type":"note_on","id":941,"ch":0,"note":62,"vel":0.8}
{"t":187590,"type":"note_off","id":932,"ch":0,"note":67}
{"t":187590,"type":"note_off","id":935,"ch":0,"note":89}
{"t":187590,"type":"note_off","id":936,"ch":0,"note":58}
{"t":187591,"type":"note_off","id":937,"ch":0,"note":35}
{"t":187606,"type":"note_off","id":939,"ch":0,"note":86}
{"t":187702,"type":"note_on","id":942,"ch":0,"note":95,"vel":0.8}
{"t":187702,"type":"note_on","id":943,"ch":0,"note":100,"vel":0.8}
{"t":187774,"type":"note_off","id":933,"ch":0,"note":82}
{"t":187831,"type":"note_on","id":944,"ch":0,"note":57,"vel":0.8}
{"t":187831,"type":"note_on","id":945,"ch":0,"note":85,"vel":0.8}
{"t":187831,"type":"note_on","id":946,"ch":0,"note":92,"vel":0.8}
{"t":187831,"type":"note_on","id":947,"ch":0,"note":53,"vel":0.8}
{"t":187838,"type":"note_off","id":938,"ch":0,"note":43}
{"t":187838,"type":"note_off","id":942,"ch":0,"note":95}
{"t":187838,"type":"note_off","id":943,"ch":0,"note":100}
{"t":187862,"type":"note_off","id":946,"ch":0,"note":92}
{"t":187959,"type":"note_on","id":948,"ch":0,"note":59,"vel":0.8}
{"t":187959,"type":"note_on","id":949,"ch":0,"note":38,"vel":0.8}
{"t":187959,"type":"note_on","id":950,"ch":0,"note":97,"vel":0.8}
{"t":187959,"type":"note_on","id":951,"ch":0,"note":46,"vel":0.8}
{"t":187959,"type":"note_on","id":952,"ch":0,"note":73,"vel":0.8}
{"t":187959,"type":"note_on","id":953,"ch":0,"note":82,"vel":0.8}
{"t":187966,"type":"note_off","id":944,"ch":0,"note":57}
{"t":187966,"type":"note_off","id":945,"ch":0,"note":85}
{"t":187967,"type":"note_off","id":947,"ch":0,"note":53}
{"t":187982,"type":"note_off","id":951,"ch":0,"note":46}
{"t":187982,"type":"note_off","id":952,"ch":0,"note":73}
{"t":188078,"type":"note_on","id":954,"ch":0,"note":58,"vel":0.8}
{"t":188078,"type":"note_on","id":955,"ch":0,"note":92,"vel":0.8}
{"t":188078,"type":"note_on","id":956,"ch":0,"note":35,"vel":0.8}
{"t":188079,"type":"note_on","id":957,"ch":0,"note":77,"vel":0.8}
{"t":188079,"type":"note_on","id":958,"ch":0,"note":93,"vel":0.8}
{"t":188086,"type":"note_off","id":948,"ch":0,"note":59}
{"t":188086,"type":"note_off","id":950,"ch":0,"note":97}
{"t":188110,"type":"note_off","id":955,"ch":0,"note":92}
{"t":188206,"type":"note_on","id":959,"ch":0,"note":79,"vel":0.8}
{"t":188215,"type":"note_off","id":941,"ch":0,"note":62}
{"t":188215,"type":"note_off","id":954,"ch":0,"note":58}
{"t":188215,"type":"note_off","id":956,"ch":0,"note":35}
{"t":188215,"type":"note_off","id":958,"ch":0,"note":93}
{"t":188237,"type":"note_off","id":959,"ch":0,"note":79}
{"t":188278,"type":"note_off","id":949,"ch":0,"note":38}
{"t":188334,"type":"note_on","id":960,"ch":0,"note":54,"vel":0.8}
{"t":188334,"type":"note_on","id":961,"ch":0,"note":86,"vel":0.8}
{"t":188334,"type":"note_on","id":962,"ch":0,"note":101,"vel":0.8}
{"t":188335,"type":"note_on","id":963,"ch":0,"note":106,"vel":0.8}
{"t":188335,"type":"note_on","id":964,"ch":0,"note":48,"vel":0.8}
{"t":188335,"type":"note_on","id":965,"ch":0,"note":65,"vel":0.8}
{"t":188358,"type":"note_off","id":962,"ch":0,"note":101}
{"t":188454,"type":"note_on","id":966,"ch":0,"note":61,"vel":0.8}
{"t":188455,"type":"note_on","id":967,"ch":0,"note":76,"vel":0.8}
{"t":188455,"type":"note_on","id":968,"ch":0,"note":89,"vel":0.8}
{"t":188455,"type":"note_on","id":969,"ch":0,"note":97,"vel":0.8}
{"t":188455,"type":"note_on","id":970,"ch":0,"note":41,"vel":0.8}
{"t":188455,"type":"note_on","id":971,"ch":0,"note":92,"vel":0.8}
{"t":188462,"type":"note_off","id":960,"ch":0,"note":54}
{"t":188462,"type":"note_off","id":963,"ch":0,"note":106}
{"t":188462,"type":"note_off","id":964,"ch":0,"note":48}
{"t":188463,"type":"note_off","id":965,"ch":0,"note":65}
{"t":188486,"type":"note_off","id":971,"ch":0,"note":92}
{"t":188527,"type":"note_off","id":953,"ch":0,"note":82}
{"t":188527,"type":"note_off","id":961,"ch":0,"note":86}
{"t":188588,"type":"note_on","id":972,"ch":0,"note":96,"vel":0.8}
{"t":188588,"type":"note_on","id":973,"ch":0,"note":35,"vel":0.8}
{"t":188588,"type":"note_off","id":931,"ch":0,"note":66}
{"t":188588,"type":"note_off","id":957,"ch":0,"note":77}
{"t":188588,"type":"note_off","id":966,"ch":0,"note":61}
{"t":188589,"type":"note_off","id":967,"ch":0,"note":76}
{"t":188589,"type":"note_off","id":968,"ch":0,"note":89}
{"t":188590,"type":"note_off","id":969,"ch":0,"note":97}
{"t":188590,"type":"note_off","id":970,"ch":0,"note":41}
{"t":188654,"type":"note_off","id":972,"ch":0,"note":96}
{"t":188702,"type":"note_on","id":974,"ch":0,"note":61,"vel":0.8}
{"t":188702,"type":"note_on","id":975,"ch":0,"note":48,"vel":0.8}
{"t":188703,"type":"note_on","id":976,"ch":0,"note":39,"vel":0.8}
{"t":188718,"type":"note_off","id":940,"ch":0,"note":72}
{"t":188718,"type":"note_off","id":973,"ch":0,"note":35}
{"t":188734,"type":"note_off","id":975,"ch":0,"note":48}
{"t":188830,"type":"note_on","id":977,"ch":0,"note":86,"vel":0.8}
{"t":188830,"type":"note_on","id":978,"ch":0,"note":79,"vel":0.8}
{"t":188831,"type":"note_on","id":979,"ch":0,"note":69,"vel":0.8}
{"t":188831,"type":"note_on","id":980,"ch":0,"note":55,"vel":0.8}
{"t":188837,"type":"note_off","id":974,"ch":0,"note":61}
{"t":188838,"type":"note_off","id":976,"ch":0,"note":39}
{"t":188862,"type":"note_off","id":979,"ch":0,"note":69}
{"t":188902,"type":"note_off","id":977,"ch":0,"note":86}
{"t":188902,"type":"note_off","id":978,"ch":0,"note":79}
{"t":188903,"type":"note_off","id":980,"ch":0,"note":55}
{"t":189022,"type":"note_on","id":981,"ch":0,"note":77,"vel":0.8}
{"t":189023,"type":"note_on","id":982,"ch":0,"note":53,"vel":0.8}
{"t":189023,"type":"note_on","id":983,"ch":0,"note":45,"vel":0.8}
{"t":189054,"type":"note_off","id":982,"ch":0,"note":53}
{"t":189151,"type":"note_on","id":984,"ch":0,"note":69,"vel":0.8}
{"t":189151,"type":"note_on","id":985,"ch":0,"note":71,"vel":0.8}
{"t":189151,"type":"note_on","id":986,"ch":0,"note":74,"vel":0.8}
{"t":189151,"type":"note_on","id":987,"ch":0,"note":94,"vel":0.8}
{"t":189152,"type":"note_on","id":988,"ch":0,"note":50,"vel":0.8}
{"t":189152,"type":"note_on","id":989,"ch":0,"note":62,"vel":0.8}
{"t":189153,"type":"note_on","id":990,"ch":0,"note":39,"vel":0.8}
{"t":189158,"type":"note_off","id":981,"ch":0,"note":77}
{"t":189158,"type":"note_off","id":983,"ch":0,"note":45}
{"t":189174,"type":"note_off","id":988,"ch":0,"note":50}
{"t":189271,"type":"note_on","id":991,"ch":0,"note":66,"vel":0.8}
{"t":189271,"type":"note_on","id":992,"ch":0,"note":67,"vel":0.8}
{"t":189271,"type":"note_on","id":993,"ch":0,"note":82,"vel":0.8}
{"t":189272,"type":"note_on","id":994,"ch":0,"note":100,"vel":0.8}
{"t":189272,"type":"note_on","id":995,"ch":0,"note":89,"vel":0.8}
{"t":189272,"type":"note_on","id":996,"ch":0,"note":58,"vel":0.8}
{"t":189272,"type":"note_on","id":997,"ch":0,"note":35,"vel":0.8}
{"t":189278,"type":"note_off","id":984,"ch":0,"note":69}
{"t":189278,"type":"note_off","id":985,"ch":0,"note":71}
{"t":189278,"type":"note_off","id":986,"ch":0,"note":74}
{"t":189278,"type":"note_off","id":987,"ch":0,"note":94}
{"t":189279,"type":"note_off","id":989,"ch":0,"note":62}
{"t":189279,"type":"note_off","id":990,"ch":0,"note":39}
{"t":189302,"type":"note_off","id":994,"ch":0,"note":100}
{"t":189334,"type":"note_on","id":998,"ch":0,"note":102,"vel":0.8}
{"t":189366,"type":"note_off","id":998,"ch":0,"note":102}
{"t":189398,"type":"note_on","id":999,"ch":0,"note":43,"vel":0.8}
{"t":189398,"type":"note_on","id":1000,"ch":0,"note":86,"vel":0.8}
{"t":189398,"type":"note_on","id":1001,"ch":0,"note":72,"vel":0.8}
{"t":189398,"type":"note_on","id":1002,"ch":0,"note":62,"vel":0.8}
{"t":189399,"type":"note_on","id":1003,"ch":0,"note":106,"vel":0.8}
{"t":189406,"type":"note_off","id":992,"ch":0,"note":67}
{"t":189406,"type":"note_off","id":995,"ch":0,"note":89}
{"t":189406,"type":"note_off","id":996,"ch":0,"note":58}
{"t":189406,"type":"note_off","id":997,"ch":0,"note":35}
{"t":189430,"type":"note_off","id":1000,"ch":0,"note":86}
{"t":189518,"type":"note_on","id":1004,"ch":0,"note":95,"vel":0.8}
{"t":189518,"type":"note_on","id":1005,"ch":0,"note":100,"vel":0.8}
{"t":189534,"type":"note_off","id":1003,"ch":0,"note":106}
{"t":189590,"type":"note_off","id":993,"ch":0,"note":82}
{"t":189646,"type":"note_on","id":1006,"ch":0,"note":57,"vel":0.8}
{"t":189647,"type":"note_on","id":1007,"ch":0,"note":85,"vel":0.8}
{"t":189647,"type":"note_on","id":1008,"ch":0,"note":92,"vel":0.8}
{"t":189647,"type":"note_on","id":1009,"ch":0,"note":53,"vel":0.8}
{"t":189654,"type":"note_off","id":999,"ch":0,"note":43}
{"t":189654,"type":"note_off","id":1004,"ch":0,"note":95}
{"t":189655,"type":"note_off","id":1005,"ch":0,"note":100}
{"t":189678,"type":"note_off","id":1008,"ch":0,"note":92}
{"t":189710,"type":"note_on","id":1010,"ch":0,"note":92,"vel":0.8}
{"t":189742,"type":"note_off","id":1010,"ch":0,"note":92}
{"t":189774,"type":"note_on","id":1011,"ch":0,"note":59,"vel":0.8}
{"t":189774,"type":"note_on","id":1012,"ch":0,"note":38,"vel":0.8}
{"t":189775,"type":"note_on","id":1013,"ch":0,"note":97,"vel":0.8}
{"t":189775,"type":"note_on","id":1014,"ch":0,"note":46,"vel":0.8}
{"t":189775,"type":"note_on","id":1015,"ch":0,"note":73,"vel":0.8}
{"t":189775,"type":"note_on","id":1016,"ch":0,"note":82,"vel":0.8}
{"t":189775,"type":"note_on","id":1017,"ch":0,"note":87,"vel":0.8}
{"t":189788,"type":"note_off","id":1006,"ch":0,"note":57}
{"t":189788,"type":"note_off","id":1007,"ch":0,"note":85}
{"t":189788,"type":"note_off","id":1009,"ch":0,"note":53}
{"t":189798,"type":"note_off","id":1014,"ch":0,"note":46}
{"t":189798,"type":"note_off","id":1015,"ch":0,"note":73}
{"t":189830,"type":"note_on","id":1018,"ch":0,"note":79,"vel":0.8}
{"t":189862,"type":"note_off","id":1018,"ch":0,"note":79}
{"t":189894,"type":"note_on","id":1019,"ch":0,"note":58,"vel":0.8}
{"t":189894,"type":"note_on","id":1020,"ch":0,"note":92,"vel":0.8}
{"t":189894,"type":"note_on","id":1021,"ch":0,"note":35,"vel":0.8}
{"t":189895,"type":"note_on","id":1022,"ch":0,"note":77,"vel":0.8}
{"t":189895,"type":"note_on","id":1023,"ch":0,"note":93,"vel":0.8}
{"t":189902,"type":"note_off","id":1011,"ch":0,"note":59}
{"t":189902,"type":"note_off","id":1013,"ch":0,"note":97}
{"t":189903,"type":"note_off","id":1017,"ch":0,"note":87}
{"t":189926,"type":"note_off","id":1020,"ch":0,"note":92}
{"t":190022,"type":"note_on","id":1024,"ch":0,"note":79,"vel":0.8}
{"t":190038,"type":"note_off","id":1002,"ch":0,"note":62}
{"t":190038,"type":"note_off","id":1019,"ch":0,"note":58}
{"t":190038,"type":"note_off","id":1021,"ch":0,"note":35}
{"t":190038,"type":"note_off","id":1023,"ch":0,"note":93}
{"t":190054,"type":"note_off","id":1024,"ch":0,"note":79}
{"t":190086,"type":"note_on","id":1025,"ch":0,"note":74,"vel":0.8}
{"t":190094,"type":"note_off","id":1012,"ch":0,"note":38}
{"t":190150,"type":"note_on","id":1026,"ch":0,"note":54,"vel":0.8}
{"t":190150,"type":"note_on","id":1027,"ch":0,"note":86,"vel":0.8}
{"t":190150,"type":"note_on","id":1028,"ch":0,"note":101,"vel":0.8}
{"t":190151,"type":"note_on","id":1029,"ch":0,"note":106,"vel":0.8}
{"t":190151,"type":"note_on","id":1030,"ch":0,"note":48,"vel":0.8}
{"t":190151,"type":"note_on","id":1031,"ch":0,"note":65,"vel":0.8}
{"t":190158,"type":"note_off","id":1025,"ch":0,"note":74}
{"t":190174,"type":"note_off","id":1028,"ch":0,"note":101}
{"t":190271,"type":"note_on","id":1032,"ch":0,"note":61,"vel":0.8}
{"t":190271,"type":"note_on","id":1033,"ch":0,"note":76,"vel":0.8}
{"t":190271,"type":"note_on","id":1034,"ch":0,"note":89,"vel":0.8}
{"t":190272,"type":"note_on","id":1035,"ch":0,"note":97,"vel":0.8}
{"t":190272,"type":"note_on","id":1036,"ch":0,"note":41,"vel":0.8}
{"t":190272,"type":"note_on","id":1037,"ch":0,"note":92,"vel":0.8}
{"t":190278,"type":"note_off","id":1026,"ch":0,"note":54}
{"t":190278,"type":"note_off","id":1029,"ch":0,"note":106}
{"t":190278,"type":"note_off","id":1030,"ch":0,"note":48}
{"t":190279,"type":"note_off","id":1031,"ch":0,"note":65}
{"t":190302,"type":"note_off","id":1037,"ch":0,"note":92}
{"t":190334,"type":"note_on","id":1038,"ch":0,"note":53,"vel":0.8}
{"t":190342,"type":"note_off","id":1016,"ch":0,"note":82}
{"t":190342,"type":"note_off","id":1027,"ch":0,"note":86}
{"t":190366,"type":"note_off","id":1038,"ch":0,"note":53}
{"t":190398,"type":"note_on","id":1039,"ch":0,"note":96,"vel":0.8}
{"t":190398,"type":"note_on","id":1040,"ch":0,"note":35,"vel":0.8}
{"t":190406,"type":"note_off","id":991,"ch":0,"note":66}
{"t":190406,"type":"note_off","id":1022,"ch":0,"note":77}
{"t":190406,"type":"note_off","id":1032,"ch":0,"note":61}
{"t":190406,"type":"note_off","id":1033,"ch":0,"note":76}
{"t":190406,"type":"note_off","id":1034,"ch":0,"note":89}
{"t":190407,"type":"note_off","id":1035,"ch":0,"note":97}
{"t":190407,"type":"note_off","id":1036,"ch":0,"note":41}
{"t":190462,"type":"note_on","id":1041,"ch":0,"note":43,"vel":0.8}
{"t":190469,"type":"note_off","id":1039,"ch":0,"note":96}
{"t":190486,"type":"note_off","id":1041,"ch":0,"note":43}
{"t":190521,"type":"note_on","id":1042,"ch":0,"note":61,"vel":0.8}
{"t":190521,"type":"note_on","id":1043,"ch":0,"note":48,"vel":0.8}
{"t":190522,"type":"note_on","id":1044,"ch":0,"note":39,"vel":0.8}
{"t":190535,"type":"note_off","id":1001,"ch":0,"note":72}
{"t":190535,"type":"note_off","id":1040,"ch":0,"note":35}
{"t":190550,"type":"note_off","id":1043,"ch":0,"note":48}
{"t":190646,"type":"note_on","id":1045,"ch":0,"note":86,"vel":0.8}
{"t":190646,"type":"note_on","id":1046,"ch":0,"note":79,"vel":0.8}
{"t":190646,"type":"note_on","id":1047,"ch":0,"note":69,"vel":0.8}
{"t":190647,"type":"note_on","id":1048,"ch":0,"note":55,"vel":0.8}
{"t":190654,"type":"note_off","id":1042,"ch":0,"note":61}
{"t":190654,"type":"note_off","id":1044,"ch":0,"note":39}
{"t":190678,"type":"note_off","id":1047,"ch":0,"note":69}
{"t":190718,"type":"note_off","id":1045,"ch":0,"note":86}
{"t":190718,"type":"note_off","id":1046,"ch":0,"note":79}
{"t":190718,"type":"note_off","id":1048,"ch":0,"note":55}
{"t":190838,"type":"note_on","id":1049,"ch":0,"note":77,"vel":0.8}
{"t":190838,"type":"note_on","id":1050,"ch":0,"note":53,"vel":0.8}
{"t":190839,"type":"note_on","id":1051,"ch":0,"note":45,"vel":0.8}
{"t":190870,"type":"note_off","id":1050,"ch":0,"note":53}
{"t":190966,"type":"note_on","id":1052,"ch":0,"note":69,"vel":0.8}
{"t":190966,"type":"note_on","id":1053,"ch":0,"note":71,"vel":0.8}
{"t":190966,"type":"note_on","id":1054,"ch":0,"note":74,"vel":0.8}
{"t":190967,"type":"note_on","id":1055,"ch":0,"note":94,"vel":0.8}
{"t":190967,"type":"note_on","id":1056,"ch":0,"note":50,"vel":0.8}
{"t":190967,"type":"note_on","id":1057,"ch":0,"note":62,"vel":0.8}
{"t":190967,"type":"note_on","id":1058,"ch":0,"note":39,"vel":0.8}
{"t":190974,"type":"note_off","id":1049,"ch":0,"note":77}
{"t":190974,"type":"note_off","id":1051,"ch":0,"note":45}
{"t":190990,"type":"note_off","id":1056,"ch":0,"note":50}
{"t":191089,"type":"note_on","id":1059,"ch":0,"note":66,"vel":0.8}
{"t":191089,"type":"note_on","id":1060,"ch":0,"note":58,"vel":0.8}
{"t":191089,"type":"note_on","id":1061,"ch":0,"note":67,"vel":0.8}
{"t":191089,"type":"note_on","id":1062,"ch":0,"note":82,"vel":0.8}
{"t":191089,"type":"note_on","id":1063,"ch":0,"note":35,"vel":0.8}
{"t":191089,"type":"note_on","id":1064,"ch":0,"note":100,"vel":0.8}
{"t":191090,"type":"note_on","id":1065,"ch":0,"note":89,"vel":0.8}
{"t":191094,"type":"note_off","id":1052,"ch":0,"note":69}
{"t":191094,"type":"note_off","id":1053,"ch":0,"note":71}
{"t":191094,"type":"note_off","id":1054,"ch":0,"note":74}
{"t":191094,"type":"note_off","id":1055,"ch":0,"note":94}
{"t":191095,"type":"note_off","id":1057,"ch":0,"note":62}
{"t":191095,"type":"note_off","id":1058,"ch":0,"note":39}
{"t":191118,"type":"note_off","id":1064,"ch":0,"note":100}
{"t":191150,"type":"note_on","id":1066,"ch":0,"note":102,"vel":0.8}
{"t":191150,"type":"note_on","id":1067,"ch":0,"note":50,"vel":0.8}
{"t":191182,"type":"note_off","id":1066,"ch":0,"note":102}
{"t":191215,"type":"note_on","id":1068,"ch":0,"note":43,"vel":0.8}
{"t":191215,"type":"note_on","id":1069,"ch":0,"note":86,"vel":0.8}
{"t":191215,"type":"note_on","id":1070,"ch":0,"note":59,"vel":0.8}
{"t":191216,"type":"note_on","id":1071,"ch":0,"note":106,"vel":0.8}
{"t":191222,"type":"note_off","id":1061,"ch":0,"note":67}
{"t":191222,"type":"note_off","id":1065,"ch":0,"note":89}
{"t":191222,"type":"note_off","id":1060,"ch":0,"note":58}
{"t":191222,"type":"note_off","id":1063,"ch":0,"note":35}
{"t":191238,"type":"note_off","id":1069,"ch":0,"note":86}
{"t":191271,"type":"note_on","id":1072,"ch":0,"note":45,"vel":0.8}
{"t":191335,"type":"note_on","id":1073,"ch":0,"note":95,"vel":0.8}
{"t":191335,"type":"note_on","id":1074,"ch":0,"note":100,"vel":0.8}
{"t":191350,"type":"note_off","id":1071,"ch":0,"note":106}
{"t":191406,"type":"note_off","id":1062,"ch":0,"note":82}
{"t":191462,"type":"note_on","id":1075,"ch":0,"note":57,"vel":0.8}
{"t":191462,"type":"note_on","id":1076,"ch":0,"note":85,"vel":0.8}
{"t":191462,"type":"note_on","id":1077,"ch":0,"note":92,"vel":0.8}
{"t":191463,"type":"note_on","id":1078,"ch":0,"note":53,"vel":0.8}
{"t":191463,"type":"note_on","id":1079,"ch":0,"note":42,"vel":0.8}
{"t":191470,"type":"note_off","id":1068,"ch":0,"note":43}
{"t":191470,"type":"note_off","id":1073,"ch":0,"note":95}
{"t":191471,"type":"note_off","id":1074,"ch":0,"note":100}
{"t":191494,"type":"note_off","id":1077,"ch":0,"note":92}
{"t":191494,"type":"note_off","id":1079,"ch":0,"note":42}
{"t":191526,"type":"note_on","id":1080,"ch":0,"note":92,"vel":0.8}
{"t":191526,"type":"note_on","id":1081,"ch":0,"note":101,"vel":0.8}
{"t":191558,"type":"note_off","id":1080,"ch":0,"note":92}
{"t":191558,"type":"note_off","id":1081,"ch":0,"note":101}
{"t":191590,"type":"note_on","id":1082,"ch":0,"note":59,"vel":0.8}
{"t":191590,"type":"note_on","id":1083,"ch":0,"note":38,"vel":0.8}
{"t":191590,"type":"note_on","id":1084,"ch":0,"note":97,"vel":0.8}
{"t":191591,"type":"note_on","id":1085,"ch":0,"note":46,"vel":0.8}
{"t":191591,"type":"note_on","id":1086,"ch":0,"note":73,"vel":0.8}
{"t":191591,"type":"note_on","id":1087,"ch":0,"note":82,"vel":0.8}
{"t":191591,"type":"note_on","id":1088,"ch":0,"note":87,"vel":0.8}
{"t":191598,"type":"note_off","id":1072,"ch":0,"note":45}
{"t":191598,"type":"note_off","id":1075,"ch":0,"note":57}
{"t":191598,"type":"note_off","id":1076,"ch":0,"note":85}
{"t":191598,"type":"note_off","id":1078,"ch":0,"note":53}
{"t":191615,"type":"note_off","id":1085,"ch":0,"note":46}
{"t":191615,"type":"note_off","id":1086,"ch":0,"note":73}
{"t":191646,"type":"note_on","id":1089,"ch":0,"note":79,"vel":0.8}
{"t":191678,"type":"note_off","id":1089,"ch":0,"note":79}
{"t":191710,"type":"note_on","id":1090,"ch":0,"note":58,"vel":0.8}
{"t":191710,"type":"note_on","id":1091,"ch":0,"note":92,"vel":0.8}
{"t":191710,"type":"note_on","id":1092,"ch":0,"note":35,"vel":0.8}
{"t":191710,"type":"note_on","id":1093,"ch":0,"note":77,"vel":0.8}
{"t":191711,"type":"note_on","id":1094,"ch":0,"note":93,"vel":0.8}
{"t":191719,"type":"note_off","id":1082,"ch":0,"note":59}
{"t":191719,"type":"note_off","id":1084,"ch":0,"note":97}
{"t":191719,"type":"note_off","id":1088,"ch":0,"note":87}
{"t":191742,"type":"note_off","id":1091,"ch":0,"note":92}
{"t":191774,"type":"note_on","id":1095,"ch":0,"note":80,"vel":0.8}
{"t":191838,"type":"note_on","id":1096,"ch":0,"note":79,"vel":0.8}
{"t":191846,"type":"note_off","id":1067,"ch":0,"note":50}
{"t":191846,"type":"note_off","id":1097,"ch":0,"note":59}
{"t":191846,"type":"note_off","id":1090,"ch":0,"note":58}
{"t":191847,"type":"note_off","id":1092,"ch":0,"note":35}
{"t":191847,"type":"note_off","id":1094,"ch":0,"note":93}
{"t":191871,"type":"note_off","id":1096,"ch":0,"note":79}
{"t":191902,"type":"note_on","id":1098,"ch":0,"note":74,"vel":0.8}
{"t":191910,"type":"note_off","id":1083,"ch":0,"note":38}
{"t":191966,"type":"note_on","id":1099,"ch":0,"note":54,"vel":0.8}
{"t":191966,"type":"note_on","id":1100,"ch":0,"note":86,"vel":0.8}
{"t":191966,"type":"note_on","id":1101,"ch":0,"note":101,"vel":0.8}
{"t":191967,"type":"note_on","id":1102,"ch":0,"note":106,"vel":0.8}
{"t":191967,"type":"note_on","id":1103,"ch":0,"note":48,"vel":0.8}
{"t":191967,"type":"note_on","id":1104,"ch":0,"note":65,"vel":0.8}
{"t":191974,"type":"note_off","id":1098,"ch":0,"note":74}
{"t":191990,"type":"note_off","id":1101,"ch":0,"note":101}
{"t":192022,"type":"note_on","id":1105,"ch":0,"note":94,"vel":0.8}
{"t":192054,"type":"note_off","id":1105,"ch":0,"note":94}
{"t":192086,"type":"note_on","id":1106,"ch":0,"note":61,"vel":0.8}
{"t":192086,"type":"note_on","id":1107,"ch":0,"note":76,"vel":0.8}
{"t":192086,"type":"note_on","id":1108,"ch":0,"note":89,"vel":0.8}
{"t":192086,"type":"note_on","id":1109,"ch":0,"note":97,"vel":0.8}
{"t":192087,"type":"note_on","id":1110,"ch":0,"note":41,"vel":0.8}
{"t":192087,"type":"note_on","id":1111,"ch":0,"note":92,"vel":0.8}
{"t":192094,"type":"note_off","id":1099,"ch":0,"note":54}
{"t":192094,"type":"note_off","id":1102,"ch":0,"note":106}
{"t":192094,"type":"note_off","id":1103,"ch":0,"note":48}
{"t":192094,"type":"note_off","id":1104,"ch":0,"note":65}
{"t":192118,"type":"note_off","id":1111,"ch":0,"note":92}
{"t":192151,"type":"note_on","id":1112,"ch":0,"note":53,"vel":0.8}
{"t":192151,"type":"note_on","id":1113,"ch":0,"note":83,"vel":0.8}
{"t":192158,"type":"note_off","id":1087,"ch":0,"note":82}
{"t":192158,"type":"note_off","id":1100,"ch":0,"note":86}
{"t":192183,"type":"note_off","id":1112,"ch":0,"note":53}
{"t":192183,"type":"note_off","id":1113,"ch":0,"note":83}
{"t":192215,"type":"note_on","id":1114,"ch":0,"note":96,"vel":0.8}
{"t":192215,"type":"note_on","id":1115,"ch":0,"note":35,"vel":0.8}
{"t":192222,"type":"note_off","id":1059,"ch":0,"note":66}
{"t":192222,"type":"note_off","id":1093,"ch":0,"note":77}
{"t":192223,"type":"note_off","id":1106,"ch":0,"note":61}
{"t":192223,"type":"note_off","id":1107,"ch":0,"note":76}
{"t":192223,"type":"note_off","id":1108,"ch":0,"note":89}
{"t":192224,"type":"note_off","id":1109,"ch":0,"note":97}
{"t":192224,"type":"note_off","id":1110,"ch":0,"note":41}
{"t":192279,"type":"note_on","id":1116,"ch":0,"note":43,"vel":0.8}
{"t":192279,"type":"note_on","id":1117,"ch":0,"note":60,"vel":0.8}
{"t":192286,"type":"note_off","id":1114,"ch":0,"note":96}
{"t":192302,"type":"note_off","id":1116,"ch":0,"note":43}
{"t":192302,"type":"note_off","id":1117,"ch":0,"note":60}
{"t":192334,"type":"note_on","id":1118,"ch":0,"note":61,"vel":0.8}
{"t":192334,"type":"note_on","id":1119,"ch":0,"note":48,"vel":0.8}
{"t":192335,"type":"note_on","id":1120,"ch":0,"note":39,"vel":0.8}
{"t":192350,"type":"note_off","id":1115,"ch":0,"note":35}
{"t":192366,"type":"note_off","id":1119,"ch":0,"note":48}
{"t":192462,"type":"note_on","id":1121,"ch":0,"note":86,"vel":0.8}
{"t":192463,"type":"note_on","id":1122,"ch":0,"note":79,"vel":0.8}
{"t":192463,"type":"note_on","id":1123,"ch":0,"note":69,"vel":0.8}
{"t":192463,"type":"note_on","id":1124,"ch":0,"note":55,"vel":0.8}
{"t":192470,"type":"note_off","id":1118,"ch":0,"note":61}
{"t":192470,"type":"note_off","id":1120,"ch":0,"note":39}
{"t":192494,"type":"note_off","id":1123,"ch":0,"note":69}
{"t":192534,"type":"note_off","id":1095,"ch":0,"note":80}
{"t":192534,"type":"note_off","id":1121,"ch":0,"note":86}
{"t":192534,"type":"note_off","id":1122,"ch":0,"note":79}
{"t":192535,"type":"note_off","id":1124,"ch":0,"note":55}
{"t":192655,"type":"note_on","id":1125,"ch":0,"note":77,"vel":0.8}
{"t":192655,"type":"note_on","id":1126,"ch":0,"note":53,"vel":0.8}
{"t":192655,"type":"note_on","id":1127,"ch":0,"note":45,"vel":0.8}
{"t":192686,"type":"note_off","id":1126,"ch":0,"note":53}
{"t":192783,"type":"note_on","id":1128,"ch":0,"note":69,"vel":0.8}
{"t":192783,"type":"note_on","id":1129,"ch":0,"note":71,"vel":0.8}
{"t":192783,"type":"note_on","id":1130,"ch":0,"note":74,"vel":0.8}
{"t":192783,"type":"note_on","id":1131,"ch":0,"note":94,"vel":0.8}
{"t":192783,"type":"note_on","id":1132,"ch":0,"note":50,"vel":0.8}
{"t":192784,"type":"note_on","id":1133,"ch":0,"note":62,"vel":0.8}
{"t":192784,"type":"note_on","id":1134,"ch":0,"note":39,"vel":0.8}
{"t":192790,"type":"note_off","id":1125,"ch":0,"note":77}
{"t":192790,"type":"note_off","id":1127,"ch":0,"note":45}
{"t":192806,"type":"note_off","id":1132,"ch":0,"note":50}
{"t":192902,"type":"note_on","id":1135,"ch":0,"note":66,"vel":0.8}
{"t":192902,"type":"note_on","id":1136,"ch":0,"note":67,"vel":0.8}
{"t":192902,"type":"note_on","id":1137,"ch":0,"note":82,"vel":0.8}
{"t":192902,"type":"note_on","id":1138,"ch":0,"note":100,"vel":0.8}
{"t":192903,"type":"note_on","id":1139,"ch":0,"note":89,"vel":0.8}
{"t":192903,"type":"note_on","id":1140,"ch":0,"note":58,"vel":0.8}
{"t":192904,"type":"note_on","id":1141,"ch":0,"note":35,"vel":0.8}
{"t":192910,"type":"note_off","id":1128,"ch":0,"note":69}
{"t":192910,"type":"note_off","id":1129,"ch":0,"note":71}
{"t":192910,"type":"note_off","id":1130,"ch":0,"note":74}
{"t":192911,"type":"note_off","id":1131,"ch":0,"note":94}
{"t":192911,"type":"note_off","id":1133,"ch":0,"note":62}
{"t":192911,"type":"note_off","id":1134,"ch":0,"note":39}
{"t":192934,"type":"note_off","id":1138,"ch":0,"note":100}
{"t":192966,"type":"note_on","id":1142,"ch":0,"note":102,"vel":0.8}
{"t":192967,"type":"note_on","id":1143,"ch":0,"note":50,"vel":0.8}
{"t":192998,"type":"note_off","id":1142,"ch":0,"note":102}
{"t":193031,"type":"note_on","id":1144,"ch":0,"note":43,"vel":0.8}
{"t":193031,"type":"note_on","id":1145,"ch":0,"note":86,"vel":0.8}
{"t":193031,"type":"note_on","id":1146,"ch":0,"note":59,"vel":0.8}
{"t":193031,"type":"note_on","id":1147,"ch":0,"note":106,"vel":0.8}
{"t":193038,"type":"note_off","id":1136,"ch":0,"note":67}
{"t":193038,"type":"note_off","id":1139,"ch":0,"note":89}
{"t":193039,"type":"note_off","id":1140,"ch":0,"note":58}
{"t":193039,"type":"note_off","id":1141,"ch":0,"note":35}
{"t":193054,"type":"note_off","id":1145,"ch":0,"note":86}
{"t":193094,"type":"note_on","id":1148,"ch":0,"note":45,"vel":0.8}
{"t":193150,"type":"note_on","id":1149,"ch":0,"note":95,"vel":0.8}
{"t":193150,"type":"note_on","id":1150,"ch":0,"note":100,"vel":0.8}
{"t":193166,"type":"note_off","id":1147,"ch":0,"note":106}
{"t":193222,"type":"note_off","id":1137,"ch":0,"note":82}
{"t":193278,"type":"note_on","id":1151,"ch":0,"note":57,"vel":0.8}
{"t":193279,"type":"note_on","id":1152,"ch":0,"note":85,"vel":0.8}
{"t":193279,"type":"note_on","id":1153,"ch":0,"note":92,"vel":0.8}
{"t":193279,"type":"note_on","id":1154,"ch":0,"note":53,"vel":0.8}
{"t":193279,"type":"note_on","id":1155,"ch":0,"note":42,"vel":0.8}
{"t":193286,"type":"note_off","id":1144,"ch":0,"note":43}
{"t":193286,"type":"note_off","id":1149,"ch":0,"note":95}
{"t":193286,"type":"note_off","id":1150,"ch":0,"note":100}
{"t":193310,"type":"note_off","id":1153,"ch":0,"note":92}
{"t":193310,"type":"note_off","id":1155,"ch":0,"note":42}
{"t":193342,"type":"note_on","id":1156,"ch":0,"note":92,"vel":0.8}
{"t":193342,"type":"note_on","id":1157,"ch":0,"note":101,"vel":0.8}
{"t":193374,"type":"note_off","id":1156,"ch":0,"note":92}
{"t":193374,"type":"note_off","id":1157,"ch":0,"note":101}
{"t":193406,"type":"note_on","id":1158,"ch":0,"note":59,"vel":0.8}
{"t":193406,"type":"note_on","id":1159,"ch":0,"note":38,"vel":0.8}
{"t":193406,"type":"note_on","id":1160,"ch":0,"note":97,"vel":0.8}
{"t":193407,"type":"note_on","id":1161,"ch":0,"note":46,"vel":0.8}
{"t":193407,"type":"note_on","id":1162,"ch":0,"note":73,"vel":0.8}
{"t":193407,"type":"note_on","id":1163,"ch":0,"note":82,"vel":0.8}
{"t":193408,"type":"note_on","id":1164,"ch":0,"note":87,"vel":0.8}
{"t":193414,"type":"note_off","id":1148,"ch":0,"note":45}
{"t":193414,"type":"note_off","id":1151,"ch":0,"note":57}
{"t":193414,"type":"note_off","id":1152,"ch":0,"note":85}
{"t":193415,"type":"note_off","id":1154,"ch":0,"note":53}
{"t":193430,"type":"note_off","id":1161,"ch":0,"note":46}
{"t":193430,"type":"note_off","id":1162,"ch":0,"note":73}
{"t":193462,"type":"note_on","id":1165,"ch":0,"note":79,"vel":0.8}
{"t":193494,"type":"note_off","id":1165,"ch":0,"note":79}
{"t":193527,"type":"note_on","id":1166,"ch":0,"note":58,"vel":0.8}
{"t":193527,"type":"note_on","id":1167,"ch":0,"note":92,"vel":0.8}
{"t":193527,"type":"note_on","id":1168,"ch":0,"note":35,"vel":0.8}
{"t":193528,"type":"note_on","id":1169,"ch":0,"note":77,"vel":0.8}
{"t":193528,"type":"note_on","id":1170,"ch":0,"note":93,"vel":0.8}
{"t":193543,"type":"note_off","id":1158,"ch":0,"note":59}
{"t":193544,"type":"note_off","id":1160,"ch":0,"note":97}
{"t":193544,"type":"note_off","id":1164,"ch":0,"note":87}
{"t":193558,"type":"note_off","id":1167,"ch":0,"note":92}
{"t":193590,"type":"note_on","id":1171,"ch":0,"note":80,"vel":0.8}
{"t":193655,"type":"note_on","id":1172,"ch":0,"note":79,"vel":0.8}
{"t":193662,"type":"note_off","id":1143,"ch":0,"note":50}
{"t":193662,"type":"note_off","id":1173,"ch":0,"note":59}
{"t":193662,"type":"note_off","id":1166,"ch":0,"note":58}
{"t":193663,"type":"note_off","id":1168,"ch":0,"note":35}
{"t":193663,"type":"note_off","id":1170,"ch":0,"note":93}
{"t":193679,"type":"note_off","id":1172,"ch":0,"note":79}
{"t":193719,"type":"note_on","id":1174,"ch":0,"note":74,"vel":0.8}
{"t":193726,"type":"note_off","id":1159,"ch":0,"note":38}
{"t":193774,"type":"note_on","id":1175,"ch":0,"note":54,"vel":0.8}
{"t":193775,"type":"note_on","id":1176,"ch":0,"note":86,"vel":0.8}
{"t":193775,"type":"note_on","id":1177,"ch":0,"note":101,"vel":0.8}
{"t":193775,"type":"note_on","id":1178,"ch":0,"note":106,"vel":0.8}
{"t":193775,"type":"note_on","id":1179,"ch":0,"note":48,"vel":0.8}
{"t":193775,"type":"note_on","id":1180,"ch":0,"note":65,"vel":0.8}
{"t":193790,"type":"note_off","id":1174,"ch":0,"note":74}
{"t":193806,"type":"note_off","id":1177,"ch":0,"note":101}
{"t":193838,"type":"note_on","id":1181,"ch":0,"note":94,"vel":0.8}
{"t":193870,"type":"note_off","id":1181,"ch":0,"note":94}
{"t":193902,"type":"note_on","id":1182,"ch":0,"note":61,"vel":0.8}
{"t":193902,"type":"note_on","id":1183,"ch":0,"note":76,"vel":0.8}
{"t":193903,"type":"note_on","id":1184,"ch":0,"note":89,"vel":0.8}
{"t":193903,"type":"note_on","id":1185,"ch":0,"note":97,"vel":0.8}
{"t":193903,"type":"note_on","id":1186,"ch":0,"note":41,"vel":0.8}
{"t":193903,"type":"note_on","id":1187,"ch":0,"note":92,"vel":0.8}
{"t":193910,"type":"note_off","id":1175,"ch":0,"note":54}
{"t":193911,"type":"note_off","id":1178,"ch":0,"note":106}
{"t":193911,"type":"note_off","id":1179,"ch":0,"note":48}
{"t":193911,"type":"note_off","id":1180,"ch":0,"note":65}
{"t":193934,"type":"note_off","id":1187,"ch":0,"note":92}
{"t":193966,"type":"note_on","id":1188,"ch":0,"note":53,"vel":0.8}
{"t":193966,"type":"note_on","id":1189,"ch":0,"note":83,"vel":0.8}
{"t":193974,"type":"note_off","id":1163,"ch":0,"note":82}
{"t":193974,"type":"note_off","id":1176,"ch":0,"note":86}
{"t":193999,"type":"note_off","id":1188,"ch":0,"note":53}
{"t":193999,"type":"note_off","id":1189,"ch":0,"note":83}
{"t":194031,"type":"note_on","id":1190,"ch":0,"note":96,"vel":0.8}
{"t":194031,"type":"note_on","id":1191,"ch":0,"note":35,"vel":0.8}
{"t":194038,"type":"note_off","id":1135,"ch":0,"note":66}
{"t":194038,"type":"note_off","id":1169,"ch":0,"note":77}
{"t":194038,"type":"note_off","id":1182,"ch":0,"note":61}
{"t":194038,"type":"note_off","id":1183,"ch":0,"note":76}
{"t":194039,"type":"note_off","id":1184,"ch":0,"note":89}
{"t":194039,"type":"note_off","id":1185,"ch":0,"note":97}
{"t":194039,"type":"note_off","id":1186,"ch":0,"note":41}
{"t":194094,"type":"note_on","id":1192,"ch":0,"note":43,"vel":0.8}
{"t":194094,"type":"note_on","id":1193,"ch":0,"note":60,"vel":0.8}
{"t":194102,"type":"note_off","id":1190,"ch":0,"note":96}
{"t":194119,"type":"note_off","id":1192,"ch":0,"note":43}
{"t":194119,"type":"note_off","id":1193,"ch":0,"note":60}
{"t":194150,"type":"note_on","id":1194,"ch":0,"note":61,"vel":0.8}
{"t":194150,"type":"note_on","id":1195,"ch":0,"note":48,"vel":0.8}
{"t":194151,"type":"note_on","id":1196,"ch":0,"note":39,"vel":0.8}
{"t":194166,"type":"note_off","id":1191,"ch":0,"note":35}
{"t":194183,"type":"note_off","id":1195,"ch":0,"note":48}
{"t":194279,"type":"note_on","id":1197,"ch":0,"note":86,"vel":0.8}
{"t":194279,"type":"note_on","id":1198,"ch":0,"note":79,"vel":0.8}
{"t":194279,"type":"note_on","id":1199,"ch":0,"note":69,"vel":0.8}
{"t":194279,"type":"note_on","id":1200,"ch":0,"note":55,"vel":0.8}
{"t":194286,"type":"note_off","id":1194,"ch":0,"note":61}
{"t":194286,"type":"note_off","id":1196,"ch":0,"note":39}
{"t":194310,"type":"note_off","id":1199,"ch":0,"note":69}
{"t":194350,"type":"note_off","id":1171,"ch":0,"note":80}
{"t":194351,"type":"note_off","id":1197,"ch":0,"note":86}
{"t":194351,"type":"note_off","id":1198,"ch":0,"note":79}
{"t":194351,"type":"note_off","id":1200,"ch":0,"note":55}
{"t":194470,"type":"note_on","id":1201,"ch":0,"note":77,"vel":0.8}
{"t":194470,"type":"note_on","id":1202,"ch":0,"note":53,"vel":0.8}
{"t":194471,"type":"note_on","id":1203,"ch":0,"note":45,"vel":0.8}
{"t":194503,"type":"note_off","id":1202,"ch":0,"note":53}
{"t":194599,"type":"note_on","id":1204,"ch":0,"note":69,"vel":0.8}
{"t":194600,"type":"note_on","id":1205,"ch":0,"note":71,"vel":0.8}
{"t":194600,"type":"note_on","id":1206,"ch":0,"note":74,"vel":0.8}
{"t":194600,"type":"note_on","id":1207,"ch":0,"note":94,"vel":0.8}
{"t":194602,"type":"note_on","id":1208,"ch":0,"note":50,"vel":0.8}
{"t":194602,"type":"note_on","id":1209,"ch":0,"note":62,"vel":0.8}
{"t":194602,"type":"note_on","id":1210,"ch":0,"note":39,"vel":0.8}
{"t":194606,"type":"note_off","id":1201,"ch":0,"note":77}
{"t":194607,"type":"note_off","id":1203,"ch":0,"note":45}
{"t":194622,"type":"note_off","id":1208,"ch":0,"note":50}
{"t":194719,"type":"note_on","id":1211,"ch":0,"note":66,"vel":0.8}
{"t":194720,"type":"note_on","id":1212,"ch":0,"note":67,"vel":0.8}
{"t":194720,"type":"note_on","id":1213,"ch":0,"note":82,"vel":0.8}
{"t":194720,"type":"note_on","id":1214,"ch":0,"note":100,"vel":0.8}
{"t":194720,"type":"note_on","id":1215,"ch":0,"note":89,"vel":0.8}
{"t":194721,"type":"note_on","id":1216,"ch":0,"note":58,"vel":0.8}
{"t":194721,"type":"note_on","id":1217,"ch":0,"note":35,"vel":0.8}
{"t":194726,"type":"note_off","id":1204,"ch":0,"note":69}
{"t":194726,"type":"note_off","id":1205,"ch":0,"note":71}
{"t":194726,"type":"note_off","id":1206,"ch":0,"note":74}
{"t":194727,"type":"note_off","id":1207,"ch":0,"note":94}
{"t":194727,"type":"note_off","id":1209,"ch":0,"note":62}
{"t":194727,"type":"note_off","id":1210,"ch":0,"note":39}
{"t":194751,"type":"note_off","id":1214,"ch":0,"note":100}
{"t":194782,"type":"note_on","id":1218,"ch":0,"note":102,"vel":0.8}
{"t":194782,"type":"note_on","id":1219,"ch":0,"note":50,"vel":0.8}
{"t":194814,"type":"note_off","id":1218,"ch":0,"note":102}
{"t":194846,"type":"note_on","id":1220,"ch":0,"note":43,"vel":0.8}
{"t":194847,"type":"note_on","id":1221,"ch":0,"note":86,"vel":0.8}
{"t":194847,"type":"note_on","id":1222,"ch":0,"note":59,"vel":0.8}
{"t":194847,"type":"note_on","id":1223,"ch":0,"note":106,"vel":0.8}
{"t":194854,"type":"note_off","id":1212,"ch":0,"note":67}
{"t":194854,"type":"note_off","id":1215,"ch":0,"note":89}
{"t":194854,"type":"note_off","id":1216,"ch":0,"note":58}
{"t":194855,"type":"note_off","id":1217,"ch":0,"note":35}
{"t":194878,"type":"note_off","id":1221,"ch":0,"note":86}
{"t":194910,"type":"note_on","id":1224,"ch":0,"note":45,"vel":0.8}
{"t":194966,"type":"note_on","id":1225,"ch":0,"note":95,"vel":0.8}
{"t":194966,"type":"note_on","id":1226,"ch":0,"note":100,"vel":0.8}
{"t":194982,"type":"note_off","id":1223,"ch":0,"note":106}
{"t":195038,"type":"note_off","id":1213,"ch":0,"note":82}
{"t":195094,"type":"note_on","id":1227,"ch":0,"note":57,"vel":0.8}
{"t":195094,"type":"note_on","id":1228,"ch":0,"note":85,"vel":0.8}
{"t":195095,"type":"note_on","id":1229,"ch":0,"note":92,"vel":0.8}
{"t":195095,"type":"note_on","id":1230,"ch":0,"note":53,"vel":0.8}
{"t":195096,"type":"note_on","id":1231,"ch":0,"note":42,"vel":0.8}
{"t":195102,"type":"note_off","id":1220,"ch":0,"note":43}
{"t":195102,"type":"note_off","id":1225,"ch":0,"note":95}
{"t":195103,"type":"note_off","id":1226,"ch":0,"note":100}
{"t":195126,"type":"note_off","id":1229,"ch":0,"note":92}
{"t":195126,"type":"note_off","id":1231,"ch":0,"note":42}
{"t":195159,"type":"note_on","id":1232,"ch":0,"note":92,"vel":0.8}
{"t":195159,"type":"note_on","id":1233,"ch":0,"note":101,"vel":0.8}
{"t":195190,"type":"note_off","id":1232,"ch":0,"note":92}
{"t":195190,"type":"note_off","id":1233,"ch":0,"note":101}
{"t":195222,"type":"note_on","id":1234,"ch":0,"note":59,"vel":0.8}
{"t":195222,"type":"note_on","id":1235,"ch":0,"note":38,"vel":0.8}
{"t":195222,"type":"note_on","id":1236,"ch":0,"note":97,"vel":0.8}
{"t":195223,"type":"note_on","id":1237,"ch":0,"note":46,"vel":0.8}
{"t":195223,"type":"note_on","id":1238,"ch":0,"note":73,"vel":0.8}
{"t":195223,"type":"note_on","id":1239,"ch":0,"note":82,"vel":0.8}
{"t":195223,"type":"note_on","id":1240,"ch":0,"note":87,"vel":0.8}
{"t":195230,"type":"note_off","id":1224,"ch":0,"note":45}
{"t":195231,"type":"note_off","id":1227,"ch":0,"note":57}
{"t":195231,"type":"note_off","id":1228,"ch":0,"note":85}
{"t":195231,"type":"note_off","id":1230,"ch":0,"note":53}
{"t":195247,"type":"note_off","id":1237,"ch":0,"note":46}
{"t":195247,"type":"note_off","id":1238,"ch":0,"note":73}
{"t":195278,"type":"note_on","id":1241,"ch":0,"note":79,"vel":0.8}
{"t":195310,"type":"note_off","id":1241,"ch":0,"note":79}
{"t":195342,"type":"note_on","id":1242,"ch":0,"note":58,"vel":0.8}
{"t":195342,"type":"note_on","id":1243,"ch":0,"note":92,"vel":0.8}
{"t":195343,"type":"note_on","id":1244,"ch":0,"note":35,"vel":0.8}
{"t":195343,"type":"note_on","id":1245,"ch":0,"note":77,"vel":0.8}
{"t":195343,"type":"note_on","id":1246,"ch":0,"note":93,"vel":0.8}
{"t":195350,"type":"note_off","id":1234,"ch":0,"note":59}
{"t":195351,"type":"note_off","id":1236,"ch":0,"note":97}
{"t":195351,"type":"note_off","id":1240,"ch":0,"note":87}
{"t":195374,"type":"note_off","id":1243,"ch":0,"note":92}
{"t":195406,"type":"note_on","id":1247,"ch":0,"note":80,"vel":0.8}
{"t":195471,"type":"note_on","id":1248,"ch":0,"note":79,"vel":0.8}
{"t":195478,"type":"note_off","id":1219,"ch":0,"note":50}
{"t":195478,"type":"note_off","id":1249,"ch":0,"note":59}
{"t":195478,"type":"note_off","id":1242,"ch":0,"note":58}
{"t":195478,"type":"note_off","id":1244,"ch":0,"note":35}
{"t":195479,"type":"note_off","id":1246,"ch":0,"note":93}
{"t":195502,"type":"note_off","id":1248,"ch":0,"note":79}
{"t":195535,"type":"note_on","id":1250,"ch":0,"note":74,"vel":0.8}
{"t":195542,"type":"note_off","id":1235,"ch":0,"note":38}
{"t":195591,"type":"note_on","id":1251,"ch":0,"note":54,"vel":0.8}
{"t":195591,"type":"note_on","id":1252,"ch":0,"note":86,"vel":0.8}
{"t":195591,"type":"note_on","id":1253,"ch":0,"note":101,"vel":0.8}
{"t":195592,"type":"note_on","id":1254,"ch":0,"note":106,"vel":0.8}
{"t":195592,"type":"note_on","id":1255,"ch":0,"note":48,"vel":0.8}
{"t":195593,"type":"note_on","id":1256,"ch":0,"note":65,"vel":0.8}
{"t":195606,"type":"note_off","id":1250,"ch":0,"note":74}
{"t":195622,"type":"note_off","id":1253,"ch":0,"note":101}
{"t":195654,"type":"note_on","id":1257,"ch":0,"note":94,"vel":0.8}
{"t":195688,"type":"note_off","id":1257,"ch":0,"note":94}
{"t":195719,"type":"note_on","id":1258,"ch":0,"note":61,"vel":0.8}
{"t":195719,"type":"note_on","id":1259,"ch":0,"note":76,"vel":0.8}
{"t":195719,"type":"note_on","id":1260,"ch":0,"note":89,"vel":0.8}
{"t":195719,"type":"note_on","id":1261,"ch":0,"note":97,"vel":0.8}
{"t":195720,"type":"note_on","id":1262,"ch":0,"note":41,"vel":0.8}
{"t":195720,"type":"note_on","id":1263,"ch":0,"note":92,"vel":0.8}
{"t":195726,"type":"note_off","id":1251,"ch":0,"note":54}
{"t":195726,"type":"note_off","id":1254,"ch":0,"note":106}
{"t":195726,"type":"note_off","id":1255,"ch":0,"note":48}
{"t":195727,"type":"note_off","id":1256,"ch":0,"note":65}
{"t":195750,"type":"note_off","id":1263,"ch":0,"note":92}
{"t":195783,"type":"note_on","id":1264,"ch":0,"note":53,"vel":0.8}
{"t":195783,"type":"note_on","id":1265,"ch":0,"note":83,"vel":0.8}
{"t":195790,"type":"note_off","id":1239,"ch":0,"note":82}
{"t":195791,"type":"note_off","id":1252,"ch":0,"note":86}
{"t":195815,"type":"note_off","id":1264,"ch":0,"note":53}
{"t":195815,"type":"note_off","id":1265,"ch":0,"note":83}
{"t":195847,"type":"note_on","id":1266,"ch":0,"note":96,"vel":0.8}
{"t":195847,"type":"note_on","id":1267,"ch":0,"note":35,"vel":0.8}
{"t":195855,"type":"note_off","id":1211,"ch":0,"note":66}
{"t":195855,"type":"note_off","id":1245,"ch":0,"note":77}
{"t":195856,"type":"note_off","id":1258,"ch":0,"note":61}
{"t":195856,"type":"note_off","id":1259,"ch":0,"note":76}
{"t":195856,"type":"note_off","id":1260,"ch":0,"note":89}
{"t":195856,"type":"note_off","id":1261,"ch":0,"note":97}
{"t":195857,"type":"note_off","id":1262,"ch":0,"note":41}
{"t":195910,"type":"note_on","id":1268,"ch":0,"note":43,"vel":0.8}
{"t":195911,"type":"note_on","id":1269,"ch":0,"note":60,"vel":0.8}
{"t":195918,"type":"note_off","id":1266,"ch":0,"note":96}
{"t":195934,"type":"note_off","id":1268,"ch":0,"note":43}
{"t":195934,"type":"note_off","id":1269,"ch":0,"note":60}
{"t":195967,"type":"note_on","id":1270,"ch":0,"note":61,"vel":0.8}
{"t":195967,"type":"note_on","id":1271,"ch":0,"note":48,"vel":0.8}
{"t":195967,"type":"note_on","id":1272,"ch":0,"note":39,"vel":0.8}
{"t":195983,"type":"note_off","id":1267,"ch":0,"note":35}
{"t":195999,"type":"note_off","id":1271,"ch":0,"note":48}
{"t":196096,"type":"note_on","id":1273,"ch":0,"note":86,"vel":0.8}
{"t":196096,"type":"note_on","id":1274,"ch":0,"note":79,"vel":0.8}
{"t":196096,"type":"note_on","id":1275,"ch":0,"note":69,"vel":0.8}
{"t":196096,"type":"note_on","id":1276,"ch":0,"note":55,"vel":0.8}
{"t":196103,"type":"note_off","id":1270,"ch":0,"note":61}
{"t":196103,"type":"note_off","id":1272,"ch":0,"note":39}
{"t":196126,"type":"note_off","id":1275,"ch":0,"note":69}
{"t":196166,"type":"note_off","id":1247,"ch":0,"note":80}
{"t":196167,"type":"note_off","id":1273,"ch":0,"note":86}
{"t":196167,"type":"note_off","id":1274,"ch":0,"note":79}
{"t":196167,"type":"note_off","id":1276,"ch":0,"note":55}
{"t":196287,"type":"note_on","id":1277,"ch":0,"note":77,"vel":0.8}
{"t":196288,"type":"note_on","id":1278,"ch":0,"note":53,"vel":0.8}
{"t":196288,"type":"note_on","id":1279,"ch":0,"note":45,"vel":0.8}
{"t":196319,"type":"note_off","id":1278,"ch":0,"note":53}
{"t":196415,"type":"note_on","id":1280,"ch":0,"note":69,"vel":0.8}
{"t":196415,"type":"note_on","id":1281,"ch":0,"note":71,"vel":0.8}
{"t":196415,"type":"note_on","id":1282,"ch":0,"note":74,"vel":0.8}
{"t":196415,"type":"note_on","id":1283,"ch":0,"note":94,"vel":0.8}
{"t":196415,"type":"note_on","id":1284,"ch":0,"note":50,"vel":0.8}
{"t":196416,"type":"note_on","id":1285,"ch":0,"note":62,"vel":0.8}
{"t":196416,"type":"note_on","id":1286,"ch":0,"note":39,"vel":0.8}
{"t":196422,"type":"note_off","id":1277,"ch":0,"note":77}
{"t":196422,"type":"note_off","id":1279,"ch":0,"note":45}
{"t":196438,"type":"note_off","id":1284,"ch":0,"note":50}
{"t":196534,"type":"note_on","id":1287,"ch":0,"note":66,"vel":0.8}
{"t":196534,"type":"note_on","id":1288,"ch":0,"note":67,"vel":0.8}
{"t":196534,"type":"note_on","id":1289,"ch":0,"note":82,"vel":0.8}
{"t":196535,"type":"note_on","id":1290,"ch":0,"note":100,"vel":0.8}
{"t":196535,"type":"note_on","id":1291,"ch":0,"note":89,"vel":0.8}
{"t":196536,"type":"note_on","id":1292,"ch":0,"note":58,"vel":0.8}
{"t":196536,"type":"note_on","id":1293,"ch":0,"note":35,"vel":0.8}
{"t":196543,"type":"note_off","id":1280,"ch":0,"note":69}
{"t":196543,"type":"note_off","id":1281,"ch":0,"note":71}
{"t":196543,"type":"note_off","id":1282,"ch":0,"note":74}
{"t":196543,"type":"note_off","id":1283,"ch":0,"note":94}
{"t":196544,"type":"note_off","id":1285,"ch":0,"note":62}
{"t":196544,"type":"note_off","id":1286,"ch":0,"note":39}
{"t":196567,"type":"note_off","id":1290,"ch":0,"note":100}
{"t":196599,"type":"note_on","id":1294,"ch":0,"note":102,"vel":0.8}
{"t":196599,"type":"note_on","id":1295,"ch":0,"note":50,"vel":0.8}
{"t":196631,"type":"note_off","id":1294,"ch":0,"note":102}
{"t":196662,"type":"note_on","id":1296,"ch":0,"note":43,"vel":0.8}
{"t":196662,"type":"note_on","id":1297,"ch":0,"note":86,"vel":0.8}
{"t":196662,"type":"note_on","id":1298,"ch":0,"note":59,"vel":0.8}
{"t":196663,"type":"note_on","id":1299,"ch":0,"note":106,"vel":0.8}
{"t":196670,"type":"note_off","id":1288,"ch":0,"note":67}
{"t":196670,"type":"note_off","id":1291,"ch":0,"note":89}
{"t":196671,"type":"note_off","id":1292,"ch":0,"note":58}
{"t":196671,"type":"note_off","id":1293,"ch":0,"note":35}
{"t":196687,"type":"note_off","id":1297,"ch":0,"note":86}
{"t":196726,"type":"note_on","id":1300,"ch":0,"note":45,"vel":0.8}
{"t":196783,"type":"note_on","id":1301,"ch":0,"note":95,"vel":0.8}
{"t":196784,"type":"note_on","id":1302,"ch":0,"note":100,"vel":0.8}
{"t":196798,"type":"note_off","id":1299,"ch":0,"note":106}
{"t":196855,"type":"note_off","id":1289,"ch":0,"note":82}
{"t":196910,"type":"note_on","id":1303,"ch":0,"note":57,"vel":0.8}
{"t":196910,"type":"note_on","id":1304,"ch":0,"note":85,"vel":0.8}
{"t":196911,"type":"note_on","id":1305,"ch":0,"note":92,"vel":0.8}
{"t":196911,"type":"note_on","id":1306,"ch":0,"note":53,"vel":0.8}
{"t":196911,"type":"note_on","id":1307,"ch":0,"note":42,"vel":0.8}
{"t":196918,"type":"note_off","id":1296,"ch":0,"note":43}
{"t":196918,"type":"note_off","id":1301,"ch":0,"note":95}
{"t":196918,"type":"note_off","id":1302,"ch":0,"note":100}
{"t":196943,"type":"note_off","id":1305,"ch":0,"note":92}
{"t":196943,"type":"note_off","id":1307,"ch":0,"note":42}
{"t":196974,"type":"note_on","id":1308,"ch":0,"note":92,"vel":0.8}
{"t":196974,"type":"note_on","id":1309,"ch":0,"note":101,"vel":0.8}
{"t":197006,"type":"note_off","id":1308,"ch":0,"note":92}
{"t":197006,"type":"note_off","id":1309,"ch":0,"note":101}
{"t":197038,"type":"note_on","id":1310,"ch":0,"note":59,"vel":0.8}
{"t":197038,"type":"note_on","id":1311,"ch":0,"note":38,"vel":0.8}
{"t":197038,"type":"note_on","id":1312,"ch":0,"note":97,"vel":0.8}
{"t":197039,"type":"note_on","id":1313,"ch":0,"note":46,"vel":0.8}
{"t":197039,"type":"note_on","id":1314,"ch":0,"note":73,"vel":0.8}
{"t":197039,"type":"note_on","id":1315,"ch":0,"note":82,"vel":0.8}
{"t":197040,"type":"note_on","id":1316,"ch":0,"note":87,"vel":0.8}
{"t":197047,"type":"note_off","id":1300,"ch":0,"note":45}
{"t":197047,"type":"note_off","id":1303,"ch":0,"note":57}
{"t":197048,"type":"note_off","id":1304,"ch":0,"note":85}
{"t":197048,"type":"note_off","id":1306,"ch":0,"note":53}
{"t":197062,"type":"note_off","id":1313,"ch":0,"note":46}
{"t":197062,"type":"note_off","id":1314,"ch":0,"note":73}
{"t":197095,"type":"note_on","id":1317,"ch":0,"note":79,"vel":0.8}
{"t":197126,"type":"note_off","id":1317,"ch":0,"note":79}
{"t":197158,"type":"note_on","id":1318,"ch":0,"note":58,"vel":0.8}
{"t":197158,"type":"note_on","id":1319,"ch":0,"note":92,"vel":0.8}
{"t":197159,"type":"note_on","id":1320,"ch":0,"note":35,"vel":0.8}
{"t":197159,"type":"note_on","id":1321,"ch":0,"note":77,"vel":0.8}
{"t":197159,"type":"note_on","id":1322,"ch":0,"note":93,"vel":0.8}
{"t":197166,"type":"note_off","id":1310,"ch":0,"note":59}
{"t":197166,"type":"note_off","id":1312,"ch":0,"note":97}
{"t":197167,"type":"note_off","id":1316,"ch":0,"note":87}
{"t":197190,"type":"note_off","id":1319,"ch":0,"note":92}
{"t":197222,"type":"note_on","id":1323,"ch":0,"note":80,"vel":0.8}
{"t":197287,"type":"note_on","id":1324,"ch":0,"note":79,"vel":0.8}
{"t":197294,"type":"note_off","id":1295,"ch":0,"note":50}
{"t":197294,"type":"note_off","id":1325,"ch":0,"note":59}
{"t":197294,"type":"note_off","id":1318,"ch":0,"note":58}
{"t":197295,"type":"note_off","id":1320,"ch":0,"note":35}
{"t":197295,"type":"note_off","id":1322,"ch":0,"note":93}
{"t":197319,"type":"note_off","id":1324,"ch":0,"note":79}
{"t":197350,"type":"note_on","id":1326,"ch":0,"note":74,"vel":0.8}
{"t":197358,"type":"note_off","id":1311,"ch":0,"note":38}
{"t":197414,"type":"note_on","id":1327,"ch":0,"note":54,"vel":0.8}
{"t":197414,"type":"note_on","id":1328,"ch":0,"note":86,"vel":0.8}
{"t":197415,"type":"note_on","id":1329,"ch":0,"note":101,"vel":0.8}
{"t":197415,"type":"note_on","id":1330,"ch":0,"note":106,"vel":0.8}
{"t":197415,"type":"note_on","id":1331,"ch":0,"note":48,"vel":0.8}
{"t":197415,"type":"note_on","id":1332,"ch":0,"note":65,"vel":0.8}
{"t":197422,"type":"note_off","id":1326,"ch":0,"note":74}
{"t":197438,"type":"note_off","id":1329,"ch":0,"note":101}
{"t":197470,"type":"note_on","id":1333,"ch":0,"note":94,"vel":0.8}
{"t":197502,"type":"note_off","id":1333,"ch":0,"note":94}
{"t":197534,"type":"note_on","id":1334,"ch":0,"note":61,"vel":0.8}
{"t":197535,"type":"note_on","id":1335,"ch":0,"note":76,"vel":0.8}
{"t":197535,"type":"note_on","id":1336,"ch":0,"note":89,"vel":0.8}
{"t":197535,"type":"note_on","id":1337,"ch":0,"note":97,"vel":0.8}
{"t":197535,"type":"note_on","id":1338,"ch":0,"note":41,"vel":0.8}
{"t":197536,"type":"note_on","id":1339,"ch":0,"note":92,"vel":0.8}
{"t":197542,"type":"note_off","id":1327,"ch":0,"note":54}
{"t":197542,"type":"note_off","id":1330,"ch":0,"note":106}
{"t":197543,"type":"note_off","id":1331,"ch":0,"note":48}
{"t":197543,"type":"note_off","id":1332,"ch":0,"note":65}
{"t":197567,"type":"note_off","id":1339,"ch":0,"note":92}
{"t":197598,"type":"note_on","id":1340,"ch":0,"note":53,"vel":0.8}
{"t":197598,"type":"note_on","id":1341,"ch":0,"note":83,"vel":0.8}
{"t":197607,"type":"note_off","id":1315,"ch":0,"note":82}
{"t":197607,"type":"note_off","id":1328,"ch":0,"note":86}
{"t":197630,"type":"note_off","id":1340,"ch":0,"note":53}
{"t":197630,"type":"note_off","id":1341,"ch":0,"note":83}
{"t":197662,"type":"note_on","id":1342,"ch":0,"note":96,"vel":0.8}
{"t":197662,"type":"note_on","id":1343,"ch":0,"note":35,"vel":0.8}
{"t":197670,"type":"note_off","id":1287,"ch":0,"note":66}
{"t":197670,"type":"note_off","id":1321,"ch":0,"note":77}
{"t":197671,"type":"note_off","id":1334,"ch":0,"note":61}
{"t":197671,"type":"note_off","id":1335,"ch":0,"note":76}
{"t":197671,"type":"note_off","id":1336,"ch":0,"note":89}
{"t":197672,"type":"note_off","id":1337,"ch":0,"note":97}
{"t":197672,"type":"note_off","id":1338,"ch":0,"note":41}
{"t":197726,"type":"note_on","id":1344,"ch":0,"note":43,"vel":0.8}
{"t":197726,"type":"note_on","id":1345,"ch":0,"note":60,"vel":0.8}
{"t":197734,"type":"note_off","id":1342,"ch":0,"note":96}
{"t":197750,"type":"note_off","id":1344,"ch":0,"note":43}
{"t":197750,"type":"note_off","id":1345,"ch":0,"note":60}
{"t":197782,"type":"note_on","id":1346,"ch":0,"note":61,"vel":0.8}
{"t":197782,"type":"note_on","id":1347,"ch":0,"note":48,"vel":0.8}
{"t":197783,"type":"note_on","id":1348,"ch":0,"note":39,"vel":0.8}
{"t":197799,"type":"note_off","id":1343,"ch":0,"note":35}
{"t":197814,"type":"note_off","id":1347,"ch":0,"note":48}
{"t":197910,"type":"note_on","id":1349,"ch":0,"note":86,"vel":0.8}
{"t":197910,"type":"note_on","id":1350,"ch":0,"note":79,"vel":0.8}
{"t":197910,"type":"note_on","id":1351,"ch":0,"note":69,"vel":0.8}
{"t":197911,"type":"note_on","id":1352,"ch":0,"note":55,"vel":0.8}
{"t":197918,"type":"note_off","id":1346,"ch":0,"note":61}
{"t":197918,"type":"note_off","id":1348,"ch":0,"note":39}
{"t":197942,"type":"note_off","id":1351,"ch":0,"note":69}
{"t":197982,"type":"note_off","id":1323,"ch":0,"note":80}
{"t":197982,"type":"note_off","id":1349,"ch":0,"note":86}
{"t":197982,"type":"note_off","id":1350,"ch":0,"note":79}
{"t":197983,"type":"note_off","id":1352,"ch":0,"note":55}
{"t":198102,"type":"note_on","id":1353,"ch":0,"note":77,"vel":0.8}
{"t":198102,"type":"note_on","id":1354,"ch":0,"note":53,"vel":0.8}
{"t":198103,"type":"note_on","id":1355,"ch":0,"note":45,"vel":0.8}
{"t":198134,"type":"note_off","id":1354,"ch":0,"note":53}
{"t":198230,"type":"note_on","id":1356,"ch":0,"note":69,"vel":0.8}
{"t":198230,"type":"note_on","id":1357,"ch":0,"note":71,"vel":0.8}
{"t":198230,"type":"note_on","id":1358,"ch":0,"note":74,"vel":0.8}
{"t":198231,"type":"note_on","id":1359,"ch":0,"note":94,"vel":0.8}
{"t":198231,"type":"note_on","id":1360,"ch":0,"note":50,"vel":0.8}
{"t":198232,"type":"note_on","id":1361,"ch":0,"note":62,"vel":0.8}
{"t":198232,"type":"note_on","id":1362,"ch":0,"note":39,"vel":0.8}
{"t":198238,"type":"note_off","id":1353,"ch":0,"note":77}
{"t":198238,"type":"note_off","id":1355,"ch":0,"note":45}
{"t":198254,"type":"note_off","id":1360,"ch":0,"note":50}
{"t":198350,"type":"note_on","id":1363,"ch":0,"note":66,"vel":0.8}
{"t":198351,"type":"note_on","id":1364,"ch":0,"note":67,"vel":0.8}
{"t":198351,"type":"note_on","id":1365,"ch":0,"note":82,"vel":0.8}
{"t":198351,"type":"note_on","id":1366,"ch":0,"note":100,"vel":0.8}
{"t":198351,"type":"note_on","id":1367,"ch":0,"note":89,"vel":0.8}
{"t":198352,"type":"note_on","id":1368,"ch":0,"note":58,"vel":0.8}
{"t":198352,"type":"note_on","id":1369,"ch":0,"note":35,"vel":0.8}
{"t":198359,"type":"note_off","id":1356,"ch":0,"note":69}
{"t":198360,"type":"note_off","id":1357,"ch":0,"note":71}
{"t":198360,"type":"note_off","id":1358,"ch":0,"note":74}
{"t":198360,"type":"note_off","id":1359,"ch":0,"note":94}
{"t":198360,"type":"note_off","id":1361,"ch":0,"note":62}
{"t":198361,"type":"note_off","id":1362,"ch":0,"note":39}
{"t":198383,"type":"note_off","id":1366,"ch":0,"note":100}
{"t":198415,"type":"note_on","id":1370,"ch":0,"note":102,"vel":0.8}
{"t":198415,"type":"note_on","id":1371,"ch":0,"note":50,"vel":0.8}
{"t":198447,"type":"note_off","id":1370,"ch":0,"note":102}
{"t":198479,"type":"note_on","id":1372,"ch":0,"note":43,"vel":0.8}
{"t":198480,"type":"note_on","id":1373,"ch":0,"note":86,"vel":0.8}
{"t":198480,"type":"note_on","id":1374,"ch":0,"note":59,"vel":0.8}
{"t":198480,"type":"note_on","id":1375,"ch":0,"note":106,"vel":0.8}
{"t":198486,"type":"note_off","id":1364,"ch":0,"note":67}
{"t":198486,"type":"note_off","id":1367,"ch":0,"note":89}
{"t":198486,"type":"note_off","id":1368,"ch":0,"note":58}
{"t":198487,"type":"note_off","id":1369,"ch":0,"note":35}
{"t":198503,"type":"note_off","id":1373,"ch":0,"note":86}
{"t":198535,"type":"note_on","id":1376,"ch":0,"note":45,"vel":0.8}
{"t":198598,"type":"note_on","id":1377,"ch":0,"note":95,"vel":0.8}
{"t":198598,"type":"note_on","id":1378,"ch":0,"note":100,"vel":0.8}
{"t":198607,"type":"note_off","id":1375,"ch":0,"note":106}
{"t":198670,"type":"note_off","id":1365,"ch":0,"note":82}
{"t":198726,"type":"note_on","id":1379,"ch":0,"note":57,"vel":0.8}
{"t":198727,"type":"note_on","id":1380,"ch":0,"note":85,"vel":0.8}
{"t":198727,"type":"note_on","id":1381,"ch":0,"note":92,"vel":0.8}
{"t":198727,"type":"note_on","id":1382,"ch":0,"note":53,"vel":0.8}
{"t":198727,"type":"note_on","id":1383,"ch":0,"note":42,"vel":0.8}
{"t":198734,"type":"note_off","id":1372,"ch":0,"note":43}
{"t":198734,"type":"note_off","id":1377,"ch":0,"note":95}
{"t":198735,"type":"note_off","id":1378,"ch":0,"note":100}
{"t":198759,"type":"note_off","id":1381,"ch":0,"note":92}
{"t":198759,"type":"note_off","id":1383,"ch":0,"note":42}
{"t":198791,"type":"note_on","id":1384,"ch":0,"note":92,"vel":0.8}
{"t":198792,"type":"note_on","id":1385,"ch":0,"note":101,"vel":0.8}
{"t":198815,"type":"note_off","id":1384,"ch":0,"note":92}
{"t":198815,"type":"note_off","id":1385,"ch":0,"note":101}
{"t":198854,"type":"note_on","id":1386,"ch":0,"note":59,"vel":0.8}
{"t":198855,"type":"note_on","id":1387,"ch":0,"note":38,"vel":0.8}
{"t":198855,"type":"note_on","id":1388,"ch":0,"note":97,"vel":0.8}
{"t":198855,"type":"note_on","id":1389,"ch":0,"note":46,"vel":0.8}
{"t":198855,"type":"note_on","id":1390,"ch":0,"note":73,"vel":0.8}
{"t":198856,"type":"note_on","id":1391,"ch":0,"note":82,"vel":0.8}
{"t":198856,"type":"note_on","id":1392,"ch":0,"note":87,"vel":0.8}
{"t":198862,"type":"note_off","id":1376,"ch":0,"note":45}
{"t":198862,"type":"note_off","id":1379,"ch":0,"note":57}
{"t":198862,"type":"note_off","id":1380,"ch":0,"note":85}
{"t":198863,"type":"note_off","id":1382,"ch":0,"note":53}
{"t":198879,"type":"note_off","id":1389,"ch":0,"note":46}
{"t":198880,"type":"note_off","id":1390,"ch":0,"note":73}
{"t":198910,"type":"note_on","id":1393,"ch":0,"note":79,"vel":0.8}
{"t":198941,"type":"note_off","id":1393,"ch":0,"note":79}
{"t":198974,"type":"note_on","id":1394,"ch":0,"note":58,"vel":0.8}
{"t":198975,"type":"note_on","id":1395,"ch":0,"note":92,"vel":0.8}
{"t":198975,"type":"note_on","id":1396,"ch":0,"note":35,"vel":0.8}
{"t":198975,"type":"note_on","id":1397,"ch":0,"note":77,"vel":0.8}
{"t":198975,"type":"note_on","id":1398,"ch":0,"note":93,"vel":0.8}
{"t":198982,"type":"note_off","id":1386,"ch":0,"note":59}
{"t":198982,"type":"note_off","id":1388,"ch":0,"note":97}
{"t":198983,"type":"note_off","id":1392,"ch":0,"note":87}
{"t":199006,"type":"note_off","id":1395,"ch":0,"note":92}
{"t":199038,"type":"note_on","id":1399,"ch":0,"note":80,"vel":0.8}
{"t":199102,"type":"note_on","id":1400,"ch":0,"note":79,"vel":0.8}
{"t":199110,"type":"note_off","id":1371,"ch":0,"note":50}
{"t":199111,"type":"note_off","id":1401,"ch":0,"note":59}
{"t":199111,"type":"note_off","id":1394,"ch":0,"note":58}
{"t":199111,"type":"note_off","id":1396,"ch":0,"note":35}
{"t":199112,"type":"note_off","id":1398,"ch":0,"note":93}
{"t":199127,"type":"note_off","id":1400,"ch":0,"note":79}
{"t":199166,"type":"note_on","id":1402,"ch":0,"note":74,"vel":0.8}
{"t":199175,"type":"note_off","id":1387,"ch":0,"note":38}
{"t":199230,"type":"note_on","id":1403,"ch":0,"note":54,"vel":0.8}
{"t":199231,"type":"note_on","id":1404,"ch":0,"note":86,"vel":0.8}
{"t":199231,"type":"note_on","id":1405,"ch":0,"note":101,"vel":0.8}
{"t":199231,"type":"note_on","id":1406,"ch":0,"note":106,"vel":0.8}
{"t":199232,"type":"note_on","id":1407,"ch":0,"note":48,"vel":0.8}
{"t":199232,"type":"note_on","id":1408,"ch":0,"note":65,"vel":0.8}
{"t":199238,"type":"note_off","id":1402,"ch":0,"note":74}
{"t":199254,"type":"note_off","id":1405,"ch":0,"note":101}
{"t":199287,"type":"note_on","id":1409,"ch":0,"note":94,"vel":0.8}
{"t":199318,"type":"note_off","id":1409,"ch":0,"note":94}
{"t":199350,"type":"note_on","id":1410,"ch":0,"note":61,"vel":0.8}
{"t":199351,"type":"note_on","id":1411,"ch":0,"note":76,"vel":0.8}
{"t":199351,"type":"note_on","id":1412,"ch":0,"note":89,"vel":0.8}
{"t":199351,"type":"note_on","id":1413,"ch":0,"note":97,"vel":0.8}
{"t":199352,"type":"note_on","id":1414,"ch":0,"note":41,"vel":0.8}
{"t":199352,"type":"note_on","id":1415,"ch":0,"note":92,"vel":0.8}
{"t":199359,"type":"note_off","id":1403,"ch":0,"note":54}
{"t":199359,"type":"note_off","id":1406,"ch":0,"note":106}
{"t":199360,"type":"note_off","id":1407,"ch":0,"note":48}
{"t":199360,"type":"note_off","id":1408,"ch":0,"note":65}
{"t":199382,"type":"note_off","id":1415,"ch":0,"note":92}
{"t":199414,"type":"note_on","id":1416,"ch":0,"note":53,"vel":0.8}
{"t":199414,"type":"note_on","id":1417,"ch":0,"note":83,"vel":0.8}
{"t":199421,"type":"note_off","id":1391,"ch":0,"note":82}
{"t":199422,"type":"note_off","id":1404,"ch":0,"note":86}
{"t":199447,"type":"note_off","id":1416,"ch":0,"note":53}
{"t":199447,"type":"note_off","id":1417,"ch":0,"note":83}
{"t":199478,"type":"note_on","id":1418,"ch":0,"note":96,"vel":0.8}
{"t":199478,"type":"note_on","id":1419,"ch":0,"note":35,"vel":0.8}
{"t":199486,"type":"note_off","id":1363,"ch":0,"note":66}
{"t":199486,"type":"note_off","id":1397,"ch":0,"note":77}
{"t":199487,"type":"note_off","id":1410,"ch":0,"note":61}
{"t":199487,"type":"note_off","id":1411,"ch":0,"note":76}
{"t":199487,"type":"note_off","id":1412,"ch":0,"note":89}
{"t":199488,"type":"note_off","id":1413,"ch":0,"note":97}
{"t":199488,"type":"note_off","id":1414,"ch":0,"note":41}
{"t":199542,"type":"note_on","id":1420,"ch":0,"note":43,"vel":0.8}
{"t":199542,"type":"note_on","id":1421,"ch":0,"note":60,"vel":0.8}
{"t":199550,"type":"note_off","id":1418,"ch":0,"note":96}
{"t":199566,"type":"note_off","id":1420,"ch":0,"note":43}
{"t":199566,"type":"note_off","id":1421,"ch":0,"note":60}
{"t":199598,"type":"note_on","id":1422,"ch":0,"note":61,"vel":0.8}
{"t":199599,"type":"note_on","id":1423,"ch":0,"note":48,"vel":0.8}
{"t":199599,"type":"note_on","id":1424,"ch":0,"note":39,"vel":0.8}
{"t":199615,"type":"note_off","id":1419,"ch":0,"note":35}
{"t":199630,"type":"note_off","id":1423,"ch":0,"note":48}
{"t":199728,"type":"note_on","id":1425,"ch":0,"note":86,"vel":0.8}
{"t":199729,"type":"note_on","id":1426,"ch":0,"note":79,"vel":0.8}
{"t":199729,"type":"note_on","id":1427,"ch":0,"note":69,"vel":0.8}
{"t":199730,"type":"note_on","id":1428,"ch":0,"note":55,"vel":0.8}
{"t":199734,"type":"note_off","id":1422,"ch":0,"note":61}
{"t":199734,"type":"note_off","id":1424,"ch":0,"note":39}
{"t":199758,"type":"note_off","id":1427,"ch":0,"note":69}
{"t":199798,"type":"note_off","id":1399,"ch":0,"note":80}
{"t":199798,"type":"note_off","id":1425,"ch":0,"note":86}
{"t":199799,"type":"note_off","id":1426,"ch":0,"note":79}
{"t":199799,"type":"note_off","id":1428,"ch":0,"note":55}
{"t":199918,"type":"note_on","id":1429,"ch":0,"note":77,"vel":0.8}
{"t":199918,"type":"note_on","id":1430,"ch":0,"note":53,"vel":0.8}
{"t":199919,"type":"note_on","id":1431,"ch":0,"note":45,"vel":0.8}
{"t":199950,"type":"note_off","id":1430,"ch":0,"note":53}
{"t":200048,"type":"note_on","id":1432,"ch":0,"note":69,"vel":0.8}
{"t":200048,"type":"note_on","id":1433,"ch":0,"note":71,"vel":0.8}
{"t":200048,"type":"note_on","id":1434,"ch":0,"note":74,"vel":0.8}
{"t":200048,"type":"note_on","id":1435,"ch":0,"note":94,"vel":0.8}
{"t":200048,"type":"note_on","id":1436,"ch":0,"note":50,"vel":0.8}
{"t":200049,"type":"note_on","id":1437,"ch":0,"note":62,"vel":0.8}
{"t":200049,"type":"note_on","id":1438,"ch":0,"note":39,"vel":0.8}
{"t":200053,"type":"note_off","id":1429,"ch":0,"note":77}
{"t":200054,"type":"note_off","id":1431,"ch":0,"note":45}
{"t":200070,"type":"note_off","id":1436,"ch":0,"note":50}
{"t":200167,"type":"note_on","id":1439,"ch":0,"note":66,"vel":0.8}
{"t":200168,"type":"note_on","id":1440,"ch":0,"note":67,"vel":0.8}
{"t":200168,"type":"note_on","id":1441,"ch":0,"note":82,"vel":0.8}
{"t":200168,"type":"note_on","id":1442,"ch":0,"note":100,"vel":0.8}
{"t":200168,"type":"note_on","id":1443,"ch":0,"note":89,"vel":0.8}
{"t":200169,"type":"note_on","id":1444,"ch":0,"note":58,"vel":0.8}
{"t":200169,"type":"note_on","id":1445,"ch":0,"note":35,"vel":0.8}
{"t":200175,"type":"note_off","id":1432,"ch":0,"note":69}
{"t":200175,"type":"note_off","id":1433,"ch":0,"note":71}
{"t":200175,"type":"note_off","id":1434,"ch":0,"note":74}
{"t":200176,"type":"note_off","id":1435,"ch":0,"note":94}
{"t":200176,"type":"note_off","id":1437,"ch":0,"note":62}
{"t":200177,"type":"note_off","id":1438,"ch":0,"note":39}
{"t":200199,"type":"note_off","id":1442,"ch":0,"note":100}
{"t":200231,"type":"note_on","id":1446,"ch":0,"note":102,"vel":0.8}
{"t":200231,"type":"note_on","id":1447,"ch":0,"note":50,"vel":0.8}
{"t":200262,"type":"note_off","id":1446,"ch":0,"note":102}
{"t":200295,"type":"note_on","id":1448,"ch":0,"note":43,"vel":0.8}
{"t":200295,"type":"note_on","id":1449,"ch":0,"note":86,"vel":0.8}
{"t":200296,"type":"note_on","id":1450,"ch":0,"note":59,"vel":0.8}
{"t":200296,"type":"note_on","id":1451,"ch":0,"note":106,"vel":0.8}
{"t":200302,"type":"note_off","id":1440,"ch":0,"note":67}
{"t":200303,"type":"note_off","id":1443,"ch":0,"note":89}
{"t":200303,"type":"note_off","id":1444,"ch":0,"note":58}
{"t":200303,"type":"note_off","id":1445,"ch":0,"note":35}
{"t":200318,"type":"note_off","id":1449,"ch":0,"note":86}
{"t":200358,"type":"note_on","id":1452,"ch":0,"note":45,"vel":0.8}
{"t":200414,"type":"note_on","id":1453,"ch":0,"note":95,"vel":0.8}
{"t":200415,"type":"note_on","id":1454,"ch":0,"note":100,"vel":0.8}
{"t":200431,"type":"note_off","id":1451,"ch":0,"note":106}
{"t":200487,"type":"note_off","id":1441,"ch":0,"note":82}
{"t":200542,"type":"note_on","id":1455,"ch":0,"note":57,"vel":0.8}
{"t":200542,"type":"note_on","id":1456,"ch":0,"note":85,"vel":0.8}
{"t":200542,"type":"note_on","id":1457,"ch":0,"note":92,"vel":0.8}
{"t":200543,"type":"note_on","id":1458,"ch":0,"note":53,"vel":0.8}
{"t":200543,"type":"note_on","id":1459,"ch":0,"note":42,"vel":0.8}
{"t":200550,"type":"note_off","id":1448,"ch":0,"note":43}
{"t":200550,"type":"note_off","id":1453,"ch":0,"note":95}
{"t":200550,"type":"note_off","id":1454,"ch":0,"note":100}
{"t":200574,"type":"note_off","id":1457,"ch":0,"note":92}
{"t":200574,"type":"note_off","id":1459,"ch":0,"note":42}
{"t":200607,"type":"note_on","id":1460,"ch":0,"note":92,"vel":0.8}
{"t":200607,"type":"note_on","id":1461,"ch":0,"note":101,"vel":0.8}
{"t":200631,"type":"note_off","id":1460,"ch":0,"note":92}
{"t":200631,"type":"note_off","id":1461,"ch":0,"note":101}
{"t":200671,"type":"note_on","id":1462,"ch":0,"note":59,"vel":0.8}
{"t":200671,"type":"note_on","id":1463,"ch":0,"note":38,"vel":0.8}
{"t":200671,"type":"note_on","id":1464,"ch":0,"note":97,"vel":0.8}
{"t":200672,"type":"note_on","id":1465,"ch":0,"note":46,"vel":0.8}
{"t":200672,"type":"note_on","id":1466,"ch":0,"note":73,"vel":0.8}
{"t":200673,"type":"note_on","id":1467,"ch":0,"note":82,"vel":0.8}
{"t":200673,"type":"note_on","id":1468,"ch":0,"note":87,"vel":0.8}
{"t":200679,"type":"note_off","id":1452,"ch":0,"note":45}
{"t":200679,"type":"note_off","id":1455,"ch":0,"note":57}
{"t":200679,"type":"note_off","id":1456,"ch":0,"note":85}
{"t":200680,"type":"note_off","id":1458,"ch":0,"note":53}
{"t":200694,"type":"note_off","id":1465,"ch":0,"note":46}
{"t":200694,"type":"note_off","id":1466,"ch":0,"note":73}
{"t":200726,"type":"note_on","id":1469,"ch":0,"note":79,"vel":0.8}
{"t":200758,"type":"note_off","id":1469,"ch":0,"note":79}
{"t":200789,"type":"note_on","id":1470,"ch":0,"note":58,"vel":0.8}
{"t":200790,"type":"note_on","id":1471,"ch":0,"note":92,"vel":0.8}
{"t":200790,"type":"note_on","id":1472,"ch":0,"note":35,"vel":0.8}
{"t":200790,"type":"note_on","id":1473,"ch":0,"note":77,"vel":0.8}
{"t":200791,"type":"note_on","id":1474,"ch":0,"note":93,"vel":0.8}
{"t":200798,"type":"note_off","id":1462,"ch":0,"note":59}
{"t":200798,"type":"note_off","id":1464,"ch":0,"note":97}
{"t":200798,"type":"note_off","id":1468,"ch":0,"note":87}
{"t":200821,"type":"note_off","id":1471,"ch":0,"note":92}
{"t":200855,"type":"note_on","id":1475,"ch":0,"note":80,"vel":0.8}
{"t":200919,"type":"note_on","id":1476,"ch":0,"note":79,"vel":0.8}
{"t":200926,"type":"note_off","id":1447,"ch":0,"note":50}
{"t":200926,"type":"note_off","id":1477,"ch":0,"note":59}
{"t":200927,"type":"note_off","id":1470,"ch":0,"note":58}
{"t":200927,"type":"note_off","id":1472,"ch":0,"note":35}
{"t":200927,"type":"note_off","id":1474,"ch":0,"note":93}
{"t":200950,"type":"note_off","id":1476,"ch":0,"note":79}
{"t":200982,"type":"note_on","id":1478,"ch":0,"note":74,"vel":0.8}
{"t":200991,"type":"note_off","id":1463,"ch":0,"note":38}
{"t":201046,"type":"note_on","id":1479,"ch":0,"note":54,"vel":0.8}
{"t":201046,"type":"note_on","id":1480,"ch":0,"note":86,"vel":0.8}
{"t":201047,"type":"note_on","id":1481,"ch":0,"note":101,"vel":0.8}
{"t":201047,"type":"note_on","id":1482,"ch":0,"note":106,"vel":0.8}
{"t":201047,"type":"note_on","id":1483,"ch":0,"note":48,"vel":0.8}
{"t":201048,"type":"note_on","id":1484,"ch":0,"note":65,"vel":0.8}
{"t":201054,"type":"note_off","id":1478,"ch":0,"note":74}
{"t":201070,"type":"note_off","id":1481,"ch":0,"note":101}
{"t":201103,"type":"note_on","id":1485,"ch":0,"note":94,"vel":0.8}
{"t":201135,"type":"note_off","id":1485,"ch":0,"note":94}
{"t":201167,"type":"note_on","id":1486,"ch":0,"note":61,"vel":0.8}
{"t":201167,"type":"note_on","id":1487,"ch":0,"note":76,"vel":0.8}
{"t":201167,"type":"note_on","id":1488,"ch":0,"note":89,"vel":0.8}
{"t":201168,"type":"note_on","id":1489,"ch":0,"note":97,"vel":0.8}
{"t":201168,"type":"note_on","id":1490,"ch":0,"note":41,"vel":0.8}
{"t":201169,"type":"note_on","id":1491,"ch":0,"note":92,"vel":0.8}
{"t":201175,"type":"note_off","id":1479,"ch":0,"note":54}
{"t":201175,"type":"note_off","id":1482,"ch":0,"note":106}
{"t":201175,"type":"note_off","id":1483,"ch":0,"note":48}
{"t":201175,"type":"note_off","id":1484,"ch":0,"note":65}
{"t":201198,"type":"note_off","id":1491,"ch":0,"note":92}
{"t":201230,"type":"note_on","id":1492,"ch":0,"note":53,"vel":0.8}
{"t":201230,"type":"note_on","id":1493,"ch":0,"note":83,"vel":0.8}
{"t":201238,"type":"note_off","id":1467,"ch":0,"note":82}
{"t":201238,"type":"note_off","id":1480,"ch":0,"note":86}
{"t":201262,"type":"note_off","id":1492,"ch":0,"note":53}
{"t":201262,"type":"note_off","id":1493,"ch":0,"note":83}
{"t":201294,"type":"note_on","id":1494,"ch":0,"note":96,"vel":0.8}
{"t":201294,"type":"note_on","id":1495,"ch":0,"note":35,"vel":0.8}
{"t":201302,"type":"note_off","id":1439,"ch":0,"note":66}
{"t":201302,"type":"note_off","id":1473,"ch":0,"note":77}
{"t":201303,"type":"note_off","id":1486,"ch":0,"note":61}
{"t":201303,"type":"note_off","id":1487,"ch":0,"note":76}
{"t":201303,"type":"note_off","id":1488,"ch":0,"note":89}
{"t":201303,"type":"note_off","id":1489,"ch":0,"note":97}
{"t":201304,"type":"note_off","id":1490,"ch":0,"note":41}
{"t":201359,"type":"note_on","id":1496,"ch":0,"note":43,"vel":0.8}
{"t":201359,"type":"note_on","id":1497,"ch":0,"note":60,"vel":0.8}
{"t":201366,"type":"note_off","id":1494,"ch":0,"note":96}
{"t":201382,"type":"note_off","id":1496,"ch":0,"note":43}
{"t":201382,"type":"note_off","id":1497,"ch":0,"note":60}
{"t":201415,"type":"note_on","id":1498,"ch":0,"note":61,"vel":0.8}
{"t":201415,"type":"note_on","id":1499,"ch":0,"note":48,"vel":0.8}
{"t":201415,"type":"note_on","id":1500,"ch":0,"note":39,"vel":0.8}
{"t":201430,"type":"note_off","id":1495,"ch":0,"note":35}
{"t":201447,"type":"note_off","id":1499,"ch":0,"note":48}
{"t":201542,"type":"note_on","id":1501,"ch":0,"note":86,"vel":0.8}
{"t":201542,"type":"note_on","id":1502,"ch":0,"note":79,"vel":0.8}
{"t":201542,"type":"note_on","id":1503,"ch":0,"note":69,"vel":0.8}
{"t":201543,"type":"note_on","id":1504,"ch":0,"note":55,"vel":0.8}
{"t":201550,"type":"note_off","id":1498,"ch":0,"note":61}
{"t":201550,"type":"note_off","id":1500,"ch":0,"note":39}
{"t":201575,"type":"note_off","id":1503,"ch":0,"note":69}
{"t":201615,"type":"note_off","id":1475,"ch":0,"note":80}
{"t":201615,"type":"note_off","id":1501,"ch":0,"note":86}
{"t":201615,"type":"note_off","id":1502,"ch":0,"note":79}
{"t":201616,"type":"note_off","id":1504,"ch":0,"note":55}
{"t":201735,"type":"note_on","id":1505,"ch":0,"note":77,"vel":0.8}
{"t":201735,"type":"note_on","id":1506,"ch":0,"note":53,"vel":0.8}
{"t":201735,"type":"note_on","id":1507,"ch":0,"note":45,"vel":0.8}
{"t":201766,"type":"note_off","id":1506,"ch":0,"note":53}
{"t":201862,"type":"note_on","id":1508,"ch":0,"note":69,"vel":0.8}
{"t":201862,"type":"note_on","id":1509,"ch":0,"note":71,"vel":0.8}
{"t":201862,"type":"note_on","id":1510,"ch":0,"note":74,"vel":0.8}
{"t":201863,"type":"note_on","id":1511,"ch":0,"note":94,"vel":0.8}
{"t":201863,"type":"note_on","id":1512,"ch":0,"note":50,"vel":0.8}
{"t":201864,"type":"note_on","id":1513,"ch":0,"note":62,"vel":0.8}
{"t":201864,"type":"note_on","id":1514,"ch":0,"note":39,"vel":0.8}
{"t":201871,"type":"note_off","id":1505,"ch":0,"note":77}
{"t":201872,"type":"note_off","id":1507,"ch":0,"note":45}
{"t":201886,"type":"note_off","id":1512,"ch":0,"note":50}
{"t":201982,"type":"note_on","id":1515,"ch":0,"note":66,"vel":0.8}
{"t":201982,"type":"note_on","id":1516,"ch":0,"note":67,"vel":0.8}
{"t":201983,"type":"note_on","id":1517,"ch":0,"note":82,"vel":0.8}
{"t":201983,"type":"note_on","id":1518,"ch":0,"note":100,"vel":0.8}
{"t":201983,"type":"note_on","id":1519,"ch":0,"note":89,"vel":0.8}
{"t":201984,"type":"note_on","id":1520,"ch":0,"note":58,"vel":0.8}
{"t":201984,"type":"note_on","id":1521,"ch":0,"note":35,"vel":0.8}
{"t":201990,"type":"note_off","id":1508,"ch":0,"note":69}
{"t":201990,"type":"note_off","id":1509,"ch":0,"note":71}
{"t":201990,"type":"note_off","id":1510,"ch":0,"note":74}
{"t":201990,"type":"note_off","id":1511,"ch":0,"note":94}
{"t":201991,"type":"note_off","id":1513,"ch":0,"note":62}
{"t":201991,"type":"note_off","id":1514,"ch":0,"note":39}
{"t":202014,"type":"note_off","id":1518,"ch":0,"note":100}
{"t":202046,"type":"note_on","id":1522,"ch":0,"note":102,"vel":0.8}
{"t":202046,"type":"note_on","id":1523,"ch":0,"note":50,"vel":0.8}
{"t":202079,"type":"note_off","id":1522,"ch":0,"note":102}
{"t":202110,"type":"note_on","id":1524,"ch":0,"note":43,"vel":0.8}
{"t":202110,"type":"note_on","id":1525,"ch":0,"note":86,"vel":0.8}
{"t":202111,"type":"note_on","id":1526,"ch":0,"note":59,"vel":0.8}
{"t":202111,"type":"note_on","id":1527,"ch":0,"note":106,"vel":0.8}
{"t":202118,"type":"note_off","id":1516,"ch":0,"note":67}
{"t":202118,"type":"note_off","id":1519,"ch":0,"note":89}
{"t":202119,"type":"note_off","id":1520,"ch":0,"note":58}
{"t":202119,"type":"note_off","id":1521,"ch":0,"note":35}
{"t":202142,"type":"note_off","id":1525,"ch":0,"note":86}
{"t":202174,"type":"note_on","id":1528,"ch":0,"note":45,"vel":0.8}
{"t":202230,"type":"note_on","id":1529,"ch":0,"note":95,"vel":0.8}
{"t":202231,"type":"note_on","id":1530,"ch":0,"note":100,"vel":0.8}
{"t":202246,"type":"note_off","id":1527,"ch":0,"note":106}
{"t":202312,"type":"note_off","id":1517,"ch":0,"note":82}
{"t":202359,"type":"note_on","id":1531,"ch":0,"note":57,"vel":0.8}
{"t":202359,"type":"note_on","id":1532,"ch":0,"note":85,"vel":0.8}
{"t":202359,"type":"note_on","id":1533,"ch":0,"note":92,"vel":0.8}
{"t":202360,"type":"note_on","id":1534,"ch":0,"note":53,"vel":0.8}
{"t":202360,"type":"note_on","id":1535,"ch":0,"note":42,"vel":0.8}
{"t":202366,"type":"note_off","id":1524,"ch":0,"note":43}
{"t":202366,"type":"note_off","id":1529,"ch":0,"note":95}
{"t":202367,"type":"note_off","id":1530,"ch":0,"note":100}
{"t":202390,"type":"note_off","id":1533,"ch":0,"note":92}
{"t":202391,"type":"note_off","id":1535,"ch":0,"note":42}
{"t":202422,"type":"note_on","id":1536,"ch":0,"note":92,"vel":0.8}
{"t":202422,"type":"note_on","id":1537,"ch":0,"note":101,"vel":0.8}
{"t":202454,"type":"note_off","id":1536,"ch":0,"note":92}
{"t":202454,"type":"note_off","id":1537,"ch":0,"note":101}
{"t":202486,"type":"note_on","id":1538,"ch":0,"note":59,"vel":0.8}
{"t":202486,"type":"note_on","id":1539,"ch":0,"note":38,"vel":0.8}
{"t":202486,"type":"note_on","id":1540,"ch":0,"note":97,"vel":0.8}
{"t":202486,"type":"note_on","id":1541,"ch":0,"note":46,"vel":0.8}
{"t":202487,"type":"note_on","id":1542,"ch":0,"note":73,"vel":0.8}
{"t":202487,"type":"note_on","id":1543,"ch":0,"note":82,"vel":0.8}
{"t":202487,"type":"note_on","id":1544,"ch":0,"note":87,"vel":0.8}
{"t":202494,"type":"note_off","id":1528,"ch":0,"note":45}
{"t":202494,"type":"note_off","id":1531,"ch":0,"note":57}
{"t":202494,"type":"note_off","id":1532,"ch":0,"note":85}
{"t":202494,"type":"note_off","id":1534,"ch":0,"note":53}
{"t":202510,"type":"note_off","id":1541,"ch":0,"note":46}
{"t":202510,"type":"note_off","id":1542,"ch":0,"note":73}
{"t":202551,"type":"note_on","id":1545,"ch":0,"note":79,"vel":0.8}
{"t":202574,"type":"note_off","id":1545,"ch":0,"note":79}
{"t":202606,"type":"note_on","id":1546,"ch":0,"note":58,"vel":0.8}
{"t":202606,"type":"note_on","id":1547,"ch":0,"note":92,"vel":0.8}
{"t":202606,"type":"note_on","id":1548,"ch":0,"note":35,"vel":0.8}
{"t":202606,"type":"note_on","id":1549,"ch":0,"note":77,"vel":0.8}
{"t":202607,"type":"note_on","id":1550,"ch":0,"note":93,"vel":0.8}
{"t":202622,"type":"note_off","id":1538,"ch":0,"note":59}
{"t":202622,"type":"note_off","id":1540,"ch":0,"note":97}
{"t":202622,"type":"note_off","id":1544,"ch":0,"note":87}
{"t":202638,"type":"note_off","id":1547,"ch":0,"note":92}
{"t":202671,"type":"note_on","id":1551,"ch":0,"note":80,"vel":0.8}
{"t":202734,"type":"note_on","id":1552,"ch":0,"note":79,"vel":0.8}
{"t":202742,"type":"note_off","id":1523,"ch":0,"note":50}
{"t":202742,"type":"note_off","id":1553,"ch":0,"note":59}
{"t":202742,"type":"note_off","id":1546,"ch":0,"note":58}
{"t":202742,"type":"note_off","id":1548,"ch":0,"note":35}
{"t":202743,"type":"note_off","id":1550,"ch":0,"note":93}
{"t":202766,"type":"note_off","id":1552,"ch":0,"note":79}
{"t":202799,"type":"note_on","id":1554,"ch":0,"note":74,"vel":0.8}
{"t":202807,"type":"note_off","id":1539,"ch":0,"note":38}
{"t":202862,"type":"note_on","id":1555,"ch":0,"note":54,"vel":0.8}
{"t":202862,"type":"note_on","id":1556,"ch":0,"note":86,"vel":0.8}
{"t":202862,"type":"note_on","id":1557,"ch":0,"note":101,"vel":0.8}
{"t":202863,"type":"note_on","id":1558,"ch":0,"note":106,"vel":0.8}
{"t":202863,"type":"note_on","id":1559,"ch":0,"note":48,"vel":0.8}
{"t":202863,"type":"note_on","id":1560,"ch":0,"note":65,"vel":0.8}
{"t":202871,"type":"note_off","id":1554,"ch":0,"note":74}
{"t":202886,"type":"note_off","id":1557,"ch":0,"note":101}
{"t":202918,"type":"note_on","id":1561,"ch":0,"note":94,"vel":0.8}
{"t":202950,"type":"note_off","id":1561,"ch":0,"note":94}
{"t":202982,"type":"note_on","id":1562,"ch":0,"note":61,"vel":0.8}
{"t":202982,"type":"note_on","id":1563,"ch":0,"note":76,"vel":0.8}
{"t":202983,"type":"note_on","id":1564,"ch":0,"note":89,"vel":0.8}
{"t":202983,"type":"note_on","id":1565,"ch":0,"note":97,"vel":0.8}
{"t":202983,"type":"note_on","id":1566,"ch":0,"note":41,"vel":0.8}
{"t":202984,"type":"note_on","id":1567,"ch":0,"note":92,"vel":0.8}
{"t":202991,"type":"note_off","id":1555,"ch":0,"note":54}
{"t":202991,"type":"note_off","id":1558,"ch":0,"note":106}
{"t":202992,"type":"note_off","id":1559,"ch":0,"note":48}
{"t":202992,"type":"note_off","id":1560,"ch":0,"note":65}
{"t":203014,"type":"note_off","id":1567,"ch":0,"note":92}
{"t":203046,"type":"note_on","id":1568,"ch":0,"note":53,"vel":0.8}
{"t":203046,"type":"note_on","id":1569,"ch":0,"note":83,"vel":0.8}
{"t":203053,"type":"note_off","id":1543,"ch":0,"note":82}
{"t":203054,"type":"note_off","id":1556,"ch":0,"note":86}
{"t":203079,"type":"note_off","id":1568,"ch":0,"note":53}
{"t":203079,"type":"note_off","id":1569,"ch":0,"note":83}
{"t":203110,"type":"note_on","id":1570,"ch":0,"note":96,"vel":0.8}
{"t":203110,"type":"note_on","id":1571,"ch":0,"note":35,"vel":0.8}
{"t":203119,"type":"note_off","id":1515,"ch":0,"note":66}
{"t":203119,"type":"note_off","id":1549,"ch":0,"note":77}
{"t":203119,"type":"note_off","id":1562,"ch":0,"note":61}
{"t":203120,"type":"note_off","id":1563,"ch":0,"note":76}
{"t":203120,"type":"note_off","id":1564,"ch":0,"note":89}
{"t":203121,"type":"note_off","id":1565,"ch":0,"note":97}
{"t":203121,"type":"note_off","id":1566,"ch":0,"note":41}
{"t":203174,"type":"note_on","id":1572,"ch":0,"note":43,"vel":0.8}
{"t":203174,"type":"note_on","id":1573,"ch":0,"note":60,"vel":0.8}
{"t":203181,"type":"note_off","id":1570,"ch":0,"note":96}
{"t":203198,"type":"note_off","id":1572,"ch":0,"note":43}
{"t":203198,"type":"note_off","id":1573,"ch":0,"note":60}
{"t":203231,"type":"note_on","id":1574,"ch":0,"note":61,"vel":0.8}
{"t":203231,"type":"note_on","id":1575,"ch":0,"note":48,"vel":0.8}
{"t":203232,"type":"note_on","id":1576,"ch":0,"note":39,"vel":0.8}
{"t":203246,"type":"note_off","id":1571,"ch":0,"note":35}
{"t":203262,"type":"note_off","id":1575,"ch":0,"note":48}
{"t":203358,"type":"note_on","id":1577,"ch":0,"note":86,"vel":0.8}
{"t":203358,"type":"note_on","id":1578,"ch":0,"note":79,"vel":0.8}
{"t":203359,"type":"note_on","id":1579,"ch":0,"note":69,"vel":0.8}
{"t":203359,"type":"note_on","id":1580,"ch":0,"note":55,"vel":0.8}
{"t":203366,"type":"note_off","id":1574,"ch":0,"note":61}
{"t":203366,"type":"note_off","id":1576,"ch":0,"note":39}
{"t":203391,"type":"note_off","id":1579,"ch":0,"note":69}
{"t":203430,"type":"note_off","id":1551,"ch":0,"note":80}
{"t":203431,"type":"note_off","id":1577,"ch":0,"note":86}
{"t":203431,"type":"note_off","id":1578,"ch":0,"note":79}
{"t":203431,"type":"note_off","id":1580,"ch":0,"note":55}
{"t":203550,"type":"note_on","id":1581,"ch":0,"note":77,"vel":0.8}
{"t":203551,"type":"note_on","id":1582,"ch":0,"note":53,"vel":0.8}
{"t":203551,"type":"note_on","id":1583,"ch":0,"note":45,"vel":0.8}
{"t":203583,"type":"note_off","id":1582,"ch":0,"note":53}
{"t":203671,"type":"note_on","id":1584,"ch":0,"note":69,"vel":0.8}
{"t":203671,"type":"note_on","id":1585,"ch":0,"note":71,"vel":0.8}
{"t":203671,"type":"note_on","id":1586,"ch":0,"note":74,"vel":0.8}
{"t":203671,"type":"note_on","id":1587,"ch":0,"note":94,"vel":0.8}
{"t":203671,"type":"note_on","id":1588,"ch":0,"note":50,"vel":0.8}
{"t":203673,"type":"note_on","id":1589,"ch":0,"note":62,"vel":0.8}
{"t":203673,"type":"note_on","id":1590,"ch":0,"note":39,"vel":0.8}
{"t":203686,"type":"note_off","id":1581,"ch":0,"note":77}
{"t":203686,"type":"note_off","id":1583,"ch":0,"note":45}
{"t":203702,"type":"note_off","id":1588,"ch":0,"note":50}
{"t":203798,"type":"note_on","id":1591,"ch":0,"note":66,"vel":0.8}
{"t":203799,"type":"note_on","id":1592,"ch":0,"note":67,"vel":0.8}
{"t":203799,"type":"note_on","id":1593,"ch":0,"note":82,"vel":0.8}
{"t":203799,"type":"note_on","id":1594,"ch":0,"note":100,"vel":0.8}
{"t":203799,"type":"note_on","id":1595,"ch":0,"note":89,"vel":0.8}
{"t":203800,"type":"note_on","id":1596,"ch":0,"note":58,"vel":0.8}
{"t":203800,"type":"note_on","id":1597,"ch":0,"note":35,"vel":0.8}
{"t":203806,"type":"note_off","id":1584,"ch":0,"note":69}
{"t":203806,"type":"note_off","id":1585,"ch":0,"note":71}
{"t":203806,"type":"note_off","id":1586,"ch":0,"note":74}
{"t":203807,"type":"note_off","id":1587,"ch":0,"note":94}
{"t":203807,"type":"note_off","id":1589,"ch":0,"note":62}
{"t":203807,"type":"note_off","id":1590,"ch":0,"note":39}
{"t":203830,"type":"note_off","id":1594,"ch":0,"note":100}
{"t":203862,"type":"note_on","id":1598,"ch":0,"note":102,"vel":0.8}
{"t":203863,"type":"note_on","id":1599,"ch":0,"note":50,"vel":0.8}
{"t":203894,"type":"note_off","id":1598,"ch":0,"note":102}
{"t":203926,"type":"note_on","id":1600,"ch":0,"note":43,"vel":0.8}
{"t":203926,"type":"note_on","id":1601,"ch":0,"note":86,"vel":0.8}
{"t":203927,"type":"note_on","id":1602,"ch":0,"note":59,"vel":0.8}
{"t":203927,"type":"note_on","id":1603,"ch":0,"note":106,"vel":0.8}
{"t":203934,"type":"note_off","id":1592,"ch":0,"note":67}
{"t":203934,"type":"note_off","id":1595,"ch":0,"note":89}
{"t":203935,"type":"note_off","id":1596,"ch":0,"note":58}
{"t":203935,"type":"note_off","id":1597,"ch":0,"note":35}
{"t":203958,"type":"note_off","id":1601,"ch":0,"note":86}
{"t":203983,"type":"note_on","id":1604,"ch":0,"note":45,"vel":0.8}
{"t":204046,"type":"note_on","id":1605,"ch":0,"note":95,"vel":0.8}
{"t":204046,"type":"note_on","id":1606,"ch":0,"note":100,"vel":0.8}
{"t":204062,"type":"note_off","id":1603,"ch":0,"note":106}
{"t":204118,"type":"note_off","id":1593,"ch":0,"note":82}
{"t":204174,"type":"note_on","id":1607,"ch":0,"note":57,"vel":0.8}
{"t":204174,"type":"note_on","id":1608,"ch":0,"note":85,"vel":0.8}
{"t":204174,"type":"note_on","id":1609,"ch":0,"note":92,"vel":0.8}
{"t":204175,"type":"note_on","id":1610,"ch":0,"note":53,"vel":0.8}
{"t":204175,"type":"note_on","id":1611,"ch":0,"note":42,"vel":0.8}
{"t":204182,"type":"note_off","id":1600,"ch":0,"note":43}
{"t":204182,"type":"note_off","id":1605,"ch":0,"note":95}
{"t":204182,"type":"note_off","id":1606,"ch":0,"note":100}
{"t":204206,"type":"note_off","id":1609,"ch":0,"note":92}
{"t":204206,"type":"note_off","id":1611,"ch":0,"note":42}
{"t":204238,"type":"note_on","id":1612,"ch":0,"note":92,"vel":0.8}
{"t":204238,"type":"note_on","id":1613,"ch":0,"note":101,"vel":0.8}
{"t":204270,"type":"note_off","id":1612,"ch":0,"note":92}
{"t":204270,"type":"note_off","id":1613,"ch":0,"note":101}
{"t":204303,"type":"note_on","id":1614,"ch":0,"note":59,"vel":0.8}
{"t":204303,"type":"note_on","id":1615,"ch":0,"note":38,"vel":0.8}
{"t":204303,"type":"note_on","id":1616,"ch":0,"note":97,"vel":0.8}
{"t":204304,"type":"note_on","id":1617,"ch":0,"note":46,"vel":0.8}
{"t":204304,"type":"note_on","id":1618,"ch":0,"note":73,"vel":0.8}
{"t":204304,"type":"note_on","id":1619,"ch":0,"note":82,"vel":0.8}
{"t":204305,"type":"note_on","id":1620,"ch":0,"note":87,"vel":0.8}
{"t":204311,"type":"note_off","id":1604,"ch":0,"note":45}
{"t":204311,"type":"note_off","id":1607,"ch":0,"note":57}
{"t":204311,"type":"note_off","id":1608,"ch":0,"note":85}
{"t":204312,"type":"note_off","id":1610,"ch":0,"note":53}
{"t":204326,"type":"note_off","id":1617,"ch":0,"note":46}
{"t":204326,"type":"note_off","id":1618,"ch":0,"note":73}
{"t":204358,"type":"note_on","id":1621,"ch":0,"note":79,"vel":0.8}
{"t":204391,"type":"note_off","id":1621,"ch":0,"note":79}
{"t":204422,"type":"note_on","id":1622,"ch":0,"note":58,"vel":0.8}
{"t":204422,"type":"note_on","id":1623,"ch":0,"note":92,"vel":0.8}
{"t":204422,"type":"note_on","id":1624,"ch":0,"note":35,"vel":0.8}
{"t":204422,"type":"note_on","id":1625,"ch":0,"note":77,"vel":0.8}
{"t":204423,"type":"note_on","id":1626,"ch":0,"note":93,"vel":0.8}
{"t":204438,"type":"note_off","id":1614,"ch":0,"note":59}
{"t":204438,"type":"note_off","id":1616,"ch":0,"note":97}
{"t":204439,"type":"note_off","id":1620,"ch":0,"note":87}
{"t":204454,"type":"note_off","id":1623,"ch":0,"note":92}
{"t":204486,"type":"note_on","id":1627,"ch":0,"note":80,"vel":0.8}
{"t":204551,"type":"note_on","id":1628,"ch":0,"note":79,"vel":0.8}
{"t":204558,"type":"note_off","id":1599,"ch":0,"note":50}
{"t":204559,"type":"note_off","id":1629,"ch":0,"note":59}
{"t":204559,"type":"note_off","id":1622,"ch":0,"note":58}
{"t":204559,"type":"note_off","id":1624,"ch":0,"note":35}
{"t":204559,"type":"note_off","id":1626,"ch":0,"note":93}
{"t":204583,"type":"note_off","id":1628,"ch":0,"note":79}
{"t":204614,"type":"note_on","id":1630,"ch":0,"note":74,"vel":0.8}
{"t":204621,"type":"note_off","id":1615,"ch":0,"note":38}
{"t":204678,"type":"note_on","id":1631,"ch":0,"note":54,"vel":0.8}
{"t":204678,"type":"note_on","id":1632,"ch":0,"note":86,"vel":0.8}
{"t":204679,"type":"note_on","id":1633,"ch":0,"note":101,"vel":0.8}
{"t":204679,"type":"note_on","id":1634,"ch":0,"note":106,"vel":0.8}
{"t":204679,"type":"note_on","id":1635,"ch":0,"note":48,"vel":0.8}
{"t":204679,"type":"note_on","id":1636,"ch":0,"note":65,"vel":0.8}
{"t":204686,"type":"note_off","id":1630,"ch":0,"note":74}
{"t":204702,"type":"note_off","id":1633,"ch":0,"note":101}
{"t":204735,"type":"note_on","id":1637,"ch":0,"note":94,"vel":0.8}
{"t":204766,"type":"note_off","id":1637,"ch":0,"note":94}
{"t":204798,"type":"note_on","id":1638,"ch":0,"note":61,"vel":0.8}
{"t":204798,"type":"note_on","id":1639,"ch":0,"note":76,"vel":0.8}
{"t":204799,"type":"note_on","id":1640,"ch":0,"note":89,"vel":0.8}
{"t":204799,"type":"note_on","id":1641,"ch":0,"note":97,"vel":0.8}
{"t":204799,"type":"note_on","id":1642,"ch":0,"note":41,"vel":0.8}
{"t":204799,"type":"note_on","id":1643,"ch":0,"note":92,"vel":0.8}
{"t":204806,"type":"note_off","id":1631,"ch":0,"note":54}
{"t":204806,"type":"note_off","id":1634,"ch":0,"note":106}
{"t":204806,"type":"note_off","id":1635,"ch":0,"note":48}
{"t":204807,"type":"note_off","id":1636,"ch":0,"note":65}
{"t":204830,"type":"note_off","id":1643,"ch":0,"note":92}
{"t":204862,"type":"note_on","id":1644,"ch":0,"note":53,"vel":0.8}
{"t":204862,"type":"note_on","id":1645,"ch":0,"note":83,"vel":0.8}
{"t":204869,"type":"note_off","id":1619,"ch":0,"note":82}
{"t":204870,"type":"note_off","id":1632,"ch":0,"note":86}
{"t":204894,"type":"note_off","id":1644,"ch":0,"note":53}
{"t":204894,"type":"note_off","id":1645,"ch":0,"note":83}
{"t":204926,"type":"note_on","id":1646,"ch":0,"note":96,"vel":0.8}
{"t":204926,"type":"note_on","id":1647,"ch":0,"note":35,"vel":0.8}
{"t":204934,"type":"note_off","id":1591,"ch":0,"note":66}
{"t":204935,"type":"note_off","id":1625,"ch":0,"note":77}
{"t":204935,"type":"note_off","id":1638,"ch":0,"note":61}
{"t":204935,"type":"note_off","id":1639,"ch":0,"note":76}
{"t":204936,"type":"note_off","id":1640,"ch":0,"note":89}
{"t":204936,"type":"note_off","id":1641,"ch":0,"note":97}
{"t":204936,"type":"note_off","id":1642,"ch":0,"note":41}
{"t":204991,"type":"note_on","id":1648,"ch":0,"note":43,"vel":0.8}
{"t":204991,"type":"note_on","id":1649,"ch":0,"note":60,"vel":0.8}
{"t":204998,"type":"note_off","id":1646,"ch":0,"note":96}
{"t":205014,"type":"note_off","id":1648,"ch":0,"note":43}
{"t":205015,"type":"note_off","id":1649,"ch":0,"note":60}
{"t":205046,"type":"note_on","id":1650,"ch":0,"note":61,"vel":0.8}
{"t":205047,"type":"note_on","id":1651,"ch":0,"note":48,"vel":0.8}
{"t":205047,"type":"note_on","id":1652,"ch":0,"note":39,"vel":0.8}
{"t":205061,"type":"note_off","id":1647,"ch":0,"note":35}
{"t":205077,"type":"note_off","id":1651,"ch":0,"note":48}
{"t":205174,"type":"note_on","id":1653,"ch":0,"note":86,"vel":0.8}
{"t":205174,"type":"note_on","id":1654,"ch":0,"note":79,"vel":0.8}
{"t":205175,"type":"note_on","id":1655,"ch":0,"note":69,"vel":0.8}
{"t":205175,"type":"note_on","id":1656,"ch":0,"note":55,"vel":0.8}
{"t":205182,"type":"note_off","id":1650,"ch":0,"note":61}
{"t":205182,"type":"note_off","id":1652,"ch":0,"note":39}
{"t":205207,"type":"note_off","id":1655,"ch":0,"note":69}
{"t":205246,"type":"note_off","id":1627,"ch":0,"note":80}
{"t":205246,"type":"note_off","id":1653,"ch":0,"note":86}
{"t":205247,"type":"note_off","id":1654,"ch":0,"note":79}
{"t":205247,"type":"note_off","id":1656,"ch":0,"note":55}
{"t":205367,"type":"note_on","id":1657,"ch":0,"note":77,"vel":0.8}
{"t":205368,"type":"note_on","id":1658,"ch":0,"note":53,"vel":0.8}
{"t":205368,"type":"note_on","id":1659,"ch":0,"note":45,"vel":0.8}
{"t":205391,"type":"note_off","id":1658,"ch":0,"note":53}
{"t":205486,"type":"note_on","id":1660,"ch":0,"note":69,"vel":0.8}
{"t":205487,"type":"note_on","id":1661,"ch":0,"note":71,"vel":0.8}
{"t":205487,"type":"note_on","id":1662,"ch":0,"note":74,"vel":0.8}
{"t":205487,"type":"note_on","id":1663,"ch":0,"note":94,"vel":0.8}
{"t":205487,"type":"note_on","id":1664,"ch":0,"note":50,"vel":0.8}
{"t":205488,"type":"note_on","id":1665,"ch":0,"note":62,"vel":0.8}
{"t":205488,"type":"note_on","id":1666,"ch":0,"note":39,"vel":0.8}
{"t":205502,"type":"note_off","id":1657,"ch":0,"note":77}
{"t":205502,"type":"note_off","id":1659,"ch":0,"note":45}
{"t":205518,"type":"note_off","id":1664,"ch":0,"note":50}
{"t":205615,"type":"note_on","id":1667,"ch":0,"note":66,"vel":0.8}
{"t":205615,"type":"note_on","id":1668,"ch":0,"note":67,"vel":0.8}
{"t":205615,"type":"note_on","id":1669,"ch":0,"note":82,"vel":0.8}
{"t":205615,"type":"note_on","id":1670,"ch":0,"note":100,"vel":0.8}
{"t":205616,"type":"note_on","id":1671,"ch":0,"note":89,"vel":0.8}
{"t":205616,"type":"note_on","id":1672,"ch":0,"note":58,"vel":0.8}
{"t":205617,"type":"note_on","id":1673,"ch":0,"note":35,"vel":0.8}
{"t":205621,"type":"note_off","id":1660,"ch":0,"note":69}
{"t":205622,"type":"note_off","id":1661,"ch":0,"note":71}
{"t":205622,"type":"note_off","id":1662,"ch":0,"note":74}
{"t":205622,"type":"note_off","id":1663,"ch":0,"note":94}
{"t":205622,"type":"note_off","id":1665,"ch":0,"note":62}
{"t":205623,"type":"note_off","id":1666,"ch":0,"note":39}
{"t":205646,"type":"note_off","id":1670,"ch":0,"note":100}
{"t":205678,"type":"note_on","id":1674,"ch":0,"note":102,"vel":0.8}
{"t":205678,"type":"note_on","id":1675,"ch":0,"note":50,"vel":0.8}
{"t":205712,"type":"note_off","id":1674,"ch":0,"note":102}
{"t":205743,"type":"note_on","id":1676,"ch":0,"note":43,"vel":0.8}
{"t":205743,"type":"note_on","id":1677,"ch":0,"note":86,"vel":0.8}
{"t":205744,"type":"note_on","id":1678,"ch":0,"note":59,"vel":0.8}
{"t":205744,"type":"note_on","id":1679,"ch":0,"note":106,"vel":0.8}
{"t":205751,"type":"note_off","id":1668,"ch":0,"note":67}
{"t":205751,"type":"note_off","id":1671,"ch":0,"note":89}
{"t":205751,"type":"note_off","id":1672,"ch":0,"note":58}
{"t":205752,"type":"note_off","id":1673,"ch":0,"note":35}
{"t":205767,"type":"note_off","id":1677,"ch":0,"note":86}
{"t":205807,"type":"note_on","id":1680,"ch":0,"note":45,"vel":0.8}
{"t":205862,"type":"note_on","id":1681,"ch":0,"note":95,"vel":0.8}
{"t":205863,"type":"note_on","id":1682,"ch":0,"note":100,"vel":0.8}
{"t":205879,"type":"note_off","id":1679,"ch":0,"note":106}
{"t":205934,"type":"note_off","id":1669,"ch":0,"note":82}
{"t":205991,"type":"note_on","id":1683,"ch":0,"note":57,"vel":0.8}
{"t":205991,"type":"note_on","id":1684,"ch":0,"note":85,"vel":0.8}
{"t":205992,"type":"note_on","id":1685,"ch":0,"note":92,"vel":0.8}
{"t":205992,"type":"note_on","id":1686,"ch":0,"note":53,"vel":0.8}
{"t":205993,"type":"note_on","id":1687,"ch":0,"note":42,"vel":0.8}
{"t":205999,"type":"note_off","id":1676,"ch":0,"note":43}
{"t":205999,"type":"note_off","id":1681,"ch":0,"note":95}
{"t":205999,"type":"note_off","id":1682,"ch":0,"note":100}
{"t":206021,"type":"note_off","id":1685,"ch":0,"note":92}
{"t":206022,"type":"note_off","id":1687,"ch":0,"note":42}
{"t":206055,"type":"note_on","id":1688,"ch":0,"note":92,"vel":0.8}
{"t":206055,"type":"note_on","id":1689,"ch":0,"note":101,"vel":0.8}
{"t":206086,"type":"note_off","id":1688,"ch":0,"note":92}
{"t":206086,"type":"note_off","id":1689,"ch":0,"note":101}
{"t":206118,"type":"note_on","id":1690,"ch":0,"note":59,"vel":0.8}
{"t":206119,"type":"note_on","id":1691,"ch":0,"note":97,"vel":0.8}
{"t":206119,"type":"note_on","id":1692,"ch":0,"note":38,"vel":0.8}
{"t":206119,"type":"note_on","id":1693,"ch":0,"note":46,"vel":0.8}
{"t":206119,"type":"note_on","id":1694,"ch":0,"note":73,"vel":0.8}
{"t":206119,"type":"note_on","id":1695,"ch":0,"note":82,"vel":0.8}
{"t":206120,"type":"note_on","id":1696,"ch":0,"note":87,"vel":0.8}
{"t":206127,"type":"note_off","id":1680,"ch":0,"note":45}
{"t":206127,"type":"note_off","id":1683,"ch":0,"note":57}
{"t":206127,"type":"note_off","id":1684,"ch":0,"note":85}
{"t":206128,"type":"note_off","id":1686,"ch":0,"note":53}
{"t":206142,"type":"note_off","id":1693,"ch":0,"note":46}
{"t":206142,"type":"note_off","id":1694,"ch":0,"note":73}
{"t":206174,"type":"note_on","id":1697,"ch":0,"note":79,"vel":0.8}
{"t":206207,"type":"note_off","id":1697,"ch":0,"note":79}
{"t":206238,"type":"note_on","id":1698,"ch":0,"note":58,"vel":0.8}
{"t":206238,"type":"note_on","id":1699,"ch":0,"note":92,"vel":0.8}
{"t":206239,"type":"note_on","id":1700,"ch":0,"note":35,"vel":0.8}
{"t":206239,"type":"note_on","id":1701,"ch":0,"note":77,"vel":0.8}
{"t":206239,"type":"note_on","id":1702,"ch":0,"note":93,"vel":0.8}
{"t":206246,"type":"note_off","id":1690,"ch":0,"note":59}
{"t":206246,"type":"note_off","id":1691,"ch":0,"note":97}
{"t":206246,"type":"note_off","id":1696,"ch":0,"note":87}
{"t":206270,"type":"note_off","id":1699,"ch":0,"note":92}
{"t":206302,"type":"note_on","id":1703,"ch":0,"note":80,"vel":0.8}
{"t":206367,"type":"note_on","id":1704,"ch":0,"note":79,"vel":0.8}
{"t":206374,"type":"note_off","id":1675,"ch":0,"note":50}
{"t":206374,"type":"note_off","id":1705,"ch":0,"note":59}
{"t":206374,"type":"note_off","id":1698,"ch":0,"note":58}
{"t":206375,"type":"note_off","id":1700,"ch":0,"note":35}
{"t":206375,"type":"note_off","id":1702,"ch":0,"note":93}
{"t":206391,"type":"note_off","id":1704,"ch":0,"note":79}
{"t":206431,"type":"note_on","id":1706,"ch":0,"note":74,"vel":0.8}
{"t":206438,"type":"note_off","id":1692,"ch":0,"note":38}
{"t":206494,"type":"note_on","id":1707,"ch":0,"note":54,"vel":0.8}
{"t":206495,"type":"note_on","id":1708,"ch":0,"note":86,"vel":0.8}
{"t":206495,"type":"note_on","id":1709,"ch":0,"note":101,"vel":0.8}
{"t":206495,"type":"note_on","id":1710,"ch":0,"note":106,"vel":0.8}
{"t":206495,"type":"note_on","id":1711,"ch":0,"note":48,"vel":0.8}
{"t":206496,"type":"note_on","id":1712,"ch":0,"note":65,"vel":0.8}
{"t":206502,"type":"note_off","id":1706,"ch":0,"note":74}
{"t":206519,"type":"note_off","id":1709,"ch":0,"note":101}
{"t":206550,"type":"note_on","id":1713,"ch":0,"note":94,"vel":0.8}
{"t":206582,"type":"note_off","id":1713,"ch":0,"note":94}
{"t":206614,"type":"note_on","id":1714,"ch":0,"note":61,"vel":0.8}
{"t":206614,"type":"note_on","id":1715,"ch":0,"note":76,"vel":0.8}
{"t":206615,"type":"note_on","id":1716,"ch":0,"note":89,"vel":0.8}
{"t":206615,"type":"note_on","id":1717,"ch":0,"note":97,"vel":0.8}
{"t":206615,"type":"note_on","id":1718,"ch":0,"note":41,"vel":0.8}
{"t":206616,"type":"note_on","id":1719,"ch":0,"note":92,"vel":0.8}
{"t":206621,"type":"note_off","id":1707,"ch":0,"note":54}
{"t":206622,"type":"note_off","id":1710,"ch":0,"note":106}
{"t":206622,"type":"note_off","id":1711,"ch":0,"note":48}
{"t":206622,"type":"note_off","id":1712,"ch":0,"note":65}
{"t":206647,"type":"note_off","id":1719,"ch":0,"note":92}
{"t":206678,"type":"note_on","id":1720,"ch":0,"note":53,"vel":0.8}
{"t":206679,"type":"note_on","id":1721,"ch":0,"note":83,"vel":0.8}
{"t":206687,"type":"note_off","id":1695,"ch":0,"note":82}
{"t":206687,"type":"note_off","id":1708,"ch":0,"note":86}
{"t":206710,"type":"note_off","id":1720,"ch":0,"note":53}
{"t":206710,"type":"note_off","id":1721,"ch":0,"note":83}
{"t":206743,"type":"note_on","id":1722,"ch":0,"note":96,"vel":0.8}
{"t":206743,"type":"note_on","id":1723,"ch":0,"note":35,"vel":0.8}
{"t":206750,"type":"note_off","id":1667,"ch":0,"note":66}
{"t":206750,"type":"note_off","id":1701,"ch":0,"note":77}
{"t":206750,"type":"note_off","id":1714,"ch":0,"note":61}
{"t":206751,"type":"note_off","id":1715,"ch":0,"note":76}
{"t":206751,"type":"note_off","id":1716,"ch":0,"note":89}
{"t":206751,"type":"note_off","id":1717,"ch":0,"note":97}
{"t":206752,"type":"note_off","id":1718,"ch":0,"note":41}
{"t":206806,"type":"note_on","id":1724,"ch":0,"note":43,"vel":0.8}
{"t":206806,"type":"note_on","id":1725,"ch":0,"note":60,"vel":0.8}
{"t":206813,"type":"note_off","id":1722,"ch":0,"note":96}
{"t":206830,"type":"note_off","id":1724,"ch":0,"note":43}
{"t":206831,"type":"note_off","id":1725,"ch":0,"note":60}
{"t":206863,"type":"note_on","id":1726,"ch":0,"note":61,"vel":0.8}
{"t":206863,"type":"note_on","id":1727,"ch":0,"note":48,"vel":0.8}
{"t":206863,"type":"note_on","id":1728,"ch":0,"note":39,"vel":0.8}
{"t":206878,"type":"note_off","id":1723,"ch":0,"note":35}
{"t":206895,"type":"note_off","id":1727,"ch":0,"note":48}
{"t":206991,"type":"note_on","id":1729,"ch":0,"note":86,"vel":0.8}
{"t":206991,"type":"note_on","id":1730,"ch":0,"note":79,"vel":0.8}
{"t":206991,"type":"note_on","id":1731,"ch":0,"note":69,"vel":0.8}
{"t":206992,"type":"note_on","id":1732,"ch":0,"note":55,"vel":0.8}
{"t":206998,"type":"note_off","id":1726,"ch":0,"note":61}
{"t":206998,"type":"note_off","id":1728,"ch":0,"note":39}
{"t":207022,"type":"note_off","id":1731,"ch":0,"note":69}
{"t":207062,"type":"note_off","id":1703,"ch":0,"note":80}
{"t":207062,"type":"note_off","id":1729,"ch":0,"note":86}
{"t":207063,"type":"note_off","id":1730,"ch":0,"note":79}
{"t":207063,"type":"note_off","id":1732,"ch":0,"note":55}
{"t":207182,"type":"note_on","id":1733,"ch":0,"note":77,"vel":0.8}
{"t":207183,"type":"note_on","id":1734,"ch":0,"note":53,"vel":0.8}
{"t":207183,"type":"note_on","id":1735,"ch":0,"note":45,"vel":0.8}
{"t":207214,"type":"note_off","id":1734,"ch":0,"note":53}
{"t":207303,"type":"note_on","id":1736,"ch":0,"note":69,"vel":0.8}
{"t":207303,"type":"note_on","id":1737,"ch":0,"note":71,"vel":0.8}
{"t":207303,"type":"note_on","id":1738,"ch":0,"note":74,"vel":0.8}
{"t":207304,"type":"note_on","id":1739,"ch":0,"note":94,"vel":0.8}
{"t":207304,"type":"note_on","id":1740,"ch":0,"note":50,"vel":0.8}
{"t":207304,"type":"note_on","id":1741,"ch":0,"note":62,"vel":0.8}
{"t":207305,"type":"note_on","id":1742,"ch":0,"note":39,"vel":0.8}
{"t":207318,"type":"note_off","id":1733,"ch":0,"note":77}
{"t":207318,"type":"note_off","id":1735,"ch":0,"note":45}
{"t":207334,"type":"note_off","id":1740,"ch":0,"note":50}
{"t":207430,"type":"note_on","id":1743,"ch":0,"note":66,"vel":0.8}
{"t":207430,"type":"note_on","id":1744,"ch":0,"note":67,"vel":0.8}
{"t":207431,"type":"note_on","id":1745,"ch":0,"note":82,"vel":0.8}
{"t":207431,"type":"note_on","id":1746,"ch":0,"note":100,"vel":0.8}
{"t":207431,"type":"note_on","id":1747,"ch":0,"note":89,"vel":0.8}
{"t":207432,"type":"note_on","id":1748,"ch":0,"note":58,"vel":0.8}
{"t":207432,"type":"note_on","id":1749,"ch":0,"note":35,"vel":0.8}
{"t":207438,"type":"note_off","id":1736,"ch":0,"note":69}
{"t":207438,"type":"note_off","id":1737,"ch":0,"note":71}
{"t":207438,"type":"note_off","id":1738,"ch":0,"note":74}
{"t":207439,"type":"note_off","id":1739,"ch":0,"note":94}
{"t":207439,"type":"note_off","id":1741,"ch":0,"note":62}
{"t":207439,"type":"note_off","id":1742,"ch":0,"note":39}
{"t":207463,"type":"note_off","id":1746,"ch":0,"note":100}
{"t":207495,"type":"note_on","id":1750,"ch":0,"note":102,"vel":0.8}
{"t":207495,"type":"note_on","id":1751,"ch":0,"note":50,"vel":0.8}
{"t":207526,"type":"note_off","id":1750,"ch":0,"note":102}
{"t":207558,"type":"note_on","id":1752,"ch":0,"note":43,"vel":0.8}
{"t":207558,"type":"note_on","id":1753,"ch":0,"note":86,"vel":0.8}
{"t":207558,"type":"note_on","id":1754,"ch":0,"note":59,"vel":0.8}
{"t":207558,"type":"note_on","id":1755,"ch":0,"note":106,"vel":0.8}
{"t":207566,"type":"note_off","id":1744,"ch":0,"note":67}
{"t":207566,"type":"note_off","id":1747,"ch":0,"note":89}
{"t":207567,"type":"note_off","id":1748,"ch":0,"note":58}
{"t":207567,"type":"note_off","id":1749,"ch":0,"note":35}
{"t":207591,"type":"note_off","id":1753,"ch":0,"note":86}
{"t":207622,"type":"note_on","id":1756,"ch":0,"note":45,"vel":0.8}
{"t":207678,"type":"note_on","id":1757,"ch":0,"note":95,"vel":0.8}
{"t":207678,"type":"note_on","id":1758,"ch":0,"note":100,"vel":0.8}
{"t":207695,"type":"note_off","id":1755,"ch":0,"note":106}
{"t":207750,"type":"note_off","id":1745,"ch":0,"note":82}
{"t":207806,"type":"note_on","id":1759,"ch":0,"note":57,"vel":0.8}
{"t":207806,"type":"note_on","id":1760,"ch":0,"note":85,"vel":0.8}
{"t":207806,"type":"note_on","id":1761,"ch":0,"note":92,"vel":0.8}
{"t":207806,"type":"note_on","id":1762,"ch":0,"note":53,"vel":0.8}
{"t":207807,"type":"note_on","id":1763,"ch":0,"note":42,"vel":0.8}
{"t":207815,"type":"note_off","id":1752,"ch":0,"note":43}
{"t":207815,"type":"note_off","id":1757,"ch":0,"note":95}
{"t":207815,"type":"note_off","id":1758,"ch":0,"note":100}
{"t":207838,"type":"note_off","id":1761,"ch":0,"note":92}
{"t":207838,"type":"note_off","id":1763,"ch":0,"note":42}
{"t":207870,"type":"note_on","id":1764,"ch":0,"note":92,"vel":0.8}
{"t":207870,"type":"note_on","id":1765,"ch":0,"note":101,"vel":0.8}
{"t":207895,"type":"note_off","id":1764,"ch":0,"note":92}
{"t":207895,"type":"note_off","id":1765,"ch":0,"note":101}
{"t":207934,"type":"note_on","id":1766,"ch":0,"note":59,"vel":0.8}
{"t":207934,"type":"note_on","id":1767,"ch":0,"note":38,"vel":0.8}
{"t":207935,"type":"note_on","id":1768,"ch":0,"note":97,"vel":0.8}
{"t":207935,"type":"note_on","id":1769,"ch":0,"note":46,"vel":0.8}
{"t":207935,"type":"note_on","id":1770,"ch":0,"note":73,"vel":0.8}
{"t":207936,"type":"note_on","id":1771,"ch":0,"note":82,"vel":0.8}
{"t":207936,"type":"note_on","id":1772,"ch":0,"note":87,"vel":0.8}
{"t":207942,"type":"note_off","id":1756,"ch":0,"note":45}
{"t":207943,"type":"note_off","id":1759,"ch":0,"note":57}
{"t":207943,"type":"note_off","id":1760,"ch":0,"note":85}
{"t":207943,"type":"note_off","id":1762,"ch":0,"note":53}
{"t":207958,"type":"note_off","id":1769,"ch":0,"note":46}
{"t":207958,"type":"note_off","id":1770,"ch":0,"note":73}
{"t":207991,"type":"note_on","id":1773,"ch":0,"note":79,"vel":0.8}
{"t":208022,"type":"note_off","id":1773,"ch":0,"note":79}
{"t":208054,"type":"note_on","id":1774,"ch":0,"note":58,"vel":0.8}
{"t":208054,"type":"note_on","id":1775,"ch":0,"note":92,"vel":0.8}
{"t":208055,"type":"note_on","id":1776,"ch":0,"note":35,"vel":0.8}
{"t":208055,"type":"note_on","id":1777,"ch":0,"note":77,"vel":0.8}
{"t":208055,"type":"note_on","id":1778,"ch":0,"note":93,"vel":0.8}
{"t":208070,"type":"note_off","id":1766,"ch":0,"note":59}
{"t":208070,"type":"note_off","id":1768,"ch":0,"note":97}
{"t":208071,"type":"note_off","id":1772,"ch":0,"note":87}
{"t":208086,"type":"note_off","id":1775,"ch":0,"note":92}
{"t":208118,"type":"note_on","id":1779,"ch":0,"note":80,"vel":0.8}
{"t":208182,"type":"note_on","id":1780,"ch":0,"note":79,"vel":0.8}
{"t":208190,"type":"note_off","id":1751,"ch":0,"note":50}
{"t":208190,"type":"note_off","id":1781,"ch":0,"note":59}
{"t":208190,"type":"note_off","id":1774,"ch":0,"note":58}
{"t":208191,"type":"note_off","id":1776,"ch":0,"note":35}
{"t":208191,"type":"note_off","id":1778,"ch":0,"note":93}
{"t":208215,"type":"note_off","id":1780,"ch":0,"note":79}
{"t":208247,"type":"note_on","id":1782,"ch":0,"note":74,"vel":0.8}
{"t":208254,"type":"note_off","id":1767,"ch":0,"note":38}
{"t":208310,"type":"note_on","id":1783,"ch":0,"note":54,"vel":0.8}
{"t":208311,"type":"note_on","id":1784,"ch":0,"note":86,"vel":0.8}
{"t":208311,"type":"note_on","id":1785,"ch":0,"note":101,"vel":0.8}
{"t":208311,"type":"note_on","id":1786,"ch":0,"note":106,"vel":0.8}
{"t":208311,"type":"note_on","id":1787,"ch":0,"note":48,"vel":0.8}
{"t":208311,"type":"note_on","id":1788,"ch":0,"note":65,"vel":0.8}
{"t":208318,"type":"note_off","id":1782,"ch":0,"note":74}
{"t":208334,"type":"note_off","id":1785,"ch":0,"note":101}
{"t":208367,"type":"note_on","id":1789,"ch":0,"note":94,"vel":0.8}
{"t":208399,"type":"note_off","id":1789,"ch":0,"note":94}
{"t":208430,"type":"note_on","id":1790,"ch":0,"note":61,"vel":0.8}
{"t":208430,"type":"note_on","id":1791,"ch":0,"note":76,"vel":0.8}
{"t":208430,"type":"note_on","id":1792,"ch":0,"note":89,"vel":0.8}
{"t":208431,"type":"note_on","id":1793,"ch":0,"note":97,"vel":0.8}
{"t":208431,"type":"note_on","id":1794,"ch":0,"note":41,"vel":0.8}
{"t":208432,"type":"note_on","id":1795,"ch":0,"note":92,"vel":0.8}
{"t":208438,"type":"note_off","id":1783,"ch":0,"note":54}
{"t":208438,"type":"note_off","id":1786,"ch":0,"note":106}
{"t":208439,"type":"note_off","id":1787,"ch":0,"note":48}
{"t":208439,"type":"note_off","id":1788,"ch":0,"note":65}
{"t":208462,"type":"note_off","id":1795,"ch":0,"note":92}
{"t":208495,"type":"note_on","id":1796,"ch":0,"note":53,"vel":0.8}
{"t":208495,"type":"note_on","id":1797,"ch":0,"note":83,"vel":0.8}
{"t":208503,"type":"note_off","id":1771,"ch":0,"note":82}
{"t":208503,"type":"note_off","id":1784,"ch":0,"note":86}
{"t":208526,"type":"note_off","id":1796,"ch":0,"note":53}
{"t":208526,"type":"note_off","id":1797,"ch":0,"note":83}
{"t":208558,"type":"note_on","id":1798,"ch":0,"note":96,"vel":0.8}
{"t":208558,"type":"note_on","id":1799,"ch":0,"note":35,"vel":0.8}
{"t":208566,"type":"note_off","id":1743,"ch":0,"note":66}
{"t":208566,"type":"note_off","id":1777,"ch":0,"note":77}
{"t":208567,"type":"note_off","id":1790,"ch":0,"note":61}
{"t":208567,"type":"note_off","id":1791,"ch":0,"note":76}
{"t":208567,"type":"note_off","id":1792,"ch":0,"note":89}
{"t":208567,"type":"note_off","id":1793,"ch":0,"note":97}
{"t":208568,"type":"note_off","id":1794,"ch":0,"note":41}
{"t":208622,"type":"note_on","id":1800,"ch":0,"note":43,"vel":0.8}
{"t":208622,"type":"note_on","id":1801,"ch":0,"note":60,"vel":0.8}
{"t":208631,"type":"note_off","id":1798,"ch":0,"note":96}
{"t":208646,"type":"note_off","id":1800,"ch":0,"note":43}
{"t":208646,"type":"note_off","id":1801,"ch":0,"note":60}
{"t":208679,"type":"note_on","id":1802,"ch":0,"note":61,"vel":0.8}
{"t":208679,"type":"note_on","id":1803,"ch":0,"note":48,"vel":0.8}
{"t":208680,"type":"note_on","id":1804,"ch":0,"note":39,"vel":0.8}
{"t":208694,"type":"note_off","id":1799,"ch":0,"note":35}
{"t":208710,"type":"note_off","id":1803,"ch":0,"note":48}
{"t":208806,"type":"note_on","id":1805,"ch":0,"note":86,"vel":0.8}
{"t":208806,"type":"note_on","id":1806,"ch":0,"note":79,"vel":0.8}
{"t":208806,"type":"note_on","id":1807,"ch":0,"note":69,"vel":0.8}
{"t":208806,"type":"note_on","id":1808,"ch":0,"note":55,"vel":0.8}
{"t":208814,"type":"note_off","id":1802,"ch":0,"note":61}
{"t":208814,"type":"note_off","id":1804,"ch":0,"note":39}
{"t":208838,"type":"note_off","id":1807,"ch":0,"note":69}
{"t":208879,"type":"note_off","id":1779,"ch":0,"note":80}
{"t":208879,"type":"note_off","id":1805,"ch":0,"note":86}
{"t":208879,"type":"note_off","id":1806,"ch":0,"note":79}
{"t":208879,"type":"note_off","id":1808,"ch":0,"note":55}
{"t":208999,"type":"note_on","id":1809,"ch":0,"note":77,"vel":0.8}
{"t":208999,"type":"note_on","id":1810,"ch":0,"note":53,"vel":0.8}
{"t":208999,"type":"note_on","id":1811,"ch":0,"note":45,"vel":0.8}
{"t":209030,"type":"note_off","id":1810,"ch":0,"note":53}
{"t":209119,"type":"note_on","id":1812,"ch":0,"note":69,"vel":0.8}
{"t":209119,"type":"note_on","id":1813,"ch":0,"note":71,"vel":0.8}
{"t":209119,"type":"note_on","id":1814,"ch":0,"note":74,"vel":0.8}
{"t":209119,"type":"note_on","id":1815,"ch":0,"note":94,"vel":0.8}
{"t":209120,"type":"note_on","id":1816,"ch":0,"note":50,"vel":0.8}
{"t":209120,"type":"note_on","id":1817,"ch":0,"note":62,"vel":0.8}
{"t":209121,"type":"note_on","id":1818,"ch":0,"note":39,"vel":0.8}
{"t":209134,"type":"note_off","id":1809,"ch":0,"note":77}
{"t":209134,"type":"note_off","id":1811,"ch":0,"note":45}
{"t":209150,"type":"note_off","id":1816,"ch":0,"note":50}
{"t":209246,"type":"note_on","id":1819,"ch":0,"note":66,"vel":0.8}
{"t":209246,"type":"note_on","id":1820,"ch":0,"note":67,"vel":0.8}
{"t":209246,"type":"note_on","id":1821,"ch":0,"note":82,"vel":0.8}
{"t":209247,"type":"note_on","id":1822,"ch":0,"note":100,"vel":0.8}
{"t":209247,"type":"note_on","id":1823,"ch":0,"note":89,"vel":0.8}
{"t":209248,"type":"note_on","id":1824,"ch":0,"note":58,"vel":0.8}
{"t":209248,"type":"note_on","id":1825,"ch":0,"note":35,"vel":0.8}
{"t":209254,"type":"note_off","id":1812,"ch":0,"note":69}
{"t":209254,"type":"note_off","id":1813,"ch":0,"note":71}
{"t":209254,"type":"note_off","id":1814,"ch":0,"note":74}
{"t":209255,"type":"note_off","id":1815,"ch":0,"note":94}
{"t":209255,"type":"note_off","id":1817,"ch":0,"note":62}
{"t":209255,"type":"note_off","id":1818,"ch":0,"note":39}
{"t":209278,"type":"note_off","id":1822,"ch":0,"note":100}
{"t":209310,"type":"note_on","id":1826,"ch":0,"note":102,"vel":0.8}
{"t":209311,"type":"note_on","id":1827,"ch":0,"note":50,"vel":0.8}
{"t":209343,"type":"note_off","id":1826,"ch":0,"note":102}
{"t":209375,"type":"note_on","id":1828,"ch":0,"note":43,"vel":0.8}
{"t":209375,"type":"note_on","id":1829,"ch":0,"note":86,"vel":0.8}
{"t":209375,"type":"note_on","id":1830,"ch":0,"note":59,"vel":0.8}
{"t":209376,"type":"note_on","id":1831,"ch":0,"note":106,"vel":0.8}
{"t":209383,"type":"note_off","id":1820,"ch":0,"note":67}
{"t":209383,"type":"note_off","id":1823,"ch":0,"note":89}
{"t":209383,"type":"note_off","id":1824,"ch":0,"note":58}
{"t":209384,"type":"note_off","id":1825,"ch":0,"note":35}
{"t":209406,"type":"note_off","id":1829,"ch":0,"note":86}
{"t":209438,"type":"note_on","id":1832,"ch":0,"note":45,"vel":0.8}
{"t":209502,"type":"note_on","id":1833,"ch":0,"note":95,"vel":0.8}
{"t":209502,"type":"note_on","id":1834,"ch":0,"note":100,"vel":0.8}
{"t":209510,"type":"note_off","id":1831,"ch":0,"note":106}
{"t":209566,"type":"note_off","id":1821,"ch":0,"note":82}
{"t":209622,"type":"note_on","id":1835,"ch":0,"note":57,"vel":0.8}
{"t":209623,"type":"note_on","id":1836,"ch":0,"note":85,"vel":0.8}
{"t":209623,"type":"note_on","id":1837,"ch":0,"note":92,"vel":0.8}
{"t":209623,"type":"note_on","id":1838,"ch":0,"note":53,"vel":0.8}
{"t":209623,"type":"note_on","id":1839,"ch":0,"note":42,"vel":0.8}
{"t":209630,"type":"note_off","id":1828,"ch":0,"note":43}
{"t":209630,"type":"note_off","id":1833,"ch":0,"note":95}
{"t":209631,"type":"note_off","id":1834,"ch":0,"note":100}
{"t":209654,"type":"note_off","id":1837,"ch":0,"note":92}
{"t":209654,"type":"note_off","id":1839,"ch":0,"note":42}
{"t":209687,"type":"note_on","id":1840,"ch":0,"note":92,"vel":0.8}
{"t":209687,"type":"note_on","id":1841,"ch":0,"note":101,"vel":0.8}
{"t":209718,"type":"note_off","id":1840,"ch":0,"note":92}
{"t":209718,"type":"note_off","id":1841,"ch":0,"note":101}
{"t":209750,"type":"note_on","id":1842,"ch":0,"note":59,"vel":0.8}
{"t":209750,"type":"note_on","id":1843,"ch":0,"note":38,"vel":0.8}
{"t":209751,"type":"note_on","id":1844,"ch":0,"note":97,"vel":0.8}
{"t":209751,"type":"note_on","id":1845,"ch":0,"note":46,"vel":0.8}
{"t":209751,"type":"note_on","id":1846,"ch":0,"note":73,"vel":0.8}
{"t":209752,"type":"note_on","id":1847,"ch":0,"note":82,"vel":0.8}
{"t":209752,"type":"note_on","id":1848,"ch":0,"note":87,"vel":0.8}
{"t":209757,"type":"note_off","id":1832,"ch":0,"note":45}
{"t":209758,"type":"note_off","id":1835,"ch":0,"note":57}
{"t":209758,"type":"note_off","id":1836,"ch":0,"note":85}
{"t":209758,"type":"note_off","id":1838,"ch":0,"note":53}
{"t":209775,"type":"note_off","id":1845,"ch":0,"note":46}
{"t":209775,"type":"note_off","id":1846,"ch":0,"note":73}
{"t":209814,"type":"note_on","id":1849,"ch":0,"note":79,"vel":0.8}
{"t":209838,"type":"note_off","id":1849,"ch":0,"note":79}
{"t":209870,"type":"note_on","id":1850,"ch":0,"note":58,"vel":0.8}
{"t":209870,"type":"note_on","id":1851,"ch":0,"note":92,"vel":0.8}
{"t":209871,"type":"note_on","id":1852,"ch":0,"note":35,"vel":0.8}
{"t":209871,"type":"note_on","id":1853,"ch":0,"note":77,"vel":0.8}
{"t":209871,"type":"note_on","id":1854,"ch":0,"note":93,"vel":0.8}
{"t":209879,"type":"note_off","id":1842,"ch":0,"note":59}
{"t":209879,"type":"note_off","id":1844,"ch":0,"note":97}
{"t":209879,"type":"note_off","id":1848,"ch":0,"note":87}
{"t":209903,"type":"note_off","id":1851,"ch":0,"note":92}
{"t":209936,"type":"note_on","id":1855,"ch":0,"note":80,"vel":0.8}
{"t":209999,"type":"note_on","id":1856,"ch":0,"note":79,"vel":0.8}
{"t":210007,"type":"note_off","id":1827,"ch":0,"note":50}
{"t":210007,"type":"note_off","id":1857,"ch":0,"note":59}
{"t":210008,"type":"note_off","id":1850,"ch":0,"note":58}
{"t":210008,"type":"note_off","id":1852,"ch":0,"note":35}
{"t":210008,"type":"note_off","id":1854,"ch":0,"note":93}
{"t":210030,"type":"note_off","id":1856,"ch":0,"note":79}
{"t":210062,"type":"note_on","id":1858,"ch":0,"note":74,"vel":0.8}
{"t":210069,"type":"note_off","id":1843,"ch":0,"note":38}
{"t":210127,"type":"note_on","id":1859,"ch":0,"note":54,"vel":0.8}
{"t":210128,"type":"note_on","id":1860,"ch":0,"note":86,"vel":0.8}
{"t":210128,"type":"note_on","id":1861,"ch":0,"note":101,"vel":0.8}
{"t":210128,"type":"note_on","id":1862,"ch":0,"note":106,"vel":0.8}
{"t":210128,"type":"note_on","id":1863,"ch":0,"note":48,"vel":0.8}
{"t":210129,"type":"note_on","id":1864,"ch":0,"note":65,"vel":0.8}
{"t":210133,"type":"note_off","id":1858,"ch":0,"note":74}
{"t":210150,"type":"note_off","id":1861,"ch":0,"note":101}
{"t":210182,"type":"note_on","id":1865,"ch":0,"note":94,"vel":0.8}
{"t":210214,"type":"note_off","id":1865,"ch":0,"note":94}
{"t":210246,"type":"note_on","id":1866,"ch":0,"note":61,"vel":0.8}
{"t":210246,"type":"note_on","id":1867,"ch":0,"note":76,"vel":0.8}
{"t":210246,"type":"note_on","id":1868,"ch":0,"note":89,"vel":0.8}
{"t":210247,"type":"note_on","id":1869,"ch":0,"note":97,"vel":0.8}
{"t":210247,"type":"note_on","id":1870,"ch":0,"note":41,"vel":0.8}
{"t":210247,"type":"note_on","id":1871,"ch":0,"note":92,"vel":0.8}
{"t":210254,"type":"note_off","id":1859,"ch":0,"note":54}
{"t":210254,"type":"note_off","id":1862,"ch":0,"note":106}
{"t":210255,"type":"note_off","id":1863,"ch":0,"note":48}
{"t":210255,"type":"note_off","id":1864,"ch":0,"note":65}
{"t":210278,"type":"note_off","id":1871,"ch":0,"note":92}
{"t":210310,"type":"note_on","id":1872,"ch":0,"note":53,"vel":0.8}
{"t":210310,"type":"note_on","id":1873,"ch":0,"note":83,"vel":0.8}
{"t":210318,"type":"note_off","id":1847,"ch":0,"note":82}
{"t":210318,"type":"note_off","id":1860,"ch":0,"note":86}
{"t":210342,"type":"note_off","id":1872,"ch":0,"note":53}
{"t":210342,"type":"note_off","id":1873,"ch":0,"note":83}
{"t":210374,"type":"note_on","id":1874,"ch":0,"note":96,"vel":0.8}
{"t":210374,"type":"note_on","id":1875,"ch":0,"note":35,"vel":0.8}
{"t":210382,"type":"note_off","id":1819,"ch":0,"note":66}
{"t":210382,"type":"note_off","id":1853,"ch":0,"note":77}
{"t":210382,"type":"note_off","id":1866,"ch":0,"note":61}
{"t":210383,"type":"note_off","id":1867,"ch":0,"note":76}
{"t":210383,"type":"note_off","id":1868,"ch":0,"note":89}
{"t":210383,"type":"note_off","id":1869,"ch":0,"note":97}
{"t":210384,"type":"note_off","id":1870,"ch":0,"note":41}
{"t":210439,"type":"note_on","id":1876,"ch":0,"note":43,"vel":0.8}
{"t":210439,"type":"note_on","id":1877,"ch":0,"note":60,"vel":0.8}
{"t":210446,"type":"note_off","id":1874,"ch":0,"note":96}
{"t":210462,"type":"note_off","id":1876,"ch":0,"note":43}
{"t":210462,"type":"note_off","id":1877,"ch":0,"note":60}
{"t":210494,"type":"note_on","id":1878,"ch":0,"note":61,"vel":0.8}
{"t":210495,"type":"note_on","id":1879,"ch":0,"note":48,"vel":0.8}
{"t":210495,"type":"note_on","id":1880,"ch":0,"note":39,"vel":0.8}
{"t":210510,"type":"note_off","id":1875,"ch":0,"note":35}
{"t":210526,"type":"note_off","id":1879,"ch":0,"note":48}
{"t":210622,"type":"note_on","id":1881,"ch":0,"note":86,"vel":0.8}
{"t":210622,"type":"note_on","id":1882,"ch":0,"note":79,"vel":0.8}
{"t":210622,"type":"note_on","id":1883,"ch":0,"note":69,"vel":0.8}
{"t":210622,"type":"note_on","id":1884,"ch":0,"note":55,"vel":0.8}
{"t":210630,"type":"note_off","id":1878,"ch":0,"note":61}
{"t":210630,"type":"note_off","id":1880,"ch":0,"note":39}
{"t":210654,"type":"note_off","id":1883,"ch":0,"note":69}
{"t":210694,"type":"note_off","id":1855,"ch":0,"note":80}
{"t":210694,"type":"note_off","id":1881,"ch":0,"note":86}
{"t":210694,"type":"note_off","id":1882,"ch":0,"note":79}
{"t":210695,"type":"note_off","id":1884,"ch":0,"note":55}
{"t":210814,"type":"note_on","id":1885,"ch":0,"note":77,"vel":0.8}
{"t":210814,"type":"note_on","id":1886,"ch":0,"note":53,"vel":0.8}
{"t":210815,"type":"note_on","id":1887,"ch":0,"note":45,"vel":0.8}
{"t":210846,"type":"note_off","id":1886,"ch":0,"note":53}
{"t":210935,"type":"note_on","id":1888,"ch":0,"note":69,"vel":0.8}
{"t":210935,"type":"note_on","id":1889,"ch":0,"note":71,"vel":0.8}
{"t":210935,"type":"note_on","id":1890,"ch":0,"note":74,"vel":0.8}
{"t":210935,"type":"note_on","id":1891,"ch":0,"note":94,"vel":0.8}
{"t":210936,"type":"note_on","id":1892,"ch":0,"note":50,"vel":0.8}
{"t":210936,"type":"note_on","id":1893,"ch":0,"note":62,"vel":0.8}
{"t":210937,"type":"note_on","id":1894,"ch":0,"note":39,"vel":0.8}
{"t":210951,"type":"note_off","id":1885,"ch":0,"note":77}
{"t":210951,"type":"note_off","id":1887,"ch":0,"note":45}
{"t":210967,"type":"note_off","id":1892,"ch":0,"note":50}
{"t":211063,"type":"note_on","id":1895,"ch":0,"note":66,"vel":0.8}
{"t":211063,"type":"note_on","id":1896,"ch":0,"note":67,"vel":0.8}
{"t":211063,"type":"note_on","id":1897,"ch":0,"note":82,"vel":0.8}
{"t":211063,"type":"note_on","id":1898,"ch":0,"note":100,"vel":0.8}
{"t":211064,"type":"note_on","id":1899,"ch":0,"note":89,"vel":0.8}
{"t":211064,"type":"note_on","id":1900,"ch":0,"note":58,"vel":0.8}
{"t":211065,"type":"note_on","id":1901,"ch":0,"note":35,"vel":0.8}
{"t":211070,"type":"note_off","id":1888,"ch":0,"note":69}
{"t":211070,"type":"note_off","id":1889,"ch":0,"note":71}
{"t":211070,"type":"note_off","id":1890,"ch":0,"note":74}
{"t":211071,"type":"note_off","id":1891,"ch":0,"note":94}
{"t":211071,"type":"note_off","id":1893,"ch":0,"note":62}
{"t":211071,"type":"note_off","id":1894,"ch":0,"note":39}
{"t":211094,"type":"note_off","id":1898,"ch":0,"note":100}
{"t":211127,"type":"note_on","id":1902,"ch":0,"note":102,"vel":0.8}
{"t":211127,"type":"note_on","id":1903,"ch":0,"note":50,"vel":0.8}
{"t":211159,"type":"note_off","id":1902,"ch":0,"note":102}
{"t":211191,"type":"note_on","id":1904,"ch":0,"note":43,"vel":0.8}
{"t":211191,"type":"note_on","id":1905,"ch":0,"note":86,"vel":0.8}
{"t":211191,"type":"note_on","id":1906,"ch":0,"note":59,"vel":0.8}
{"t":211192,"type":"note_on","id":1907,"ch":0,"note":106,"vel":0.8}
{"t":211198,"type":"note_off","id":1896,"ch":0,"note":67}
{"t":211198,"type":"note_off","id":1899,"ch":0,"note":89}
{"t":211198,"type":"note_off","id":1900,"ch":0,"note":58}
{"t":211199,"type":"note_off","id":1901,"ch":0,"note":35}
{"t":211214,"type":"note_off","id":1905,"ch":0,"note":86}
{"t":211254,"type":"note_on","id":1908,"ch":0,"note":45,"vel":0.8}
{"t":211310,"type":"note_on","id":1909,"ch":0,"note":95,"vel":0.8}
{"t":211310,"type":"note_on","id":1910,"ch":0,"note":100,"vel":0.8}
{"t":211326,"type":"note_off","id":1907,"ch":0,"note":106}
{"t":211383,"type":"note_off","id":1897,"ch":0,"note":82}
{"t":211438,"type":"note_on","id":1911,"ch":0,"note":57,"vel":0.8}
{"t":211438,"type":"note_on","id":1912,"ch":0,"note":85,"vel":0.8}
{"t":211438,"type":"note_on","id":1913,"ch":0,"note":92,"vel":0.8}
{"t":211439,"type":"note_on","id":1914,"ch":0,"note":53,"vel":0.8}
{"t":211439,"type":"note_on","id":1915,"ch":0,"note":42,"vel":0.8}
{"t":211446,"type":"note_off","id":1904,"ch":0,"note":43}
{"t":211446,"type":"note_off","id":1909,"ch":0,"note":95}
{"t":211446,"type":"note_off","id":1910,"ch":0,"note":100}
{"t":211470,"type":"note_off","id":1913,"ch":0,"note":92}
{"t":211470,"type":"note_off","id":1915,"ch":0,"note":42}
{"t":211503,"type":"note_on","id":1916,"ch":0,"note":92,"vel":0.8}
{"t":211503,"type":"note_on","id":1917,"ch":0,"note":101,"vel":0.8}
{"t":211534,"type":"note_off","id":1916,"ch":0,"note":92}
{"t":211534,"type":"note_off","id":1917,"ch":0,"note":101}
{"t":211566,"type":"note_on","id":1918,"ch":0,"note":59,"vel":0.8}
{"t":211566,"type":"note_on","id":1919,"ch":0,"note":38,"vel":0.8}
{"t":211567,"type":"note_on","id":1920,"ch":0,"note":97,"vel":0.8}
{"t":211567,"type":"note_on","id":1921,"ch":0,"note":46,"vel":0.8}
{"t":211567,"type":"note_on","id":1922,"ch":0,"note":73,"vel":0.8}
{"t":211568,"type":"note_on","id":1923,"ch":0,"note":82,"vel":0.8}
{"t":211568,"type":"note_on","id":1924,"ch":0,"note":87,"vel":0.8}
{"t":211574,"type":"note_off","id":1908,"ch":0,"note":45}
{"t":211574,"type":"note_off","id":1911,"ch":0,"note":57}
{"t":211575,"type":"note_off","id":1912,"ch":0,"note":85}
{"t":211575,"type":"note_off","id":1914,"ch":0,"note":53}
{"t":211590,"type":"note_off","id":1921,"ch":0,"note":46}
{"t":211590,"type":"note_off","id":1922,"ch":0,"note":73}
{"t":211622,"type":"note_on","id":1925,"ch":0,"note":79,"vel":0.8}
{"t":211655,"type":"note_off","id":1925,"ch":0,"note":79}
{"t":211686,"type":"note_on","id":1926,"ch":0,"note":58,"vel":0.8}
{"t":211686,"type":"note_on","id":1927,"ch":0,"note":92,"vel":0.8}
{"t":211687,"type":"note_on","id":1928,"ch":0,"note":35,"vel":0.8}
{"t":211687,"type":"note_on","id":1929,"ch":0,"note":77,"vel":0.8}
{"t":211687,"type":"note_on","id":1930,"ch":0,"note":93,"vel":0.8}
{"t":211696,"type":"note_off","id":1918,"ch":0,"note":59}
{"t":211696,"type":"note_off","id":1920,"ch":0,"note":97}
{"t":211696,"type":"note_off","id":1924,"ch":0,"note":87}
{"t":211718,"type":"note_off","id":1927,"ch":0,"note":92}
{"t":211750,"type":"note_on","id":1931,"ch":0,"note":80,"vel":0.8}
{"t":211814,"type":"note_on","id":1932,"ch":0,"note":79,"vel":0.8}
{"t":211822,"type":"note_off","id":1903,"ch":0,"note":50}
{"t":211822,"type":"note_off","id":1933,"ch":0,"note":59}
{"t":211822,"type":"note_off","id":1926,"ch":0,"note":58}
{"t":211822,"type":"note_off","id":1928,"ch":0,"note":35}
{"t":211823,"type":"note_off","id":1930,"ch":0,"note":93}
{"t":211846,"type":"note_off","id":1932,"ch":0,"note":79}
{"t":211878,"type":"note_on","id":1934,"ch":0,"note":74,"vel":0.8}
{"t":211886,"type":"note_off","id":1919,"ch":0,"note":38}
{"t":211934,"type":"note_on","id":1935,"ch":0,"note":54,"vel":0.8}
{"t":211934,"type":"note_on","id":1936,"ch":0,"note":86,"vel":0.8}
{"t":211935,"type":"note_on","id":1937,"ch":0,"note":101,"vel":0.8}
{"t":211935,"type":"note_on","id":1938,"ch":0,"note":106,"vel":0.8}
{"t":211935,"type":"note_on","id":1939,"ch":0,"note":48,"vel":0.8}
{"t":211936,"type":"note_on","id":1940,"ch":0,"note":65,"vel":0.8}
{"t":211950,"type":"note_off","id":1934,"ch":0,"note":74}
{"t":211966,"type":"note_off","id":1937,"ch":0,"note":101}
{"t":211998,"type":"note_on","id":1941,"ch":0,"note":94,"vel":0.8}
{"t":212030,"type":"note_off","id":1941,"ch":0,"note":94}
{"t":212063,"type":"note_on","id":1942,"ch":0,"note":61,"vel":0.8}
{"t":212063,"type":"note_on","id":1943,"ch":0,"note":76,"vel":0.8}
{"t":212063,"type":"note_on","id":1944,"ch":0,"note":89,"vel":0.8}
{"t":212063,"type":"note_on","id":1945,"ch":0,"note":97,"vel":0.8}
{"t":212063,"type":"note_on","id":1946,"ch":0,"note":41,"vel":0.8}
{"t":212064,"type":"note_on","id":1947,"ch":0,"note":92,"vel":0.8}
{"t":212071,"type":"note_off","id":1935,"ch":0,"note":54}
{"t":212071,"type":"note_off","id":1938,"ch":0,"note":106}
{"t":212071,"type":"note_off","id":1939,"ch":0,"note":48}
{"t":212071,"type":"note_off","id":1940,"ch":0,"note":65}
{"t":212096,"type":"note_off","id":1947,"ch":0,"note":92}
{"t":212126,"type":"note_on","id":1948,"ch":0,"note":53,"vel":0.8}
{"t":212126,"type":"note_on","id":1949,"ch":0,"note":83,"vel":0.8}
{"t":212134,"type":"note_off","id":1923,"ch":0,"note":82}
{"t":212134,"type":"note_off","id":1936,"ch":0,"note":86}
{"t":212158,"type":"note_off","id":1948,"ch":0,"note":53}
{"t":212159,"type":"note_off","id":1949,"ch":0,"note":83}
{"t":212191,"type":"note_on","id":1950,"ch":0,"note":96,"vel":0.8}
{"t":212191,"type":"note_on","id":1951,"ch":0,"note":35,"vel":0.8}
{"t":212198,"type":"note_off","id":1895,"ch":0,"note":66}
{"t":212198,"type":"note_off","id":1929,"ch":0,"note":77}
{"t":212198,"type":"note_off","id":1942,"ch":0,"note":61}
{"t":212199,"type":"note_off","id":1943,"ch":0,"note":76}
{"t":212199,"type":"note_off","id":1944,"ch":0,"note":89}
{"t":212199,"type":"note_off","id":1945,"ch":0,"note":97}
{"t":212200,"type":"note_off","id":1946,"ch":0,"note":41}
{"t":212254,"type":"note_on","id":1952,"ch":0,"note":43,"vel":0.8}
{"t":212254,"type":"note_on","id":1953,"ch":0,"note":60,"vel":0.8}
{"t":212262,"type":"note_off","id":1950,"ch":0,"note":96}
{"t":212278,"type":"note_off","id":1952,"ch":0,"note":43}
{"t":212278,"type":"note_off","id":1953,"ch":0,"note":60}
{"t":212310,"type":"note_on","id":1954,"ch":0,"note":61,"vel":0.8}
{"t":212310,"type":"note_on","id":1955,"ch":0,"note":48,"vel":0.8}
{"t":212310,"type":"note_on","id":1956,"ch":0,"note":39,"vel":0.8}
{"t":212326,"type":"note_off","id":1951,"ch":0,"note":35}
{"t":212342,"type":"note_off","id":1955,"ch":0,"note":48}
{"t":212438,"type":"note_on","id":1957,"ch":0,"note":86,"vel":0.8}
{"t":212439,"type":"note_on","id":1958,"ch":0,"note":79,"vel":0.8}
{"t":212439,"type":"note_on","id":1959,"ch":0,"note":69,"vel":0.8}
{"t":212439,"type":"note_on","id":1960,"ch":0,"note":55,"vel":0.8}
{"t":212446,"type":"note_off","id":1954,"ch":0,"note":61}
{"t":212446,"type":"note_off","id":1956,"ch":0,"note":39}
{"t":212471,"type":"note_off","id":1959,"ch":0,"note":69}
{"t":212510,"type":"note_off","id":1931,"ch":0,"note":80}
{"t":212511,"type":"note_off","id":1957,"ch":0,"note":86}
{"t":212511,"type":"note_off","id":1958,"ch":0,"note":79}
{"t":212511,"type":"note_off","id":1960,"ch":0,"note":55}
{"t":212630,"type":"note_on","id":1961,"ch":0,"note":77,"vel":0.8}
{"t":212630,"type":"note_on","id":1962,"ch":0,"note":53,"vel":0.8}
{"t":212630,"type":"note_on","id":1963,"ch":0,"note":45,"vel":0.8}
{"t":212663,"type":"note_off","id":1962,"ch":0,"note":53}
{"t":212758,"type":"note_on","id":1964,"ch":0,"note":69,"vel":0.8}
{"t":212759,"type":"note_on","id":1965,"ch":0,"note":71,"vel":0.8}
{"t":212759,"type":"note_on","id":1966,"ch":0,"note":74,"vel":0.8}
{"t":212759,"type":"note_on","id":1967,"ch":0,"note":94,"vel":0.8}
{"t":212759,"type":"note_on","id":1968,"ch":0,"note":50,"vel":0.8}
{"t":212760,"type":"note_on","id":1969,"ch":0,"note":62,"vel":0.8}
{"t":212760,"type":"note_on","id":1970,"ch":0,"note":39,"vel":0.8}
{"t":212766,"type":"note_off","id":1961,"ch":0,"note":77}
{"t":212766,"type":"note_off","id":1963,"ch":0,"note":45}
{"t":212782,"type":"note_off","id":1968,"ch":0,"note":50}
{"t":212878,"type":"note_on","id":1971,"ch":0,"note":66,"vel":0.8}
{"t":212878,"type":"note_on","id":1972,"ch":0,"note":67,"vel":0.8}
{"t":212879,"type":"note_on","id":1973,"ch":0,"note":82,"vel":0.8}
{"t":212879,"type":"note_on","id":1974,"ch":0,"note":100,"vel":0.8}
{"t":212879,"type":"note_on","id":1975,"ch":0,"note":89,"vel":0.8}
{"t":212880,"type":"note_on","id":1976,"ch":0,"note":58,"vel":0.8}
{"t":212880,"type":"note_on","id":1977,"ch":0,"note":35,"vel":0.8}
{"t":212886,"type":"note_off","id":1964,"ch":0,"note":69}
{"t":212886,"type":"note_off","id":1965,"ch":0,"note":71}
{"t":212886,"type":"note_off","id":1966,"ch":0,"note":74}
{"t":212887,"type":"note_off","id":1967,"ch":0,"note":94}
{"t":212887,"type":"note_off","id":1969,"ch":0,"note":62}
{"t":212887,"type":"note_off","id":1970,"ch":0,"note":39}
{"t":212910,"type":"note_off","id":1974,"ch":0,"note":100}
{"t":212943,"type":"note_on","id":1978,"ch":0,"note":102,"vel":0.8}
{"t":212943,"type":"note_on","id":1979,"ch":0,"note":50,"vel":0.8}
{"t":212975,"type":"note_off","id":1978,"ch":0,"note":102}
{"t":213007,"type":"note_on","id":1980,"ch":0,"note":43,"vel":0.8}
{"t":213008,"type":"note_on","id":1981,"ch":0,"note":86,"vel":0.8}
{"t":213008,"type":"note_on","id":1982,"ch":0,"note":59,"vel":0.8}
{"t":213008,"type":"note_on","id":1983,"ch":0,"note":106,"vel":0.8}
{"t":213014,"type":"note_off","id":1972,"ch":0,"note":67}
{"t":213015,"type":"note_off","id":1975,"ch":0,"note":89}
{"t":213015,"type":"note_off","id":1976,"ch":0,"note":58}
{"t":213015,"type":"note_off","id":1977,"ch":0,"note":35}
{"t":213038,"type":"note_off","id":1981,"ch":0,"note":86}
{"t":213071,"type":"note_on","id":1984,"ch":0,"note":45,"vel":0.8}
{"t":213127,"type":"note_on","id":1985,"ch":0,"note":95,"vel":0.8}
{"t":213127,"type":"note_on","id":1986,"ch":0,"note":100,"vel":0.8}
{"t":213142,"type":"note_off","id":1983,"ch":0,"note":106}
{"t":213199,"type":"note_off","id":1973,"ch":0,"note":82}
{"t":213254,"type":"note_on","id":1987,"ch":0,"note":57,"vel":0.8}
{"t":213254,"type":"note_on","id":1988,"ch":0,"note":85,"vel":0.8}
{"t":213255,"type":"note_on","id":1989,"ch":0,"note":92,"vel":0.8}
{"t":213255,"type":"note_on","id":1990,"ch":0,"note":53,"vel":0.8}
{"t":213255,"type":"note_on","id":1991,"ch":0,"note":42,"vel":0.8}
{"t":213263,"type":"note_off","id":1980,"ch":0,"note":43}
{"t":213264,"type":"note_off","id":1985,"ch":0,"note":95}
{"t":213264,"type":"note_off","id":1986,"ch":0,"note":100}
{"t":213286,"type":"note_off","id":1989,"ch":0,"note":92}
{"t":213286,"type":"note_off","id":1991,"ch":0,"note":42}
{"t":213318,"type":"note_on","id":1992,"ch":0,"note":92,"vel":0.8}
{"t":213318,"type":"note_on","id":1993,"ch":0,"note":101,"vel":0.8}
{"t":213351,"type":"note_off","id":1992,"ch":0,"note":92}
{"t":213351,"type":"note_off","id":1993,"ch":0,"note":101}
{"t":213376,"type":"note_on","id":1994,"ch":0,"note":59,"vel":0.8}
{"t":213376,"type":"note_on","id":1995,"ch":0,"note":38,"vel":0.8}
{"t":213376,"type":"note_on","id":1996,"ch":0,"note":97,"vel":0.8}
{"t":213376,"type":"note_on","id":1997,"ch":0,"note":46,"vel":0.8}
{"t":213377,"type":"note_on","id":1998,"ch":0,"note":73,"vel":0.8}
{"t":213377,"type":"note_on","id":1999,"ch":0,"note":82,"vel":0.8}
{"t":213378,"type":"note_on","id":2000,"ch":0,"note":87,"vel":0.8}
{"t":213391,"type":"note_off","id":1984,"ch":0,"note":45}
{"t":213391,"type":"note_off","id":1987,"ch":0,"note":57}
{"t":213391,"type":"note_off","id":1988,"ch":0,"note":85}
{"t":213392,"type":"note_off","id":1990,"ch":0,"note":53}
{"t":213406,"type":"note_off","id":1997,"ch":0,"note":46}
{"t":213406,"type":"note_off","id":1998,"ch":0,"note":73}
{"t":213446,"type":"note_on","id":2001,"ch":0,"note":79,"vel":0.8}
{"t":213470,"type":"note_off","id":2001,"ch":0,"note":79}
{"t":213503,"type":"note_on","id":2002,"ch":0,"note":58,"vel":0.8}
{"t":213503,"type":"note_on","id":2003,"ch":0,"note":92,"vel":0.8}
{"t":213504,"type":"note_on","id":2004,"ch":0,"note":35,"vel":0.8}
{"t":213504,"type":"note_on","id":2005,"ch":0,"note":77,"vel":0.8}
{"t":213504,"type":"note_on","id":2006,"ch":0,"note":93,"vel":0.8}
{"t":213518,"type":"note_off","id":1994,"ch":0,"note":59}
{"t":213519,"type":"note_off","id":1996,"ch":0,"note":97}
{"t":213519,"type":"note_off","id":2000,"ch":0,"note":87}
{"t":213534,"type":"note_off","id":2003,"ch":0,"note":92}
{"t":213567,"type":"note_on","id":2007,"ch":0,"note":80,"vel":0.8}
{"t":213631,"type":"note_on","id":2008,"ch":0,"note":79,"vel":0.8}
{"t":213638,"type":"note_off","id":1979,"ch":0,"note":50}
{"t":213638,"type":"note_off","id":2009,"ch":0,"note":59}
{"t":213638,"type":"note_off","id":2002,"ch":0,"note":58}
{"t":213639,"type":"note_off","id":2004,"ch":0,"note":35}
{"t":213639,"type":"note_off","id":2006,"ch":0,"note":93}
{"t":213662,"type":"note_off","id":2008,"ch":0,"note":79}
{"t":213694,"type":"note_on","id":2010,"ch":0,"note":74,"vel":0.8}
{"t":213702,"type":"note_off","id":1995,"ch":0,"note":38}
{"t":213758,"type":"note_on","id":2011,"ch":0,"note":54,"vel":0.8}
{"t":213759,"type":"note_on","id":2012,"ch":0,"note":86,"vel":0.8}
{"t":213759,"type":"note_on","id":2013,"ch":0,"note":101,"vel":0.8}
{"t":213759,"type":"note_on","id":2014,"ch":0,"note":106,"vel":0.8}
{"t":213759,"type":"note_on","id":2015,"ch":0,"note":48,"vel":0.8}
{"t":213760,"type":"note_on","id":2016,"ch":0,"note":65,"vel":0.8}
{"t":213766,"type":"note_off","id":2010,"ch":0,"note":74}
{"t":213783,"type":"note_off","id":2013,"ch":0,"note":101}
{"t":213816,"type":"note_on","id":2017,"ch":0,"note":94,"vel":0.8}
{"t":213846,"type":"note_off","id":2017,"ch":0,"note":94}
{"t":213878,"type":"note_on","id":2018,"ch":0,"note":61,"vel":0.8}
{"t":213878,"type":"note_on","id":2019,"ch":0,"note":76,"vel":0.8}
{"t":213879,"type":"note_on","id":2020,"ch":0,"note":89,"vel":0.8}
{"t":213879,"type":"note_on","id":2021,"ch":0,"note":97,"vel":0.8}
{"t":213879,"type":"note_on","id":2022,"ch":0,"note":41,"vel":0.8}
{"t":213879,"type":"note_on","id":2023,"ch":0,"note":92,"vel":0.8}
{"t":213887,"type":"note_off","id":2011,"ch":0,"note":54}
{"t":213887,"type":"note_off","id":2014,"ch":0,"note":106}
{"t":213887,"type":"note_off","id":2015,"ch":0,"note":48}
{"t":213888,"type":"note_off","id":2016,"ch":0,"note":65}
{"t":213910,"type":"note_off","id":2023,"ch":0,"note":92}
{"t":213942,"type":"note_on","id":2024,"ch":0,"note":53,"vel":0.8}
{"t":213942,"type":"note_on","id":2025,"ch":0,"note":83,"vel":0.8}
{"t":213950,"type":"note_off","id":1999,"ch":0,"note":82}
{"t":213950,"type":"note_off","id":2012,"ch":0,"note":86}
{"t":213974,"type":"note_off","id":2024,"ch":0,"note":53}
{"t":213975,"type":"note_off","id":2025,"ch":0,"note":83}
{"t":214006,"type":"note_on","id":2026,"ch":0,"note":96,"vel":0.8}
{"t":214006,"type":"note_on","id":2027,"ch":0,"note":35,"vel":0.8}
{"t":214015,"type":"note_off","id":1971,"ch":0,"note":66}
{"t":214015,"type":"note_off","id":2005,"ch":0,"note":77}
{"t":214015,"type":"note_off","id":2018,"ch":0,"note":61}
{"t":214016,"type":"note_off","id":2019,"ch":0,"note":76}
{"t":214016,"type":"note_off","id":2020,"ch":0,"note":89}
{"t":214016,"type":"note_off","id":2021,"ch":0,"note":97}
{"t":214017,"type":"note_off","id":2022,"ch":0,"note":41}
{"t":214063,"type":"note_on","id":2028,"ch":0,"note":43,"vel":0.8}
{"t":214063,"type":"note_on","id":2029,"ch":0,"note":60,"vel":0.8}
{"t":214079,"type":"note_off","id":2026,"ch":0,"note":96}
{"t":214096,"type":"note_off","id":2028,"ch":0,"note":43}
{"t":214096,"type":"note_off","id":2029,"ch":0,"note":60}
{"t":214127,"type":"note_on","id":2030,"ch":0,"note":61,"vel":0.8}
{"t":214127,"type":"note_on","id":2031,"ch":0,"note":48,"vel":0.8}
{"t":214127,"type":"note_on","id":2032,"ch":0,"note":39,"vel":0.8}
{"t":214142,"type":"note_off","id":2027,"ch":0,"note":35}
{"t":214159,"type":"note_off","id":2031,"ch":0,"note":48}
{"t":214255,"type":"note_on","id":2033,"ch":0,"note":86,"vel":0.8}
{"t":214255,"type":"note_on","id":2034,"ch":0,"note":79,"vel":0.8}
{"t":214255,"type":"note_on","id":2035,"ch":0,"note":69,"vel":0.8}
{"t":214255,"type":"note_on","id":2036,"ch":0,"note":55,"vel":0.8}
{"t":214263,"type":"note_off","id":2030,"ch":0,"note":61}
{"t":214263,"type":"note_off","id":2032,"ch":0,"note":39}
{"t":214287,"type":"note_off","id":2035,"ch":0,"note":69}
{"t":214327,"type":"note_off","id":2007,"ch":0,"note":80}
{"t":214327,"type":"note_off","id":2033,"ch":0,"note":86}
{"t":214327,"type":"note_off","id":2034,"ch":0,"note":79}
{"t":214328,"type":"note_off","id":2036,"ch":0,"note":55}
{"t":214447,"type":"note_on","id":2037,"ch":0,"note":77,"vel":0.8}
{"t":214447,"type":"note_on","id":2038,"ch":0,"note":53,"vel":0.8}
{"t":214448,"type":"note_on","id":2039,"ch":0,"note":45,"vel":0.8}
{"t":214478,"type":"note_off","id":2038,"ch":0,"note":53}
{"t":214575,"type":"note_on","id":2040,"ch":0,"note":69,"vel":0.8}
{"t":214575,"type":"note_on","id":2041,"ch":0,"note":71,"vel":0.8}
{"t":214575,"type":"note_on","id":2042,"ch":0,"note":74,"vel":0.8}
{"t":214575,"type":"note_on","id":2043,"ch":0,"note":94,"vel":0.8}
{"t":214575,"type":"note_on","id":2044,"ch":0,"note":50,"vel":0.8}
{"t":214576,"type":"note_on","id":2045,"ch":0,"note":62,"vel":0.8}
{"t":214577,"type":"note_on","id":2046,"ch":0,"note":39,"vel":0.8}
{"t":214583,"type":"note_off","id":2037,"ch":0,"note":77}
{"t":214583,"type":"note_off","id":2039,"ch":0,"note":45}
{"t":214599,"type":"note_off","id":2044,"ch":0,"note":50}
{"t":214694,"type":"note_on","id":2047,"ch":0,"note":66,"vel":0.8}
{"t":214694,"type":"note_on","id":2048,"ch":0,"note":67,"vel":0.8}
{"t":214694,"type":"note_on","id":2049,"ch":0,"note":82,"vel":0.8}
{"t":214695,"type":"note_on","id":2050,"ch":0,"note":100,"vel":0.8}
{"t":214695,"type":"note_on","id":2051,"ch":0,"note":89,"vel":0.8}
{"t":214696,"type":"note_on","id":2052,"ch":0,"note":58,"vel":0.8}
{"t":214696,"type":"note_on","id":2053,"ch":0,"note":35,"vel":0.8}
{"t":214702,"type":"note_off","id":2040,"ch":0,"note":69}
{"t":214702,"type":"note_off","id":2041,"ch":0,"note":71}
{"t":214702,"type":"note_off","id":2042,"ch":0,"note":74}
{"t":214703,"type":"note_off","id":2043,"ch":0,"note":94}
{"t":214703,"type":"note_off","id":2045,"ch":0,"note":62}
{"t":214703,"type":"note_off","id":2046,"ch":0,"note":39}
{"t":214727,"type":"note_off","id":2050,"ch":0,"note":100}
{"t":214758,"type":"note_on","id":2054,"ch":0,"note":102,"vel":0.8}
{"t":214758,"type":"note_on","id":2055,"ch":0,"note":50,"vel":0.8}
{"t":214791,"type":"note_off","id":2054,"ch":0,"note":102}
{"t":214822,"type":"note_on","id":2056,"ch":0,"note":43,"vel":0.8}
{"t":214822,"type":"note_on","id":2057,"ch":0,"note":86,"vel":0.8}
{"t":214822,"type":"note_on","id":2058,"ch":0,"note":59,"vel":0.8}
{"t":214822,"type":"note_on","id":2059,"ch":0,"note":106,"vel":0.8}
{"t":214830,"type":"note_off","id":2048,"ch":0,"note":67}
{"t":214830,"type":"note_off","id":2051,"ch":0,"note":89}
{"t":214830,"type":"note_off","id":2052,"ch":0,"note":58}
{"t":214831,"type":"note_off","id":2053,"ch":0,"note":35}
{"t":214854,"type":"note_off","id":2057,"ch":0,"note":86}
{"t":214886,"type":"note_on","id":2060,"ch":0,"note":45,"vel":0.8}
{"t":214943,"type":"note_on","id":2061,"ch":0,"note":95,"vel":0.8}
{"t":214943,"type":"note_on","id":2062,"ch":0,"note":100,"vel":0.8}
{"t":214958,"type":"note_off","id":2059,"ch":0,"note":106}
{"t":215022,"type":"note_off","id":2049,"ch":0,"note":82}
{"t":215071,"type":"note_on","id":2063,"ch":0,"note":57,"vel":0.8}
{"t":215071,"type":"note_on","id":2064,"ch":0,"note":85,"vel":0.8}
{"t":215071,"type":"note_on","id":2065,"ch":0,"note":92,"vel":0.8}
{"t":215071,"type":"note_on","id":2066,"ch":0,"note":53,"vel":0.8}
{"t":215072,"type":"note_on","id":2067,"ch":0,"note":42,"vel":0.8}
{"t":215078,"type":"note_off","id":2056,"ch":0,"note":43}
{"t":215079,"type":"note_off","id":2061,"ch":0,"note":95}
{"t":215079,"type":"note_off","id":2062,"ch":0,"note":100}
{"t":215103,"type":"note_off","id":2065,"ch":0,"note":92}
{"t":215103,"type":"note_off","id":2067,"ch":0,"note":42}
{"t":215134,"type":"note_on","id":2068,"ch":0,"note":92,"vel":0.8}
{"t":215134,"type":"note_on","id":2069,"ch":0,"note":101,"vel":0.8}
{"t":215167,"type":"note_off","id":2068,"ch":0,"note":92}
{"t":215167,"type":"note_off","id":2069,"ch":0,"note":101}
{"t":215198,"type":"note_on","id":2070,"ch":0,"note":59,"vel":0.8}
{"t":215198,"type":"note_on","id":2071,"ch":0,"note":38,"vel":0.8}
{"t":215198,"type":"note_on","id":2072,"ch":0,"note":97,"vel":0.8}
{"t":215199,"type":"note_on","id":2073,"ch":0,"note":46,"vel":0.8}
{"t":215199,"type":"note_on","id":2074,"ch":0,"note":73,"vel":0.8}
{"t":215200,"type":"note_on","id":2075,"ch":0,"note":82,"vel":0.8}
{"t":215200,"type":"note_on","id":2076,"ch":0,"note":87,"vel":0.8}
{"t":215206,"type":"note_off","id":2060,"ch":0,"note":45}
{"t":215207,"type":"note_off","id":2063,"ch":0,"note":57}
{"t":215207,"type":"note_off","id":2064,"ch":0,"note":85}
{"t":215207,"type":"note_off","id":2066,"ch":0,"note":53}
{"t":215222,"type":"note_off","id":2073,"ch":0,"note":46}
{"t":215222,"type":"note_off","id":2074,"ch":0,"note":73}
{"t":215262,"type":"note_on","id":2077,"ch":0,"note":79,"vel":0.8}
{"t":215286,"type":"note_off","id":2077,"ch":0,"note":79}
{"t":215318,"type":"note_on","id":2078,"ch":0,"note":58,"vel":0.8}
{"t":215318,"type":"note_on","id":2079,"ch":0,"note":92,"vel":0.8}
{"t":215318,"type":"note_on","id":2080,"ch":0,"note":35,"vel":0.8}
{"t":215319,"type":"note_on","id":2081,"ch":0,"note":77,"vel":0.8}
{"t":215319,"type":"note_on","id":2082,"ch":0,"note":93,"vel":0.8}
{"t":215327,"type":"note_off","id":2070,"ch":0,"note":59}
{"t":215327,"type":"note_off","id":2072,"ch":0,"note":97}
{"t":215327,"type":"note_off","id":2076,"ch":0,"note":87}
{"t":215351,"type":"note_off","id":2079,"ch":0,"note":92}
{"t":215382,"type":"note_on","id":2083,"ch":0,"note":80,"vel":0.8}
{"t":215446,"type":"note_on","id":2084,"ch":0,"note":79,"vel":0.8}
{"t":215455,"type":"note_off","id":2055,"ch":0,"note":50}
{"t":215455,"type":"note_off","id":2085,"ch":0,"note":59}
{"t":215456,"type":"note_off","id":2078,"ch":0,"note":58}
{"t":215456,"type":"note_off","id":2080,"ch":0,"note":35}
{"t":215456,"type":"note_off","id":2082,"ch":0,"note":93}
{"t":215478,"type":"note_off","id":2084,"ch":0,"note":79}
{"t":215510,"type":"note_on","id":2086,"ch":0,"note":74,"vel":0.8}
{"t":215518,"type":"note_off","id":2071,"ch":0,"note":38}
{"t":215575,"type":"note_on","id":2087,"ch":0,"note":54,"vel":0.8}
{"t":215575,"type":"note_on","id":2088,"ch":0,"note":86,"vel":0.8}
{"t":215575,"type":"note_on","id":2089,"ch":0,"note":101,"vel":0.8}
{"t":215576,"type":"note_on","id":2090,"ch":0,"note":106,"vel":0.8}
{"t":215576,"type":"note_on","id":2091,"ch":0,"note":48,"vel":0.8}
{"t":215577,"type":"note_on","id":2092,"ch":0,"note":65,"vel":0.8}
{"t":215583,"type":"note_off","id":2086,"ch":0,"note":74}
{"t":215598,"type":"note_off","id":2089,"ch":0,"note":101}
{"t":215630,"type":"note_on","id":2093,"ch":0,"note":94,"vel":0.8}
{"t":215662,"type":"note_off","id":2093,"ch":0,"note":94}
{"t":215695,"type":"note_on","id":2094,"ch":0,"note":61,"vel":0.8}
{"t":215695,"type":"note_on","id":2095,"ch":0,"note":76,"vel":0.8}
{"t":215695,"type":"note_on","id":2096,"ch":0,"note":89,"vel":0.8}
{"t":215696,"type":"note_on","id":2097,"ch":0,"note":97,"vel":0.8}
{"t":215696,"type":"note_on","id":2098,"ch":0,"note":41,"vel":0.8}
{"t":215697,"type":"note_on","id":2099,"ch":0,"note":92,"vel":0.8}
{"t":215702,"type":"note_off","id":2087,"ch":0,"note":54}
{"t":215702,"type":"note_off","id":2090,"ch":0,"note":106}
{"t":215702,"type":"note_off","id":2091,"ch":0,"note":48}
{"t":215703,"type":"note_off","id":2092,"ch":0,"note":65}
{"t":215727,"type":"note_off","id":2099,"ch":0,"note":92}
{"t":215758,"type":"note_on","id":2100,"ch":0,"note":53,"vel":0.8}
{"t":215758,"type":"note_on","id":2101,"ch":0,"note":83,"vel":0.8}
{"t":215766,"type":"note_off","id":2075,"ch":0,"note":82}
{"t":215766,"type":"note_off","id":2088,"ch":0,"note":86}
{"t":215791,"type":"note_off","id":2100,"ch":0,"note":53}
{"t":215791,"type":"note_off","id":2101,"ch":0,"note":83}
{"t":215822,"type":"note_on","id":2102,"ch":0,"note":96,"vel":0.8}
{"t":215822,"type":"note_on","id":2103,"ch":0,"note":35,"vel":0.8}
{"t":215830,"type":"note_off","id":2047,"ch":0,"note":66}
{"t":215831,"type":"note_off","id":2081,"ch":0,"note":77}
{"t":215831,"type":"note_off","id":2094,"ch":0,"note":61}
{"t":215831,"type":"note_off","id":2095,"ch":0,"note":76}
{"t":215831,"type":"note_off","id":2096,"ch":0,"note":89}
{"t":215832,"type":"note_off","id":2097,"ch":0,"note":97}
{"t":215832,"type":"note_off","id":2098,"ch":0,"note":41}
{"t":215886,"type":"note_on","id":2104,"ch":0,"note":43,"vel":0.8}
{"t":215886,"type":"note_on","id":2105,"ch":0,"note":60,"vel":0.8}
{"t":215894,"type":"note_off","id":2102,"ch":0,"note":96}
{"t":215910,"type":"note_off","id":2104,"ch":0,"note":43}
{"t":215910,"type":"note_off","id":2105,"ch":0,"note":60}
{"t":215942,"type":"note_on","id":2106,"ch":0,"note":61,"vel":0.8}
{"t":215942,"type":"note_on","id":2107,"ch":0,"note":48,"vel":0.8}
{"t":215942,"type":"note_on","id":2108,"ch":0,"note":39,"vel":0.8}
{"t":215959,"type":"note_off","id":2103,"ch":0,"note":35}
{"t":215974,"type":"note_off","id":2107,"ch":0,"note":48}
{"t":216071,"type":"note_on","id":2109,"ch":0,"note":86,"vel":0.8}
{"t":216071,"type":"note_on","id":2110,"ch":0,"note":79,"vel":0.8}
{"t":216071,"type":"note_on","id":2111,"ch":0,"note":69,"vel":0.8}
{"t":216071,"type":"note_on","id":2112,"ch":0,"note":55,"vel":0.8}
{"t":216078,"type":"note_off","id":2106,"ch":0,"note":61}
{"t":216079,"type":"note_off","id":2108,"ch":0,"note":39}
{"t":216102,"type":"note_off","id":2111,"ch":0,"note":69}
{"t":216143,"type":"note_off","id":2083,"ch":0,"note":80}
{"t":216143,"type":"note_off","id":2112,"ch":0,"note":55}
{"t":216143,"type":"note_off","id":2109,"ch":0,"note":86}
{"t":216143,"type":"note_off","id":2110,"ch":0,"note":79}
{"t":216262,"type":"note_on","id":2113,"ch":0,"note":77,"vel":0.8}
{"t":216263,"type":"note_on","id":2114,"ch":0,"note":53,"vel":0.8}
{"t":216263,"type":"note_on","id":2115,"ch":0,"note":45,"vel":0.8}
{"t":216295,"type":"note_off","id":2114,"ch":0,"note":53}
{"t":216383,"type":"note_on","id":2116,"ch":0,"note":69,"vel":0.8}
{"t":216383,"type":"note_on","id":2117,"ch":0,"note":71,"vel":0.8}
{"t":216383,"type":"note_on","id":2118,"ch":0,"note":74,"vel":0.8}
{"t":216383,"type":"note_on","id":2119,"ch":0,"note":94,"vel":0.8}
{"t":216384,"type":"note_on","id":2120,"ch":0,"note":50,"vel":0.8}
{"t":216385,"type":"note_on","id":2121,"ch":0,"note":62,"vel":0.8}
{"t":216385,"type":"note_on","id":2122,"ch":0,"note":39,"vel":0.8}
{"t":216398,"type":"note_off","id":2113,"ch":0,"note":77}
{"t":216398,"type":"note_off","id":2115,"ch":0,"note":45}
{"t":216415,"type":"note_off","id":2120,"ch":0,"note":50}
{"t":216510,"type":"note_on","id":2123,"ch":0,"note":66,"vel":0.8}
{"t":216510,"type":"note_on","id":2124,"ch":0,"note":67,"vel":0.8}
{"t":216511,"type":"note_on","id":2125,"ch":0,"note":82,"vel":0.8}
{"t":216511,"type":"note_on","id":2126,"ch":0,"note":100,"vel":0.8}
{"t":216511,"type":"note_on","id":2127,"ch":0,"note":89,"vel":0.8}
{"t":216512,"type":"note_on","id":2128,"ch":0,"note":58,"vel":0.8}
{"t":216512,"type":"note_on","id":2129,"ch":0,"note":35,"vel":0.8}
{"t":216519,"type":"note_off","id":2116,"ch":0,"note":69}
{"t":216519,"type":"note_off","id":2117,"ch":0,"note":71}
{"t":216519,"type":"note_off","id":2118,"ch":0,"note":74}
{"t":216520,"type":"note_off","id":2119,"ch":0,"note":94}
{"t":216520,"type":"note_off","id":2121,"ch":0,"note":62}
{"t":216520,"type":"note_off","id":2122,"ch":0,"note":39}
{"t":216542,"type":"note_off","id":2126,"ch":0,"note":100}
{"t":216574,"type":"note_on","id":2130,"ch":0,"note":102,"vel":0.8}
{"t":216574,"type":"note_on","id":2131,"ch":0,"note":50,"vel":0.8}
{"t":216606,"type":"note_off","id":2130,"ch":0,"note":102}
{"t":216638,"type":"note_on","id":2132,"ch":0,"note":43,"vel":0.8}
{"t":216638,"type":"note_on","id":2133,"ch":0,"note":86,"vel":0.8}
{"t":216639,"type":"note_on","id":2134,"ch":0,"note":59,"vel":0.8}
{"t":216639,"type":"note_on","id":2135,"ch":0,"note":106,"vel":0.8}
{"t":216646,"type":"note_off","id":2124,"ch":0,"note":67}
{"t":216646,"type":"note_off","id":2127,"ch":0,"note":89}
{"t":216646,"type":"note_off","id":2128,"ch":0,"note":58}
{"t":216647,"type":"note_off","id":2129,"ch":0,"note":35}
{"t":216671,"type":"note_off","id":2133,"ch":0,"note":86}
{"t":216703,"type":"note_on","id":2136,"ch":0,"note":45,"vel":0.8}
{"t":216758,"type":"note_on","id":2137,"ch":0,"note":95,"vel":0.8}
{"t":216758,"type":"note_on","id":2138,"ch":0,"note":100,"vel":0.8}
{"t":216775,"type":"note_off","id":2135,"ch":0,"note":106}
{"t":216830,"type":"note_off","id":2125,"ch":0,"note":82}
{"t":216887,"type":"note_on","id":2139,"ch":0,"note":57,"vel":0.8}
{"t":216887,"type":"note_on","id":2140,"ch":0,"note":85,"vel":0.8}
{"t":216887,"type":"note_on","id":2141,"ch":0,"note":92,"vel":0.8}
{"t":216888,"type":"note_on","id":2142,"ch":0,"note":53,"vel":0.8}
{"t":216888,"type":"note_on","id":2143,"ch":0,"note":42,"vel":0.8}
{"t":216895,"type":"note_off","id":2132,"ch":0,"note":43}
{"t":216895,"type":"note_off","id":2137,"ch":0,"note":95}
{"t":216895,"type":"note_off","id":2138,"ch":0,"note":100}
{"t":216919,"type":"note_off","id":2141,"ch":0,"note":92}
{"t":216920,"type":"note_off","id":2143,"ch":0,"note":42}
{"t":216951,"type":"note_on","id":2144,"ch":0,"note":92,"vel":0.8}
{"t":216951,"type":"note_on","id":2145,"ch":0,"note":101,"vel":0.8}
{"t":216975,"type":"note_off","id":2144,"ch":0,"note":92}
{"t":216975,"type":"note_off","id":2145,"ch":0,"note":101}
{"t":217015,"type":"note_on","id":2146,"ch":0,"note":59,"vel":0.8}
{"t":217015,"type":"note_on","id":2147,"ch":0,"note":38,"vel":0.8}
{"t":217015,"type":"note_on","id":2148,"ch":0,"note":97,"vel":0.8}
{"t":217016,"type":"note_on","id":2149,"ch":0,"note":46,"vel":0.8}
{"t":217016,"type":"note_on","id":2150,"ch":0,"note":73,"vel":0.8}
{"t":217016,"type":"note_on","id":2151,"ch":0,"note":82,"vel":0.8}
{"t":217017,"type":"note_on","id":2152,"ch":0,"note":87,"vel":0.8}
{"t":217022,"type":"note_off","id":2136,"ch":0,"note":45}
{"t":217022,"type":"note_off","id":2139,"ch":0,"note":57}
{"t":217022,"type":"note_off","id":2140,"ch":0,"note":85}
{"t":217023,"type":"note_off","id":2142,"ch":0,"note":53}
{"t":217038,"type":"note_off","id":2149,"ch":0,"note":46}
{"t":217038,"type":"note_off","id":2150,"ch":0,"note":73}
{"t":217071,"type":"note_on","id":2153,"ch":0,"note":79,"vel":0.8}
{"t":217103,"type":"note_off","id":2153,"ch":0,"note":79}
{"t":217135,"type":"note_on","id":2154,"ch":0,"note":58,"vel":0.8}
{"t":217135,"type":"note_on","id":2155,"ch":0,"note":92,"vel":0.8}
{"t":217135,"type":"note_on","id":2156,"ch":0,"note":35,"vel":0.8}
{"t":217136,"type":"note_on","id":2157,"ch":0,"note":77,"vel":0.8}
{"t":217136,"type":"note_on","id":2158,"ch":0,"note":93,"vel":0.8}
{"t":217142,"type":"note_off","id":2146,"ch":0,"note":59}
{"t":217143,"type":"note_off","id":2148,"ch":0,"note":97}
{"t":217143,"type":"note_off","id":2152,"ch":0,"note":87}
{"t":217166,"type":"note_off","id":2155,"ch":0,"note":92}
{"t":217198,"type":"note_on","id":2159,"ch":0,"note":80,"vel":0.8}
{"t":217262,"type":"note_on","id":2160,"ch":0,"note":79,"vel":0.8}
{"t":217270,"type":"note_off","id":2131,"ch":0,"note":50}
{"t":217270,"type":"note_off","id":2161,"ch":0,"note":59}
{"t":217270,"type":"note_off","id":2154,"ch":0,"note":58}
{"t":217271,"type":"note_off","id":2156,"ch":0,"note":35}
{"t":217271,"type":"note_off","id":2158,"ch":0,"note":93}
{"t":217296,"type":"note_off","id":2160,"ch":0,"note":79}
{"t":217327,"type":"note_on","id":2162,"ch":0,"note":74,"vel":0.8}
{"t":217335,"type":"note_off","id":2147,"ch":0,"note":38}
{"t":217391,"type":"note_on","id":2163,"ch":0,"note":54,"vel":0.8}
{"t":217391,"type":"note_on","id":2164,"ch":0,"note":86,"vel":0.8}
{"t":217391,"type":"note_on","id":2165,"ch":0,"note":101,"vel":0.8}
{"t":217392,"type":"note_on","id":2166,"ch":0,"note":106,"vel":0.8}
{"t":217392,"type":"note_on","id":2167,"ch":0,"note":48,"vel":0.8}
{"t":217393,"type":"note_on","id":2168,"ch":0,"note":65,"vel":0.8}
{"t":217398,"type":"note_off","id":2162,"ch":0,"note":74}
{"t":217414,"type":"note_off","id":2165,"ch":0,"note":101}
{"t":217446,"type":"note_on","id":2169,"ch":0,"note":94,"vel":0.8}
{"t":217478,"type":"note_off","id":2169,"ch":0,"note":94}
{"t":217510,"type":"note_on","id":2170,"ch":0,"note":61,"vel":0.8}
{"t":217510,"type":"note_on","id":2171,"ch":0,"note":76,"vel":0.8}
{"t":217511,"type":"note_on","id":2172,"ch":0,"note":89,"vel":0.8}
{"t":217511,"type":"note_on","id":2173,"ch":0,"note":97,"vel":0.8}
{"t":217512,"type":"note_on","id":2174,"ch":0,"note":41,"vel":0.8}
{"t":217512,"type":"note_on","id":2175,"ch":0,"note":92,"vel":0.8}
{"t":217519,"type":"note_off","id":2163,"ch":0,"note":54}
{"t":217519,"type":"note_off","id":2166,"ch":0,"note":106}
{"t":217519,"type":"note_off","id":2167,"ch":0,"note":48}
{"t":217520,"type":"note_off","id":2168,"ch":0,"note":65}
{"t":217543,"type":"note_off","id":2175,"ch":0,"note":92}
{"t":217576,"type":"note_on","id":2176,"ch":0,"note":53,"vel":0.8}
{"t":217576,"type":"note_on","id":2177,"ch":0,"note":83,"vel":0.8}
{"t":217582,"type":"note_off","id":2151,"ch":0,"note":82}
{"t":217582,"type":"note_off","id":2164,"ch":0,"note":86}
{"t":217606,"type":"note_off","id":2176,"ch":0,"note":53}
{"t":217606,"type":"note_off","id":2177,"ch":0,"note":83}
{"t":217638,"type":"note_on","id":2178,"ch":0,"note":96,"vel":0.8}
{"t":217639,"type":"note_on","id":2179,"ch":0,"note":35,"vel":0.8}
{"t":217646,"type":"note_off","id":2123,"ch":0,"note":66}
{"t":217646,"type":"note_off","id":2157,"ch":0,"note":77}
{"t":217646,"type":"note_off","id":2170,"ch":0,"note":61}
{"t":217647,"type":"note_off","id":2171,"ch":0,"note":76}
{"t":217647,"type":"note_off","id":2172,"ch":0,"note":89}
{"t":217647,"type":"note_off","id":2173,"ch":0,"note":97}
{"t":217648,"type":"note_off","id":2174,"ch":0,"note":41}
{"t":217696,"type":"note_on","id":2180,"ch":0,"note":43,"vel":0.8}
{"t":217696,"type":"note_on","id":2181,"ch":0,"note":60,"vel":0.8}
{"t":217710,"type":"note_off","id":2178,"ch":0,"note":96}
{"t":217726,"type":"note_off","id":2180,"ch":0,"note":43}
{"t":217726,"type":"note_off","id":2181,"ch":0,"note":60}
{"t":217758,"type":"note_on","id":2182,"ch":0,"note":61,"vel":0.8}
{"t":217758,"type":"note_on","id":2183,"ch":0,"note":48,"vel":0.8}
{"t":217759,"type":"note_on","id":2184,"ch":0,"note":39,"vel":0.8}
{"t":217775,"type":"note_off","id":2179,"ch":0,"note":35}
{"t":217791,"type":"note_off","id":2183,"ch":0,"note":48}
{"t":217886,"type":"note_on","id":2185,"ch":0,"note":86,"vel":0.8}
{"t":217887,"type":"note_on","id":2186,"ch":0,"note":79,"vel":0.8}
{"t":217887,"type":"note_on","id":2187,"ch":0,"note":69,"vel":0.8}
{"t":217887,"type":"note_on","id":2188,"ch":0,"note":55,"vel":0.8}
{"t":217896,"type":"note_off","id":2182,"ch":0,"note":61}
{"t":217896,"type":"note_off","id":2184,"ch":0,"note":39}
{"t":217919,"type":"note_off","id":2187,"ch":0,"note":69}
{"t":217959,"type":"note_off","id":2159,"ch":0,"note":80}
{"t":217959,"type":"note_off","id":2185,"ch":0,"note":86}
{"t":217959,"type":"note_off","id":2186,"ch":0,"note":79}
{"t":217959,"type":"note_off","id":2188,"ch":0,"note":55}
{"t":218078,"type":"note_on","id":2189,"ch":0,"note":77,"vel":0.8}
{"t":218078,"type":"note_on","id":2190,"ch":0,"note":53,"vel":0.8}
{"t":218079,"type":"note_on","id":2191,"ch":0,"note":45,"vel":0.8}
{"t":218110,"type":"note_off","id":2190,"ch":0,"note":53}
{"t":218206,"type":"note_on","id":2192,"ch":0,"note":69,"vel":0.8}
{"t":218206,"type":"note_on","id":2193,"ch":0,"note":71,"vel":0.8}
{"t":218206,"type":"note_on","id":2194,"ch":0,"note":74,"vel":0.8}
{"t":218206,"type":"note_on","id":2195,"ch":0,"note":94,"vel":0.8}
{"t":218207,"type":"note_on","id":2196,"ch":0,"note":50,"vel":0.8}
{"t":218207,"type":"note_on","id":2197,"ch":0,"note":62,"vel":0.8}
{"t":218208,"type":"note_on","id":2198,"ch":0,"note":39,"vel":0.8}
{"t":218214,"type":"note_off","id":2189,"ch":0,"note":77}
{"t":218214,"type":"note_off","id":2191,"ch":0,"note":45}
{"t":218230,"type":"note_off","id":2196,"ch":0,"note":50}
{"t":218326,"type":"note_on","id":2199,"ch":0,"note":66,"vel":0.8}
{"t":218326,"type":"note_on","id":2200,"ch":0,"note":67,"vel":0.8}
{"t":218327,"type":"note_on","id":2201,"ch":0,"note":82,"vel":0.8}
{"t":218327,"type":"note_on","id":2202,"ch":0,"note":100,"vel":0.8}
{"t":218327,"type":"note_on","id":2203,"ch":0,"note":89,"vel":0.8}
{"t":218328,"type":"note_on","id":2204,"ch":0,"note":58,"vel":0.8}
{"t":218328,"type":"note_on","id":2205,"ch":0,"note":35,"vel":0.8}
{"t":218336,"type":"note_off","id":2192,"ch":0,"note":69}
{"t":218336,"type":"note_off","id":2193,"ch":0,"note":71}
{"t":218336,"type":"note_off","id":2194,"ch":0,"note":74}
{"t":218337,"type":"note_off","id":2195,"ch":0,"note":94}
{"t":218337,"type":"note_off","id":2197,"ch":0,"note":62}
{"t":218337,"type":"note_off","id":2198,"ch":0,"note":39}
{"t":218358,"type":"note_off","id":2202,"ch":0,"note":100}
{"t":218391,"type":"note_on","id":2206,"ch":0,"note":102,"vel":0.8}
{"t":218391,"type":"note_on","id":2207,"ch":0,"note":50,"vel":0.8}
{"t":218422,"type":"note_off","id":2206,"ch":0,"note":102}
{"t":218454,"type":"note_on","id":2208,"ch":0,"note":43,"vel":0.8}
{"t":218455,"type":"note_on","id":2209,"ch":0,"note":86,"vel":0.8}
{"t":218455,"type":"note_on","id":2210,"ch":0,"note":59,"vel":0.8}
{"t":218455,"type":"note_on","id":2211,"ch":0,"note":106,"vel":0.8}
{"t":218463,"type":"note_off","id":2200,"ch":0,"note":67}
{"t":218463,"type":"note_off","id":2203,"ch":0,"note":89}
{"t":218463,"type":"note_off","id":2204,"ch":0,"note":58}
{"t":218464,"type":"note_off","id":2205,"ch":0,"note":35}
{"t":218479,"type":"note_off","id":2209,"ch":0,"note":86}
{"t":218511,"type":"note_on","id":2212,"ch":0,"note":45,"vel":0.8}
{"t":218575,"type":"note_on","id":2213,"ch":0,"note":95,"vel":0.8}
{"t":218575,"type":"note_on","id":2214,"ch":0,"note":100,"vel":0.8}
{"t":218591,"type":"note_off","id":2211,"ch":0,"note":106}
{"t":218654,"type":"note_off","id":2201,"ch":0,"note":82}
{"t":218703,"type":"note_on","id":2215,"ch":0,"note":57,"vel":0.8}
{"t":218703,"type":"note_on","id":2216,"ch":0,"note":85,"vel":0.8}
{"t":218703,"type":"note_on","id":2217,"ch":0,"note":92,"vel":0.8}
{"t":218704,"type":"note_on","id":2218,"ch":0,"note":53,"vel":0.8}
{"t":218704,"type":"note_on","id":2219,"ch":0,"note":42,"vel":0.8}
{"t":218710,"type":"note_off","id":2208,"ch":0,"note":43}
{"t":218710,"type":"note_off","id":2213,"ch":0,"note":95}
{"t":218711,"type":"note_off","id":2214,"ch":0,"note":100}
{"t":218734,"type":"note_off","id":2217,"ch":0,"note":92}
{"t":218734,"type":"note_off","id":2219,"ch":0,"note":42}
{"t":218766,"type":"note_on","id":2220,"ch":0,"note":92,"vel":0.8}
{"t":218766,"type":"note_on","id":2221,"ch":0,"note":101,"vel":0.8}
{"t":218798,"type":"note_off","id":2220,"ch":0,"note":92}
{"t":218798,"type":"note_off","id":2221,"ch":0,"note":101}
{"t":218831,"type":"note_on","id":2222,"ch":0,"note":59,"vel":0.8}
{"t":218831,"type":"note_on","id":2223,"ch":0,"note":38,"vel":0.8}
{"t":218832,"type":"note_on","id":2224,"ch":0,"note":97,"vel":0.8}
{"t":218832,"type":"note_on","id":2225,"ch":0,"note":46,"vel":0.8}
{"t":218832,"type":"note_on","id":2226,"ch":0,"note":73,"vel":0.8}
{"t":218832,"type":"note_on","id":2227,"ch":0,"note":82,"vel":0.8}
{"t":218832,"type":"note_on","id":2228,"ch":0,"note":87,"vel":0.8}
{"t":218837,"type":"note_off","id":2212,"ch":0,"note":45}
{"t":218838,"type":"note_off","id":2215,"ch":0,"note":57}
{"t":218838,"type":"note_off","id":2216,"ch":0,"note":85}
{"t":218838,"type":"note_off","id":2218,"ch":0,"note":53}
{"t":218854,"type":"note_off","id":2225,"ch":0,"note":46}
{"t":218854,"type":"note_off","id":2226,"ch":0,"note":73}
{"t":218887,"type":"note_on","id":2229,"ch":0,"note":79,"vel":0.8}
{"t":218919,"type":"note_off","id":2229,"ch":0,"note":79}
{"t":218950,"type":"note_on","id":2230,"ch":0,"note":58,"vel":0.8}
{"t":218950,"type":"note_on","id":2231,"ch":0,"note":92,"vel":0.8}
{"t":218950,"type":"note_on","id":2232,"ch":0,"note":35,"vel":0.8}
{"t":218951,"type":"note_on","id":2233,"ch":0,"note":77,"vel":0.8}
{"t":218951,"type":"note_on","id":2234,"ch":0,"note":93,"vel":0.8}
{"t":218959,"type":"note_off","id":2222,"ch":0,"note":59}
{"t":218959,"type":"note_off","id":2224,"ch":0,"note":97}
{"t":218959,"type":"note_off","id":2228,"ch":0,"note":87}
{"t":218982,"type":"note_off","id":2231,"ch":0,"note":92}
{"t":219014,"type":"note_on","id":2235,"ch":0,"note":80,"vel":0.8}
{"t":219078,"type":"note_on","id":2236,"ch":0,"note":79,"vel":0.8}
{"t":219086,"type":"note_off","id":2207,"ch":0,"note":50}
{"t":219086,"type":"note_off","id":2237,"ch":0,"note":59}
{"t":219086,"type":"note_off","id":2230,"ch":0,"note":58}
{"t":219086,"type":"note_off","id":2232,"ch":0,"note":35}
{"t":219087,"type":"note_off","id":2234,"ch":0,"note":93}
{"t":219110,"type":"note_off","id":2236,"ch":0,"note":79}
{"t":219142,"type":"note_on","id":2238,"ch":0,"note":74,"vel":0.8}
{"t":219149,"type":"note_off","id":2223,"ch":0,"note":38}
{"t":219206,"type":"note_on","id":2239,"ch":0,"note":54,"vel":0.8}
{"t":219206,"type":"note_on","id":2240,"ch":0,"note":86,"vel":0.8}
{"t":219206,"type":"note_on","id":2241,"ch":0,"note":101,"vel":0.8}
{"t":219206,"type":"note_on","id":2242,"ch":0,"note":106,"vel":0.8}
{"t":219206,"type":"note_on","id":2243,"ch":0,"note":48,"vel":0.8}
{"t":219207,"type":"note_on","id":2244,"ch":0,"note":65,"vel":0.8}
{"t":219214,"type":"note_off","id":2238,"ch":0,"note":74}
{"t":219231,"type":"note_off","id":2241,"ch":0,"note":101}
{"t":219262,"type":"note_on","id":2245,"ch":0,"note":94,"vel":0.8}
{"t":219294,"type":"note_off","id":2245,"ch":0,"note":94}
{"t":219327,"type":"note_on","id":2246,"ch":0,"note":61,"vel":0.8}
{"t":219327,"type":"note_on","id":2247,"ch":0,"note":76,"vel":0.8}
{"t":219327,"type":"note_on","id":2248,"ch":0,"note":89,"vel":0.8}
{"t":219327,"type":"note_on","id":2249,"ch":0,"note":97,"vel":0.8}
{"t":219327,"type":"note_on","id":2250,"ch":0,"note":41,"vel":0.8}
{"t":219328,"type":"note_on","id":2251,"ch":0,"note":92,"vel":0.8}
{"t":219333,"type":"note_off","id":2239,"ch":0,"note":54}
{"t":219334,"type":"note_off","id":2242,"ch":0,"note":106}
{"t":219334,"type":"note_off","id":2243,"ch":0,"note":48}
{"t":219334,"type":"note_off","id":2244,"ch":0,"note":65}
{"t":219358,"type":"note_off","id":2251,"ch":0,"note":92}
{"t":219389,"type":"note_on","id":2252,"ch":0,"note":53,"vel":0.8}
{"t":219390,"type":"note_on","id":2253,"ch":0,"note":83,"vel":0.8}
{"t":219398,"type":"note_off","id":2227,"ch":0,"note":82}
{"t":219399,"type":"note_off","id":2240,"ch":0,"note":86}
{"t":219422,"type":"note_off","id":2252,"ch":0,"note":53}
{"t":219422,"type":"note_off","id":2253,"ch":0,"note":83}
{"t":219454,"type":"note_on","id":2254,"ch":0,"note":96,"vel":0.8}
{"t":219454,"type":"note_on","id":2255,"ch":0,"note":35,"vel":0.8}
{"t":219462,"type":"note_off","id":2199,"ch":0,"note":66}
{"t":219462,"type":"note_off","id":2233,"ch":0,"note":77}
{"t":219463,"type":"note_off","id":2246,"ch":0,"note":61}
{"t":219463,"type":"note_off","id":2247,"ch":0,"note":76}
{"t":219463,"type":"note_off","id":2248,"ch":0,"note":89}
{"t":219464,"type":"note_off","id":2249,"ch":0,"note":97}
{"t":219464,"type":"note_off","id":2250,"ch":0,"note":41}
{"t":219519,"type":"note_on","id":2256,"ch":0,"note":43,"vel":0.8}
{"t":219519,"type":"note_on","id":2257,"ch":0,"note":60,"vel":0.8}
{"t":219527,"type":"note_off","id":2254,"ch":0,"note":96}
{"t":219542,"type":"note_off","id":2256,"ch":0,"note":43}
{"t":219542,"type":"note_off","id":2257,"ch":0,"note":60}
{"t":219574,"type":"note_on","id":2258,"ch":0,"note":61,"vel":0.8}
{"t":219574,"type":"note_on","id":2259,"ch":0,"note":48,"vel":0.8}
{"t":219575,"type":"note_on","id":2260,"ch":0,"note":39,"vel":0.8}
{"t":219589,"type":"note_off","id":2255,"ch":0,"note":35}
{"t":219605,"type":"note_off","id":2259,"ch":0,"note":48}
{"t":219703,"type":"note_on","id":2261,"ch":0,"note":86,"vel":0.8}
{"t":219703,"type":"note_on","id":2262,"ch":0,"note":79,"vel":0.8}
{"t":219703,"type":"note_on","id":2263,"ch":0,"note":69,"vel":0.8}
{"t":219703,"type":"note_on","id":2264,"ch":0,"note":55,"vel":0.8}
{"t":219710,"type":"note_off","id":2258,"ch":0,"note":61}
{"t":219710,"type":"note_off","id":2260,"ch":0,"note":39}
{"t":219734,"type":"note_off","id":2263,"ch":0,"note":69}
{"t":219774,"type":"note_off","id":2235,"ch":0,"note":80}
{"t":219774,"type":"note_off","id":2261,"ch":0,"note":86}
{"t":219775,"type":"note_off","id":2262,"ch":0,"note":79}
{"t":219775,"type":"note_off","id":2264,"ch":0,"note":55}
{"t":219894,"type":"note_on","id":2265,"ch":0,"note":77,"vel":0.8}
{"t":219894,"type":"note_on","id":2266,"ch":0,"note":53,"vel":0.8}
{"t":219894,"type":"note_on","id":2267,"ch":0,"note":45,"vel":0.8}
{"t":219926,"type":"note_off","id":2266,"ch":0,"note":53}
{"t":220022,"type":"note_on","id":2268,"ch":0,"note":69,"vel":0.8}
{"t":220022,"type":"note_on","id":2269,"ch":0,"note":71,"vel":0.8}
{"t":220022,"type":"note_on","id":2270,"ch":0,"note":74,"vel":0.8}
{"t":220022,"type":"note_on","id":2271,"ch":0,"note":94,"vel":0.8}
{"t":220023,"type":"note_on","id":2272,"ch":0,"note":50,"vel":0.8}
{"t":220023,"type":"note_on","id":2273,"ch":0,"note":62,"vel":0.8}
{"t":220024,"type":"note_on","id":2274,"ch":0,"note":39,"vel":0.8}
{"t":220030,"type":"note_off","id":2265,"ch":0,"note":77}
{"t":220030,"type":"note_off","id":2267,"ch":0,"note":45}
{"t":220047,"type":"note_off","id":2272,"ch":0,"note":50}
{"t":220142,"type":"note_on","id":2275,"ch":0,"note":66,"vel":0.8}
{"t":220143,"type":"note_on","id":2276,"ch":0,"note":67,"vel":0.8}
{"t":220143,"type":"note_on","id":2277,"ch":0,"note":82,"vel":0.8}
{"t":220143,"type":"note_on","id":2278,"ch":0,"note":100,"vel":0.8}
{"t":220143,"type":"note_on","id":2279,"ch":0,"note":89,"vel":0.8}
{"t":220143,"type":"note_on","id":2280,"ch":0,"note":58,"vel":0.8}
{"t":220143,"type":"note_on","id":2281,"ch":0,"note":35,"vel":0.8}
{"t":220151,"type":"note_off","id":2268,"ch":0,"note":69}
{"t":220151,"type":"note_off","id":2269,"ch":0,"note":71}
{"t":220151,"type":"note_off","id":2270,"ch":0,"note":74}
{"t":220151,"type":"note_off","id":2271,"ch":0,"note":94}
{"t":220152,"type":"note_off","id":2273,"ch":0,"note":62}
{"t":220152,"type":"note_off","id":2274,"ch":0,"note":39}
{"t":220174,"type":"note_off","id":2278,"ch":0,"note":100}
{"t":220206,"type":"note_on","id":2282,"ch":0,"note":102,"vel":0.8}
{"t":220206,"type":"note_on","id":2283,"ch":0,"note":50,"vel":0.8}
{"t":220239,"type":"note_off","id":2282,"ch":0,"note":102}
{"t":220271,"type":"note_on","id":2284,"ch":0,"note":43,"vel":0.8}
{"t":220271,"type":"note_on","id":2285,"ch":0,"note":86,"vel":0.8}
{"t":220271,"type":"note_on","id":2286,"ch":0,"note":59,"vel":0.8}
{"t":220272,"type":"note_on","id":2287,"ch":0,"note":106,"vel":0.8}
{"t":220278,"type":"note_off","id":2276,"ch":0,"note":67}
{"t":220278,"type":"note_off","id":2279,"ch":0,"note":89}
{"t":220278,"type":"note_off","id":2280,"ch":0,"note":58}
{"t":220279,"type":"note_off","id":2281,"ch":0,"note":35}
{"t":220294,"type":"note_off","id":2285,"ch":0,"note":86}
{"t":220327,"type":"note_on","id":2288,"ch":0,"note":45,"vel":0.8}
{"t":220390,"type":"note_on","id":2289,"ch":0,"note":95,"vel":0.8}
{"t":220390,"type":"note_on","id":2290,"ch":0,"note":100,"vel":0.8}
{"t":220406,"type":"note_off","id":2287,"ch":0,"note":106}
{"t":220462,"type":"note_off","id":2275,"ch":0,"note":66}
{"t":220462,"type":"note_off","id":2277,"ch":0,"note":82}
{"t":220462,"type":"note_off","id":2283,"ch":0,"note":50}
{"t":220462,"type":"note_off","id":2284,"ch":0,"note":43}
{"t":220462,"type":"note_off","id":2286,"ch":0,"note":59}
{"t":220463,"type":"note_off","id":2288,"ch":0,"note":45}
{"t":220463,"type":"note_off","id":2289,"ch":0,"note":95}
{"t":220464,"type":"note_off","id":2290,"ch":0,"note":100}
{"t":243799,"type":"note_on","id":2291,"ch":0,"note":77,"vel":0.8}
{"t":243799,"type":"note_on","id":2292,"ch":0,"note":53,"vel":0.8}
{"t":243799,"type":"note_on","id":2293,"ch":0,"note":45,"vel":0.8}
{"t":243830,"type":"note_off","id":2292,"ch":0,"note":53}
{"t":243927,"type":"note_on","id":2294,"ch":0,"note":69,"vel":0.8}
{"t":243927,"type":"note_on","id":2295,"ch":0,"note":71,"vel":0.8}
{"t":243927,"type":"note_on","id":2296,"ch":0,"note":74,"vel":0.8}
{"t":243927,"type":"note_on","id":2297,"ch":0,"note":94,"vel":0.8}
{"t":243928,"type":"note_on","id":2298,"ch":0,"note":50,"vel":0.8}
{"t":243928,"type":"note_on","id":2299,"ch":0,"note":62,"vel":0.8}
{"t":243928,"type":"note_on","id":2300,"ch":0,"note":39,"vel":0.8}
{"t":243933,"type":"note_off","id":2291,"ch":0,"note":77}
{"t":243934,"type":"note_off","id":2293,"ch":0,"note":45}
{"t":243950,"type":"note_off","id":2298,"ch":0,"note":50}
{"t":244046,"type":"note_on","id":2301,"ch":0,"note":66,"vel":0.8}
{"t":244047,"type":"note_on","id":2302,"ch":0,"note":67,"vel":0.8}
{"t":244047,"type":"note_on","id":2303,"ch":0,"note":82,"vel":0.8}
{"t":244047,"type":"note_on","id":2304,"ch":0,"note":100,"vel":0.8}
{"t":244047,"type":"note_on","id":2305,"ch":0,"note":89,"vel":0.8}
{"t":244048,"type":"note_on","id":2306,"ch":0,"note":58,"vel":0.8}
{"t":244048,"type":"note_on","id":2307,"ch":0,"note":35,"vel":0.8}
{"t":244055,"type":"note_off","id":2294,"ch":0,"note":69}
{"t":244056,"type":"note_off","id":2295,"ch":0,"note":71}
{"t":244056,"type":"note_off","id":2296,"ch":0,"note":74}
{"t":244056,"type":"note_off","id":2297,"ch":0,"note":94}
{"t":244056,"type":"note_off","id":2299,"ch":0,"note":62}
{"t":244057,"type":"note_off","id":2300,"ch":0,"note":39}
{"t":244078,"type":"note_off","id":2304,"ch":0,"note":100}
{"t":244110,"type":"note_on","id":2308,"ch":0,"note":102,"vel":0.8}
{"t":244110,"type":"note_on","id":2309,"ch":0,"note":50,"vel":0.8}
{"t":244141,"type":"note_off","id":2308,"ch":0,"note":102}
{"t":244174,"type":"note_on","id":2310,"ch":0,"note":43,"vel":0.8}
{"t":244174,"type":"note_on","id":2311,"ch":0,"note":86,"vel":0.8}
{"t":244174,"type":"note_on","id":2312,"ch":0,"note":59,"vel":0.8}
{"t":244174,"type":"note_on","id":2313,"ch":0,"note":106,"vel":0.8}
{"t":244182,"type":"note_off","id":2302,"ch":0,"note":67}
{"t":244182,"type":"note_off","id":2305,"ch":0,"note":89}
{"t":244182,"type":"note_off","id":2306,"ch":0,"note":58}
{"t":244182,"type":"note_off","id":2307,"ch":0,"note":35}
{"t":244198,"type":"note_off","id":2311,"ch":0,"note":86}
{"t":244238,"type":"note_on","id":2314,"ch":0,"note":45,"vel":0.8}
{"t":244294,"type":"note_on","id":2315,"ch":0,"note":95,"vel":0.8}
{"t":244294,"type":"note_on","id":2316,"ch":0,"note":100,"vel":0.8}
{"t":244310,"type":"note_off","id":2313,"ch":0,"note":106}
{"t":244366,"type":"note_off","id":2303,"ch":0,"note":82}
{"t":244423,"type":"note_on","id":2317,"ch":0,"note":57,"vel":0.8}
{"t":244423,"type":"note_on","id":2318,"ch":0,"note":85,"vel":0.8}
{"t":244424,"type":"note_on","id":2319,"ch":0,"note":92,"vel":0.8}
{"t":244424,"type":"note_on","id":2320,"ch":0,"note":53,"vel":0.8}
{"t":244424,"type":"note_on","id":2321,"ch":0,"note":42,"vel":0.8}
{"t":244430,"type":"note_off","id":2310,"ch":0,"note":43}
{"t":244430,"type":"note_off","id":2315,"ch":0,"note":95}
{"t":244430,"type":"note_off","id":2316,"ch":0,"note":100}
{"t":244455,"type":"note_off","id":2319,"ch":0,"note":92}
{"t":244455,"type":"note_off","id":2321,"ch":0,"note":42}
{"t":244486,"type":"note_on","id":2322,"ch":0,"note":92,"vel":0.8}
{"t":244486,"type":"note_on","id":2323,"ch":0,"note":101,"vel":0.8}
{"t":244518,"type":"note_off","id":2322,"ch":0,"note":92}
{"t":244519,"type":"note_off","id":2323,"ch":0,"note":101}
{"t":244550,"type":"note_on","id":2324,"ch":0,"note":59,"vel":0.8}
{"t":244551,"type":"note_on","id":2325,"ch":0,"note":38,"vel":0.8}
{"t":244551,"type":"note_on","id":2326,"ch":0,"note":97,"vel":0.8}
{"t":244551,"type":"note_on","id":2327,"ch":0,"note":46,"vel":0.8}
{"t":244552,"type":"note_on","id":2328,"ch":0,"note":73,"vel":0.8}
{"t":244552,"type":"note_on","id":2329,"ch":0,"note":82,"vel":0.8}
{"t":244552,"type":"note_on","id":2330,"ch":0,"note":87,"vel":0.8}
{"t":244558,"type":"note_off","id":2314,"ch":0,"note":45}
{"t":244558,"type":"note_off","id":2317,"ch":0,"note":57}
{"t":244559,"type":"note_off","id":2318,"ch":0,"note":85}
{"t":244559,"type":"note_off","id":2320,"ch":0,"note":53}
{"t":244574,"type":"note_off","id":2327,"ch":0,"note":46}
{"t":244574,"type":"note_off","id":2328,"ch":0,"note":73}
{"t":244606,"type":"note_on","id":2331,"ch":0,"note":79,"vel":0.8}
{"t":244638,"type":"note_off","id":2331,"ch":0,"note":79}
{"t":244670,"type":"note_on","id":2332,"ch":0,"note":58,"vel":0.8}
{"t":244670,"type":"note_on","id":2333,"ch":0,"note":92,"vel":0.8}
{"t":244671,"type":"note_on","id":2334,"ch":0,"note":35,"vel":0.8}
{"t":244671,"type":"note_on","id":2335,"ch":0,"note":77,"vel":0.8}
{"t":244671,"type":"note_on","id":2336,"ch":0,"note":93,"vel":0.8}
{"t":244686,"type":"note_off","id":2324,"ch":0,"note":59}
{"t":244686,"type":"note_off","id":2326,"ch":0,"note":97}
{"t":244687,"type":"note_off","id":2330,"ch":0,"note":87}
{"t":244702,"type":"note_off","id":2333,"ch":0,"note":92}
{"t":244735,"type":"note_on","id":2337,"ch":0,"note":80,"vel":0.8}
{"t":244798,"type":"note_on","id":2338,"ch":0,"note":79,"vel":0.8}
{"t":244806,"type":"note_off","id":2309,"ch":0,"note":50}
{"t":244806,"type":"note_off","id":2339,"ch":0,"note":59}
{"t":244807,"type":"note_off","id":2332,"ch":0,"note":58}
{"t":244807,"type":"note_off","id":2334,"ch":0,"note":35}
{"t":244807,"type":"note_off","id":2336,"ch":0,"note":93}
{"t":244831,"type":"note_off","id":2338,"ch":0,"note":79}
{"t":244862,"type":"note_on","id":2340,"ch":0,"note":74,"vel":0.8}
{"t":244870,"type":"note_off","id":2325,"ch":0,"note":38}
{"t":244919,"type":"note_on","id":2341,"ch":0,"note":54,"vel":0.8}
{"t":244919,"type":"note_on","id":2342,"ch":0,"note":86,"vel":0.8}
{"t":244919,"type":"note_on","id":2343,"ch":0,"note":101,"vel":0.8}
{"t":244919,"type":"note_on","id":2344,"ch":0,"note":106,"vel":0.8}
{"t":244920,"type":"note_on","id":2345,"ch":0,"note":48,"vel":0.8}
{"t":244920,"type":"note_on","id":2346,"ch":0,"note":65,"vel":0.8}
{"t":244935,"type":"note_off","id":2340,"ch":0,"note":74}
{"t":244950,"type":"note_off","id":2343,"ch":0,"note":101}
{"t":244983,"type":"note_on","id":2347,"ch":0,"note":94,"vel":0.8}
{"t":245014,"type":"note_off","id":2347,"ch":0,"note":94}
{"t":245046,"type":"note_on","id":2348,"ch":0,"note":61,"vel":0.8}
{"t":245046,"type":"note_on","id":2349,"ch":0,"note":76,"vel":0.8}
{"t":245046,"type":"note_on","id":2350,"ch":0,"note":89,"vel":0.8}
{"t":245046,"type":"note_on","id":2351,"ch":0,"note":97,"vel":0.8}
{"t":245046,"type":"note_on","id":2352,"ch":0,"note":41,"vel":0.8}
{"t":245047,"type":"note_on","id":2353,"ch":0,"note":92,"vel":0.8}
{"t":245055,"type":"note_off","id":2341,"ch":0,"note":54}
{"t":245056,"type":"note_off","id":2344,"ch":0,"note":106}
{"t":245056,"type":"note_off","id":2345,"ch":0,"note":48}
{"t":245056,"type":"note_off","id":2346,"ch":0,"note":65}
{"t":245078,"type":"note_off","id":2353,"ch":0,"note":92}
{"t":245110,"type":"note_on","id":2354,"ch":0,"note":53,"vel":0.8}
{"t":245110,"type":"note_on","id":2355,"ch":0,"note":83,"vel":0.8}
{"t":245119,"type":"note_off","id":2329,"ch":0,"note":82}
{"t":245119,"type":"note_off","id":2342,"ch":0,"note":86}
{"t":245141,"type":"note_off","id":2354,"ch":0,"note":53}
{"t":245142,"type":"note_off","id":2355,"ch":0,"note":83}
{"t":245174,"type":"note_on","id":2356,"ch":0,"note":96,"vel":0.8}
{"t":245174,"type":"note_on","id":2357,"ch":0,"note":35,"vel":0.8}
{"t":245182,"type":"note_off","id":2301,"ch":0,"note":66}
{"t":245182,"type":"note_off","id":2335,"ch":0,"note":77}
{"t":245182,"type":"note_off","id":2348,"ch":0,"note":61}
{"t":245182,"type":"note_off","id":2349,"ch":0,"note":76}
{"t":245183,"type":"note_off","id":2350,"ch":0,"note":89}
{"t":245183,"type":"note_off","id":2351,"ch":0,"note":97}
{"t":245183,"type":"note_off","id":2352,"ch":0,"note":41}
{"t":245238,"type":"note_on","id":2358,"ch":0,"note":43,"vel":0.8}
{"t":245238,"type":"note_on","id":2359,"ch":0,"note":60,"vel":0.8}
{"t":245246,"type":"note_off","id":2356,"ch":0,"note":96}
{"t":245262,"type":"note_off","id":2358,"ch":0,"note":43}
{"t":245262,"type":"note_off","id":2359,"ch":0,"note":60}
{"t":245294,"type":"note_on","id":2360,"ch":0,"note":61,"vel":0.8}
{"t":245294,"type":"note_on","id":2361,"ch":0,"note":48,"vel":0.8}
{"t":245294,"type":"note_on","id":2362,"ch":0,"note":39,"vel":0.8}
{"t":245310,"type":"note_off","id":2357,"ch":0,"note":35}
{"t":245326,"type":"note_off","id":2361,"ch":0,"note":48}
{"t":245422,"type":"note_on","id":2363,"ch":0,"note":86,"vel":0.8}
{"t":245423,"type":"note_on","id":2364,"ch":0,"note":79,"vel":0.8}
{"t":245423,"type":"note_on","id":2365,"ch":0,"note":69,"vel":0.8}
{"t":245423,"type":"note_on","id":2366,"ch":0,"note":55,"vel":0.8}
{"t":245429,"type":"note_off","id":2360,"ch":0,"note":61}
{"t":245430,"type":"note_off","id":2362,"ch":0,"note":39}
{"t":245454,"type":"note_off","id":2365,"ch":0,"note":69}
{"t":245558,"type":"note_off","id":2363,"ch":0,"note":86}
{"t":245558,"type":"note_off","id":2364,"ch":0,"note":79}
{"t":245558,"type":"note_off","id":2366,"ch":0,"note":55}
{"t":245661,"type":"note_off","id":2337,"ch":0,"note":80}
{"t":277213,"type":"note_on","id":2367,"ch":0,"note":48,"vel":0.85}
{"t":277301,"type":"note_off","id":2367,"ch":0,"note":48}
{"t":277621,"type":"note_on","id":2368,"ch":0,"note":48,"vel":0.85}
{"t":277732,"type":"note_off","id":2368,"ch":0,"note":48}
{"t":277965,"type":"note_on","id":2369,"ch":0,"note":48,"vel":0.85}
{"t":278085,"type":"note_off","id":2369,"ch":0,"note":48}
{"t":278301,"type":"note_on","id":2370,"ch":0,"note":48,"vel":0.85}
{"t":278405,"type":"note_off","id":2370,"ch":0,"note":48}
{"t":278645,"type":"note_on","id":2371,"ch":0,"note":48,"vel":0.85}
{"t":278796,"type":"note_off","id":2371,"ch":0,"note":48}
{"t":279309,"type":"note_on","id":2372,"ch":0,"note":48,"vel":0.85}
{"t":279516,"type":"note_off","id":2372,"ch":0,"note":48}
{"t":279676,"type":"note_on","id":2373,"ch":0,"note":48,"vel":0.85}
{"t":279732,"type":"note_off","id":2373,"ch":0,"note":48}
{"t":279804,"type":"note_on","id":2374,"ch":0,"note":48,"vel":0.85}
{"t":279876,"type":"note_off","id":2374,"ch":0,"note":48}
{"t":279940,"type":"note_on","id":2375,"ch":0,"note":48,"vel":0.85}
{"t":280013,"type":"note_off","id":2375,"ch":0,"note":48}
{"t":280076,"type":"note_on","id":2376,"ch":0,"note":48,"vel":0.85}
{"t":280157,"type":"note_off","id":2376,"ch":0,"note":48}
{"t":280221,"type":"note_on","id":2377,"ch":0,"note":48,"vel":0.85}
{"t":280317,"type":"note_off","id":2377,"ch":0,"note":48}
{"t":362139,"type":"note_on","id":2378,"ch":0,"note":48,"vel":0.85}
{"t":362555,"type":"note_off","id":2378,"ch":0,"note":48}
{"t":363595,"type":"note_on","id":2379,"ch":0,"note":48,"vel":0.85}
{"t":363602,"type":"note_on","id":2380,"ch":0,"note":52,"vel":0.85}
{"t":363946,"type":"note_off","id":2379,"ch":0,"note":48}
{"t":363954,"type":"note_off","id":2380,"ch":0,"note":52}
{"t":364371,"type":"note_on","id":2381,"ch":0,"note":48,"vel":0.85}
{"t":364387,"type":"note_on","id":2382,"ch":0,"note":55,"vel":0.85}
{"t":364778,"type":"note_off","id":2381,"ch":0,"note":48}
{"t":364794,"type":"note_off","id":2382,"ch":0,"note":55}
{"t":365179,"type":"note_on","id":2383,"ch":0,"note":48,"vel":0.85}
{"t":365194,"type":"note_on","id":2384,"ch":0,"note":53,"vel":0.85}
{"t":365650,"type":"note_off","id":2383,"ch":0,"note":48}
{"t":365722,"type":"note_off","id":2384,"ch":0,"note":53}
{"t":366051,"type":"note_on","id":2385,"ch":0,"note":48,"vel":0.85}
{"t":366058,"type":"note_on","id":2386,"ch":0,"note":55,"vel":0.85}
{"t":366362,"type":"note_off","id":2385,"ch":0,"note":48}
{"t":366370,"type":"note_off","id":2386,"ch":0,"note":55}
{"t":366506,"type":"note_on","id":2387,"ch":0,"note":48,"vel":0.85}
{"t":366514,"type":"note_on","id":2388,"ch":0,"note":57,"vel":0.85}
{"t":366914,"type":"note_off","id":2387,"ch":0,"note":48}
{"t":366922,"type":"note_off","id":2388,"ch":0,"note":57}
{"t":367139,"type":"note_on","id":2389,"ch":0,"note":59,"vel":0.85}
{"t":367147,"type":"note_on","id":2390,"ch":0,"note":48,"vel":0.85}
{"t":367483,"type":"note_off","id":2390,"ch":0,"note":48}
{"t":367546,"type":"note_off","id":2389,"ch":0,"note":59}
{"t":367658,"type":"note_on","id":2391,"ch":0,"note":48,"vel":0.85}
{"t":367707,"type":"note_on","id":2392,"ch":0,"note":60,"vel":0.85}
{"t":367947,"type":"note_off","id":2392,"ch":0,"note":60}
{"t":367962,"type":"note_off","id":2391,"ch":0,"note":48}
{"t":368067,"type":"note_on","id":2393,"ch":0,"note":48,"vel":0.85}
{"t":368091,"type":"note_on","id":2394,"ch":0,"note":60,"vel":0.85}
{"t":368178,"type":"note_off","id":2393,"ch":0,"note":48}
{"t":368202,"type":"note_off","id":2394,"ch":0,"note":60}
{"t":368259,"type":"note_on","id":2395,"ch":0,"note":60,"vel":0.85}
{"t":368274,"type":"note_on","id":2396,"ch":0,"note":48,"vel":0.85}
{"t":368363,"type":"note_off","id":2396,"ch":0,"note":48}
{"t":368378,"type":"note_off","id":2395,"ch":0,"note":60}
{"t":368451,"type":"note_on","id":2397,"ch":0,"note":48,"vel":0.85}
{"t":368458,"type":"note_on","id":2398,"ch":0,"note":60,"vel":0.85}
{"t":368523,"type":"note_off","id":2398,"ch":0,"note":60}
{"t":368531,"type":"note_off","id":2397,"ch":0,"note":48}
{"t":368610,"type":"note_on","id":2399,"ch":0,"note":60,"vel":0.85}
{"t":368611,"type":"note_on","id":2400,"ch":0,"note":48,"vel":0.85}
{"t":368674,"type":"note_off","id":2399,"ch":0,"note":60}
{"t":368682,"type":"note_off","id":2400,"ch":0,"note":48}
{"t":368755,"type":"note_on","id":2401,"ch":0,"note":60,"vel":0.85}
{"t":368755,"type":"note_on","id":2402,"ch":0,"note":48,"vel":0.85}
{"t":368826,"type":"note_off","id":2401,"ch":0,"note":60}
{"t":368867,"type":"note_off","id":2402,"ch":0,"note":48}
{"t":368898,"type":"note_on","id":2403,"ch":0,"note":48,"vel":0.85}
{"t":368906,"type":"note_on","id":2404,"ch":0,"note":60,"vel":0.85}
{"t":368986,"type":"note_off","id":2404,"ch":0,"note":60}
{"t":368994,"type":"note_off","id":2403,"ch":0,"note":48}
{"t":369075,"type":"note_on","id":2405,"ch":0,"note":60,"vel":0.85}
{"t":369082,"type":"note_on","id":2406,"ch":0,"note":48,"vel":0.85}
{"t":369203,"type":"note_off","id":2405,"ch":0,"note":60}
{"t":369219,"type":"note_off","id":2406,"ch":0,"note":48}
{"t":369554,"type":"note_on","id":2407,"ch":0,"note":48,"vel":0.85}
{"t":369562,"type":"note_on","id":2408,"ch":0,"note":57,"vel":0.85}
{"t":369683,"type":"note_off","id":2408,"ch":0,"note":57}
{"t":369690,"type":"note_off","id":2407,"ch":0,"note":48}
{"t":369859,"type":"note_on","id":2409,"ch":0,"note":48,"vel":0.85}
{"t":369954,"type":"note_off","id":2409,"ch":0,"note":48}
{"t":370075,"type":"note_on","id":2410,"ch":0,"note":48,"vel":0.85}
{"t":370082,"type":"note_on","id":2411,"ch":0,"note":57,"vel":0.85}
{"t":370122,"type":"note_off","id":2410,"ch":0,"note":48}
{"t":370130,"type":"note_off","id":2411,"ch":0,"note":57}
{"t":370243,"type":"note_on","id":2412,"ch":0,"note":57,"vel":0.85}
{"t":370243,"type":"note_on","id":2413,"ch":0,"note":48,"vel":0.85}
{"t":370306,"type":"note_off","id":2412,"ch":0,"note":57}
{"t":370314,"type":"note_off","id":2413,"ch":0,"note":48}
{"t":370395,"type":"note_on","id":2414,"ch":0,"note":57,"vel":0.85}
{"t":370402,"type":"note_on","id":2415,"ch":0,"note":48,"vel":0.85}
{"t":370466,"type":"note_off","id":2414,"ch":0,"note":57}
{"t":370474,"type":"note_off","id":2415,"ch":0,"note":48}
{"t":370546,"type":"note_on","id":2416,"ch":0,"note":57,"vel":0.85}
{"t":370562,"type":"note_on","id":2417,"ch":0,"note":48,"vel":0.85}
{"t":370626,"type":"note_off","id":2416,"ch":0,"note":57}
{"t":370650,"type":"note_off","id":2417,"ch":0,"note":48}
{"t":370698,"type":"note_on","id":2418,"ch":0,"note":48,"vel":0.85}
{"t":370706,"type":"note_on","id":2419,"ch":0,"note":57,"vel":0.85}
{"t":370794,"type":"note_off","id":2419,"ch":0,"note":57}
{"t":370827,"type":"note_off","id":2418,"ch":0,"note":48}
{"t":370947,"type":"note_on","id":2420,"ch":0,"note":55,"vel":0.85}
{"t":370954,"type":"note_on","id":2421,"ch":0,"note":48,"vel":0.85}
{"t":371074,"type":"note_off","id":2420,"ch":0,"note":55}
{"t":371082,"type":"note_off","id":2421,"ch":0,"note":48}
{"t":371179,"type":"note_on","id":2422,"ch":0,"note":55,"vel":0.85}
{"t":371194,"type":"note_on","id":2423,"ch":0,"note":48,"vel":0.85}
{"t":371258,"type":"note_off","id":2422,"ch":0,"note":55}
{"t":371266,"type":"note_off","id":2423,"ch":0,"note":48}
{"t":371355,"type":"note_on","id":2424,"ch":0,"note":55,"vel":0.85}
{"t":371370,"type":"note_on","id":2425,"ch":0,"note":48,"vel":0.85}
{"t":371442,"type":"note_off","id":2425,"ch":0,"note":48}
{"t":371450,"type":"note_off","id":2424,"ch":0,"note":55}
{"t":371579,"type":"note_on","id":2426,"ch":0,"note":48,"vel":0.85}
{"t":371602,"type":"note_on","id":2427,"ch":0,"note":53,"vel":0.85}
{"t":371690,"type":"note_off","id":2427,"ch":0,"note":53}
{"t":371707,"type":"note_off","id":2426,"ch":0,"note":48}
{"t":371818,"type":"note_on","id":2428,"ch":0,"note":53,"vel":0.85}
{"t":371819,"type":"note_on","id":2429,"ch":0,"note":48,"vel":0.85}
{"t":371890,"type":"note_off","id":2429,"ch":0,"note":48}
{"t":371898,"type":"note_off","id":2428,"ch":0,"note":53}
{"t":371986,"type":"note_on","id":2430,"ch":0,"note":53,"vel":0.85}
{"t":372002,"type":"note_on","id":2431,"ch":0,"note":48,"vel":0.85}
{"t":372058,"type":"note_off","id":2431,"ch":0,"note":48}
{"t":372066,"type":"note_off","id":2430,"ch":0,"note":53}
{"t":372163,"type":"note_on","id":2432,"ch":0,"note":48,"vel":0.85}
{"t":372170,"type":"note_on","id":2433,"ch":0,"note":53,"vel":0.85}
{"t":372235,"type":"note_off","id":2432,"ch":0,"note":48}
{"t":372235,"type":"note_off","id":2433,"ch":0,"note":53}
{"t":372323,"type":"note_on","id":2434,"ch":0,"note":53,"vel":0.85}
{"t":372338,"type":"note_on","id":2435,"ch":0,"note":48,"vel":0.85}
{"t":372403,"type":"note_off","id":2434,"ch":0,"note":53}
{"t":372410,"type":"note_off","id":2435,"ch":0,"note":48}
{"t":372498,"type":"note_on","id":2436,"ch":0,"note":53,"vel":0.85}
{"t":372506,"type":"note_on","id":2437,"ch":0,"note":48,"vel":0.85}
{"t":372570,"type":"note_off","id":2437,"ch":0,"note":48}
{"t":372578,"type":"note_off","id":2436,"ch":0,"note":53}
{"t":372658,"type":"note_on","id":2438,"ch":0,"note":53,"vel":0.85}
{"t":372666,"type":"note_on","id":2439,"ch":0,"note":48,"vel":0.85}
{"t":372738,"type":"note_off","id":2438,"ch":0,"note":53}
{"t":372746,"type":"note_off","id":2439,"ch":0,"note":48}
{"t":372835,"type":"note_on","id":2440,"ch":0,"note":53,"vel":0.85}
{"t":372842,"type":"note_on","id":2441,"ch":0,"note":48,"vel":0.85}
{"t":372922,"type":"note_off","id":2441,"ch":0,"note":48}
{"t":372930,"type":"note_off","id":2440,"ch":0,"note":53}
{"t":373034,"type":"note_on","id":2442,"ch":0,"note":48,"vel":0.85}
{"t":373042,"type":"note_on","id":2443,"ch":0,"note":53,"vel":0.85}
{"t":373098,"type":"note_off","id":2443,"ch":0,"note":53}
{"t":373106,"type":"note_off","id":2442,"ch":0,"note":48}
{"t":373213,"type":"note_on","id":2444,"ch":0,"note":48,"vel":0.85}
{"t":373218,"type":"note_on","id":2445,"ch":0,"note":53,"vel":0.85}
{"t":373282,"type":"note_off","id":2445,"ch":0,"note":53}
{"t":373298,"type":"note_off","id":2444,"ch":0,"note":48}
{"t":373394,"type":"note_on","id":2446,"ch":0,"note":48,"vel":0.85}
{"t":373402,"type":"note_on","id":2447,"ch":0,"note":53,"vel":0.85}
{"t":373482,"type":"note_off","id":2447,"ch":0,"note":53}
{"t":373490,"type":"note_off","id":2446,"ch":0,"note":48}
{"t":373602,"type":"note_on","id":2448,"ch":0,"note":53,"vel":0.85}
{"t":373610,"type":"note_on","id":2449,"ch":0,"note":48,"vel":0.85}
{"t":373706,"type":"note_off","id":2448,"ch":0,"note":53}
{"t":373714,"type":"note_off","id":2449,"ch":0,"note":48}
{"t":374019,"type":"note_on","id":2450,"ch":0,"note":48,"vel":0.85}
{"t":374034,"type":"note_on","id":2451,"ch":0,"note":53,"vel":0.85}
{"t":374130,"type":"note_off","id":2451,"ch":0,"note":53}
{"t":374178,"type":"note_off","id":2450,"ch":0,"note":48}
{"t":374395,"type":"note_on","id":2452,"ch":0,"note":48,"vel":0.85}
{"t":374402,"type":"note_on","id":2453,"ch":0,"note":53,"vel":0.85}
{"t":374506,"type":"note_off","id":2453,"ch":0,"note":53}
{"t":374522,"type":"note_off","id":2452,"ch":0,"note":48}
{"t":374755,"type":"note_on","id":2454,"ch":0,"note":48,"vel":0.85}
{"t":374778,"type":"note_on","id":2455,"ch":0,"note":53,"vel":0.85}
{"t":374850,"type":"note_off","id":2455,"ch":0,"note":53}
{"t":374867,"type":"note_off","id":2454,"ch":0,"note":48}
{"t":374986,"type":"note_on","id":2456,"ch":0,"note":53,"vel":0.85}
{"t":374994,"type":"note_on","id":2457,"ch":0,"note":48,"vel":0.85}
{"t":375090,"type":"note_off","id":2456,"ch":0,"note":53}
{"t":375122,"type":"note_off","id":2457,"ch":0,"note":48}
{"t":375705,"type":"patch_load","name":"ANNOYING_ORANGE","patch":{"osc1_wave":0.0,"osc1_detune":0.0,"osc1_level":0.79629624,"osc2_wave":0.0,"osc2_detune":0.3703732,"osc2_level":0.0,"osc2_octave":0.0,"sub_level":0.0,"noise_level":0.0,"filter_cutoff":0.92592597,"filter_resonance":1.0,"filter_env_amount":1.0,"filter_drive":1.0,"filter_keytrack":0.39629635,"amp_a":0.005,"amp_d":0.2,"amp_s":0.8,"amp_r":0.021347633,"fenv_a":0.053238284,"fenv_d":0.02476536,"fenv_s":0.0,"fenv_r":2.4341266,"lfo_rate":0.49159485,"lfo_to_cutoff":0.0,"lfo_to_pitch":0.0,"master_volume":0.3296297,"master_drive":1.0,"glide":0.2703703,"mono":1.0,"chord_type":0.0,"arp_enabled":0.0,"arp_pattern":0.0,"arp_rate":0.0,"arp_gate":0.0,"arp_octaves":0.0,"dist_enabled":1.0,"dist_type":2.0,"dist_drive":1.0,"dist_tone":1.0,"dist_mix":1.0,"comp_enabled":1.0,"comp_xover_low":0.0,"comp_xover_high":1000.0,"comp_threshold":0.0,"comp_ratio":20.0,"comp_attack":0.0001,"comp_release":1.0,"comp_gain_low":-12.0,"comp_gain_mid":6.1333313,"comp_gain_high":-12.0,"comp_upward_ratio":20.0,"comp_upward_range":2.6645353e-15}}
{"t":376163,"type":"note_on","id":2458,"ch":0,"note":48,"vel":0.85}
{"t":376306,"type":"note_off","id":2458,"ch":0,"note":48}
{"t":376514,"type":"note_on","id":2459,"ch":0,"note":48,"vel":0.85}
{"t":377106,"type":"note_off","id":2459,"ch":0,"note":48}
{"t":377443,"type":"note_on","id":2460,"ch":0,"note":48,"vel":0.85}
{"t":377642,"type":"note_off","id":2460,"ch":0,"note":48}
{"t":377810,"type":"note_on","id":2461,"ch":0,"note":50,"vel":0.85}
{"t":378306,"type":"note_off","id":2461,"ch":0,"note":50}
{"t":378362,"type":"note_on","id":2462,"ch":0,"note":52,"vel":0.85}
{"t":378650,"type":"note_on","id":2463,"ch":0,"note":53,"vel":0.85}
{"t":378706,"type":"note_off","id":2462,"ch":0,"note":52}
{"t":379050,"type":"note_off","id":2463,"ch":0,"note":53}
{"t":379098,"type":"note_on","id":2464,"ch":0,"note":48,"vel":0.85}
{"t":379378,"type":"note_off","id":2464,"ch":0,"note":48}
{"t":379650,"type":"note_on","id":2465,"ch":0,"note":52,"vel":0.85}
{"t":379882,"type":"note_on","id":2466,"ch":0,"note":53,"vel":0.85}
{"t":380090,"type":"note_off","id":2465,"ch":0,"note":52}
{"t":380442,"type":"note_off","id":2466,"ch":0,"note":53}
{"t":380874,"type":"note_on","id":2467,"ch":0,"note":48,"vel":0.85}
{"t":381130,"type":"note_off","id":2467,"ch":0,"note":48}
{"t":381354,"type":"patch_load","name":"BASED_PATCH","patch":{"osc1_wave":0.0,"osc1_detune":-0.06348843,"osc1_level":1.0,"osc2_wave":0.0,"osc2_detune":-0.99470013,"osc2_level":1.0,"osc2_octave":-1.0,"sub_level":1.0,"noise_level":0.0,"filter_cutoff":0.10846549,"filter_resonance":0.22222231,"filter_env_amount":0.9925929,"filter_drive":0.3518519,"filter_keytrack":0.4,"amp_a":0.0030619116,"amp_d":0.3,"amp_s":0.7,"amp_r":6.0,"fenv_a":0.32788685,"fenv_d":0.52519363,"fenv_s":0.5280426,"fenv_r":0.001,"lfo_rate":2.0,"lfo_to_cutoff":0.0,"lfo_to_pitch":0.0,"master_volume":0.1402115,"master_drive":0.73544973,"glide":0.0,"mono":0.0,"chord_type":8.0,"arp_enabled":1.0,"arp_pattern":3.0,"arp_rate":0.52447915,"arp_gate":0.5,"arp_octaves":1.0,"dist_enabled":1.0,"dist_type":0.0,"dist_drive":1.0,"dist_tone":1.0,"dist_mix":1.0,"comp_enabled":0.0,"comp_xover_low":50.0,"comp_xover_high":1000.0,"comp_threshold":-13.492076,"comp_ratio":20.0,"comp_attack":0.0076966714,"comp_release":0.053049784,"comp_gain_low":11.428564,"comp_gain_mid":-3.3333497,"comp_gain_high":-5.166644,"comp_upward_ratio":0.0,"comp_upward_range":0.0}}
{"t":381675,"type":"note_on","id":2468,"ch":0,"note":48,"vel":0.85}
{"t":382082,"type":"note_off","id":2468,"ch":0,"note":48}
{"t":382098,"type":"note_on","id":2469,"ch":0,"note":50,"vel":0.85}
{"t":382379,"type":"note_off","id":2469,"ch":0,"note":50}
{"t":382426,"type":"note_on","id":2470,"ch":0,"note":52,"vel":0.85}
{"t":382659,"type":"note_off","id":2470,"ch":0,"note":52}
{"t":382866,"type":"note_on","id":2471,"ch":0,"note":48,"vel":0.85}
{"t":383842,"type":"note_off","id":2471,"ch":0,"note":48}
{"t":384178,"type":"note_on","id":2472,"ch":0,"note":48,"vel":0.85}
{"t":390250,"type":"note_off","id":2472,"ch":0,"note":48}
{"t":391736,"type":"patch_load","name":"BASED_PATCH2","patch":{"osc1_wave":0.0,"osc1_detune":-0.06348843,"osc1_level":1.0,"osc2_wave":0.0,"osc2_detune":0.32805887,"osc2_level":1.0,"osc2_octave":-1.0,"sub_level":1.0,"noise_level":0.0,"filter_cutoff":0.10846549,"filter_resonance":0.22222231,"filter_env_amount":0.9925929,"filter_drive":0.3518519,"filter_keytrack":0.4,"amp_a":0.0030619116,"amp_d":0.3,"amp_s":0.7,"amp_r":6.0,"fenv_a":0.32788685,"fenv_d":0.52519363,"fenv_s":0.5280426,"fenv_r":0.001,"lfo_rate":2.0,"lfo_to_cutoff":0.0,"lfo_to_pitch":0.0,"master_volume":0.526455,"master_drive":0.73544973,"glide":0.0,"mono":0.0,"chord_type":0.0,"arp_enabled":0.0,"arp_pattern":3.0,"arp_rate":0.52447915,"arp_gate":0.5,"arp_octaves":1.0,"dist_enabled":1.0,"dist_type":0.0,"dist_drive":1.0,"dist_tone":1.0,"dist_mix":1.0,"comp_enabled":0.0,"comp_xover_low":50.0,"comp_xover_high":1000.0,"comp_threshold":-13.492076,"comp_ratio":10.751326,"comp_attack":0.0143556865,"comp_release":0.50526553,"comp_gain_low":11.428564,"comp_gain_mid":-3.3333497,"comp_gain_high":-5.166644,"comp_upward_ratio":0.0,"comp_upward_range":0.0}}
{"t":392074,"type":"note_on","id":2473,"ch":0,"note":48,"vel":0.85}
{"t":392762,"type":"note_off","id":2473,"ch":0,"note":48}
{"t":392952,"type":"patch_load","name":"BASED_PATCH3","patch":{"osc1_wave":0.0,"osc1_detune":-0.06348843,"osc1_level":1.0,"osc2_wave":0.0,"osc2_detune":0.32805887,"osc2_level":1.0,"osc2_octave":-1.0,"sub_level":1.0,"noise_level":0.0,"filter_cutoff":0.10846549,"filter_resonance":0.22222231,"filter_env_amount":0.9925929,"filter_drive":0.3518519,"filter_keytrack":0.4,"amp_a":0.0030619116,"amp_d":0.3,"amp_s":0.7,"amp_r":6.0,"fenv_a":0.32788685,"fenv_d":0.52519363,"fenv_s":0.5280426,"fenv_r":0.001,"lfo_rate":2.0,"lfo_to_cutoff":0.0,"lfo_to_pitch":0.0,"master_volume":0.8121694,"master_drive":0.73544973,"glide":0.01587287,"mono":0.0,"chord_type":9.0,"arp_enabled":0.0,"arp_pattern":3.0,"arp_rate":6.305657,"arp_gate":0.5,"arp_octaves":1.0,"dist_enabled":1.0,"dist_type":0.0,"dist_drive":1.0,"dist_tone":1.0,"dist_mix":1.0,"comp_enabled":0.0,"comp_xover_low":50.0,"comp_xover_high":1000.0,"comp_threshold":-13.492076,"comp_ratio":10.751326,"comp_attack":0.0143556865,"comp_release":0.50526553,"comp_gain_low":11.428564,"comp_gain_mid":-3.3333497,"comp_gain_high":-5.166644,"comp_upward_ratio":0.0,"comp_upward_range":0.0}}
{"t":393138,"type":"note_on","id":2474,"ch":0,"note":48,"vel":0.85}
{"t":393538,"type":"note_off","id":2474,"ch":0,"note":48}
{"t":393800,"type":"patch_load","name":"BASED_PATCH4","patch":{"osc1_wave":0.0,"osc1_detune":-0.06348843,"osc1_level":1.0,"osc2_wave":0.0,"osc2_detune":0.32805887,"osc2_level":1.0,"osc2_octave":-1.0,"sub_level":0.45502624,"noise_level":0.0,"filter_cutoff":0.10846549,"filter_resonance":0.5,"filter_env_amount":0.9925929,"filter_drive":0.3518519,"filter_keytrack":0.4,"amp_a":0.107085966,"amp_d":0.3,"amp_s":0.7,"amp_r":6.0,"fenv_a":0.32788685,"fenv_d":0.52519363,"fenv_s":0.5280426,"fenv_r":0.57365376,"lfo_rate":2.0,"lfo_to_cutoff":0.0,"lfo_to_pitch":0.0,"master_volume":0.2777776,"master_drive":0.73544973,"glide":0.01587287,"mono":0.0,"chord_type":9.0,"arp_enabled":0.0,"arp_pattern":3.0,"arp_rate":6.305657,"arp_gate":0.5,"arp_octaves":1.0,"dist_enabled":1.0,"dist_type":0.0,"dist_drive":0.092592195,"dist_tone":0.10317451,"dist_mix":0.43650818,"comp_enabled":0.0,"comp_xover_low":50.0,"comp_xover_high":1000.0,"comp_threshold":-10.634918,"comp_ratio":4.9206343,"comp_attack":0.0143556865,"comp_release":0.030674135,"comp_gain_low":7.2380915,"comp_gain_mid":-3.3333497,"comp_gain_high":-8.880926,"comp_upward_ratio":0.0,"comp_upward_range":0.0}}
{"t":393842,"type":"note_on","id":2475,"ch":0,"note":48,"vel":0.85}
{"t":394378,"type":"note_off","id":2475,"ch":0,"note":48}
{"t":394512,"type":"patch_load","name":"DISCO_CONCERTING","patch":{"osc1_wave":0.0,"osc1_detune":0.0,"osc1_level":1.0,"osc2_wave":0.0,"osc2_detune":-11.481484,"osc2_level":1.0,"osc2_octave":0.0,"sub_level":0.0,"noise_level":0.0,"filter_cutoff":0.54444444,"filter_resonance":0.42592603,"filter_env_amount":0.0,"filter_drive":0.0,"filter_keytrack":0.0,"amp_a":0.005,"amp_d":0.2,"amp_s":0.8,"amp_r":0.2,"fenv_a":0.005,"fenv_d":0.2,"fenv_s":0.0,"fenv_r":0.2,"lfo_rate":2.0,"lfo_to_cutoff":0.0,"lfo_to_pitch":0.0,"master_volume":0.8185186,"master_drive":0.37777793,"glide":0.0,"mono":0.0,"chord_type":11.0,"arp_enabled":0.0,"arp_pattern":0.0,"arp_rate":0.0,"arp_gate":0.0,"arp_octaves":0.0,"dist_enabled":0.0,"dist_type":0.0,"dist_drive":0.0,"dist_tone":0.0,"dist_mix":0.0,"comp_enabled":1.0,"comp_xover_low":0.0,"comp_xover_high":0.0,"comp_threshold":-28.444448,"comp_ratio":20.0,"comp_attack":0.00016598494,"comp_release":0.047214307,"comp_gain_low":-12.0,"comp_gain_mid":9.333325,"comp_gain_high":24.0,"comp_upward_ratio":20.0,"comp_upward_range":0.0}}
{"t":394610,"type":"note_on","id":2476,"ch":0,"note":48,"vel":0.85}
{"t":395026,"type":"note_off","id":2476,"ch":0,"note":48}
{"t":395402,"type":"note_on","id":2477,"ch":0,"note":48,"vel":0.85}
{"t":395554,"type":"note_off","id":2477,"ch":0,"note":48}
{"t":395682,"type":"note_on","id":2478,"ch":0,"note":48,"vel":0.85}
{"t":395762,"type":"note_off","id":2478,"ch":0,"note":48}
{"t":395858,"type":"note_on","id":2479,"ch":0,"note":48,"vel":0.85}
{"t":395970,"type":"note_off","id":2479,"ch":0,"note":48}
{"t":396690,"type":"note_on","id":2480,"ch":0,"note":48,"vel":0.85}
{"t":396802,"type":"note_off","id":2480,"ch":0,"note":48}
{"t":397074,"type":"note_on","id":2481,"ch":0,"note":48,"vel":0.85}
{"t":397170,"type":"note_off","id":2481,"ch":0,"note":48}
{"t":397338,"type":"note_on","id":2482,"ch":0,"note":48,"vel":0.85}
{"t":397394,"type":"note_off","id":2482,"ch":0,"note":48}
{"t":397498,"type":"note_on","id":2483,"ch":0,"note":48,"vel":0.85}
{"t":397594,"type":"note_off","id":2483,"ch":0,"note":48}
{"t":397842,"type":"note_on","id":2484,"ch":0,"note":59,"vel":0.85}
{"t":397914,"type":"note_off","id":2484,"ch":0,"note":59}
{"t":398962,"type":"note_on","id":2485,"ch":0,"note":57,"vel":0.85}
{"t":399058,"type":"note_off","id":2485,"ch":0,"note":57}
{"t":400242,"type":"note_on","id":2486,"ch":0,"note":57,"vel":0.85}
{"t":400322,"type":"note_off","id":2486,"ch":0,"note":57}
{"t":401075,"type":"note_on","id":2487,"ch":0,"note":55,"vel":0.85}
{"t":401170,"type":"note_off","id":2487,"ch":0,"note":55}
{"t":401602,"type":"note_on","id":2488,"ch":0,"note":55,"vel":0.85}
{"t":401698,"type":"note_off","id":2488,"ch":0,"note":55}
{"t":405591,"type":"note_on","id":2489,"ch":0,"note":86,"vel":0.8}
{"t":405838,"type":"note_on","id":2490,"ch":0,"note":83,"vel":0.8}
{"t":405854,"type":"note_off","id":2489,"ch":0,"note":86}
{"t":406038,"type":"note_off","id":2490,"ch":0,"note":83}
{"t":406151,"type":"note_on","id":2491,"ch":0,"note":78,"vel":0.8}
{"t":406350,"type":"note_off","id":2491,"ch":0,"note":78}
{"t":408058,"type":"note_on","id":2492,"ch":0,"note":50,"vel":0.85}
{"t":408353,"type":"note_off","id":2492,"ch":0,"note":50}
{"t":408706,"type":"note_on","id":2493,"ch":0,"note":50,"vel":0.85}
{"t":408930,"type":"note_off","id":2493,"ch":0,"note":50}
{"t":463194,"type":"note_on","id":2494,"ch":0,"note":48,"vel":0.85}
{"t":463312,"type":"note_off","id":2494,"ch":0,"note":48}
{"t":463593,"type":"note_on","id":2495,"ch":0,"note":48,"vel":0.85}
{"t":463640,"type":"note_off","id":2495,"ch":0,"note":48}
{"t":463793,"type":"note_on","id":2496,"ch":0,"note":48,"vel":0.85}
{"t":463824,"type":"note_off","id":2496,"ch":0,"note":48}
{"t":463944,"type":"note_on","id":2497,"ch":0,"note":48,"vel":0.85}
{"t":463984,"type":"note_off","id":2497,"ch":0,"note":48}
{"t":464241,"type":"note_on","id":2498,"ch":0,"note":48,"vel":0.85}
{"t":464337,"type":"note_off","id":2498,"ch":0,"note":48}
{"t":465255,"type":"patch_load","name":"DRONE","patch":{"osc1_wave":0.0,"osc1_detune":-0.06348843,"osc1_level":1.0,"osc2_wave":0.0,"osc2_detune":-3.4391446,"osc2_level":0.0,"osc2_octave":-1.0,"sub_level":1.0,"noise_level":0.0,"filter_cutoff":0.33333313,"filter_resonance":0.7248677,"filter_env_amount":0.34391564,"filter_drive":0.46560857,"filter_keytrack":0.4,"amp_a":0.23081113,"amp_d":1.0262346,"amp_s":0.57037026,"amp_r":0.84832144,"fenv_a":0.0025689763,"fenv_d":1.505652,"fenv_s":0.3534395,"fenv_r":0.021347601,"lfo_rate":0.6215688,"lfo_to_cutoff":0.04761912,"lfo_to_pitch":0.3915346,"master_volume":0.9603173,"master_drive":0.73544973,"glide":0.01587287,"mono":0.0,"chord_type":0.0,"arp_enabled":0.0,"arp_pattern":0.0,"arp_rate":6.0382886,"arp_gate":0.540476,"arp_octaves":1.0,"dist_enabled":1.0,"dist_type":3.0,"dist_drive":1.0,"dist_tone":0.58201057,"dist_mix":1.0,"comp_enabled":0.0,"comp_xover_low":98.31535,"comp_xover_high":2496.376,"comp_threshold":-43.80954,"comp_ratio":20.0,"comp_attack":0.021462504,"comp_release":0.2748865,"comp_gain_low":20.09524,"comp_gain_mid":6.95238,"comp_gain_high":-11.714294,"comp_upward_ratio":0.0,"comp_upward_range":0.0}}
{"t":465745,"type":"note_on","id":2499,"ch":0,"note":48,"vel":0.85}
{"t":465840,"type":"note_off","id":2499,"ch":0,"note":48}
