{"t":0,"type":"session_start","v":1,"wall_unix":1779772416,"patch":{"osc1_wave":0.0,"osc1_detune":-9.0,"osc1_level":0.7,"osc2_wave":0.0,"osc2_detune":9.0,"osc2_level":0.7,"osc2_octave":0.0,"sub_level":0.8,"noise_level":0.0,"filter_cutoff":0.28,"filter_resonance":0.45,"filter_env_amount":0.55,"filter_drive":0.6,"filter_keytrack":0.25,"amp_a":0.002,"amp_d":0.4,"amp_s":0.55,"amp_r":0.15,"fenv_a":0.002,"fenv_d":0.18,"fenv_s":0.1,"fenv_r":0.15,"lfo_rate":2.0,"lfo_to_cutoff":0.0,"lfo_to_pitch":0.0,"master_volume":0.6,"master_drive":0.35,"glide":0.0,"mono":1.0,"chord_type":0.0,"arp_enabled":0.0,"arp_pattern":0.0,"arp_rate":6.0,"arp_gate":0.5,"arp_octaves":1.0,"dist_enabled":0.0,"dist_type":0.0,"dist_drive":0.3,"dist_tone":0.7,"dist_mix":1.0,"comp_enabled":0.0,"comp_xover_low":200.0,"comp_xover_high":2000.0,"comp_threshold":-18.0,"comp_ratio":4.0,"comp_attack":0.005,"comp_release":0.1,"comp_gain_low":0.0,"comp_gain_mid":0.0,"comp_gain_high":0.0,"comp_upward_ratio":1.0,"comp_upward_range":12.0}}
{"t":1375646,"type":"note_on","id":1,"ch":0,"note":48,"vel":0.85}
{"t":1376573,"type":"note_off","id":1,"ch":0,"note":48}
{"t":1376845,"type":"note_on","id":2,"ch":0,"note":48,"vel":0.85}
{"t":1377148,"type":"note_off","id":2,"ch":0,"note":48}
{"t":1377381,"type":"note_on","id":3,"ch":0,"note":48,"vel":0.85}
{"t":1377701,"type":"note_off","id":3,"ch":0,"note":48}
{"t":1379341,"type":"note_on","id":4,"ch":0,"note":48,"vel":0.85}
{"t":1379565,"type":"note_on","id":5,"ch":0,"note":50,"vel":0.85}
{"t":1379605,"type":"note_off","id":4,"ch":0,"note":48}
{"t":1379676,"type":"note_on","id":6,"ch":0,"note":52,"vel":0.85}
{"t":1379724,"type":"note_off","id":5,"ch":0,"note":50}
{"t":1379772,"type":"note_off","id":6,"ch":0,"note":52}
{"t":1379876,"type":"note_on","id":7,"ch":0,"note":48,"vel":0.85}
{"t":1379940,"type":"note_on","id":8,"ch":0,"note":50,"vel":0.85}
{"t":1380013,"type":"note_on","id":9,"ch":0,"note":52,"vel":0.85}
{"t":1380020,"type":"note_off","id":7,"ch":0,"note":48}
{"t":1380052,"type":"note_off","id":8,"ch":0,"note":50}
{"t":1380124,"type":"note_off","id":9,"ch":0,"note":52}
{"t":1380373,"type":"note_on","id":10,"ch":0,"note":53,"vel":0.85}
{"t":1380461,"type":"note_off","id":10,"ch":0,"note":53}
{"t":1380597,"type":"note_on","id":11,"ch":0,"note":53,"vel":0.85}
{"t":1380669,"type":"note_off","id":11,"ch":0,"note":53}
{"t":1380764,"type":"note_on","id":12,"ch":0,"note":53,"vel":0.85}
{"t":1380844,"type":"note_off","id":12,"ch":0,"note":53}
{"t":1380940,"type":"note_on","id":13,"ch":0,"note":53,"vel":0.85}
{"t":1381020,"type":"note_off","id":13,"ch":0,"note":53}
{"t":1381156,"type":"note_on","id":14,"ch":0,"note":53,"vel":0.85}
{"t":1381220,"type":"note_off","id":14,"ch":0,"note":53}
{"t":1381308,"type":"note_on","id":15,"ch":0,"note":53,"vel":0.85}
{"t":1381372,"type":"note_off","id":15,"ch":0,"note":53}
{"t":1381453,"type":"note_on","id":16,"ch":0,"note":53,"vel":0.85}
{"t":1381524,"type":"note_off","id":16,"ch":0,"note":53}
{"t":1381605,"type":"note_on","id":17,"ch":0,"note":53,"vel":0.85}
{"t":1381716,"type":"note_off","id":17,"ch":0,"note":53}
{"t":1381932,"type":"note_on","id":18,"ch":0,"note":48,"vel":0.85}
{"t":1382317,"type":"note_off","id":18,"ch":0,"note":48}
{"t":1382685,"type":"note_on","id":19,"ch":0,"note":48,"vel":0.85}
{"t":1382756,"type":"note_off","id":19,"ch":0,"note":48}
{"t":1382844,"type":"note_on","id":20,"ch":0,"note":48,"vel":0.85}
{"t":1382940,"type":"note_off","id":20,"ch":0,"note":48}
{"t":1383157,"type":"note_on","id":21,"ch":0,"note":48,"vel":0.85}
{"t":1383317,"type":"note_off","id":21,"ch":0,"note":48}
{"t":1383501,"type":"note_on","id":22,"ch":0,"note":48,"vel":0.85}
{"t":1383637,"type":"note_off","id":22,"ch":0,"note":48}
{"t":1383861,"type":"note_on","id":23,"ch":0,"note":48,"vel":0.85}
{"t":1384061,"type":"note_off","id":23,"ch":0,"note":48}
{"t":1384461,"type":"note_on","id":24,"ch":0,"note":48,"vel":0.85}
{"t":1384669,"type":"note_on","id":25,"ch":0,"note":53,"vel":0.85}
{"t":1384700,"type":"note_off","id":24,"ch":0,"note":48}
{"t":1384852,"type":"note_off","id":25,"ch":0,"note":53}
{"t":1384900,"type":"note_on","id":26,"ch":0,"note":55,"vel":0.85}
{"t":1385244,"type":"note_off","id":26,"ch":0,"note":55}
{"t":1385797,"type":"note_on","id":27,"ch":0,"note":48,"vel":0.85}
{"t":1385965,"type":"note_on","id":28,"ch":0,"note":52,"vel":0.85}
{"t":1386029,"type":"note_off","id":28,"ch":0,"note":52}
{"t":1386164,"type":"note_off","id":27,"ch":0,"note":48}
{"t":1386501,"type":"note_on","id":29,"ch":0,"note":48,"vel":0.85}
{"t":1386588,"type":"note_on","id":30,"ch":0,"note":50,"vel":0.85}
{"t":1386636,"type":"note_on","id":31,"ch":0,"note":52,"vel":0.85}
{"t":1386700,"type":"note_off","id":31,"ch":0,"note":52}
{"t":1386772,"type":"note_on","id":32,"ch":0,"note":52,"vel":0.85}
{"t":1386788,"type":"note_off","id":30,"ch":0,"note":50}
{"t":1386796,"type":"note_off","id":29,"ch":0,"note":48}
{"t":1386940,"type":"note_off","id":32,"ch":0,"note":52}
{"t":1387373,"type":"note_on","id":33,"ch":0,"note":48,"vel":0.85}
{"t":1387484,"type":"note_on","id":34,"ch":0,"note":53,"vel":0.85}
{"t":1387621,"type":"note_off","id":33,"ch":0,"note":48}
{"t":1387628,"type":"note_on","id":35,"ch":0,"note":55,"vel":0.85}
{"t":1387644,"type":"note_off","id":34,"ch":0,"note":53}
{"t":1387780,"type":"note_off","id":35,"ch":0,"note":55}
{"t":1387828,"type":"note_on","id":36,"ch":0,"note":53,"vel":0.85}
{"t":1387988,"type":"note_off","id":36,"ch":0,"note":53}
{"t":1388365,"type":"note_on","id":37,"ch":0,"note":48,"vel":0.85}
{"t":1388452,"type":"note_on","id":38,"ch":0,"note":53,"vel":0.85}
{"t":1388548,"type":"note_off","id":37,"ch":0,"note":48}
{"t":1388596,"type":"note_on","id":39,"ch":0,"note":55,"vel":0.85}
{"t":1388636,"type":"note_off","id":38,"ch":0,"note":53}
{"t":1388716,"type":"note_off","id":39,"ch":0,"note":55}
{"t":1388764,"type":"note_on","id":40,"ch":0,"note":53,"vel":0.85}
{"t":1389068,"type":"note_off","id":40,"ch":0,"note":53}
{"t":1389124,"type":"note_on","id":41,"ch":0,"note":48,"vel":0.85}
{"t":1389468,"type":"note_off","id":41,"ch":0,"note":48}
{"t":1389828,"type":"note_on","id":42,"ch":0,"note":48,"vel":0.85}
{"t":1390037,"type":"note_off","id":42,"ch":0,"note":48}
{"t":1390156,"type":"note_on","id":43,"ch":0,"note":48,"vel":0.85}
{"t":1390252,"type":"note_off","id":43,"ch":0,"note":48}
{"t":1390333,"type":"note_on","id":44,"ch":0,"note":48,"vel":0.85}
{"t":1390437,"type":"note_off","id":44,"ch":0,"note":48}
{"t":1390661,"type":"note_on","id":45,"ch":0,"note":48,"vel":0.85}
{"t":1390764,"type":"note_off","id":45,"ch":0,"note":48}
{"t":1411101,"type":"note_on","id":46,"ch":0,"note":55,"vel":0.85}
{"t":1411196,"type":"note_off","id":46,"ch":0,"note":55}
{"t":1411324,"type":"note_on","id":47,"ch":0,"note":55,"vel":0.85}
{"t":1411404,"type":"note_off","id":47,"ch":0,"note":55}
{"t":1411508,"type":"note_on","id":48,"ch":0,"note":55,"vel":0.85}
{"t":1411588,"type":"note_off","id":48,"ch":0,"note":55}
{"t":1411708,"type":"note_on","id":49,"ch":0,"note":55,"vel":0.85}
{"t":1411780,"type":"note_off","id":49,"ch":0,"note":55}
{"t":1412084,"type":"note_on","id":50,"ch":0,"note":55,"vel":0.85}
{"t":1412180,"type":"note_off","id":50,"ch":0,"note":55}
{"t":1412372,"type":"note_on","id":51,"ch":0,"note":55,"vel":0.85}
{"t":1412460,"type":"note_off","id":51,"ch":0,"note":55}
{"t":1412668,"type":"note_on","id":52,"ch":0,"note":55,"vel":0.85}
{"t":1412772,"type":"note_off","id":52,"ch":0,"note":55}
{"t":1413036,"type":"note_on","id":53,"ch":0,"note":55,"vel":0.85}
{"t":1413124,"type":"note_off","id":53,"ch":0,"note":55}
{"t":1413380,"type":"note_on","id":54,"ch":0,"note":48,"vel":0.85}
{"t":1413708,"type":"note_off","id":54,"ch":0,"note":48}
{"t":1413884,"type":"note_on","id":55,"ch":0,"note":48,"vel":0.85}
{"t":1413972,"type":"note_off","id":55,"ch":0,"note":48}
{"t":1414092,"type":"note_on","id":56,"ch":0,"note":48,"vel":0.85}
{"t":1414187,"type":"note_off","id":56,"ch":0,"note":48}
{"t":1414268,"type":"note_on","id":57,"ch":0,"note":48,"vel":0.85}
{"t":1414572,"type":"note_off","id":57,"ch":0,"note":48}
{"t":1414852,"type":"note_on","id":58,"ch":0,"note":48,"vel":0.85}
{"t":1415172,"type":"note_off","id":58,"ch":0,"note":48}
{"t":1415348,"type":"note_on","id":59,"ch":0,"note":52,"vel":0.85}
{"t":1415556,"type":"note_off","id":59,"ch":0,"note":52}
{"t":1415788,"type":"note_on","id":60,"ch":0,"note":48,"vel":0.85}
{"t":1416068,"type":"note_off","id":60,"ch":0,"note":48}
{"t":1416453,"type":"note_on","id":61,"ch":0,"note":48,"vel":0.85}
{"t":1416532,"type":"note_off","id":61,"ch":0,"note":48}
{"t":1416836,"type":"note_on","id":62,"ch":0,"note":48,"vel":0.85}
{"t":1417052,"type":"note_off","id":62,"ch":0,"note":48}
{"t":1417676,"type":"note_on","id":63,"ch":0,"note":52,"vel":0.85}
{"t":1417900,"type":"note_off","id":63,"ch":0,"note":52}
{"t":1418228,"type":"note_on","id":64,"ch":0,"note":50,"vel":0.85}
{"t":1418484,"type":"note_off","id":64,"ch":0,"note":50}
{"t":1418772,"type":"note_on","id":65,"ch":0,"note":48,"vel":0.85}
{"t":1418932,"type":"note_off","id":65,"ch":0,"note":48}
{"t":1419716,"type":"note_on","id":66,"ch":0,"note":48,"vel":0.85}
{"t":1419844,"type":"note_off","id":66,"ch":0,"note":48}
{"t":1419932,"type":"note_on","id":67,"ch":0,"note":53,"vel":0.85}
{"t":1420068,"type":"note_off","id":67,"ch":0,"note":53}
{"t":1420380,"type":"note_on","id":68,"ch":0,"note":48,"vel":0.85}
{"t":1420516,"type":"note_off","id":68,"ch":0,"note":48}
{"t":1468103,"type":"note_on","id":69,"ch":0,"note":85,"vel":0.8}
{"t":1468231,"type":"note_off","id":69,"ch":0,"note":85}
{"t":1468911,"type":"note_on","id":70,"ch":0,"note":84,"vel":0.8}
{"t":1469047,"type":"note_off","id":70,"ch":0,"note":84}
{"t":1476987,"type":"note_on","id":71,"ch":0,"note":48,"vel":0.85}
{"t":1477707,"type":"note_off","id":71,"ch":0,"note":48}
{"t":1477866,"type":"note_on","id":72,"ch":0,"note":50,"vel":0.85}
{"t":1478338,"type":"note_off","id":72,"ch":0,"note":50}
{"t":1479363,"type":"note_on","id":73,"ch":0,"note":52,"vel":0.85}
{"t":1480178,"type":"note_off","id":73,"ch":0,"note":52}
{"t":1480458,"type":"note_on","id":74,"ch":0,"note":55,"vel":0.85}
{"t":1480762,"type":"note_off","id":74,"ch":0,"note":55}
{"t":1480906,"type":"note_on","id":75,"ch":0,"note":57,"vel":0.85}
{"t":1481138,"type":"note_off","id":75,"ch":0,"note":57}
{"t":1481282,"type":"note_on","id":76,"ch":0,"note":48,"vel":0.85}
{"t":1481546,"type":"note_off","id":76,"ch":0,"note":48}
{"t":1481859,"type":"note_on","id":77,"ch":0,"note":48,"vel":0.85}
{"t":1481995,"type":"note_off","id":77,"ch":0,"note":48}
{"t":1482315,"type":"note_on","id":78,"ch":0,"note":48,"vel":0.85}
{"t":1482402,"type":"note_off","id":78,"ch":0,"note":48}
{"t":1482531,"type":"note_on","id":79,"ch":0,"note":48,"vel":0.85}
{"t":1482602,"type":"note_off","id":79,"ch":0,"note":48}
{"t":1482835,"type":"note_on","id":80,"ch":0,"note":48,"vel":0.85}
{"t":1482946,"type":"note_off","id":80,"ch":0,"note":48}
{"t":1483162,"type":"note_on","id":81,"ch":0,"note":48,"vel":0.85}
{"t":1483290,"type":"note_off","id":81,"ch":0,"note":48}
{"t":1484866,"type":"note_on","id":82,"ch":0,"note":48,"vel":0.85}
{"t":1485098,"type":"note_off","id":82,"ch":0,"note":48}
{"t":1485322,"type":"note_on","id":83,"ch":0,"note":48,"vel":0.85}
{"t":1485426,"type":"note_off","id":83,"ch":0,"note":48}
{"t":1485554,"type":"note_on","id":84,"ch":0,"note":48,"vel":0.85}
{"t":1485682,"type":"note_off","id":84,"ch":0,"note":48}
{"t":1504450,"type":"note_on","id":85,"ch":0,"note":48,"vel":0.85}
{"t":1504514,"type":"note_off","id":85,"ch":0,"note":48}
{"t":1504610,"type":"note_on","id":86,"ch":0,"note":48,"vel":0.85}
{"t":1504962,"type":"note_off","id":86,"ch":0,"note":48}
{"t":1505314,"type":"note_on","id":87,"ch":0,"note":48,"vel":0.85}
{"t":1505369,"type":"note_off","id":87,"ch":0,"note":48}
{"t":1505458,"type":"note_on","id":88,"ch":0,"note":48,"vel":0.85}
{"t":1505562,"type":"note_off","id":88,"ch":0,"note":48}
{"t":1505634,"type":"note_on","id":89,"ch":0,"note":48,"vel":0.85}
{"t":1505714,"type":"note_off","id":89,"ch":0,"note":48}
{"t":1505786,"type":"note_on","id":90,"ch":0,"note":48,"vel":0.85}
{"t":1505906,"type":"note_off","id":90,"ch":0,"note":48}
{"t":1506082,"type":"note_on","id":91,"ch":0,"note":48,"vel":0.85}
{"t":1506210,"type":"note_off","id":91,"ch":0,"note":48}
{"t":1506298,"type":"note_on","id":92,"ch":0,"note":48,"vel":0.85}
{"t":1506393,"type":"note_off","id":92,"ch":0,"note":48}
{"t":1506498,"type":"note_on","id":93,"ch":0,"note":48,"vel":0.85}
{"t":1506586,"type":"note_off","id":93,"ch":0,"note":48}
{"t":1506682,"type":"note_on","id":94,"ch":0,"note":48,"vel":0.85}
{"t":1506826,"type":"note_off","id":94,"ch":0,"note":48}
{"t":1521238,"type":"note_on","id":95,"ch":0,"note":67,"vel":0.8}
{"t":1521303,"type":"note_on","id":96,"ch":0,"note":75,"vel":0.8}
{"t":1521487,"type":"note_on","id":97,"ch":0,"note":71,"vel":0.8}
{"t":1522247,"type":"note_off","id":97,"ch":0,"note":71}
{"t":1522438,"type":"note_off","id":95,"ch":0,"note":67}
{"t":1522558,"type":"note_off","id":96,"ch":0,"note":75}
{"t":1525591,"type":"note_on","id":98,"ch":0,"note":67,"vel":0.8}
{"t":1525654,"type":"note_on","id":99,"ch":0,"note":75,"vel":0.8}
{"t":1525838,"type":"note_on","id":100,"ch":0,"note":71,"vel":0.8}
{"t":1526193,"type":"note_off","id":98,"ch":0,"note":67}
{"t":1526193,"type":"note_off","id":99,"ch":0,"note":75}
{"t":1526193,"type":"note_off","id":100,"ch":0,"note":71}
{"t":1552610,"type":"note_on","id":101,"ch":0,"note":67,"vel":0.8}
{"t":1552611,"type":"note_on","id":102,"ch":0,"note":75,"vel":0.8}
{"t":1552611,"type":"note_on","id":103,"ch":0,"note":71,"vel":0.8}
{"t":1553006,"type":"note_off","id":103,"ch":0,"note":71}
{"t":1553190,"type":"note_off","id":101,"ch":0,"note":67}
{"t":1553318,"type":"note_off","id":102,"ch":0,"note":75}
{"t":1555759,"type":"note_on","id":104,"ch":0,"note":99,"vel":0.8}
{"t":1555823,"type":"note_on","id":105,"ch":0,"note":101,"vel":0.8}
{"t":1555895,"type":"note_off","id":105,"ch":0,"note":101}
{"t":1556263,"type":"note_on","id":106,"ch":0,"note":67,"vel":0.8}
{"t":1556326,"type":"note_on","id":107,"ch":0,"note":75,"vel":0.8}
{"t":1556510,"type":"note_on","id":108,"ch":0,"note":71,"vel":0.8}
{"t":1556582,"type":"note_off","id":104,"ch":0,"note":99}
{"t":1557270,"type":"note_off","id":108,"ch":0,"note":71}
{"t":1557462,"type":"note_off","id":106,"ch":0,"note":67}
{"t":1557582,"type":"note_off","id":107,"ch":0,"note":75}
{"t":1559655,"type":"note_on","id":109,"ch":0,"note":87,"vel":0.8}
{"t":1559727,"type":"note_off","id":109,"ch":0,"note":87}
{"t":1559838,"type":"note_on","id":110,"ch":0,"note":99,"vel":0.8}
{"t":1559902,"type":"note_on","id":111,"ch":0,"note":101,"vel":0.8}
{"t":1559976,"type":"note_off","id":111,"ch":0,"note":101}
{"t":1560342,"type":"note_on","id":112,"ch":0,"note":67,"vel":0.8}
{"t":1560406,"type":"note_on","id":113,"ch":0,"note":75,"vel":0.8}
{"t":1560590,"type":"note_on","id":114,"ch":0,"note":71,"vel":0.8}
{"t":1560663,"type":"note_off","id":110,"ch":0,"note":99}
{"t":1561351,"type":"note_off","id":114,"ch":0,"note":71}
{"t":1561543,"type":"note_off","id":112,"ch":0,"note":67}
{"t":1561662,"type":"note_off","id":113,"ch":0,"note":75}
{"t":2263790,"type":"note_on","id":115,"ch":0,"note":98,"vel":0.8}
{"t":2264239,"type":"note_on","id":116,"ch":0,"note":87,"vel":0.8}
{"t":2264311,"type":"note_off","id":116,"ch":0,"note":87}
{"t":2264337,"type":"note_off","id":115,"ch":0,"note":98}
{"t":2264839,"type":"note_on","id":117,"ch":0,"note":98,"vel":0.8}
{"t":2264918,"type":"note_on","id":118,"ch":0,"note":99,"vel":0.8}
{"t":2264982,"type":"note_on","id":119,"ch":0,"note":101,"vel":0.8}
{"t":2265055,"type":"note_off","id":119,"ch":0,"note":101}
{"t":2265105,"type":"note_off","id":117,"ch":0,"note":98}
{"t":2265105,"type":"note_off","id":118,"ch":0,"note":99}
{"t":2265760,"type":"note_on","id":120,"ch":0,"note":98,"vel":0.8}
{"t":2266511,"type":"note_on","id":121,"ch":0,"note":87,"vel":0.8}
{"t":2266582,"type":"note_off","id":121,"ch":0,"note":87}
{"t":2266702,"type":"note_on","id":122,"ch":0,"note":99,"vel":0.8}
{"t":2266759,"type":"note_on","id":123,"ch":0,"note":101,"vel":0.8}
{"t":2266838,"type":"note_off","id":123,"ch":0,"note":101}
{"t":2267198,"type":"note_on","id":124,"ch":0,"note":67,"vel":0.8}
{"t":2267262,"type":"note_on","id":125,"ch":0,"note":75,"vel":0.8}
{"t":2267446,"type":"note_on","id":126,"ch":0,"note":71,"vel":0.8}
{"t":2267519,"type":"note_off","id":122,"ch":0,"note":99}
{"t":2267638,"type":"note_on","id":127,"ch":0,"note":97,"vel":0.8}
{"t":2267670,"type":"note_off","id":127,"ch":0,"note":97}
{"t":2268207,"type":"note_off","id":126,"ch":0,"note":71}
{"t":2268398,"type":"note_off","id":120,"ch":0,"note":98}
{"t":2268398,"type":"note_off","id":124,"ch":0,"note":67}
{"t":2268527,"type":"note_off","id":125,"ch":0,"note":75}
{"t":2277982,"type":"note_on","id":128,"ch":0,"note":99,"vel":0.8}
{"t":2278054,"type":"note_off","id":128,"ch":0,"note":99}
{"t":2278238,"type":"note_on","id":129,"ch":0,"note":94,"vel":0.8}
{"t":2278294,"type":"note_on","id":130,"ch":0,"note":99,"vel":0.8}
{"t":2278366,"type":"note_off","id":130,"ch":0,"note":99}
{"t":2278422,"type":"note_on","id":131,"ch":0,"note":98,"vel":0.8}
{"t":2278559,"type":"note_off","id":131,"ch":0,"note":98}
{"t":2278606,"type":"note_on","id":132,"ch":0,"note":100,"vel":0.8}
{"t":2278735,"type":"note_on","id":133,"ch":0,"note":82,"vel":0.8}
{"t":2278742,"type":"note_off","id":132,"ch":0,"note":100}
{"t":2278799,"type":"note_on","id":134,"ch":0,"note":86,"vel":0.8}
{"t":2278991,"type":"note_off","id":134,"ch":0,"note":86}
{"t":2279174,"type":"note_on","id":135,"ch":0,"note":52,"vel":0.8}
{"t":2279182,"type":"note_off","id":133,"ch":0,"note":82}
{"t":2279231,"type":"note_on","id":136,"ch":0,"note":70,"vel":0.8}
{"t":2279366,"type":"note_off","id":129,"ch":0,"note":94}
{"t":2279494,"type":"note_off","id":136,"ch":0,"note":70}
{"t":2279558,"type":"note_off","id":135,"ch":0,"note":52}
{"t":2281766,"type":"note_on","id":137,"ch":0,"note":100,"vel":0.8}
{"t":2281902,"type":"note_off","id":137,"ch":0,"note":100}
{"t":2282263,"type":"note_on","id":138,"ch":0,"note":98,"vel":0.8}
{"t":2283015,"type":"note_on","id":139,"ch":0,"note":87,"vel":0.8}
{"t":2283086,"type":"note_off","id":139,"ch":0,"note":87}
{"t":2283199,"type":"note_on","id":140,"ch":0,"note":99,"vel":0.8}
{"t":2283262,"type":"note_on","id":141,"ch":0,"note":101,"vel":0.8}
{"t":2283335,"type":"note_off","id":141,"ch":0,"note":101}
{"t":2283702,"type":"note_on","id":142,"ch":0,"note":67,"vel":0.8}
{"t":2283766,"type":"note_on","id":143,"ch":0,"note":75,"vel":0.8}
{"t":2283951,"type":"note_on","id":144,"ch":0,"note":71,"vel":0.8}
{"t":2284022,"type":"note_off","id":140,"ch":0,"note":99}
{"t":2284143,"type":"note_on","id":145,"ch":0,"note":97,"vel":0.8}
{"t":2284166,"type":"note_off","id":145,"ch":0,"note":97}
{"t":2284710,"type":"note_off","id":144,"ch":0,"note":71}
{"t":2284712,"type":"note_off","id":138,"ch":0,"note":98}
{"t":2284713,"type":"note_off","id":142,"ch":0,"note":67}
{"t":2284713,"type":"note_off","id":143,"ch":0,"note":75}
{"t":2285447,"type":"note_on","id":146,"ch":0,"note":99,"vel":0.8}
{"t":2285448,"type":"note_on","id":147,"ch":0,"note":98,"vel":0.8}
{"t":2285606,"type":"note_on","id":148,"ch":0,"note":67,"vel":0.8}
{"t":2285670,"type":"note_on","id":149,"ch":0,"note":75,"vel":0.8}
{"t":2285855,"type":"note_on","id":150,"ch":0,"note":71,"vel":0.8}
{"t":2285927,"type":"note_off","id":146,"ch":0,"note":99}
{"t":2286047,"type":"note_on","id":151,"ch":0,"note":97,"vel":0.8}
{"t":2286078,"type":"note_off","id":151,"ch":0,"note":97}
{"t":2286457,"type":"note_off","id":147,"ch":0,"note":98}
{"t":2286457,"type":"note_off","id":148,"ch":0,"note":67}
{"t":2286457,"type":"note_off","id":149,"ch":0,"note":75}
{"t":2286457,"type":"note_off","id":150,"ch":0,"note":71}
{"t":2287134,"type":"note_on","id":152,"ch":0,"note":99,"vel":0.8}
{"t":2287134,"type":"note_on","id":153,"ch":0,"note":98,"vel":0.8}
{"t":2287295,"type":"note_on","id":154,"ch":0,"note":67,"vel":0.8}
{"t":2287350,"type":"note_on","id":155,"ch":0,"note":75,"vel":0.8}
{"t":2287543,"type":"note_on","id":156,"ch":0,"note":71,"vel":0.8}
{"t":2287614,"type":"note_off","id":152,"ch":0,"note":99}
{"t":2287726,"type":"note_on","id":157,"ch":0,"note":97,"vel":0.8}
{"t":2287758,"type":"note_off","id":157,"ch":0,"note":97}
{"t":2288303,"type":"note_off","id":156,"ch":0,"note":71}
{"t":2288487,"type":"note_off","id":153,"ch":0,"note":98}
{"t":2288487,"type":"note_off","id":154,"ch":0,"note":67}
{"t":2288504,"type":"note_off","id":155,"ch":0,"note":75}
{"t":2345984,"type":"note_on","id":158,"ch":0,"note":99,"vel":0.8}
{"t":2345985,"type":"note_on","id":159,"ch":0,"note":98,"vel":0.8}
{"t":2346006,"type":"note_on","id":160,"ch":0,"note":67,"vel":0.8}
{"t":2346006,"type":"note_on","id":161,"ch":0,"note":75,"vel":0.8}
{"t":2346199,"type":"note_on","id":162,"ch":0,"note":71,"vel":0.8}
{"t":2346270,"type":"note_off","id":158,"ch":0,"note":99}
{"t":2346383,"type":"note_on","id":163,"ch":0,"note":97,"vel":0.8}
{"t":2346415,"type":"note_off","id":163,"ch":0,"note":97}
{"t":2346743,"type":"note_off","id":159,"ch":0,"note":98}
{"t":2346743,"type":"note_off","id":160,"ch":0,"note":67}
{"t":2346744,"type":"note_off","id":161,"ch":0,"note":75}
{"t":2346744,"type":"note_off","id":162,"ch":0,"note":71}
{"t":2349302,"type":"note_on","id":164,"ch":0,"note":67,"vel":0.8}
{"t":2349302,"type":"note_on","id":165,"ch":0,"note":75,"vel":0.8}
{"t":2349302,"type":"note_on","id":166,"ch":0,"note":71,"vel":0.8}
{"t":2349302,"type":"note_on","id":167,"ch":0,"note":98,"vel":0.8}
{"t":2349511,"type":"note_off","id":166,"ch":0,"note":71}
{"t":2349695,"type":"note_off","id":167,"ch":0,"note":98}
{"t":2349823,"type":"note_off","id":164,"ch":0,"note":67}
{"t":2349823,"type":"note_off","id":165,"ch":0,"note":75}
{"t":2350247,"type":"note_on","id":168,"ch":0,"note":99,"vel":0.8}
{"t":2350318,"type":"note_off","id":168,"ch":0,"note":99}
{"t":2352430,"type":"note_on","id":169,"ch":0,"note":99,"vel":0.8}
{"t":2352430,"type":"note_on","id":170,"ch":0,"note":98,"vel":0.8}
{"t":2352654,"type":"note_on","id":171,"ch":0,"note":75,"vel":0.8}
{"t":2352718,"type":"note_on","id":172,"ch":0,"note":67,"vel":0.8}
{"t":2352838,"type":"note_on","id":173,"ch":0,"note":71,"vel":0.8}
{"t":2352911,"type":"note_off","id":169,"ch":0,"note":99}
{"t":2353031,"type":"note_on","id":174,"ch":0,"note":97,"vel":0.8}
{"t":2353055,"type":"note_off","id":174,"ch":0,"note":97}
{"t":2353439,"type":"note_off","id":170,"ch":0,"note":98}
{"t":2353439,"type":"note_off","id":171,"ch":0,"note":75}
{"t":2353440,"type":"note_off","id":172,"ch":0,"note":67}
{"t":2353440,"type":"note_off","id":173,"ch":0,"note":71}
{"t":2355030,"type":"note_on","id":175,"ch":0,"note":98,"vel":0.8}
{"t":2355063,"type":"note_on","id":176,"ch":0,"note":87,"vel":0.8}
{"t":2355135,"type":"note_off","id":176,"ch":0,"note":87}
{"t":2355246,"type":"note_on","id":177,"ch":0,"note":99,"vel":0.8}
{"t":2355310,"type":"note_on","id":178,"ch":0,"note":101,"vel":0.8}
{"t":2355383,"type":"note_off","id":178,"ch":0,"note":101}
{"t":2355438,"type":"note_on","id":179,"ch":0,"note":68,"vel":0.8}
{"t":2355575,"type":"note_off","id":179,"ch":0,"note":68}
{"t":2355815,"type":"note_on","id":180,"ch":0,"note":75,"vel":0.8}
{"t":2355878,"type":"note_on","id":181,"ch":0,"note":67,"vel":0.8}
{"t":2355998,"type":"note_on","id":182,"ch":0,"note":71,"vel":0.8}
{"t":2356070,"type":"note_off","id":177,"ch":0,"note":99}
{"t":2356191,"type":"note_on","id":183,"ch":0,"note":97,"vel":0.8}
{"t":2356215,"type":"note_off","id":183,"ch":0,"note":97}
{"t":2356759,"type":"note_off","id":182,"ch":0,"note":71}
{"t":2356951,"type":"note_off","id":175,"ch":0,"note":98}
{"t":2357070,"type":"note_off","id":180,"ch":0,"note":75}
{"t":2357071,"type":"note_off","id":181,"ch":0,"note":67}
{"t":2357502,"type":"note_on","id":184,"ch":0,"note":99,"vel":0.8}
{"t":2357574,"type":"note_off","id":184,"ch":0,"note":99}
{"t":2357751,"type":"note_on","id":185,"ch":0,"note":94,"vel":0.8}
{"t":2357814,"type":"note_on","id":186,"ch":0,"note":99,"vel":0.8}
{"t":2357886,"type":"note_off","id":186,"ch":0,"note":99}
{"t":2357935,"type":"note_on","id":187,"ch":0,"note":98,"vel":0.8}
{"t":2358071,"type":"note_off","id":187,"ch":0,"note":98}
{"t":2358126,"type":"note_on","id":188,"ch":0,"note":100,"vel":0.8}
{"t":2358247,"type":"note_on","id":189,"ch":0,"note":82,"vel":0.8}
{"t":2358262,"type":"note_off","id":188,"ch":0,"note":100}
{"t":2358310,"type":"note_on","id":190,"ch":0,"note":86,"vel":0.8}
{"t":2358511,"type":"note_off","id":190,"ch":0,"note":86}
{"t":2358687,"type":"note_on","id":191,"ch":0,"note":52,"vel":0.8}
{"t":2358694,"type":"note_off","id":189,"ch":0,"note":82}
{"t":2358751,"type":"note_on","id":192,"ch":0,"note":70,"vel":0.8}
{"t":2358887,"type":"note_off","id":185,"ch":0,"note":94}
{"t":2359006,"type":"note_off","id":192,"ch":0,"note":70}
{"t":2359070,"type":"note_off","id":191,"ch":0,"note":52}
